<svg width="61" height="61" viewBox="0 0 61 61" fill="none" xmlns="http://www.w3.org/2000/svg">
<path d="M58.903 48.5311C58.903 49.5569 58.6751 50.6112 58.1907 51.637C57.7063 52.6628 57.0794 53.6316 56.2531 54.5434C54.8569 56.0821 53.3182 57.1934 51.58 57.9058C49.8704 58.6181 48.0182 58.9885 46.0236 58.9885C43.1172 58.9885 40.0113 58.3047 36.7345 56.9085C33.4577 55.5122 30.1808 53.6316 26.9325 51.2666C23.6556 48.8731 20.5498 46.2231 17.5864 43.2882C14.6515 40.3248 12.0015 37.2189 9.63646 33.9706C7.29993 30.7222 5.41931 27.4739 4.05159 24.254C2.68386 21.0057 2 17.8998 2 14.9364C2 12.9988 2.34193 11.1467 3.02579 9.437C3.70966 7.69885 4.79244 6.10317 6.30263 4.67846C8.12627 2.88332 10.1209 2 12.2294 2C13.0273 2 13.8251 2.17097 14.5375 2.5129C15.2783 2.85483 15.9337 3.36772 16.4466 4.10858L23.0573 13.4262C23.5702 14.1386 23.9406 14.7939 24.197 15.4208C24.4535 16.0192 24.596 16.6176 24.596 17.1589C24.596 17.8428 24.3965 18.5267 23.9976 19.182C23.6271 19.8374 23.0858 20.5213 22.4019 21.2051L20.2363 23.4562C19.9229 23.7696 19.7804 24.14 19.7804 24.596C19.7804 24.8239 19.8089 25.0234 19.8659 25.2513C19.9514 25.4793 20.0369 25.6502 20.0939 25.8212C20.6068 26.7615 21.4901 27.9868 22.7438 29.4685C24.0261 30.9502 25.3938 32.4604 26.8755 33.9706C28.4142 35.4808 29.8959 36.877 31.4061 38.1592C32.8878 39.413 34.113 40.2678 35.0818 40.7807C35.2243 40.8377 35.3953 40.9232 35.5947 41.0086C35.8227 41.0941 36.0506 41.1226 36.3071 41.1226C36.7915 41.1226 37.1619 40.9517 37.4754 40.6382L39.6409 38.5012C40.3533 37.7888 41.0371 37.2474 41.6925 36.9055C42.3479 36.5066 43.0032 36.3071 43.7156 36.3071C44.257 36.3071 44.8269 36.4211 45.4538 36.6775C46.0806 36.934 46.736 37.3044 47.4484 37.7888L56.88 44.4849C57.6208 44.9978 58.1337 45.5962 58.4471 46.3086C58.7321 47.0209 58.903 47.7333 58.903 48.5311Z" stroke="#003D7C" stroke-width="3.86363" stroke-miterlimit="10"/>
</svg>
