<svg width="63" height="63" viewBox="0 0 63 63" fill="none" xmlns="http://www.w3.org/2000/svg">
<path d="M5.43463 12.0736C7.53463 2.99109 21.2109 2.99109 23.2846 12.0736C24.5184 17.4023 21.1321 21.9173 18.1921 24.7261C16.0396 26.7736 12.6534 26.7473 10.5009 24.7261C7.58713 21.9173 4.20088 17.4023 5.43463 12.0736Z" stroke="#FFC283" stroke-width="3.9375"/>
<path d="M39.5595 43.5736C41.6595 34.4911 55.4145 34.4911 57.5145 43.5736C58.7482 48.9023 55.362 53.4173 52.3957 56.2261C50.2432 58.2736 46.8307 58.2473 44.6782 56.2261C41.712 53.4173 38.3257 48.9023 39.5595 43.5736Z" stroke="#FFC283" stroke-width="3.9375"/>
<path d="M31.499 13.125H38.534C43.3902 13.125 45.6477 19.1363 41.999 22.3388L21.0252 40.6875C17.3765 43.8638 19.634 49.875 24.464 49.875H31.499" stroke="#FFC283" stroke-width="3.9375" stroke-linecap="round" stroke-linejoin="round"/>
<path d="M14.3964 14.4375H14.4267" stroke="#FFC283" stroke-width="5.25" stroke-linecap="round" stroke-linejoin="round"/>
<path d="M48.5214 45.9375H48.5517" stroke="#FFC283" stroke-width="5.25" stroke-linecap="round" stroke-linejoin="round"/>
</svg>
