<svg width="272" height="59" viewBox="0 0 272 59" fill="none" xmlns="http://www.w3.org/2000/svg">
<path d="M268.168 39.3822L271.703 42.8581C268.993 45.0575 265.89 46.1572 262.395 46.1572C258.035 46.1572 254.54 44.7629 251.908 41.9744C249.277 39.1466 247.961 35.6314 247.961 31.4289C247.961 27.305 249.336 23.8292 252.085 21.0013C254.873 18.1342 258.31 16.7007 262.395 16.7007C265.89 16.7007 268.993 17.8004 271.703 19.9998L268.227 23.5346C266.577 22.2778 264.633 21.6494 262.395 21.6494C259.685 21.6494 257.524 22.5527 255.914 24.3594C254.343 26.1268 253.558 28.4833 253.558 31.4289C253.558 34.3746 254.343 36.7508 255.914 38.5574C257.524 40.3248 259.685 41.2085 262.395 41.2085C264.673 41.2085 266.597 40.5997 268.168 39.3822Z" fill="#003D7C"/>
<path d="M221.838 17.2896H232.03C236.389 17.2896 239.512 17.9376 241.397 19.2337C243.086 20.3727 244.146 21.7473 244.578 23.3576C245.05 24.9286 245.285 27.0102 245.285 29.6024V45.5678H240.101V29.6613C240.101 28.9543 240.081 28.3652 240.042 27.8939C240.003 27.3833 239.865 26.7549 239.63 26.0087C239.394 25.2232 239.06 24.5948 238.628 24.1235C238.196 23.6129 237.568 23.1809 236.743 22.8274C235.918 22.4346 234.917 22.2382 233.738 22.2382H227.022V45.5678H221.838V17.2896Z" fill="#003D7C"/>
<path d="M194.852 17.2896H200.036V32.0767C200.036 35.258 200.527 37.4771 201.509 38.7339C202.491 39.9907 204.297 40.6191 206.929 40.6191H213.115V17.2896H218.299V44.1539C218.299 49.0633 217.003 52.7552 214.411 55.2295C211.858 57.7432 207.832 59 202.334 59H198.092V54.0513H201.803C208.991 54.0513 212.761 51.2235 213.115 45.5678H208.166C203.021 45.5678 199.506 44.6645 197.62 42.8578C195.775 41.0511 194.852 37.3789 194.852 31.8411V17.2896Z" fill="#003D7C"/>
<path d="M192.19 17.2896V22.2382H181.762C180.623 22.2382 179.641 22.4543 178.817 22.8863C177.992 23.3183 177.58 23.9271 177.58 24.7126C177.58 25.1839 177.678 25.6159 177.874 26.0087C178.07 26.3622 178.286 26.6567 178.522 26.8924C178.797 27.128 179.19 27.3833 179.7 27.6582C180.25 27.8939 180.663 28.0706 180.938 28.1885C181.252 28.267 182.509 28.6598 184.708 29.3667C186.907 30.0737 188.537 30.6628 189.598 31.1341C190.658 31.6054 191.463 32.2535 192.013 33.0782C192.602 33.8638 192.975 34.6493 193.133 35.4348C193.29 36.181 193.368 36.9272 193.368 37.6735C193.368 42.9364 189.755 45.5678 182.528 45.5678H172.336V40.6191H182.528C186.22 40.6191 188.066 39.6372 188.066 37.6735C188.066 36.7309 187.516 35.9454 186.416 35.3169C185.356 34.6885 184.04 34.1583 182.469 33.7263C180.938 33.2943 179.386 32.8033 177.815 32.2535C176.283 31.6643 174.968 30.7414 173.868 29.4846C172.808 28.1885 172.277 26.5978 172.277 24.7126C172.277 22.3168 173.2 20.4905 175.046 19.2337C176.892 17.9376 179.131 17.2896 181.762 17.2896H192.19Z" fill="#003D7C"/>
<path d="M162.209 28.9543V34.2565C160.717 33.1175 158.89 32.548 156.73 32.548C154.884 32.548 153.451 32.9211 152.43 33.6674C151.408 34.3743 150.898 35.3955 150.898 36.7309C150.898 39.323 152.822 40.6191 156.671 40.6191H164.448V29.3667C164.448 24.6144 162.131 22.2382 157.496 22.2382H148.07V17.2896H157.791C161.6 17.2896 164.526 18.2322 166.569 20.1174C168.611 22.0026 169.632 24.7126 169.632 28.2474V45.5678H156.495C153.156 45.5678 150.505 44.8216 148.541 43.3291C146.578 41.8367 145.596 39.6569 145.596 36.7898C145.596 33.9227 146.636 31.7429 148.718 30.2504C150.8 28.758 153.411 28.0117 156.554 28.0117C158.321 28.0117 160.206 28.3259 162.209 28.9543Z" fill="#003D7C"/>
<path d="M125.898 22.2383L136.444 11.6929V17.2896H144.397V22.2383H136.444V34.3744C136.444 35.749 136.66 36.888 137.092 37.7914C137.563 38.6947 138.231 39.3427 139.095 39.7355C139.959 40.089 140.764 40.3246 141.51 40.4424C142.296 40.5603 143.258 40.6192 144.397 40.6192V45.5679C139.88 45.5679 136.542 44.7038 134.382 42.9757C132.222 41.2476 131.142 38.3805 131.142 34.3744V22.2383H125.898Z" fill="#003D7C"/>
<path d="M118.479 28.9543V34.2565C116.986 33.1175 115.16 32.548 113 32.548C111.154 32.548 109.72 32.9211 108.699 33.6674C107.678 34.3743 107.167 35.3955 107.167 36.7309C107.167 39.323 109.092 40.6191 112.941 40.6191H120.717V29.3667C120.717 24.6144 118.4 22.2382 113.766 22.2382H104.34V17.2896H114.06C117.87 17.2896 120.796 18.2322 122.838 20.1174C124.881 22.0026 125.902 24.7126 125.902 28.2474V45.5678H112.764C109.426 45.5678 106.775 44.8216 104.811 43.3291C102.847 41.8367 101.865 39.6569 101.865 36.7898C101.865 33.9227 102.906 31.7429 104.988 30.2504C107.069 28.758 109.681 28.0117 112.823 28.0117C114.59 28.0117 116.476 28.3259 118.479 28.9543Z" fill="#003D7C"/>
<path d="M93.9136 4.32861H99.2158V45.5677H85.3712C81.0902 45.5677 77.6143 44.2127 74.9436 41.5027C72.2729 38.7535 70.9375 35.2972 70.9375 31.134C70.9375 27.0494 72.3121 23.6325 75.0614 20.8832C77.85 18.0946 81.1491 16.7004 84.9588 16.7004C87.3939 16.7004 89.6718 17.2895 91.7927 18.4677V23.7699C89.8289 22.356 87.551 21.649 84.9588 21.649C82.6023 21.649 80.5992 22.5327 78.9497 24.3001C77.3394 26.0282 76.5342 28.3062 76.5342 31.134C76.5342 34.0012 77.3001 36.2988 78.8318 38.0269C80.4029 39.755 82.5826 40.619 85.3712 40.619H93.9136V4.32861Z" fill="#003D7C"/>
<path d="M13.1782 20.362C12.2297 19.4135 12.2297 17.8699 13.1782 16.9214C14.1268 15.9728 15.6703 15.9728 16.6189 16.9214C17.5674 17.8699 17.5674 19.4135 16.6189 20.362C15.6703 21.3106 14.1268 21.3106 13.1782 20.362Z" fill="#003D7C"/>
<path d="M17.772 45.49C16.8234 44.5414 16.8234 42.9979 17.772 42.0493C18.7205 41.1008 20.2641 41.1008 21.2126 42.0493C22.1612 42.9979 22.1612 44.5414 21.2126 45.49C20.2641 46.4385 18.7205 46.4385 17.772 45.49Z" fill="#003D7C"/>
<path d="M49.9446 24.8703C49.9446 24.8703 51.53 19.3964 52.2354 14.5697C52.6981 11.3874 52.1064 9.08825 49.3151 6.8576C46.5237 4.62696 40.8195 5.77654 37.8992 7.42859C34.9788 9.08063 13.7324 19.7771 13.7324 19.7771C13.7324 19.7771 30.2835 5.70802 36.3139 2.33541C42.3442 -1.03721 48.109 -0.52713 52.3568 2.39631C56.6045 5.32736 58.1898 11.1133 56.8624 17.5464C55.5274 23.9719 54.0103 29.5143 54.0103 29.5143L49.9522 24.8703H49.9446Z" fill="#003D7C"/>
<path d="M25.084 7.81655C25.084 7.81655 19.6302 6.22541 14.8211 5.51739C11.6505 5.05299 9.35971 5.64681 7.13722 8.44844C4.91473 11.2501 6.06011 16.9751 7.70612 19.9062C9.35213 22.8372 20.0095 44.1616 20.0095 44.1616C20.0095 44.1616 5.99184 27.5498 2.63156 21.4973C-0.72873 15.4525 -0.220515 9.65893 2.69224 5.39558C5.61258 1.13223 11.385 -0.458916 17.787 0.880994C24.189 2.2209 29.7111 3.74353 29.7111 3.74353L25.084 7.81655Z" fill="#003D7C"/>
<path d="M7.67919 32.9552C7.67919 32.9552 6.09387 38.4291 5.38843 43.2634C4.92573 46.4457 5.51739 48.7449 8.30877 50.9755C11.1002 53.2062 16.8043 52.0566 19.7246 50.4045C22.645 48.7525 43.8914 38.056 43.8914 38.056C43.8914 38.056 27.3403 52.1251 21.31 55.4977C15.2872 58.8703 9.51484 58.3602 5.26707 55.4368C1.0193 52.5057 -0.566023 46.7198 0.761404 40.2867C2.09642 33.8612 3.61348 28.3188 3.61348 28.3188L7.67161 32.9629L7.67919 32.9552Z" fill="#003D7C"/>
<path d="M32.5391 50.0013C32.5391 50.0013 37.993 51.5924 42.802 52.3005C45.9727 52.7649 48.2635 52.171 50.4859 49.3694C52.7084 46.5678 51.5631 40.8427 49.9171 37.9117C48.271 34.9806 37.6137 13.6562 37.6137 13.6562C37.6137 13.6562 51.6313 30.2681 54.9916 36.3205C58.3519 42.3653 57.8437 48.1589 54.9309 52.4223C52.0106 56.6856 46.2458 58.2768 39.8362 56.9445C33.4342 55.6046 27.9121 54.0819 27.9121 54.0819L32.5391 50.0089V50.0013Z" fill="#003D7C"/>
<path d="M36.145 16.0388C35.1965 15.0903 35.1965 13.5467 36.145 12.5981C37.0936 11.6496 38.6371 11.6496 39.5857 12.5981C40.5342 13.5467 40.5342 15.0903 39.5857 16.0388C38.6371 16.9874 37.0936 16.9874 36.145 16.0388Z" fill="#003D7C"/>
<path d="M41.0063 40.6262C40.0578 39.6777 40.0578 38.1341 41.0063 37.1855C41.9549 36.237 43.4985 36.237 44.447 37.1855C45.3956 38.1341 45.3956 39.6777 44.447 40.6262C43.4985 41.5748 41.9549 41.5748 41.0063 40.6262Z" fill="#003D7C"/>
<path d="M28.7518 32.6568C30.8573 32.6568 32.5642 30.9496 32.5642 28.8438C32.5642 26.7379 30.8573 25.0308 28.7518 25.0308C26.6463 25.0308 24.9395 26.7379 24.9395 28.8438C24.9395 30.9496 26.6463 32.6568 28.7518 32.6568Z" fill="#FFC283"/>
</svg>
