<svg width="39" height="37" viewBox="0 0 39 37" fill="none" xmlns="http://www.w3.org/2000/svg">
<path d="M3.74827 24.7859C3.65468 24.7703 3.5533 24.7625 3.44411 24.7625C3.03855 24.7625 2.76335 24.9352 2.61851 25.2806V27.8476H2.00015V24.231H2.6018L2.61183 24.6488C2.8146 24.3257 3.10206 24.1642 3.47419 24.1642C3.59452 24.1642 3.68588 24.1798 3.74827 24.211V24.7859Z" fill="#0B0C10"/>
<path d="M5.75377 27.9144C5.26354 27.9144 4.86467 27.754 4.55716 27.4331C4.24965 27.11 4.09589 26.6788 4.09589 26.1396V26.0259C4.09589 25.6672 4.16386 25.3474 4.29979 25.0666C4.43794 24.7836 4.62958 24.563 4.8747 24.4048C5.12204 24.2444 5.38944 24.1642 5.67689 24.1642C6.14707 24.1642 6.51252 24.319 6.77323 24.6288C7.03395 24.9385 7.16431 25.3819 7.16431 25.9591V26.2164H4.71426C4.72317 26.573 4.82679 26.8616 5.02511 27.0822C5.22566 27.3005 5.47969 27.4097 5.7872 27.4097C6.00557 27.4097 6.19053 27.3652 6.34205 27.276C6.49358 27.1869 6.62616 27.0688 6.73981 26.9217L7.11751 27.2159C6.81446 27.6816 6.35988 27.9144 5.75377 27.9144ZM5.67689 24.6722C5.42732 24.6722 5.21786 24.7636 5.04851 24.9463C4.87915 25.1268 4.77442 25.3808 4.73431 25.7084H6.54594V25.6616C6.52812 25.3474 6.44344 25.1045 6.29191 24.9329C6.14039 24.7591 5.93538 24.6722 5.67689 24.6722Z" fill="#0B0C10"/>
<path d="M11.5597 26.3034C11.4995 26.8181 11.309 27.2159 10.9881 27.4966C10.6695 27.7752 10.245 27.9144 9.71463 27.9144C9.13972 27.9144 8.67846 27.7083 8.33084 27.2961C7.98545 26.8838 7.81275 26.3323 7.81275 25.6415V25.1736C7.81275 24.7212 7.89297 24.3235 8.05341 23.9803C8.21608 23.6372 8.4456 23.3742 8.74196 23.1915C9.03833 23.0065 9.38149 22.9141 9.77145 22.9141C10.2884 22.9141 10.7029 23.0589 11.0149 23.3486C11.3268 23.636 11.5084 24.0349 11.5597 24.5452H10.9146C10.8589 24.1575 10.7374 23.8767 10.5503 23.7029C10.3653 23.5291 10.1057 23.4422 9.77145 23.4422C9.36144 23.4422 9.03945 23.5937 8.80547 23.8968C8.57372 24.1998 8.45785 24.631 8.45785 25.1903V25.6616C8.45785 26.1897 8.56815 26.6097 8.78876 26.9217C9.00936 27.2337 9.31799 27.3897 9.71463 27.3897C10.0712 27.3897 10.3441 27.3094 10.5335 27.149C10.7252 26.9863 10.8522 26.7045 10.9146 26.3034H11.5597Z" fill="#0B0C10"/>
<path d="M15.1261 26.5774H13.0872L12.6293 27.8476H11.9675L13.8259 22.9809H14.3874L16.2492 27.8476H15.5907L15.1261 26.5774ZM13.2811 26.0493H14.9356L14.1067 23.7731L13.2811 26.0493Z" fill="#0B0C10"/>
<path d="M17.5461 25.9424V27.8476H16.9043V22.9809H18.6993C19.2318 22.9809 19.6485 23.1168 19.9494 23.3887C20.2524 23.6606 20.4039 24.0204 20.4039 24.4683C20.4039 24.9407 20.2557 25.3051 19.9594 25.5613C19.6652 25.8153 19.243 25.9424 18.6926 25.9424H17.5461ZM17.5461 25.4176H18.6993C19.0424 25.4176 19.3054 25.3374 19.4881 25.1769C19.6708 25.0143 19.7622 24.7803 19.7622 24.475C19.7622 24.1853 19.6708 23.9536 19.4881 23.7798C19.3054 23.606 19.0547 23.5157 18.736 23.509H17.5461V25.4176Z" fill="#0B0C10"/>
<path d="M24.5854 23.509H23.0211V27.8476H22.3827V23.509H20.8217V22.9809H24.5854V23.509Z" fill="#0B0C10"/>
<path d="M28.7936 26.3034C28.7334 26.8181 28.5429 27.2159 28.222 27.4966C27.9034 27.7752 27.4789 27.9144 26.9485 27.9144C26.3736 27.9144 25.9124 27.7083 25.5647 27.2961C25.2194 26.8838 25.0467 26.3323 25.0467 25.6415V25.1736C25.0467 24.7212 25.1269 24.3235 25.2873 23.9803C25.45 23.6372 25.6795 23.3742 25.9759 23.1915C26.2722 23.0065 26.6154 22.9141 27.0054 22.9141C27.5223 22.9141 27.9368 23.0589 28.2488 23.3486C28.5607 23.636 28.7423 24.0349 28.7936 24.5452H28.1485C28.0928 24.1575 27.9713 23.8767 27.7842 23.7029C27.5992 23.5291 27.3396 23.4422 27.0054 23.4422C26.5954 23.4422 26.2734 23.5937 26.0394 23.8968C25.8076 24.1998 25.6918 24.631 25.6918 25.1903V25.6616C25.6918 26.1897 25.8021 26.6097 26.0227 26.9217C26.2433 27.2337 26.5519 27.3897 26.9485 27.3897C27.3051 27.3897 27.578 27.3094 27.7675 27.149C27.9591 26.9863 28.0861 26.7045 28.1485 26.3034H28.7936Z" fill="#0B0C10"/>
<path d="M33.4129 27.8476H32.7678V25.5981L30.3144 25.5981V27.8476H29.6727V22.9809H30.3144V25.0733L32.7678 25.0733V22.9809H33.4129V27.8476Z" fill="#0B0C10"/>
<path d="M37.3003 26.5774H35.2613L34.8034 27.8476H34.1416L36 22.9809H36.5616L38.4233 27.8476H37.7649L37.3003 26.5774ZM35.4552 26.0493H37.1097L36.2808 23.7731L35.4552 26.0493Z" fill="#0B0C10"/>
<path d="M1.36106 33.6929V35.2171H0.847656L0.847656 31.3238H2.28359C2.70965 31.3238 3.04301 31.4325 3.28367 31.65C3.52611 31.8675 3.64733 32.1554 3.64733 32.5137C3.64733 32.8916 3.52878 33.1831 3.29169 33.3881C3.05638 33.5913 2.71856 33.6929 2.27824 33.6929H1.36106ZM1.36106 33.2731H2.28359C2.55812 33.2731 2.76848 33.209 2.91466 33.0806C3.06083 32.9505 3.13392 32.7633 3.13392 32.5191C3.13392 32.2873 3.06083 32.1019 2.91466 31.9629C2.76848 31.8238 2.56793 31.7516 2.31301 31.7463H1.36106V33.2731Z" fill="#0B0C10"/>
<path d="M5.62341 32.7677C5.54854 32.7553 5.46743 32.749 5.38008 32.749C5.05564 32.749 4.83548 32.8872 4.7196 33.1635V35.2171H4.22491V32.3239H4.70623L4.71426 32.6581C4.87648 32.3996 5.10644 32.2704 5.40415 32.2704C5.50041 32.2704 5.5735 32.2829 5.62341 32.3078V32.7677Z" fill="#0B0C10"/>
<path d="M6.61814 35.2171H6.12345V32.3239H6.61814V35.2171ZM6.08334 31.5564C6.08334 31.4762 6.10741 31.4085 6.15554 31.3532C6.20545 31.2979 6.27854 31.2703 6.37481 31.2703C6.47107 31.2703 6.54416 31.2979 6.59408 31.3532C6.64399 31.4085 6.66895 31.4762 6.66895 31.5564C6.66895 31.6366 6.64399 31.7035 6.59408 31.757C6.54416 31.8105 6.47107 31.8372 6.37481 31.8372C6.27854 31.8372 6.20545 31.8105 6.15554 31.757C6.10741 31.7035 6.08334 31.6366 6.08334 31.5564Z" fill="#0B0C10"/>
<path d="M8.36694 34.5459L9.08357 32.3239H9.58895L8.55144 35.2171H8.17441L7.1262 32.3239H7.63159L8.36694 34.5459Z" fill="#0B0C10"/>
<path d="M11.8084 35.2171C11.7798 35.1601 11.7567 35.0585 11.7388 34.9123C11.5089 35.1512 11.2344 35.2706 10.9153 35.2706C10.63 35.2706 10.3956 35.1904 10.212 35.0299C10.0302 34.8677 9.93925 34.6627 9.93925 34.4149C9.93925 34.1137 10.0533 33.8801 10.2815 33.7143C10.5115 33.5468 10.8341 33.463 11.2495 33.463H11.7308V33.2357C11.7308 33.0628 11.6791 32.9255 11.5757 32.8239C11.4723 32.7205 11.3199 32.6688 11.1185 32.6688C10.942 32.6688 10.794 32.7134 10.6746 32.8025C10.5552 32.8916 10.4954 32.9995 10.4954 33.1261H9.99807C9.99807 32.9817 10.0489 32.8426 10.1505 32.7089C10.2539 32.5734 10.3929 32.4665 10.5676 32.388C10.7441 32.3096 10.9375 32.2704 11.1479 32.2704C11.4813 32.2704 11.7424 32.3542 11.9314 32.5217C12.1203 32.6875 12.2184 32.9166 12.2255 33.209V34.5406C12.2255 34.8062 12.2594 35.0175 12.3271 35.1743V35.2171H11.8084ZM10.9875 34.8401C11.1425 34.8401 11.2896 34.8 11.4287 34.7198C11.5677 34.6395 11.6684 34.5353 11.7308 34.4069V33.8133H11.3431C10.737 33.8133 10.4339 33.9907 10.4339 34.3454C10.4339 34.5005 10.4856 34.6217 10.589 34.7091C10.6924 34.7964 10.8252 34.8401 10.9875 34.8401Z" fill="#0B0C10"/>
<path d="M14.1615 34.8668C14.338 34.8668 14.4922 34.8133 14.6241 34.7064C14.756 34.5994 14.8291 34.4657 14.8434 34.3053H15.3113C15.3024 34.4711 15.2453 34.6288 15.1402 34.7786C15.035 34.9283 14.8942 35.0478 14.7177 35.1369C14.543 35.226 14.3576 35.2706 14.1615 35.2706C13.7675 35.2706 13.4538 35.1396 13.2202 34.8775C12.9885 34.6137 12.8726 34.2536 12.8726 33.7972V33.7143C12.8726 33.4327 12.9243 33.1822 13.0277 32.9629C13.1311 32.7437 13.2791 32.5734 13.4716 32.4522C13.6659 32.331 13.895 32.2704 14.1588 32.2704C14.4833 32.2704 14.7524 32.3675 14.9664 32.5618C15.1821 32.7562 15.297 33.0084 15.3113 33.3186H14.8434C14.8291 33.1314 14.7578 32.9781 14.6294 32.8587C14.5029 32.7374 14.346 32.6768 14.1588 32.6768C13.9075 32.6768 13.7123 32.7677 13.5732 32.9496C13.4359 33.1296 13.3673 33.3908 13.3673 33.7331V33.8266C13.3673 34.16 13.4359 34.4167 13.5732 34.5968C13.7105 34.7768 13.9066 34.8668 14.1615 34.8668Z" fill="#0B0C10"/>
<path d="M16.8141 34.4925L17.4879 32.3239H18.0174L16.8542 35.6637C16.6742 36.145 16.388 36.3857 15.9958 36.3857L15.9023 36.3776L15.7178 36.3429V35.9418L15.8515 35.9525C16.019 35.9525 16.1492 35.9186 16.2419 35.8509C16.3363 35.7831 16.4139 35.6592 16.4745 35.4792L16.5841 35.185L15.552 32.3239H16.0921L16.8141 34.4925Z" fill="#0B0C10"/>
<path d="M26.8122 31.7463H25.5607V35.2171H25.05V31.7463H23.8012V31.3238H26.8122V31.7463Z" fill="#0B0C10"/>
<path d="M28.2454 35.2706C27.8532 35.2706 27.5341 35.1423 27.2881 34.8855C27.0421 34.6271 26.9191 34.2821 26.9191 33.8507V33.7598C26.9191 33.4728 26.9735 33.217 27.0822 32.9924C27.1928 32.766 27.3461 32.5895 27.5422 32.4629C27.74 32.3346 27.954 32.2704 28.1839 32.2704C28.5601 32.2704 28.8524 32.3943 29.061 32.6421C29.2696 32.8899 29.3739 33.2446 29.3739 33.7063V33.9122H27.4138C27.4209 34.1974 27.5038 34.4283 27.6625 34.6048C27.8229 34.7795 28.0262 34.8668 28.2722 34.8668C28.4469 34.8668 28.5948 34.8312 28.7161 34.7599C28.8373 34.6886 28.9433 34.5941 29.0343 34.4764L29.3364 34.7117C29.094 35.0843 28.7303 35.2706 28.2454 35.2706ZM28.1839 32.6768C27.9843 32.6768 27.8167 32.7499 27.6812 32.8961C27.5457 33.0405 27.4619 33.2437 27.4299 33.5058H28.8792V33.4683C28.8649 33.217 28.7972 33.0227 28.6759 32.8854C28.5547 32.7463 28.3907 32.6768 28.1839 32.6768Z" fill="#0B0C10"/>
<path d="M31.3473 32.7677C31.2724 32.7553 31.1913 32.749 31.1039 32.749C30.7795 32.749 30.5593 32.8872 30.4435 33.1635V35.2171H29.9488V32.3239H30.4301L30.4381 32.6581C30.6003 32.3996 30.8303 32.2704 31.128 32.2704C31.2243 32.2704 31.2973 32.2829 31.3473 32.3078V32.7677Z" fill="#0B0C10"/>
<path d="M32.2698 32.3239L32.2832 32.6447C32.4953 32.3952 32.7814 32.2704 33.1415 32.2704C33.5462 32.2704 33.8216 32.4255 33.9678 32.7357C34.064 32.5966 34.1888 32.4843 34.3421 32.3987C34.4972 32.3132 34.68 32.2704 34.8903 32.2704C35.5249 32.2704 35.8476 32.6064 35.8583 33.2785V35.2171H35.3636V33.3079C35.3636 33.1011 35.3164 32.9469 35.2219 32.8453C35.1274 32.7419 34.9688 32.6902 34.7459 32.6902C34.5623 32.6902 34.4099 32.7455 34.2887 32.856C34.1674 32.9647 34.097 33.1118 34.0774 33.2972V35.2171H33.5801V33.3213C33.5801 32.9006 33.3742 32.6902 32.9624 32.6902C32.6379 32.6902 32.416 32.8284 32.2965 33.1047V35.2171H31.8018V32.3239H32.2698Z" fill="#0B0C10"/>
<path d="M38.2916 34.4497C38.2916 34.316 38.2408 34.2126 38.1392 34.1395C38.0394 34.0646 37.8638 34.0005 37.6124 33.947C37.3629 33.8935 37.1641 33.8293 37.0161 33.7544C36.87 33.6796 36.7612 33.5904 36.6899 33.487C36.6204 33.3837 36.5856 33.2606 36.5856 33.118C36.5856 32.8809 36.6855 32.6804 36.8851 32.5164C37.0866 32.3524 37.3433 32.2704 37.6552 32.2704C37.9832 32.2704 38.2489 32.3551 38.4521 32.5244C38.6571 32.6938 38.7596 32.9104 38.7596 33.1742H38.2622C38.2622 33.0387 38.2043 32.9219 38.0884 32.8239C37.9743 32.7259 37.8299 32.6768 37.6552 32.6768C37.4752 32.6768 37.3343 32.716 37.2327 32.7945C37.1311 32.8729 37.0803 32.9754 37.0803 33.102C37.0803 33.2214 37.1276 33.3115 37.222 33.3721C37.3165 33.4327 37.4868 33.4906 37.7328 33.5459C37.9806 33.6011 38.1811 33.6671 38.3344 33.7438C38.4877 33.8204 38.6009 33.9131 38.674 34.0218C38.7489 34.1288 38.7863 34.2598 38.7863 34.4149C38.7863 34.6734 38.6829 34.8811 38.4761 35.038C38.2694 35.1931 38.0011 35.2706 37.6713 35.2706C37.4395 35.2706 37.2345 35.2296 37.0563 35.1476C36.878 35.0656 36.738 34.9515 36.6364 34.8053C36.5366 34.6574 36.4867 34.4978 36.4867 34.3267H36.9814C36.9903 34.4925 37.0562 34.6244 37.1793 34.7224C37.304 34.8187 37.468 34.8668 37.6713 34.8668C37.8584 34.8668 38.0082 34.8294 38.1205 34.7545C38.2346 34.6779 38.2916 34.5763 38.2916 34.4497Z" fill="#0B0C10"/>
<path d="M21.607 33.985H20.2031V33.4609H21.607V33.985Z" fill="#0B0C10"/>
<g filter="url(#filter0_d_709_26955)">
<path d="M24.8913 4.24045C24.8092 4.13801 24.7247 4.03725 24.6377 3.93826C23.2479 2.3562 21.3302 1.33631 19.244 1.06963C17.1579 0.802952 15.0462 1.30778 13.3047 2.48954L15.7979 6.18082C16.6434 5.60707 17.6686 5.36198 18.6814 5.49145C19.6943 5.62092 20.6253 6.11608 21.3001 6.88416C21.4513 7.05632 21.5873 7.23954 21.7074 7.43174L19.5005 9.6438H26.8347V2.29255L24.8913 4.24045Z" fill="#1C3AA9"/>
</g>
<g filter="url(#filter1_d_709_26955)">
<path d="M18.1315 1L10.7973 1L12.7184 2.92552C11.2829 4.08834 10.251 5.68624 9.7845 7.48943C9.25666 9.52994 9.48912 11.6934 10.4384 13.5744L14.4069 11.5625C13.946 10.6492 13.8332 9.59889 14.0894 8.60822C14.3457 7.61756 14.9535 6.75452 15.799 6.18078C15.8324 6.15815 15.866 6.13603 15.8999 6.11442L18.1315 8.35123V1Z" fill="#4285F4"/>
</g>
<g filter="url(#filter2_d_709_26955)">
<path d="M9.50781 9.72461H16.842L14.6261 11.9457C15.096 12.6751 15.782 13.2443 16.5929 13.5695C17.5409 13.9496 18.5947 13.9702 19.5568 13.6276C20.5189 13.2849 21.3234 12.6024 21.8195 11.7079L25.0271 14.9149C24.0156 16.2456 22.6352 17.2618 21.0459 17.8279C19.0642 18.5337 16.8937 18.4912 14.9411 17.7082C13.5675 17.1574 12.368 16.2668 11.4469 15.1323L9.50781 17.0759V9.72461Z" fill="#ABABAB"/>
</g>
<defs>
<filter id="filter0_d_709_26955" x="12.6201" y="0.315457" width="14.8984" height="10.0131" filterUnits="userSpaceOnUse" color-interpolation-filters="sRGB">
<feFlood flood-opacity="0" result="BackgroundImageFix"/>
<feColorMatrix in="SourceAlpha" type="matrix" values="0 0 0 0 0 0 0 0 0 0 0 0 0 0 0 0 0 0 127 0" result="hardAlpha"/>
<feOffset/>
<feGaussianBlur stdDeviation="0.342272"/>
<feColorMatrix type="matrix" values="0 0 0 0 0 0 0 0 0 0 0 0 0 0 0 0 0 0 0.38 0"/>
<feBlend mode="normal" in2="BackgroundImageFix" result="effect1_dropShadow_709_26955"/>
<feBlend mode="normal" in="SourceGraphic" in2="effect1_dropShadow_709_26955" result="shape"/>
</filter>
<filter id="filter1_d_709_26955" x="8.82327" y="0.315457" width="9.99213" height="13.9433" filterUnits="userSpaceOnUse" color-interpolation-filters="sRGB">
<feFlood flood-opacity="0" result="BackgroundImageFix"/>
<feColorMatrix in="SourceAlpha" type="matrix" values="0 0 0 0 0 0 0 0 0 0 0 0 0 0 0 0 0 0 127 0" result="hardAlpha"/>
<feOffset/>
<feGaussianBlur stdDeviation="0.342272"/>
<feColorMatrix type="matrix" values="0 0 0 0 0 0 0 0 0 0 0 0 0 0 0 0 0 0 0.38 0"/>
<feBlend mode="normal" in2="BackgroundImageFix" result="effect1_dropShadow_709_26955"/>
<feBlend mode="normal" in="SourceGraphic" in2="effect1_dropShadow_709_26955" result="shape"/>
</filter>
<filter id="filter2_d_709_26955" x="8.82327" y="9.04007" width="16.8886" height="9.9726" filterUnits="userSpaceOnUse" color-interpolation-filters="sRGB">
<feFlood flood-opacity="0" result="BackgroundImageFix"/>
<feColorMatrix in="SourceAlpha" type="matrix" values="0 0 0 0 0 0 0 0 0 0 0 0 0 0 0 0 0 0 127 0" result="hardAlpha"/>
<feOffset/>
<feGaussianBlur stdDeviation="0.342272"/>
<feColorMatrix type="matrix" values="0 0 0 0 0 0 0 0 0 0 0 0 0 0 0 0 0 0 0.38 0"/>
<feBlend mode="normal" in2="BackgroundImageFix" result="effect1_dropShadow_709_26955"/>
<feBlend mode="normal" in="SourceGraphic" in2="effect1_dropShadow_709_26955" result="shape"/>
</filter>
</defs>
</svg>
