<svg width="45" height="45" viewBox="0 0 45 45" fill="none" xmlns="http://www.w3.org/2000/svg">
<circle cx="22.5" cy="22.5" r="22.5" transform="matrix(-4.37114e-08 -1 -1 4.37114e-08 45 45)" fill="#2674CF" fill-opacity="0.2"/>
<circle cx="14.0385" cy="14.0385" r="14.5385" transform="matrix(-4.37114e-08 -1 -1 4.37114e-08 36.5391 36.5391)" fill="#003D7C" stroke="#002245"/>
<path d="M16.1537 23.1834C15.5998 23.1834 15.1507 22.7343 15.1507 22.1804C15.1507 21.6265 15.5998 21.1774 16.1537 21.1774L26.2895 21.1774L23.7744 18.6623C23.3806 18.2685 23.3834 17.6291 23.7807 17.2387C24.173 16.8533 24.8028 16.8561 25.1917 17.245L29.3257 21.379C29.7683 21.8216 29.7683 22.5392 29.3257 22.9818L29.0698 22.7258L29.3257 22.9818L25.1917 27.1158C24.8028 27.5047 24.173 27.5075 23.7807 27.122C23.3834 26.7317 23.3806 26.0923 23.7744 25.6985L26.2895 23.1834L16.1537 23.1834Z" fill="white" stroke="white" stroke-width="0.723887"/>
</svg>
