<svg width="45" height="45" viewBox="0 0 45 45" fill="none" xmlns="http://www.w3.org/2000/svg">
<circle cx="22.5" cy="22.5" r="22.5" transform="rotate(-90 22.5 22.5)" fill="#2674CF" fill-opacity="0.2"/>
<circle cx="22.4994" cy="22.5006" r="14.5385" transform="rotate(-90 22.4994 22.5006)" fill="#003D7C" stroke="#002245"/>
<path d="M28.8463 23.1834C29.4002 23.1834 29.8493 22.7343 29.8493 22.1804C29.8493 21.6265 29.4002 21.1774 28.8463 21.1774L18.7105 21.1774L21.2256 18.6623C21.6194 18.2685 21.6166 17.6291 21.2193 17.2387C20.827 16.8533 20.1972 16.8561 19.8083 17.245L15.6743 21.379C15.2317 21.8216 15.2317 22.5392 15.6743 22.9818L15.9302 22.7258L15.6743 22.9818L19.8083 27.1158C20.1972 27.5047 20.827 27.5075 21.2193 27.122C21.6166 26.7317 21.6194 26.0923 21.2256 25.6985L18.7105 23.1834L28.8463 23.1834Z" fill="white" stroke="white" stroke-width="0.723887"/>
</svg>
