<svg width="21" height="21" viewBox="0 0 21 21" fill="none" xmlns="http://www.w3.org/2000/svg">
<path d="M13.3679 5.82589C13.3679 5.82589 12.7172 4.55072 12.0166 3.54535C11.5543 2.88291 11.0506 2.5635 10.1559 2.63482C9.26107 2.70613 8.4139 3.89735 8.16301 4.70202C7.91213 5.50668 5.85942 11.1186 5.85942 11.1186C5.85942 11.1186 6.47228 5.69615 6.99702 4.04167C7.52175 2.38719 8.66536 1.48953 9.94601 1.29473C11.228 1.10132 12.5131 1.88857 13.3759 3.29511C14.236 4.70156 14.911 5.97754 14.911 5.97754L13.3693 5.82459L13.3679 5.82589Z" fill="#003D7C"/>
<path d="M5.88326 6.97783C5.88326 6.97783 4.61075 7.62401 3.60817 8.3211C2.94757 8.78114 2.63007 9.28373 2.70464 10.179C2.77921 11.0742 3.97326 11.926 4.77866 12.1799C5.58406 12.4338 11.2022 14.5075 11.2022 14.5075C11.2022 14.5075 5.77874 13.8746 4.12271 13.3437C2.468 12.8142 1.56505 11.6657 1.36562 10.384C1.16757 9.10102 1.95133 7.81718 3.35432 6.96198C4.75731 6.10678 6.03054 5.43631 6.03054 5.43631L5.88326 6.97783Z" fill="#003D7C"/>
<path d="M7.01736 14.5736C7.01736 14.5736 7.66804 15.8488 8.36995 16.8555C8.83229 17.518 9.33594 17.8374 10.2307 17.7661C11.1255 17.6948 11.9727 16.5035 12.2236 15.6989C12.4744 14.8942 14.5272 9.28229 14.5272 9.28229C14.5272 9.28229 13.9143 14.7047 13.3896 16.3592C12.8662 18.0124 11.7212 18.9114 10.4406 19.1062C9.15861 19.2996 7.87351 18.5123 7.01067 17.1058C6.15053 15.6993 5.47557 14.4233 5.47557 14.4233L7.01728 14.5763L7.01736 14.5736Z" fill="#003D7C"/>
<path d="M14.5006 13.4203C14.5006 13.4203 15.7731 12.7741 16.7757 12.077C17.4363 11.617 17.7538 11.1144 17.6792 10.2192C17.6047 9.3239 16.4106 8.47218 15.6052 8.21829C14.7998 7.9644 9.18167 5.8907 9.18167 5.8907C9.18167 5.8907 14.6051 6.52352 16.2612 7.05443C17.9159 7.58393 18.8188 8.7325 19.0183 10.0142C19.2163 11.2971 18.4339 12.5797 17.0309 13.4376C15.6279 14.2928 14.3546 14.9632 14.3546 14.9632L14.5019 13.4217L14.5006 13.4203Z" fill="#003D7C"/>
</svg>
