<svg width="40" height="38" viewBox="0 0 40 38" fill="none" xmlns="http://www.w3.org/2000/svg">
<rect x="5" y="10" width="29" height="21" fill="#2158E2"/>
<path d="M38.6188 7.54028L34.4564 0.951616C34.0859 0.363212 33.4249 0 32.7202 0H6.80144C6.09681 0 5.43576 0.363212 5.06528 0.951616L0.895611 7.54028C-1.2546 10.9399 0.648627 15.669 4.66575 16.2138C4.95632 16.2501 5.25416 16.2719 5.54472 16.2719C7.44069 16.2719 9.12599 15.4438 10.281 14.1653C11.436 15.4438 13.1213 16.2719 15.0173 16.2719C16.9133 16.2719 18.5986 15.4438 19.7536 14.1653C20.9086 15.4438 22.5939 16.2719 24.4899 16.2719C26.3931 16.2719 28.0711 15.4438 29.2261 14.1653C30.3884 15.4438 32.0665 16.2719 33.9624 16.2719C34.2603 16.2719 34.5508 16.2501 34.8414 16.2138C38.8731 15.6762 40.7836 10.9472 38.6261 7.54028H38.6188ZM35.1392 18.5166C35.1392 18.5166 35.1392 18.5166 35.132 18.5166C34.747 18.5674 34.3547 18.5965 33.9552 18.5965C33.0544 18.5965 32.19 18.4584 31.3836 18.2115V27.8947H8.13806V18.2042C7.32446 18.4584 6.45275 18.5965 5.55199 18.5965C5.15246 18.5965 4.75292 18.5674 4.36792 18.5166H4.36065C4.06282 18.473 3.77225 18.4221 3.48894 18.3495V27.8947V32.5438C3.48894 35.1081 5.57378 37.1929 8.13806 37.1929H31.3836C33.9479 37.1929 36.0327 35.1081 36.0327 32.5438V27.8947V18.3495C35.7422 18.4221 35.4516 18.4802 35.1392 18.5166Z" fill="#003D7C"/>
</svg>
