<svg width="48" height="48" viewBox="0 0 48 48" fill="none" xmlns="http://www.w3.org/2000/svg">
<path d="M0.627612 3.63353H16.9562L20.5899 2.42231L22.4067 0.605469H23.6179H24.8291L26.646 2.42231H27.8572L29.0684 3.63353L46.6542 4.23915V35.1254L0.604614 35.1254L0.627612 3.63353Z" fill="#D4D3D8"/>
<path d="M12.7169 35.125H15.745L11.5057 46.6317L9.08325 46.026L12.7169 35.125Z" fill="#D9D9D9"/>
<path d="M34.5189 35.125H31.4908L35.7301 46.6317L38.1526 46.026L34.5189 35.125Z" fill="#D9D9D9"/>
<path d="M24.8291 35.125H21.801L22.4066 46.6317L24.8291 46.026V35.125Z" fill="#D9D9D9"/>
<path d="M35.1245 42.3945L35.1245 38.7609L13.3224 39.4876L14.4699 42.3945L35.1245 42.3945Z" fill="#D9D9D9"/>
<path d="M45.4181 3.15193H29.371C29.2473 2.4494 28.6034 1.91254 27.8191 1.91254H26.7664C26.6154 1.91254 26.4812 1.86431 26.3701 1.75736C26.2904 1.68815 26.2421 1.59169 26.2421 1.48264C26.2421 0.666883 25.5333 0 24.6693 0H22.5701C21.6998 0 20.9973 0.664789 20.9973 1.48264C20.9973 1.71332 20.7561 1.91254 20.4709 1.91254H19.4182C18.6339 1.91254 17.99 2.4494 17.8664 3.15193H1.82348C0.814776 3.15193 -0.000976562 3.97396 -0.000976562 4.97638V33.87C-0.000976562 34.8787 0.821058 35.6944 1.82348 35.6944H11.9985L8.55087 44.3636C8.29293 45.0179 8.37472 45.7603 8.76478 46.3391C9.15065 46.9074 9.78395 47.2471 10.4676 47.2471C11.3148 47.2471 12.0887 46.704 12.3948 45.8987L13.672 42.5223H21.553V45.1793C21.553 46.3181 22.482 47.2471 23.6208 47.2471C24.7595 47.2471 25.6885 46.3181 25.6885 45.1793V42.5223H33.5696L34.8467 45.8987C35.1529 46.704 35.9267 47.2471 36.7739 47.2471C37.9126 47.2471 38.8417 46.3076 38.8417 45.1542C38.8417 44.8795 38.7871 44.6174 38.6907 44.3657L35.243 35.7003H45.4116C46.4203 35.7003 47.2361 34.8783 47.2361 33.8758V4.97579C47.2361 3.96709 46.4141 3.15134 45.4116 3.15134L45.4181 3.15193ZM18.8985 3.3889C18.8985 3.15822 19.1397 2.96529 19.4249 2.96529H20.4776C21.3479 2.96529 22.0504 2.3005 22.0504 1.48265C22.0504 1.24568 22.2874 1.05275 22.5768 1.05275H24.676C24.9654 1.05275 25.2024 1.24568 25.2024 1.48265C25.2024 1.89159 25.3786 2.28166 25.6743 2.53537C25.9637 2.81009 26.3558 2.95899 26.7752 2.95899H27.828C28.1132 2.95899 28.3543 3.15192 28.3543 3.3826V4.81702C28.3543 5.054 28.1174 5.24693 27.828 5.24693H19.431C19.1416 5.24693 18.9046 5.05399 18.9046 4.81702V3.3826L18.8985 3.3889ZM11.4142 45.5257C11.259 45.9346 10.8878 46.1967 10.4684 46.1967C10.135 46.1967 9.82882 46.0353 9.63588 45.7522C9.43246 45.4565 9.39471 45.0916 9.52892 44.7539L13.1254 35.6966H15.1282L11.4121 45.5259L11.4142 45.5257ZM21.556 41.472H14.0717L14.8665 39.3728H21.5562L21.556 41.472ZM21.556 38.32H15.2586L16.2527 35.6945H21.5562L21.556 38.32ZM24.6429 45.1757C24.6429 45.7398 24.1857 46.1949 23.6237 46.1949C23.0596 46.1949 22.6046 45.7377 22.6046 45.1757V35.6948H24.6388V45.1757H24.6429ZM25.6956 41.4722V39.373H32.3854L33.1802 41.4722H25.6956ZM25.6956 38.3203V35.6948H30.9992L31.9932 38.3203H25.6956ZM37.7201 44.7518C37.7746 44.8798 37.7956 45.0098 37.7956 45.1482C37.7956 45.6536 37.4035 46.1946 36.7764 46.1946C36.357 46.1946 35.9816 45.9325 35.8307 45.5299L32.1146 35.7005H34.1173L37.7201 44.7579L37.7201 44.7518ZM46.1965 33.8698C46.1965 34.2997 45.8484 34.6478 45.4185 34.6478H1.82419C1.39429 34.6478 1.04618 34.2997 1.04618 33.8698V4.97617C1.04618 4.54626 1.3943 4.19816 1.82419 4.19816H17.844V4.81468C17.844 5.63044 18.5528 6.29732 19.4168 6.29732H27.8138C28.6841 6.29732 29.3866 5.63253 29.3866 4.81468V4.19816H45.4064C45.8363 4.19816 46.1844 4.54628 46.1844 4.97617V33.8698H46.1965Z" fill="#EDECF1"/>
<path d="M43.0446 25C43.0446 24.763 42.9524 24.5428 42.7867 24.3709L41.7675 23.3517C41.4236 23.0078 40.8595 23.0078 40.5177 23.3517L38.8484 25.021L37.1791 23.3517C36.8351 23.0078 36.271 23.0078 35.9292 23.3517L34.91 24.3709C34.7444 24.5365 34.6521 24.763 34.6521 25C34.6521 25.237 34.7444 25.4614 34.91 25.6291L36.5793 27.2984L34.91 28.9677C34.7444 29.1334 34.6521 29.3599 34.6521 29.5969C34.6521 29.8339 34.7444 30.0541 34.91 30.226L35.9292 31.2452C36.2731 31.5891 36.8372 31.5891 37.1791 31.2452L38.8484 29.5759L40.5177 31.2452C40.6896 31.4172 40.914 31.5031 41.1405 31.5031C41.367 31.5031 41.5977 31.4172 41.7697 31.2452L42.7888 30.226C42.9545 30.0604 43.0468 29.8339 43.0468 29.5969C43.0468 29.3599 42.9545 29.1355 42.7888 28.9677L41.1195 27.2984L42.7888 25.6291C42.9545 25.4635 43.0468 25.237 43.0468 25H43.0446ZM40.2576 26.6693C39.9137 27.0132 39.9137 27.5773 40.2576 27.9192L41.9269 29.5885L41.1384 30.377L39.4691 28.7077C39.3034 28.542 39.0769 28.4497 38.8399 28.4497C38.6029 28.4497 38.3786 28.542 38.2108 28.7077L36.5415 30.377L35.7529 29.5885L37.4222 27.9192C37.7662 27.5752 37.7662 27.0111 37.4222 26.6693L35.7529 25L36.5415 24.2115L38.2108 25.8808C38.5442 26.2142 39.1293 26.2142 39.4606 25.8808L41.1299 24.2115L41.9185 25L40.2492 26.6693H40.2576Z" fill="#EDECF1"/>
<path d="M42.2601 8.75892C42.1847 8.45904 42.0022 8.20532 41.7338 8.04592C41.4653 7.88445 41.1487 7.83202 40.8425 7.91171L33.2782 9.85991C32.972 9.9354 32.7099 10.122 32.5484 10.3968C32.3869 10.6652 32.3387 10.9818 32.4142 11.2712L32.951 13.5592C33.0265 13.8591 33.209 14.1128 33.4774 14.2785C33.7458 14.4399 34.0625 14.4924 34.3687 14.419L35.7423 14.075C30.5667 20.7584 21.4882 25.1874 11.1328 26.0094C10.4512 24.6085 9.01682 23.6354 7.35805 23.6354C5.04495 23.6354 3.15967 25.5207 3.15967 27.8338C3.15967 30.1469 5.04495 32.0322 7.35805 32.0322C8.9749 32.0322 10.38 31.1094 11.0846 29.7673C11.3111 29.7505 11.5417 29.74 11.7661 29.7191H11.8416C23.2605 28.6286 33.3808 23.5828 39.1837 16.1361L39.5171 17.5201C39.6786 18.1367 40.3057 18.5184 40.9348 18.3632L43.2101 17.7717C43.5163 17.6963 43.7742 17.5096 43.9357 17.2412C44.0972 16.9728 44.1454 16.6561 44.0699 16.3604L42.2706 8.77518L42.2601 8.75892ZM7.34999 30.9692C5.61149 30.9692 4.19806 29.5579 4.19806 27.8173C4.19806 26.0788 5.6094 24.6653 7.34999 24.6653C9.08849 24.6653 10.5019 26.0767 10.5019 27.8173C10.5019 29.5558 9.09059 30.9692 7.34999 30.9692ZM43.03 16.684C43.03 16.684 42.9985 16.7259 42.9503 16.7385L40.6687 17.3299C40.6037 17.3467 40.5407 17.3027 40.524 17.2502L39.9284 14.7924C39.8801 14.5932 39.7187 14.438 39.5194 14.4003C39.316 14.3625 39.1105 14.4422 38.9931 14.61C33.501 22.3021 23.3067 27.5531 11.6891 28.6606C11.6576 28.6606 11.6304 28.6606 11.6136 28.6669C11.5654 28.6669 11.5108 28.6732 11.4626 28.6774C11.5213 28.4027 11.5486 28.1132 11.5486 27.8239C11.5486 27.5492 11.5213 27.2807 11.4689 27.0186C22.6194 26.0686 32.314 21.0273 37.4479 13.5006C37.5716 13.3181 37.5716 13.0811 37.4479 12.905C37.3242 12.7288 37.0998 12.6428 36.8901 12.6953L34.1135 13.3936C34.0716 13.4041 34.0338 13.3873 34.0212 13.3768C34.0002 13.3663 33.9793 13.3454 33.973 13.3118L33.4361 11.0197C33.4298 10.9883 33.4361 10.961 33.4466 10.9337C33.4571 10.917 33.4781 10.8855 33.5326 10.875L41.0969 8.92681C41.1388 8.91632 41.1766 8.9331 41.1892 8.94359C41.2102 8.95407 41.2311 8.97504 41.2437 9.00859L43.0472 16.6003C43.0577 16.638 43.0472 16.6695 43.0367 16.6926L43.03 16.684Z" fill="#EDECF1"/>
</svg>
