<svg width="43" height="48" viewBox="0 0 43 48" fill="none" xmlns="http://www.w3.org/2000/svg">
<path d="M11.4681 1.23047H41.0027V35.6875L12.0834 35.0722L11.4681 29.5345L1.00788 28.9192L0.392578 18.459L1.62319 7.38352L11.4681 6.76821V1.23047Z" fill="#003D7C"/>
<path d="M20.6973 35.8106L39.7717 35.6875V36.4597C39.7717 38.8731 37.4942 40.6375 35.1574 40.0344L20.6973 36.3028V35.8106Z" fill="#003D7C"/>
<path d="M20.082 37.5332L34.234 38.1485V38.8486C34.234 41.4604 31.5961 43.2464 29.1711 42.2764L21.9279 39.3791L20.082 37.5332Z" fill="#003D7C"/>
<path d="M16.0098 36.918L28.6968 41.2251L28.6134 41.6412C28.0636 44.3818 24.7859 45.5411 22.6353 43.7556L17.199 39.2419L16.0098 36.918Z" fill="#003D7C"/>
<path d="M39.2965 0H13.6026C12.8012 0.00085217 12.0328 0.3196 11.4661 0.886302C10.8994 1.453 10.5807 2.22137 10.5798 3.02281V6.04341H3.02281C2.22137 6.04426 1.453 6.36301 0.886302 6.92971C0.319599 7.49641 0.00085217 8.26478 0 9.06622V27.2031C0.000854167 28.0045 0.319602 28.7729 0.886304 29.3396C1.45301 29.9063 2.22137 30.225 3.02281 30.2259H10.5798V33.2509C10.5817 33.8018 10.7346 34.3416 11.0218 34.8117C11.309 35.2817 11.7196 35.6641 12.2089 35.9172C12.2536 35.991 12.3108 36.0564 12.3779 36.1106L23.5851 44.9754C24.0138 45.3075 24.5234 45.5192 25.0613 45.5884C25.5992 45.6576 26.1459 45.5819 26.6447 45.3691C27.1436 45.1563 27.5765 44.8141 27.8988 44.3779C28.2211 43.9417 28.421 43.4274 28.4779 42.888C29.2103 43.179 30.3819 43.8583 31.1894 43.8005C31.8091 43.8006 32.4139 43.6103 32.9218 43.2552C33.4297 42.9001 33.8161 42.3974 34.0288 41.8153L34.4776 40.5852C35.9331 40.8725 37.6652 41.5074 38.9393 40.3665C39.2877 40.0838 39.5685 39.7267 39.761 39.3214C39.9536 38.9161 40.0531 38.4729 40.0522 38.0242V36.1664C40.6995 35.9998 41.2732 35.6232 41.6835 35.0956C42.0937 34.568 42.3174 33.9192 42.3193 33.2509V3.02279C42.3185 2.22135 41.9997 1.45299 41.433 0.886294C40.8663 0.319596 40.098 0.00085216 39.2965 0ZM24.1825 18.1346H13.6026V7.55481H22.6711C23.0718 7.55527 23.4559 7.71465 23.7393 7.998C24.0226 8.28134 24.182 8.66551 24.1825 9.06622V18.1346ZM24.1825 19.6461V27.2031C24.182 27.6038 24.0226 27.9879 23.7393 28.2713C23.4559 28.5546 23.0718 28.714 22.6711 28.7145H13.6026V19.6461H24.1825ZM3.02281 7.55481H12.0912V18.1346H1.5114V9.06622C1.51186 8.66551 1.67125 8.28134 1.95459 7.998C2.23794 7.71465 2.6221 7.55527 3.02281 7.55481ZM1.5114 27.2031V19.6461H12.0912V28.7145H3.02281C2.6221 28.714 2.23794 28.5546 1.95459 28.2713C1.67125 27.9879 1.51186 27.6038 1.5114 27.2031ZM26.9632 42.8123C26.9237 43.0751 26.8162 43.3229 26.6513 43.5313C26.4864 43.7397 26.2699 43.9013 26.0232 44.0001C25.7766 44.099 25.5083 44.1316 25.2452 44.0947C24.982 44.0579 24.7331 43.9529 24.5231 43.7901L16.9959 37.8363L27.0381 42.2545L26.9632 42.8123ZM32.6081 41.2994C32.5363 41.4922 32.4261 41.6684 32.2841 41.8173C32.1421 41.9663 31.9714 42.0848 31.7822 42.1657C31.593 42.2465 31.3893 42.2881 31.1836 42.2879C30.9778 42.2877 30.7743 42.2456 30.5853 42.1643L20.416 37.6901L32.9811 40.2771L32.6081 41.2994ZM37.9844 39.1954C37.8103 39.3369 37.6071 39.438 37.3892 39.4915C37.1714 39.545 36.9444 39.5495 36.7246 39.5046L21.0313 36.2737H38.5408C38.4716 37.2592 38.8229 38.558 37.9844 39.1954ZM40.8079 33.2509C40.8078 33.4493 40.7687 33.6456 40.6927 33.8289C40.6166 34.0121 40.5053 34.1785 40.3649 34.3186C40.2246 34.4588 40.058 34.5699 39.8746 34.6457C39.6913 34.7214 39.4949 34.7603 39.2965 34.7601H13.6026C13.4043 34.7603 13.2079 34.7214 13.0246 34.6456C12.8412 34.5699 12.6747 34.4587 12.5343 34.3186C12.394 34.1784 12.2826 34.012 12.2066 33.8288C12.1305 33.6456 12.0914 33.4493 12.0912 33.2509V30.2259H22.6711C23.4725 30.225 24.2409 29.9063 24.8076 29.3396C25.3743 28.7729 25.693 28.0045 25.6939 27.2031V9.06622C25.693 8.26478 25.3743 7.49641 24.8076 6.92971C24.2409 6.36301 23.4725 6.04426 22.6711 6.04341H12.0912V3.02281C12.0917 2.6221 12.2511 2.23794 12.5344 1.95459C12.8178 1.67125 13.2019 1.51186 13.6026 1.5114H39.2965C39.6972 1.51186 40.0814 1.67125 40.3647 1.95459C40.6481 2.23794 40.8075 2.6221 40.8079 3.02281V33.2509Z" fill="#2158E2"/>
<path d="M21.1602 12.0898H16.626C16.4274 12.0927 16.2379 12.1735 16.0985 12.3149C15.959 12.4563 15.8809 12.647 15.8809 12.8455C15.8809 13.0441 15.959 13.2348 16.0985 13.3762C16.2379 13.5176 16.4274 13.5984 16.626 13.6012H21.1602C21.3587 13.5984 21.5482 13.5176 21.6877 13.3762C21.8271 13.2348 21.9053 13.0441 21.9053 12.8455C21.9053 12.647 21.8271 12.4563 21.6877 12.3149C21.5482 12.1735 21.3587 12.0927 21.1602 12.0898Z" fill="#2158E2"/>
<path d="M16.626 23.4245H21.1602C21.3587 23.4217 21.5482 23.3408 21.6877 23.1994C21.8271 23.058 21.9053 22.8674 21.9053 22.6688C21.9053 22.4702 21.8271 22.2796 21.6877 22.1382C21.5482 21.9967 21.3587 21.9159 21.1602 21.9131H16.626C16.4274 21.9159 16.2379 21.9967 16.0985 22.1382C15.959 22.2796 15.8809 22.4702 15.8809 22.6688C15.8809 22.8674 15.959 23.058 16.0985 23.1994C16.2379 23.3408 16.4274 23.4217 16.626 23.4245Z" fill="#2158E2"/>
<path d="M21.1602 24.9355H16.626C16.4274 24.9384 16.2379 25.0192 16.0985 25.1606C15.959 25.302 15.8809 25.4927 15.8809 25.6912C15.8809 25.8898 15.959 26.0805 16.0985 26.2219C16.2379 26.3633 16.4274 26.4441 16.626 26.447H21.1602C21.3587 26.4441 21.5482 26.3633 21.6877 26.2219C21.8271 26.0805 21.9053 25.8898 21.9053 25.6912C21.9053 25.4927 21.8271 25.302 21.6877 25.1606C21.5482 25.0192 21.3587 24.9384 21.1602 24.9355Z" fill="#2158E2"/>
<path d="M4.53415 13.6008H6.04556V15.1122C6.04556 15.3126 6.12518 15.5048 6.2669 15.6465C6.40862 15.7883 6.60084 15.8679 6.80126 15.8679C7.00168 15.8679 7.1939 15.7883 7.33562 15.6465C7.47734 15.5048 7.55696 15.3126 7.55696 15.1122V13.6008H9.06837C9.26879 13.6008 9.46101 13.5212 9.60273 13.3794C9.74445 13.2377 9.82407 13.0455 9.82407 12.8451C9.82407 12.6446 9.74445 12.4524 9.60273 12.3107C9.46101 12.169 9.26879 12.0894 9.06837 12.0894H7.55696V10.578C7.55696 10.3775 7.47734 10.1853 7.33562 10.0436C7.1939 9.90188 7.00168 9.82227 6.80126 9.82227C6.60084 9.82227 6.40862 9.90188 6.2669 10.0436C6.12518 10.1853 6.04556 10.3775 6.04556 10.578V12.0894H4.53415C4.33558 12.0922 4.14609 12.173 4.00666 12.3145C3.86723 12.4559 3.78906 12.6465 3.78906 12.8451C3.78906 13.0437 3.86723 13.2343 4.00666 13.3757C4.14609 13.5171 4.33558 13.598 4.53415 13.6008Z" fill="#2158E2"/>
<path d="M7.86842 24.1802L8.93716 23.1112C9.07887 22.9695 9.15848 22.7773 9.15848 22.5769C9.15848 22.3765 9.07887 22.1843 8.93716 22.0426C8.79546 21.9009 8.60326 21.8213 8.40286 21.8213C8.20245 21.8213 8.01026 21.9009 7.86855 22.0426L6.79994 23.1114L5.73133 22.0426C5.58963 21.9009 5.39743 21.8213 5.19703 21.8213C4.99662 21.8213 4.80443 21.9009 4.66272 22.0426C4.52101 22.1843 4.44141 22.3765 4.44141 22.5769C4.44141 22.7773 4.52102 22.9695 4.66272 23.1112L5.73147 24.1802L4.66272 25.2492C4.59256 25.3193 4.5369 25.4026 4.49893 25.4943C4.46095 25.586 4.44141 25.6843 4.44141 25.7835C4.44141 25.8827 4.46095 25.981 4.49893 26.0726C4.5369 26.1643 4.59256 26.2476 4.66272 26.3178C4.73289 26.388 4.81619 26.4436 4.90787 26.4816C4.99954 26.5196 5.0978 26.5391 5.19703 26.5391C5.29626 26.5391 5.39452 26.5196 5.48619 26.4816C5.57787 26.4436 5.66117 26.388 5.73133 26.3178L6.79994 25.249L7.86855 26.3178C7.93872 26.388 8.02202 26.4436 8.11369 26.4816C8.20537 26.5196 8.30363 26.5391 8.40286 26.5391C8.50208 26.5391 8.60034 26.5196 8.69202 26.4816C8.78369 26.4436 8.86699 26.388 8.93716 26.3178C9.00733 26.2477 9.06298 26.1644 9.10096 26.0727C9.13893 25.981 9.15848 25.8828 9.15848 25.7835C9.15848 25.6843 9.13893 25.586 9.10096 25.4944C9.06298 25.4027 9.00733 25.3194 8.93716 25.2492L7.86842 24.1802Z" fill="#2158E2"/>
</svg>
