<svg width="38" height="48" viewBox="0 0 38 48" fill="none" xmlns="http://www.w3.org/2000/svg">
<path d="M3.82568 20.4023L19.128 24.2279L27.4167 21.6775L35.7054 20.4023V45.9062H3.82568V20.4023Z" fill="#D4D3D8"/>
<path d="M12.4569 17.3249C12.6281 17.3273 12.7987 17.306 12.9639 17.2615L15.6336 20.7868C16.015 21.278 16.5745 21.5992 17.1909 21.6808C17.8074 21.7624 18.4312 21.5978 18.9272 21.2227C19.4232 20.8476 19.7514 20.2922 19.8407 19.6768C19.9301 19.0614 19.7733 18.4356 19.4045 17.9349L18.0261 16.1129L22.7159 15.8356C23.1184 15.8079 23.5073 15.6787 23.8463 15.4602C24.1854 15.2416 24.4636 14.9407 24.655 14.5856C24.8464 14.2305 24.9447 13.8327 24.9409 13.4293C24.937 13.0259 24.8311 12.63 24.633 12.2786L20.8622 5.74303C20.6564 5.39549 20.3661 5.10554 20.0184 4.90006C19.6707 4.69458 19.2767 4.58022 18.873 4.56758C18.4692 4.55494 18.0689 4.64443 17.7089 4.82775C17.349 5.01108 17.0412 5.2823 16.8141 5.61628L13.8909 10.0526C13.5888 10.5078 13.4543 11.0539 13.5106 11.5974L11.2687 12.8886C10.8205 13.1535 10.4713 13.5578 10.2746 14.0398C10.0778 14.5218 10.0441 15.0549 10.1788 15.5578C10.3135 16.0607 10.6091 16.5057 11.0205 16.8247C11.4318 17.1438 11.9364 17.3195 12.4569 17.3249ZM18.137 18.8855C18.2593 19.0507 18.3116 19.2574 18.2825 19.4608C18.2534 19.6642 18.1452 19.848 17.9814 19.9721C17.8176 20.0962 17.6115 20.1508 17.4078 20.1238C17.204 20.0969 17.0191 19.9907 16.8932 19.8283L14.4216 16.5565L15.7842 15.7722L18.137 18.8855ZM12.0608 14.267L14.1126 13.0788L14.9127 14.4493L12.853 15.6375C12.6715 15.739 12.4573 15.765 12.2568 15.7099C12.0563 15.6547 11.8855 15.5228 11.7814 15.3428C11.6773 15.1627 11.6483 14.9489 11.7006 14.7476C11.7529 14.5463 11.8823 14.3737 12.0608 14.267Z" fill="#D4D3D8"/>
<path d="M24.1178 8.21479C24.223 8.3966 24.3961 8.52925 24.599 8.58363C24.8019 8.63802 25.018 8.6097 25.2001 8.5049L26.5721 7.7127C26.754 7.60759 26.8867 7.43456 26.941 7.23164C26.9954 7.02872 26.9669 6.81253 26.8619 6.6306C26.7569 6.44867 26.5839 6.31589 26.381 6.26145C26.1781 6.20701 25.9619 6.23537 25.7799 6.34029L24.4079 7.13248C24.2259 7.23756 24.0931 7.4106 24.0387 7.61357C23.9843 7.81653 24.0128 8.03279 24.1178 8.21479Z" fill="#D4D3D8"/>
<path d="M22.3765 6.4752C22.5585 6.58003 22.7747 6.60836 22.9775 6.55397C23.1804 6.49957 23.3533 6.36691 23.4584 6.1851L24.2506 4.81346C24.3027 4.72339 24.3366 4.62394 24.3502 4.5208C24.3638 4.41766 24.357 4.31284 24.3301 4.21233C24.3032 4.11182 24.2568 4.0176 24.1935 3.93504C24.1302 3.85248 24.0512 3.7832 23.9611 3.73117C23.871 3.67913 23.7716 3.64536 23.6684 3.63178C23.5653 3.6182 23.4605 3.62507 23.36 3.65201C23.2595 3.67895 23.1653 3.72543 23.0827 3.78878C23.0002 3.85214 22.931 3.93114 22.879 4.02126L22.0868 5.3929C22.0347 5.48298 22.0009 5.58244 21.9873 5.68559C21.9737 5.78875 21.9805 5.89357 22.0074 5.99408C22.0343 6.0946 22.0808 6.18882 22.1441 6.27137C22.2074 6.35393 22.2864 6.42319 22.3765 6.4752Z" fill="#D4D3D8"/>
<path d="M24.7539 10.5891C24.7539 10.6931 24.7744 10.7961 24.8142 10.8923C24.854 10.9884 24.9123 11.0757 24.9859 11.1493C25.0594 11.2229 25.1468 11.2812 25.2429 11.321C25.339 11.3608 25.4421 11.3813 25.5461 11.3813H27.1305C27.3406 11.3813 27.5421 11.2978 27.6907 11.1492C27.8392 11.0007 27.9227 10.7992 27.9227 10.5891C27.9227 10.379 27.8392 10.1775 27.6907 10.0289C27.5421 9.88034 27.3406 9.79688 27.1305 9.79688H25.5461C25.4421 9.79685 25.339 9.81732 25.2429 9.85712C25.1468 9.89692 25.0594 9.95528 24.9859 10.0288C24.9123 10.1024 24.854 10.1898 24.8142 10.2859C24.7744 10.382 24.7539 10.485 24.7539 10.5891Z" fill="#D4D3D8"/>
<path d="M37.2205 45.9471H35.6361V17.4281C35.6362 17.012 35.5543 16.5998 35.3951 16.2153C35.2359 15.8308 35.0025 15.4815 34.7082 15.1872C34.414 14.8929 34.0646 14.6595 33.6801 14.5003C33.2956 14.3411 32.8835 14.2592 32.4673 14.2593H31.5721C31.7974 12.4754 31.6404 10.6639 31.1116 8.94528C30.5828 7.22667 29.6943 5.64028 28.5051 4.29152C27.3159 2.94277 25.8533 1.86254 24.2145 1.12261C22.5757 0.382679 20.7981 0 19 0C17.2019 0 15.4243 0.382679 13.7855 1.12261C12.1467 1.86254 10.6841 2.94277 9.49489 4.29152C8.30573 5.64028 7.41722 7.22667 6.88841 8.94528C6.3596 10.6639 6.2026 12.4754 6.42785 14.2593H5.53267C5.11651 14.2592 4.7044 14.3411 4.3199 14.5003C3.93539 14.6595 3.58602 14.8929 3.29175 15.1872C2.99748 15.4815 2.76407 15.8308 2.60487 16.2153C2.44566 16.5998 2.36378 17.012 2.36389 17.4281V45.9471H0.7795C0.571609 45.9505 0.373369 46.0354 0.227543 46.1837C0.0817175 46.3319 -6.23718e-06 46.5314 3.57032e-10 46.7394C6.2379e-06 46.9473 0.0817419 47.1469 0.227577 47.2951C0.373411 47.4433 0.571656 47.5282 0.779547 47.5315H37.2205C37.4284 47.5282 37.6266 47.4432 37.7724 47.295C37.9183 47.1468 38 46.9473 38 46.7393C38 46.5314 37.9183 46.3318 37.7724 46.1836C37.6266 46.0354 37.4284 45.9505 37.2205 45.9471ZM19 1.58421C20.6442 1.59268 22.2661 1.96489 23.7495 2.67413C25.2328 3.38338 26.5408 4.41209 27.5797 5.68649C28.6186 6.96088 29.3626 8.44938 29.7584 10.0452C30.1542 11.6411 30.1919 13.3048 29.8689 14.9169C27.2118 26.6616 10.7852 26.6567 8.13109 14.9167C7.80812 13.3046 7.84588 11.6409 8.24167 10.0451C8.63747 8.4493 9.38149 6.96083 10.4204 5.68646C11.4593 4.4121 12.7673 3.38341 14.2506 2.67417C15.7339 1.96493 17.3558 1.59271 19 1.58421ZM20.5844 27.7267H17.4156C16.9958 27.7254 16.5935 27.5581 16.2966 27.2612C15.9998 26.9644 15.8324 26.5621 15.8312 26.1423V24.9461C17.9096 25.4832 20.0904 25.4832 22.1688 24.9461V26.1423C22.1675 26.5621 22.0002 26.9644 21.7034 27.2612C21.4065 27.5581 21.0042 27.7254 20.5844 27.7267ZM22.1688 30.8954V33.272C22.1675 33.6918 22.0002 34.0941 21.7034 34.391C21.4065 34.6879 21.0042 34.8552 20.5844 34.8564H17.4156C16.9958 34.8552 16.5935 34.6879 16.2966 34.391C15.9998 34.0941 15.8324 33.6918 15.8312 33.272V30.8954C15.8324 30.4756 15.9998 30.0733 16.2966 29.7765C16.5935 29.4796 16.9958 29.3123 17.4156 29.311H20.5844C21.0042 29.3123 21.4065 29.4796 21.7034 29.7764C22.0002 30.0733 22.1676 30.4756 22.1688 30.8954ZM12.6624 33.272C12.6612 33.6918 12.4939 34.0941 12.197 34.391C11.9001 34.6879 11.4979 34.8552 11.078 34.8564H7.90926C7.48943 34.8552 7.08715 34.6879 6.79029 34.391C6.49342 34.0941 6.3261 33.6918 6.32487 33.272V30.8954C6.32609 30.4756 6.49341 30.0733 6.79028 29.7765C7.08714 29.4796 7.48943 29.3123 7.90926 29.311H11.078C11.4979 29.3123 11.9002 29.4796 12.197 29.7764C12.4939 30.0733 12.6612 30.4756 12.6624 30.8954V33.272ZM12.6624 26.1423C12.6612 26.5621 12.4939 26.9644 12.197 27.2612C11.9001 27.5581 11.4979 27.7254 11.078 27.7267H7.90926C7.48943 27.7254 7.08715 27.5581 6.79029 27.2612C6.49342 26.9644 6.3261 26.5621 6.32487 26.1423V23.7657C6.32609 23.3458 6.49341 22.9436 6.79028 22.6467C7.08714 22.3498 7.48943 22.1825 7.90926 22.1813H10.6344C11.2559 22.7353 11.9328 23.2238 12.6545 23.6389C12.6613 23.6808 12.664 23.7233 12.6624 23.7657V26.1423ZM24.5454 45.9471H13.4546V38.8174C13.4565 38.1876 13.7075 37.5842 14.1527 37.1389C14.598 36.6936 15.2015 36.4426 15.8312 36.4408H22.1688C22.7985 36.4426 23.4019 36.6936 23.8472 37.1389C24.2925 37.5842 24.5435 38.1876 24.5454 38.8174V45.9471ZM31.6751 33.272C31.6739 33.6918 31.5066 34.0941 31.2097 34.391C30.9128 34.6879 30.5105 34.8552 30.0907 34.8564H26.9219C26.5021 34.8552 26.0998 34.6879 25.803 34.391C25.5061 34.0941 25.3388 33.6918 25.3375 33.272V30.8954C25.3388 30.4756 25.5061 30.0733 25.803 29.7765C26.0998 29.4796 26.5021 29.3123 26.9219 29.311H30.0907C30.5106 29.3123 30.9128 29.4796 31.2097 29.7764C31.5066 30.0733 31.6739 30.4756 31.6751 30.8954V33.272ZM31.6751 26.1423C31.6739 26.5621 31.5066 26.9644 31.2097 27.2612C30.9128 27.5581 30.5105 27.7254 30.0907 27.7267H26.9219C26.5021 27.7254 26.0998 27.5581 25.803 27.2612C25.5061 26.9644 25.3388 26.5621 25.3375 26.1423V23.7657C25.336 23.7233 25.3386 23.6808 25.3455 23.6389C26.0672 23.2238 26.7441 22.7353 27.3656 22.1813H30.0907C30.5106 22.1825 30.9128 22.3498 31.2097 22.6467C31.5066 22.9436 31.6739 23.3458 31.6751 23.7657V26.1423Z" fill="#EDECF1"/>
</svg>
