<svg width="51" height="49" viewBox="0 0 51 49" fill="none" xmlns="http://www.w3.org/2000/svg">
<path d="M8 47.5L1 33.5L6 31L7 32L19 26.5L33 31.5L34.5 34.5L46.5 29L49 30.5V34.5L28 44L17.5 41L12.5 43L13.5 45L8 47.5Z" fill="#D4D3D8"/>
<path d="M12 17H16V28L12 29V17Z" fill="#D4D3D8"/>
<path d="M41 10H45V29.25L41 31V10Z" fill="#D4D3D8"/>
<path d="M26 13H22V26.75L26 28V13Z" fill="#D4D3D8"/>
<path d="M35 15H31L31.5 30.5L35 34V15Z" fill="#D4D3D8"/>
<path d="M49.362 29.7647C48.6908 28.8519 47.6594 28.2725 46.5319 28.1695V9.60975C46.5319 9.37261 46.4357 9.14665 46.2679 8.97884C46.1001 8.81104 45.8742 8.71484 45.637 8.71484H40.7554C40.261 8.71484 39.8605 9.11531 39.8605 9.60973V30.6575L36.7799 32.1385V14.668C36.7799 14.4309 36.6859 14.2027 36.5181 14.0349C36.3503 13.8671 36.1221 13.7731 35.885 13.7731H31.0012C30.5067 13.7731 30.1063 14.1736 30.1063 14.668V29.02L27.0279 27.9595V12.1448C27.0279 11.9076 26.9339 11.6794 26.7661 11.5116C26.5983 11.3438 26.3701 11.2499 26.133 11.2499H21.2559C20.7614 11.2499 20.361 11.6503 20.361 12.1448V25.727C19.3274 25.5279 18.258 25.6285 17.2803 26.0178V17.2007C17.2803 16.9635 17.1864 16.7353 17.0186 16.5675C16.8508 16.3997 16.6226 16.3058 16.3854 16.3058H11.4994C11.0049 16.3058 10.6045 16.7062 10.6045 17.2007V29.2703L7.56187 30.7648L7.32696 30.2838V30.2816C7.10772 29.8386 6.57079 29.6529 6.12555 29.8677L0.507897 32.606C0.290885 32.7089 0.127572 32.8946 0.0492688 33.1206C-0.0290345 33.3465 -0.013376 33.5926 0.0917762 33.8074L6.93759 47.8392C7.15683 48.2822 7.69152 48.4656 8.139 48.2508L13.7544 45.5102C14.618 45.027 14.1616 44.2574 13.8215 43.6019L16.9537 42.0515V42.0538C17.4794 41.801 18.0835 41.7607 18.6383 41.9419L26.0253 44.4834C27.4236 44.9644 28.9538 44.8749 30.2872 44.2351L47.8671 35.7289C48.9253 35.2009 49.6993 34.2367 49.9879 33.0912C50.2743 31.9435 50.0466 30.729 49.362 29.7647ZM41.6525 10.509H44.7331V28.3644C44.3327 28.4539 42.0664 29.6105 41.6525 29.7962V10.509ZM31.8984 15.5651H34.979V33.0018L34.7643 33.1047C34.5965 31.4783 33.4667 30.1113 31.9006 29.637L31.8984 15.5651ZM22.1529 13.0416H25.238V27.3397L22.1573 26.277L22.1529 13.0416ZM12.3987 18.0977L15.4839 18.0999V26.8764L12.4032 28.3887L12.3987 18.0977ZM8.15924 46.2421L2.10093 33.8276L6.09886 31.8768C6.10333 31.8858 12.1572 44.2913 12.1572 44.2935L8.15924 46.2421ZM48.2593 32.6598C48.1005 33.2952 47.671 33.8277 47.0825 34.1141L29.5113 42.6156C28.6052 43.0496 27.5649 43.1123 26.6118 42.7857L19.2133 40.2419C17.1932 39.3985 14.7836 41.2196 13.0388 41.9892L8.34956 32.3783L17.6695 27.8054C18.5667 27.3647 19.6047 27.2998 20.5511 27.6264L31.493 31.4006C32.6541 31.8033 33.2671 33.0718 32.8644 34.2351C32.4617 35.3962 31.1932 36.0093 30.0299 35.6065L19.7139 32.0448C19.2441 31.8838 18.734 32.1321 18.5707 32.6019C18.4096 33.0717 18.6602 33.584 19.13 33.7451L29.533 37.3247C31.4168 37.9153 33.4526 37.0585 34.3452 35.2977L44.9453 30.1969C45.7238 29.7584 46.6858 29.8188 47.404 30.3513C48.1199 30.8837 48.4554 31.7898 48.2586 32.6601L48.2593 32.6598Z" fill="#EDECF1"/>
<path d="M6.3153 14.8231C6.50099 14.8231 6.6822 14.7649 6.83433 14.6575L21.1657 4.53397L30.8929 9.15158C31.1524 9.27463 31.4544 9.26568 31.7072 9.12921L41.7838 3.65474L41.3632 5.22081C41.2357 5.70181 41.5198 6.19398 41.9986 6.32153C42.4774 6.45129 42.9695 6.16716 43.0993 5.68615L44.0613 2.0932C44.124 1.865 44.0927 1.61891 43.9718 1.41085C43.8533 1.20503 43.6564 1.05514 43.426 0.994733L39.833 0.0304888C39.3542 -0.0970347 38.8621 0.187095 38.7323 0.665872C38.6048 1.14464 38.8889 1.63682 39.3677 1.7666L40.7928 2.14916L31.2489 7.3395L21.461 2.68609C21.1679 2.54515 20.8233 2.57647 20.5571 2.7644L5.79623 13.1898C5.48526 13.4202 5.3555 13.8229 5.47183 14.192C5.5904 14.5612 5.92824 14.8141 6.3153 14.8231Z" fill="#D4D3D8"/>
</svg>
