<svg width="38" height="48" viewBox="0 0 38 48" fill="none" xmlns="http://www.w3.org/2000/svg">
<path d="M3.82617 20.4033L19.1285 24.2289L27.4172 21.6785L35.7059 20.4033V45.9071H3.82617V20.4033Z" fill="#2158E2"/>
<path d="M12.4569 17.3259C12.6281 17.3283 12.7987 17.307 12.9639 17.2625L15.6336 20.7878C16.015 21.279 16.5745 21.6002 17.1909 21.6818C17.8074 21.7634 18.4312 21.5988 18.9272 21.2237C19.4232 20.8486 19.7514 20.2932 19.8407 19.6778C19.9301 19.0624 19.7733 18.4365 19.4045 17.9359L18.0261 16.1138L22.7159 15.8366C23.1184 15.8089 23.5073 15.6797 23.8463 15.4611C24.1854 15.2426 24.4636 14.9417 24.655 14.5866C24.8464 14.2315 24.9447 13.8336 24.9409 13.4303C24.937 13.0269 24.8311 12.631 24.633 12.2796L20.8622 5.74401C20.6564 5.39647 20.3661 5.10652 20.0184 4.90104C19.6707 4.69556 19.2767 4.5812 18.873 4.56856C18.4692 4.55592 18.0689 4.64541 17.7089 4.82873C17.349 5.01205 17.0412 5.28328 16.8141 5.61726L13.8909 10.0535C13.5888 10.5088 13.4543 11.0549 13.5106 11.5983L11.2687 12.8896C10.8205 13.1545 10.4713 13.5588 10.2746 14.0408C10.0778 14.5227 10.0441 15.0559 10.1788 15.5588C10.3135 16.0617 10.6091 16.5066 11.0205 16.8257C11.4318 17.1448 11.9364 17.3205 12.4569 17.3259ZM18.137 18.8865C18.2593 19.0516 18.3116 19.2583 18.2825 19.4618C18.2534 19.6652 18.1452 19.8489 17.9814 19.9731C17.8176 20.0972 17.6115 20.1517 17.4078 20.1248C17.204 20.0979 17.0191 19.9917 16.8932 19.8292L14.4216 16.5575L15.7842 15.7732L18.137 18.8865ZM12.0608 14.268L14.1126 13.0797L14.9127 14.4502L12.853 15.6385C12.6715 15.74 12.4573 15.766 12.2568 15.7108C12.0563 15.6557 11.8855 15.5238 11.7814 15.3438C11.6773 15.1637 11.6483 14.9499 11.7006 14.7486C11.7529 14.5473 11.8823 14.3747 12.0608 14.268Z" fill="#2158E2"/>
<path d="M24.1178 8.21674C24.223 8.39855 24.3961 8.5312 24.599 8.58559C24.8019 8.63997 25.018 8.61166 25.2001 8.50685L26.5721 7.71466C26.754 7.60955 26.8867 7.43651 26.941 7.2336C26.9954 7.03068 26.9669 6.81449 26.8619 6.63255C26.7569 6.45062 26.5839 6.31784 26.381 6.2634C26.1781 6.20896 25.9619 6.23732 25.7799 6.34224L24.4079 7.13444C24.2259 7.23951 24.0931 7.41256 24.0387 7.61552C23.9843 7.81848 24.0128 8.03474 24.1178 8.21674Z" fill="#2158E2"/>
<path d="M22.3765 6.47716C22.5585 6.58198 22.7747 6.61031 22.9775 6.55592C23.1804 6.50153 23.3533 6.36886 23.4584 6.18705L24.2506 4.81541C24.3027 4.72534 24.3366 4.6259 24.3502 4.52275C24.3638 4.41961 24.357 4.31479 24.3301 4.21428C24.3032 4.11377 24.2568 4.01955 24.1935 3.93699C24.1302 3.85443 24.0512 3.78515 23.9611 3.73312C23.871 3.68108 23.7716 3.64731 23.6684 3.63373C23.5653 3.62015 23.4605 3.62702 23.36 3.65396C23.2595 3.6809 23.1653 3.72738 23.0827 3.79074C23.0002 3.8541 22.931 3.93309 22.879 4.02322L22.0868 5.39485C22.0347 5.48493 22.0009 5.58439 21.9873 5.68755C21.9737 5.7907 21.9805 5.89553 22.0074 5.99604C22.0343 6.09655 22.0808 6.19077 22.1441 6.27333C22.2074 6.35588 22.2864 6.42514 22.3765 6.47716Z" fill="#2158E2"/>
<path d="M24.7538 10.593C24.7538 10.697 24.7743 10.8 24.8141 10.8962C24.8539 10.9923 24.9122 11.0796 24.9858 11.1532C25.0594 11.2268 25.1467 11.2851 25.2428 11.3249C25.3389 11.3647 25.442 11.3852 25.546 11.3852H27.1304C27.3405 11.3852 27.542 11.3017 27.6906 11.1531C27.8391 11.0046 27.9226 10.8031 27.9226 10.593C27.9226 10.3829 27.8391 10.1814 27.6906 10.0328C27.542 9.88424 27.3405 9.80078 27.1304 9.80078H25.546C25.442 9.80075 25.3389 9.82123 25.2428 9.86103C25.1467 9.90083 25.0594 9.95918 24.9858 10.0327C24.9122 10.1063 24.8539 10.1937 24.8141 10.2898C24.7743 10.3859 24.7538 10.4889 24.7538 10.593Z" fill="#2158E2"/>
<path d="M37.2205 45.9471H35.6361V17.4281C35.6362 17.012 35.5543 16.5998 35.3951 16.2153C35.2359 15.8308 35.0025 15.4815 34.7082 15.1872C34.414 14.8929 34.0646 14.6595 33.6801 14.5003C33.2956 14.3411 32.8835 14.2592 32.4673 14.2593H31.5721C31.7974 12.4754 31.6404 10.6639 31.1116 8.94528C30.5828 7.22667 29.6943 5.64028 28.5051 4.29152C27.3159 2.94277 25.8533 1.86254 24.2145 1.12261C22.5757 0.382679 20.7981 0 19 0C17.2019 0 15.4243 0.382679 13.7855 1.12261C12.1467 1.86254 10.6841 2.94277 9.49489 4.29152C8.30573 5.64028 7.41722 7.22667 6.88841 8.94528C6.3596 10.6639 6.2026 12.4754 6.42785 14.2593H5.53267C5.11651 14.2592 4.7044 14.3411 4.3199 14.5003C3.93539 14.6595 3.58602 14.8929 3.29175 15.1872C2.99748 15.4815 2.76407 15.8308 2.60487 16.2153C2.44566 16.5998 2.36378 17.012 2.36389 17.4281V45.9471H0.7795C0.571609 45.9505 0.373369 46.0354 0.227543 46.1837C0.0817175 46.3319 -6.23718e-06 46.5314 3.57032e-10 46.7394C6.2379e-06 46.9473 0.0817419 47.1469 0.227577 47.2951C0.373411 47.4433 0.571656 47.5282 0.779547 47.5315H37.2205C37.4284 47.5282 37.6266 47.4432 37.7724 47.295C37.9183 47.1468 38 46.9473 38 46.7393C38 46.5314 37.9183 46.3318 37.7724 46.1836C37.6266 46.0354 37.4284 45.9505 37.2205 45.9471ZM19 1.58421C20.6442 1.59268 22.2661 1.96489 23.7495 2.67413C25.2328 3.38338 26.5408 4.41209 27.5797 5.68649C28.6186 6.96088 29.3626 8.44938 29.7584 10.0452C30.1542 11.6411 30.1919 13.3048 29.8689 14.9169C27.2118 26.6616 10.7852 26.6567 8.13109 14.9167C7.80812 13.3046 7.84588 11.6409 8.24167 10.0451C8.63747 8.4493 9.38149 6.96083 10.4204 5.68646C11.4593 4.4121 12.7673 3.38341 14.2506 2.67417C15.7339 1.96493 17.3558 1.59271 19 1.58421ZM20.5844 27.7267H17.4156C16.9958 27.7254 16.5935 27.5581 16.2966 27.2612C15.9998 26.9644 15.8324 26.5621 15.8312 26.1423V24.9461C17.9096 25.4832 20.0904 25.4832 22.1688 24.9461V26.1423C22.1675 26.5621 22.0002 26.9644 21.7034 27.2612C21.4065 27.5581 21.0042 27.7254 20.5844 27.7267ZM22.1688 30.8954V33.272C22.1675 33.6918 22.0002 34.0941 21.7034 34.391C21.4065 34.6879 21.0042 34.8552 20.5844 34.8564H17.4156C16.9958 34.8552 16.5935 34.6879 16.2966 34.391C15.9998 34.0941 15.8324 33.6918 15.8312 33.272V30.8954C15.8324 30.4756 15.9998 30.0733 16.2966 29.7765C16.5935 29.4796 16.9958 29.3123 17.4156 29.311H20.5844C21.0042 29.3123 21.4065 29.4796 21.7034 29.7764C22.0002 30.0733 22.1676 30.4756 22.1688 30.8954ZM12.6624 33.272C12.6612 33.6918 12.4939 34.0941 12.197 34.391C11.9001 34.6879 11.4979 34.8552 11.078 34.8564H7.90926C7.48943 34.8552 7.08715 34.6879 6.79029 34.391C6.49342 34.0941 6.3261 33.6918 6.32487 33.272V30.8954C6.32609 30.4756 6.49341 30.0733 6.79028 29.7765C7.08714 29.4796 7.48943 29.3123 7.90926 29.311H11.078C11.4979 29.3123 11.9002 29.4796 12.197 29.7764C12.4939 30.0733 12.6612 30.4756 12.6624 30.8954V33.272ZM12.6624 26.1423C12.6612 26.5621 12.4939 26.9644 12.197 27.2612C11.9001 27.5581 11.4979 27.7254 11.078 27.7267H7.90926C7.48943 27.7254 7.08715 27.5581 6.79029 27.2612C6.49342 26.9644 6.3261 26.5621 6.32487 26.1423V23.7657C6.32609 23.3458 6.49341 22.9436 6.79028 22.6467C7.08714 22.3498 7.48943 22.1825 7.90926 22.1813H10.6344C11.2559 22.7353 11.9328 23.2238 12.6545 23.6389C12.6613 23.6808 12.664 23.7233 12.6624 23.7657V26.1423ZM24.5454 45.9471H13.4546V38.8174C13.4565 38.1876 13.7075 37.5842 14.1527 37.1389C14.598 36.6936 15.2015 36.4426 15.8312 36.4408H22.1688C22.7985 36.4426 23.4019 36.6936 23.8472 37.1389C24.2925 37.5842 24.5435 38.1876 24.5454 38.8174V45.9471ZM31.6751 33.272C31.6739 33.6918 31.5066 34.0941 31.2097 34.391C30.9128 34.6879 30.5105 34.8552 30.0907 34.8564H26.9219C26.5021 34.8552 26.0998 34.6879 25.803 34.391C25.5061 34.0941 25.3388 33.6918 25.3375 33.272V30.8954C25.3388 30.4756 25.5061 30.0733 25.803 29.7765C26.0998 29.4796 26.5021 29.3123 26.9219 29.311H30.0907C30.5106 29.3123 30.9128 29.4796 31.2097 29.7764C31.5066 30.0733 31.6739 30.4756 31.6751 30.8954V33.272ZM31.6751 26.1423C31.6739 26.5621 31.5066 26.9644 31.2097 27.2612C30.9128 27.5581 30.5105 27.7254 30.0907 27.7267H26.9219C26.5021 27.7254 26.0998 27.5581 25.803 27.2612C25.5061 26.9644 25.3388 26.5621 25.3375 26.1423V23.7657C25.336 23.7233 25.3386 23.6808 25.3455 23.6389C26.0672 23.2238 26.7441 22.7353 27.3656 22.1813H30.0907C30.5106 22.1825 30.9128 22.3498 31.2097 22.6467C31.5066 22.9436 31.6739 23.3458 31.6751 23.7657V26.1423Z" fill="#003D7C"/>
</svg>
