<svg width="43" height="48" viewBox="0 0 43 48" fill="none" xmlns="http://www.w3.org/2000/svg">
<path d="M11.4685 1.23047H41.0031V35.6875L12.0838 35.0722L11.4685 29.5345L1.00828 28.9192L0.392975 18.459L1.62358 7.38352L11.4685 6.76821V1.23047Z" fill="#D4D3D8"/>
<path d="M20.698 35.8106L39.7725 35.6875V36.4597C39.7725 38.8731 37.4949 40.6375 35.1581 40.0344L20.698 36.3028V35.8106Z" fill="#D4D3D8"/>
<path d="M20.0825 37.5352L34.2345 38.1505V38.8506C34.2345 41.4624 31.5966 43.2483 29.1716 42.2783L21.9284 39.3811L20.0825 37.5352Z" fill="#D4D3D8"/>
<path d="M16.0098 36.918L28.6968 41.2251L28.6134 41.6412C28.0636 44.3818 24.7859 45.5411 22.6353 43.7556L17.199 39.2419L16.0098 36.918Z" fill="#D4D3D8"/>
<path d="M39.2965 0H13.6026C12.8012 0.00085217 12.0328 0.3196 11.4661 0.886302C10.8994 1.453 10.5807 2.22137 10.5798 3.02281V6.04341H3.02281C2.22137 6.04426 1.453 6.36301 0.886302 6.92971C0.319599 7.49641 0.00085217 8.26478 0 9.06622V27.2031C0.000854167 28.0045 0.319602 28.7729 0.886304 29.3396C1.45301 29.9063 2.22137 30.225 3.02281 30.2259H10.5798V33.2509C10.5817 33.8018 10.7346 34.3416 11.0218 34.8117C11.309 35.2817 11.7196 35.6641 12.2089 35.9172C12.2536 35.991 12.3108 36.0564 12.3779 36.1106L23.5851 44.9754C24.0138 45.3075 24.5234 45.5192 25.0613 45.5884C25.5992 45.6576 26.1459 45.5819 26.6447 45.3691C27.1436 45.1563 27.5765 44.8141 27.8988 44.3779C28.2211 43.9417 28.421 43.4274 28.4779 42.888C29.2103 43.179 30.3819 43.8583 31.1894 43.8005C31.8091 43.8006 32.4139 43.6103 32.9218 43.2552C33.4297 42.9001 33.8161 42.3974 34.0288 41.8153L34.4776 40.5852C35.9331 40.8725 37.6652 41.5074 38.9393 40.3665C39.2877 40.0838 39.5685 39.7267 39.761 39.3214C39.9536 38.9161 40.0531 38.4729 40.0522 38.0242V36.1664C40.6995 35.9998 41.2732 35.6232 41.6835 35.0956C42.0937 34.568 42.3174 33.9192 42.3193 33.2509V3.02279C42.3185 2.22135 41.9997 1.45299 41.433 0.886294C40.8663 0.319596 40.098 0.00085216 39.2965 0ZM24.1825 18.1346H13.6026V7.55481H22.6711C23.0718 7.55527 23.4559 7.71465 23.7393 7.998C24.0226 8.28134 24.182 8.66551 24.1825 9.06622V18.1346ZM24.1825 19.6461V27.2031C24.182 27.6038 24.0226 27.9879 23.7393 28.2713C23.4559 28.5546 23.0718 28.714 22.6711 28.7145H13.6026V19.6461H24.1825ZM3.02281 7.55481H12.0912V18.1346H1.5114V9.06622C1.51186 8.66551 1.67125 8.28134 1.95459 7.998C2.23794 7.71465 2.6221 7.55527 3.02281 7.55481ZM1.5114 27.2031V19.6461H12.0912V28.7145H3.02281C2.6221 28.714 2.23794 28.5546 1.95459 28.2713C1.67125 27.9879 1.51186 27.6038 1.5114 27.2031ZM26.9632 42.8123C26.9237 43.0751 26.8162 43.3229 26.6513 43.5313C26.4864 43.7397 26.2699 43.9013 26.0232 44.0001C25.7766 44.099 25.5083 44.1316 25.2452 44.0947C24.982 44.0579 24.7331 43.9529 24.5231 43.7901L16.9959 37.8363L27.0381 42.2545L26.9632 42.8123ZM32.6081 41.2994C32.5363 41.4922 32.4261 41.6684 32.2841 41.8173C32.1421 41.9663 31.9714 42.0848 31.7822 42.1657C31.593 42.2465 31.3893 42.2881 31.1836 42.2879C30.9778 42.2877 30.7743 42.2456 30.5853 42.1643L20.416 37.6901L32.9811 40.2771L32.6081 41.2994ZM37.9844 39.1954C37.8103 39.3369 37.6071 39.438 37.3892 39.4915C37.1714 39.545 36.9444 39.5495 36.7246 39.5046L21.0313 36.2737H38.5408C38.4716 37.2592 38.8229 38.558 37.9844 39.1954ZM40.8079 33.2509C40.8078 33.4493 40.7687 33.6456 40.6927 33.8289C40.6166 34.0121 40.5053 34.1785 40.3649 34.3186C40.2246 34.4588 40.058 34.5699 39.8746 34.6457C39.6913 34.7214 39.4949 34.7603 39.2965 34.7601H13.6026C13.4043 34.7603 13.2079 34.7214 13.0246 34.6456C12.8412 34.5699 12.6747 34.4587 12.5343 34.3186C12.394 34.1784 12.2826 34.012 12.2066 33.8288C12.1305 33.6456 12.0914 33.4493 12.0912 33.2509V30.2259H22.6711C23.4725 30.225 24.2409 29.9063 24.8076 29.3396C25.3743 28.7729 25.693 28.0045 25.6939 27.2031V9.06622C25.693 8.26478 25.3743 7.49641 24.8076 6.92971C24.2409 6.36301 23.4725 6.04426 22.6711 6.04341H12.0912V3.02281C12.0917 2.6221 12.2511 2.23794 12.5344 1.95459C12.8178 1.67125 13.2019 1.51186 13.6026 1.5114H39.2965C39.6972 1.51186 40.0814 1.67125 40.3647 1.95459C40.6481 2.23794 40.8075 2.6221 40.8079 3.02281V33.2509Z" fill="#EDECF1"/>
<path d="M21.1597 12.0898H16.6255C16.4269 12.0927 16.2374 12.1735 16.098 12.3149C15.9585 12.4563 15.8804 12.647 15.8804 12.8455C15.8804 13.0441 15.9585 13.2348 16.098 13.3762C16.2374 13.5176 16.4269 13.5984 16.6255 13.6012H21.1597C21.3583 13.5984 21.5477 13.5176 21.6872 13.3762C21.8266 13.2348 21.9048 13.0441 21.9048 12.8455C21.9048 12.647 21.8266 12.4563 21.6872 12.3149C21.5477 12.1735 21.3583 12.0927 21.1597 12.0898Z" fill="#EDECF1"/>
<path d="M16.6255 23.4255H21.1597C21.3583 23.4227 21.5477 23.3418 21.6872 23.2004C21.8266 23.059 21.9048 22.8684 21.9048 22.6698C21.9048 22.4712 21.8266 22.2806 21.6872 22.1391C21.5477 21.9977 21.3583 21.9169 21.1597 21.9141H16.6255C16.4269 21.9169 16.2374 21.9977 16.098 22.1391C15.9585 22.2806 15.8804 22.4712 15.8804 22.6698C15.8804 22.8684 15.9585 23.059 16.098 23.2004C16.2374 23.3418 16.4269 23.4227 16.6255 23.4255Z" fill="#EDECF1"/>
<path d="M21.1597 24.9375H16.6255C16.4269 24.9403 16.2374 25.0212 16.098 25.1626C15.9585 25.304 15.8804 25.4946 15.8804 25.6932C15.8804 25.8918 15.9585 26.0824 16.098 26.2238C16.2374 26.3652 16.4269 26.4461 16.6255 26.4489H21.1597C21.3583 26.4461 21.5477 26.3652 21.6872 26.2238C21.8266 26.0824 21.9048 25.8918 21.9048 25.6932C21.9048 25.4946 21.8266 25.304 21.6872 25.1626C21.5477 25.0212 21.3583 24.9403 21.1597 24.9375Z" fill="#EDECF1"/>
<path d="M4.53415 13.5988H6.04556V15.1102C6.04556 15.3107 6.12518 15.5029 6.2669 15.6446C6.40862 15.7863 6.60084 15.8659 6.80126 15.8659C7.00168 15.8659 7.1939 15.7863 7.33562 15.6446C7.47734 15.5029 7.55696 15.3107 7.55696 15.1102V13.5988H9.06837C9.26879 13.5988 9.46101 13.5192 9.60273 13.3775C9.74445 13.2358 9.82407 13.0435 9.82407 12.8431C9.82407 12.6427 9.74445 12.4505 9.60273 12.3088C9.46101 12.167 9.26879 12.0874 9.06837 12.0874H7.55696V10.576C7.55696 10.3756 7.47734 10.1834 7.33562 10.0417C7.1939 9.89993 7.00168 9.82031 6.80126 9.82031C6.60084 9.82031 6.40862 9.89993 6.2669 10.0417C6.12518 10.1834 6.04556 10.3756 6.04556 10.576V12.0874H4.53415C4.33558 12.0902 4.14609 12.1711 4.00666 12.3125C3.86723 12.4539 3.78906 12.6445 3.78906 12.8431C3.78906 13.0417 3.86723 13.2323 4.00666 13.3737C4.14609 13.5152 4.33558 13.596 4.53415 13.5988Z" fill="#EDECF1"/>
<path d="M7.86939 24.1792L8.93814 23.1102C9.07984 22.9685 9.15945 22.7763 9.15945 22.5759C9.15946 22.3755 9.07985 22.1833 8.93814 22.0416C8.79643 21.8999 8.60424 21.8203 8.40383 21.8203C8.20343 21.8203 8.01123 21.8999 7.86953 22.0416L6.80092 23.1105L5.73231 22.0416C5.5906 21.8999 5.39841 21.8203 5.198 21.8203C4.9976 21.8203 4.8054 21.8999 4.6637 22.0416C4.52199 22.1833 4.44238 22.3755 4.44238 22.5759C4.44238 22.7763 4.52199 22.9685 4.6637 23.1102L5.73245 24.1792L4.6637 25.2482C4.59354 25.3184 4.53788 25.4017 4.4999 25.4933C4.46193 25.585 4.44239 25.6833 4.44239 25.7825C4.44239 25.8817 4.46193 25.98 4.4999 26.0717C4.53788 26.1633 4.59354 26.2466 4.6637 26.3168C4.73387 26.387 4.81717 26.4426 4.90884 26.4806C5.00052 26.5186 5.09878 26.5381 5.19801 26.5381C5.29724 26.5381 5.39549 26.5186 5.48717 26.4806C5.57885 26.4426 5.66214 26.387 5.73231 26.3168L6.80092 25.248L7.86953 26.3168C7.93969 26.387 8.02299 26.4427 8.11467 26.4806C8.20634 26.5186 8.3046 26.5382 8.40383 26.5382C8.50306 26.5382 8.60132 26.5186 8.693 26.4806C8.78467 26.4427 8.86797 26.387 8.93814 26.3168C9.0083 26.2467 9.06396 26.1634 9.10193 26.0717C9.13991 25.98 9.15945 25.8818 9.15945 25.7825C9.15945 25.6833 9.13991 25.5851 9.10193 25.4934C9.06396 25.4017 9.0083 25.3184 8.93814 25.2482L7.86939 24.1792Z" fill="#EDECF1"/>
</svg>
