<svg width="48" height="48" viewBox="0 0 48 48" fill="none" xmlns="http://www.w3.org/2000/svg">
<path d="M0.628711 3.63353H16.9573L20.591 2.42231L22.4078 0.605469H23.619H24.8302L26.6471 2.42231H27.8583L29.0695 3.63353L46.6553 4.23915V35.1254L0.605713 35.1254L0.628711 3.63353Z" fill="#2158E2"/>
<path d="M12.7177 35.125H15.7457L11.5064 46.6317L9.08398 46.026L12.7177 35.125Z" fill="#2158E2"/>
<path d="M34.5206 35.125H31.4926L35.7318 46.6317L38.1543 46.026L34.5206 35.125Z" fill="#2158E2"/>
<path d="M24.8301 35.125H21.802L22.4076 46.6317L24.8301 46.026V35.125Z" fill="#2158E2"/>
<path d="M35.125 42.3931L35.125 38.7594L13.4995 39L13.4995 42.5L35.125 42.3931Z" fill="#2158E2"/>
<path d="M45.4191 3.15193H29.372C29.2482 2.4494 28.6044 1.91254 27.8201 1.91254H26.7674C26.6164 1.91254 26.4822 1.86431 26.371 1.75736C26.2914 1.68815 26.2431 1.59169 26.2431 1.48264C26.2431 0.666883 25.5343 0 24.6703 0H22.5711C21.7008 0 20.9983 0.664789 20.9983 1.48264C20.9983 1.71332 20.7571 1.91254 20.4719 1.91254H19.4192C18.6349 1.91254 17.991 2.4494 17.8673 3.15193H1.82445C0.815753 3.15193 0 3.97396 0 4.97638V33.87C0 34.8787 0.822034 35.6944 1.82445 35.6944H11.9995L8.55185 44.3636C8.29391 45.0179 8.37569 45.7603 8.76576 46.3391C9.15162 46.9074 9.78492 47.2471 10.4686 47.2471C11.3158 47.2471 12.0896 46.704 12.3958 45.8987L13.6729 42.5223H21.554V45.1793C21.554 46.3181 22.483 47.2471 23.6217 47.2471C24.7605 47.2471 25.6895 46.3181 25.6895 45.1793V42.5223H33.5706L34.8477 45.8987C35.1539 46.704 35.9277 47.2471 36.7749 47.2471C37.9136 47.2471 38.8426 46.3076 38.8426 45.1542C38.8426 44.8795 38.7881 44.6174 38.6917 44.3657L35.244 35.7003H45.4126C46.4213 35.7003 47.2371 34.8783 47.2371 33.8758V4.97579C47.2371 3.96709 46.415 3.15134 45.4126 3.15134L45.4191 3.15193ZM18.8995 3.3889C18.8995 3.15822 19.1407 2.96529 19.4259 2.96529H20.4786C21.3489 2.96529 22.0514 2.3005 22.0514 1.48265C22.0514 1.24568 22.2884 1.05275 22.5778 1.05275H24.677C24.9664 1.05275 25.2034 1.24568 25.2034 1.48265C25.2034 1.89159 25.3795 2.28166 25.6752 2.53537C25.9646 2.81009 26.3568 2.95899 26.7762 2.95899H27.8289C28.1141 2.95899 28.3553 3.15192 28.3553 3.3826V4.81702C28.3553 5.054 28.1183 5.24693 27.8289 5.24693H19.432C19.1426 5.24693 18.9056 5.05399 18.9056 4.81702V3.3826L18.8995 3.3889ZM11.4152 45.5257C11.26 45.9346 10.8888 46.1967 10.4694 46.1967C10.136 46.1967 9.8298 46.0353 9.63685 45.7522C9.43343 45.4565 9.39569 45.0916 9.5299 44.7539L13.1264 35.6966H15.1292L11.4131 45.5259L11.4152 45.5257ZM21.5569 41.472H14.0726L14.8674 39.3728H21.5572L21.5569 41.472ZM21.5569 38.32H15.2596L16.2537 35.6945H21.5572L21.5569 38.32ZM24.6439 45.1757C24.6439 45.7398 24.1867 46.1949 23.6247 46.1949C23.0606 46.1949 22.6055 45.7377 22.6055 45.1757V35.6948H24.6397V45.1757H24.6439ZM25.6966 41.4722V39.373H32.3863L33.1812 41.4722H25.6966ZM25.6966 38.3203V35.6948H31.0001L31.9942 38.3203H25.6966ZM37.7211 44.7518C37.7756 44.8798 37.7966 45.0098 37.7966 45.1482C37.7966 45.6536 37.4044 46.1946 36.7774 46.1946C36.358 46.1946 35.9826 45.9325 35.8316 45.5299L32.1156 35.7005H34.1183L37.7211 44.7579L37.7211 44.7518ZM46.1975 33.8698C46.1975 34.2997 45.8494 34.6478 45.4195 34.6478H1.82517C1.39526 34.6478 1.04715 34.2997 1.04715 33.8698V4.97617C1.04715 4.54626 1.39527 4.19816 1.82517 4.19816H17.845V4.81468C17.845 5.63044 18.5538 6.29732 19.4178 6.29732H27.8148C28.685 6.29732 29.3876 5.63253 29.3876 4.81468V4.19816H45.4074C45.8373 4.19816 46.1854 4.54628 46.1854 4.97617V33.8698H46.1975Z" fill="#003D7C"/>
<path d="M43.0449 25C43.0449 24.763 42.9526 24.5428 42.7869 24.3709L41.7678 23.3517C41.4238 23.0078 40.8597 23.0078 40.5179 23.3517L38.8486 25.021L37.1793 23.3517C36.8354 23.0078 36.2713 23.0078 35.9295 23.3517L34.9103 24.3709C34.7446 24.5365 34.6523 24.763 34.6523 25C34.6523 25.237 34.7446 25.4614 34.9103 25.6291L36.5796 27.2984L34.9103 28.9677C34.7446 29.1334 34.6523 29.3599 34.6523 29.5969C34.6523 29.8339 34.7446 30.0541 34.9103 30.226L35.9295 31.2452C36.2734 31.5891 36.8375 31.5891 37.1793 31.2452L38.8486 29.5759L40.5179 31.2452C40.6899 31.4172 40.9143 31.5031 41.1408 31.5031C41.3673 31.5031 41.5979 31.4172 41.7699 31.2452L42.7891 30.226C42.9548 30.0604 43.047 29.8339 43.047 29.5969C43.047 29.3599 42.9548 29.1355 42.7891 28.9677L41.1198 27.2984L42.7891 25.6291C42.9548 25.4635 43.047 25.237 43.047 25H43.0449ZM40.2578 26.6693C39.9139 27.0132 39.9139 27.5773 40.2578 27.9192L41.9271 29.5885L41.1386 30.377L39.4693 28.7077C39.3036 28.542 39.0772 28.4497 38.8402 28.4497C38.6032 28.4497 38.3788 28.542 38.211 28.7077L36.5417 30.377L35.7532 29.5885L37.4225 27.9192C37.7664 27.5752 37.7664 27.0111 37.4225 26.6693L35.7532 25L36.5417 24.2115L38.211 25.8808C38.5445 26.2142 39.1295 26.2142 39.4609 25.8808L41.1302 24.2115L41.9187 25L40.2494 26.6693H40.2578Z" fill="#003D7C"/>
<path d="M42.2606 8.7599C42.1851 8.46002 42.0027 8.20629 41.7343 8.0469C41.4658 7.88542 41.1492 7.833 40.843 7.91269L33.2787 9.86088C32.9725 9.93638 32.7103 10.123 32.5489 10.3977C32.3874 10.6662 32.3392 10.9828 32.4146 11.2722L32.9515 13.5601C33.027 13.86 33.2094 14.1138 33.4779 14.2794C33.7463 14.4409 34.0629 14.4933 34.3692 14.4199L35.7428 14.076C30.5671 20.7593 21.4887 25.1884 11.1333 26.0103C10.4517 24.6095 9.01731 23.6364 7.35853 23.6364C5.04543 23.6364 3.16016 25.5217 3.16016 27.8348C3.16016 30.1479 5.04543 32.0332 7.35853 32.0332C8.97538 32.0332 10.3804 31.1104 11.0851 29.7683C11.3115 29.7515 11.5422 29.741 11.7666 29.72H11.8421C23.261 28.6296 33.3813 23.5838 39.1842 16.137L39.5176 17.5211C39.6791 18.1376 40.3062 18.5193 40.9352 18.3641L43.2106 17.7727C43.5168 17.6972 43.7747 17.5106 43.9362 17.2422C44.0977 16.9737 44.1459 16.6571 44.0704 16.3614L42.2711 8.77615L42.2606 8.7599ZM7.35048 30.9702C5.61198 30.9702 4.19854 29.5588 4.19854 27.8182C4.19854 26.0797 5.60988 24.6663 7.35048 24.6663C9.08898 24.6663 10.5024 26.0777 10.5024 27.8182C10.5024 29.5567 9.09107 30.9702 7.35048 30.9702ZM43.0305 16.685C43.0305 16.685 42.999 16.7269 42.9508 16.7395L40.6691 17.3309C40.6041 17.3477 40.5412 17.3036 40.5244 17.2512L39.9289 14.7934C39.8806 14.5942 39.7192 14.439 39.5199 14.4013C39.3165 14.3635 39.111 14.4432 38.9936 14.611C33.5015 22.303 23.3072 27.554 11.6896 28.6616C11.6581 28.6616 11.6309 28.6616 11.6141 28.6679C11.5659 28.6679 11.5113 28.6742 11.4631 28.6784C11.5218 28.4036 11.5491 28.1142 11.5491 27.8249C11.5491 27.5501 11.5218 27.2817 11.4694 27.0196C22.6199 26.0696 32.3144 21.0283 37.4484 13.5015C37.5721 13.3191 37.5721 13.0821 37.4484 12.9059C37.3247 12.7298 37.1003 12.6438 36.8906 12.6962L34.114 13.3946C34.072 13.4051 34.0343 13.3883 34.0217 13.3778C34.0007 13.3673 33.9798 13.3463 33.9735 13.3128L33.4366 11.0207C33.4303 10.9892 33.4366 10.962 33.4471 10.9347C33.4576 10.9179 33.4786 10.8865 33.5331 10.876L41.0974 8.92779C41.1393 8.9173 41.1771 8.93408 41.1897 8.94456C41.2106 8.95505 41.2316 8.97602 41.2442 9.00957L43.0477 16.6013C43.0582 16.639 43.0477 16.6705 43.0372 16.6935L43.0305 16.685Z" fill="#003D7C"/>
</svg>
