<svg width="486" height="926" viewBox="0 0 486 926" fill="none" xmlns="http://www.w3.org/2000/svg">
<mask id="mask0_2_235" style="mask-type:alpha" maskUnits="userSpaceOnUse" x="0" y="0" width="428" height="926">
<rect width="428" height="926" fill="#D9D9D9"/>
</mask>
<g mask="url(#mask0_2_235)">
<circle cx="-19.9999" cy="453.108" r="309.526" stroke="#2674CF" stroke-width="6.03"/>
<circle cx="-19.4634" cy="452.429" r="360.621" stroke="#2674CF" stroke-opacity="0.2" stroke-width="4.44079"/>
<circle cx="-20" cy="452.5" r="403.936" stroke="#2674CF" stroke-opacity="0.2" stroke-width="4.12883"/>
</g>
<g filter="url(#filter0_d_2_235)">
<rect x="108" y="119.684" width="320" height="589.139" rx="41.9213" fill="white" fill-opacity="0.35" shape-rendering="crispEdges"/>
<rect x="109.048" y="120.732" width="317.904" height="587.043" rx="40.8732" stroke="#F0F0F0" stroke-width="2.09606" shape-rendering="crispEdges"/>
</g>
<rect x="128.133" y="141.936" width="279.735" height="546.755" rx="20.9606" fill="#002245"/>
<path d="M137.642 216.945H137.706C139.785 216.945 141.481 218.641 141.481 220.72V261.508C141.481 263.587 139.785 265.282 137.706 265.282H137.642C135.563 265.282 133.867 263.587 133.867 261.508V220.72C133.835 218.609 135.531 216.945 137.642 216.945Z" fill="#FFC283"/>
<path d="M152.675 225.264H152.739C154.818 225.264 156.514 226.959 156.514 229.039V250.952C156.514 253.031 154.818 254.727 152.739 254.727H152.675C150.595 254.727 148.9 253.031 148.9 250.952V229.039C148.9 226.959 150.595 225.264 152.675 225.264Z" fill="#FFC283"/>
<path d="M288.256 205.525H288.32C290.399 205.525 292.095 207.221 292.095 209.3V272.897C292.095 274.976 290.399 276.672 288.32 276.672H288.256C286.177 276.672 284.481 274.976 284.481 272.897V209.332C284.449 207.221 286.145 205.525 288.256 205.525Z" fill="#FFC283"/>
<path d="M273.604 216.945H273.668C275.747 216.945 277.442 218.641 277.442 220.72V261.508C277.442 263.587 275.747 265.282 273.668 265.282H273.604C271.524 265.282 269.829 263.587 269.829 261.508V220.72C269.797 218.609 271.492 216.945 273.604 216.945Z" fill="#FFC283"/>
<path d="M306.037 216.945H306.101C308.18 216.945 309.876 218.641 309.876 220.72V261.508C309.876 263.587 308.18 265.282 306.101 265.282H306.037C303.958 265.282 302.262 263.587 302.262 261.508V220.72C302.262 218.609 303.958 216.945 306.037 216.945Z" fill="#FFC283"/>
<path d="M258.215 225.264H258.279C260.359 225.264 262.054 226.959 262.054 229.039V250.952C262.054 253.031 260.359 254.727 258.279 254.727H258.215C256.136 254.727 254.44 253.031 254.44 250.952V229.039C254.44 226.959 256.136 225.264 258.215 225.264Z" fill="#FFC283"/>
<path d="M244.17 218.385H244.234C246.314 218.385 248.009 220.08 248.009 222.16V257.893C248.009 259.972 246.314 261.667 244.234 261.667H244.17C242.091 261.667 240.396 259.972 240.396 257.893V222.16C240.396 220.08 242.091 218.385 244.17 218.385Z" fill="#FFC283"/>
<path d="M196.796 205.525H196.86C198.939 205.525 200.635 207.221 200.635 209.3V272.897C200.635 274.976 198.939 276.672 196.86 276.672H196.796C194.717 276.672 193.021 274.976 193.021 272.897V209.332C193.021 207.221 194.717 205.525 196.796 205.525Z" fill="#FFC283"/>
<path d="M182.139 216.945H182.203C184.282 216.945 185.977 218.641 185.977 220.72V261.508C185.977 263.587 184.282 265.282 182.203 265.282H182.139C180.059 265.282 178.364 263.587 178.364 261.508V220.72C178.364 218.609 180.059 216.945 182.139 216.945Z" fill="#FFC283"/>
<path d="M214.609 216.945H214.673C216.752 216.945 218.447 218.641 218.447 220.72V261.508C218.447 263.587 216.752 265.282 214.673 265.282H214.609C212.529 265.282 210.834 263.587 210.834 261.508V220.72C210.834 218.609 212.529 216.945 214.609 216.945Z" fill="#FFC283"/>
<path d="M229.621 225.264H229.685C231.764 225.264 233.46 226.959 233.46 229.039V250.952C233.46 253.031 231.764 254.727 229.685 254.727H229.621C227.541 254.727 225.846 253.031 225.846 250.952V229.039C225.846 226.959 227.541 225.264 229.621 225.264Z" fill="#FFC283"/>
<path d="M166.56 234.955H166.624C168.703 234.955 170.399 236.651 170.399 238.73V241.257C170.399 243.337 168.703 245.032 166.624 245.032H166.56C164.48 245.032 162.785 243.337 162.785 241.257V238.73C162.785 236.651 164.48 234.955 166.56 234.955Z" fill="#FFC283"/>
<path d="M322.225 253.585L322.216 270.033C322.201 298.071 299.459 320.791 271.421 320.776L263.76 320.772C235.721 320.757 213.002 298.015 213.017 269.977L213.026 253.529C241.767 244.702 267.629 245.136 267.629 245.136C267.629 245.136 293.493 244.728 322.225 253.585Z" fill="#FFC283"/>
<path opacity="0.4" d="M213.025 260.988C241.767 252.161 267.629 252.596 267.629 252.596C267.629 252.596 293.49 252.189 322.22 261.045L322.225 252.757C293.493 243.9 267.629 244.306 267.629 244.306C267.629 244.306 241.765 243.872 213.025 252.699L213.017 269.147C213.017 269.205 213.021 269.261 213.021 269.318L213.025 260.988Z" fill="white"/>
<path d="M389.64 400.872C384.389 414.776 375.933 427.784 362.603 437.228C361.95 437.684 361.296 438.132 360.651 438.597C357.223 441.065 331.108 458.224 267.515 458.191C203.922 458.158 177.826 440.97 174.399 438.499C173.756 438.033 173.102 437.585 172.449 437.129C159.129 427.672 150.687 414.655 145.451 400.745C137.496 379.638 136.927 356.477 137.876 340.575C138.282 333.783 139.422 327.125 141.233 320.708C141.654 319.206 142.12 317.72 142.623 316.243V316.235C149.524 295.798 163.396 278.139 182.374 266.848C192.266 260.955 202.827 256.656 213.023 253.529L213.014 269.977C212.999 298.016 235.719 320.758 263.757 320.773L271.418 320.776C299.456 320.791 322.199 298.072 322.213 270.034L322.222 253.586C332.414 256.724 342.971 261.033 352.857 266.936C371.823 278.249 385.677 295.921 392.557 316.364V316.373C393.058 317.849 393.522 319.335 393.942 320.839C395.746 327.256 396.879 333.916 397.279 340.709C398.209 356.613 397.616 379.775 389.64 400.872Z" fill="url(#paint0_radial_2_235)"/>
<path d="M145.448 400.743C140.831 400.742 137.091 400.121 134.074 399.181C126.817 396.904 121.961 390.064 121.964 382.458L121.988 338.383C121.991 332.674 124.733 327.502 129.056 324.273C131.312 322.591 133.997 321.439 136.943 321.002C139.457 320.637 141.23 320.709 141.23 320.709C139.419 327.124 138.28 333.782 137.873 340.575C136.925 356.476 137.494 379.638 145.448 400.743Z" fill="url(#paint1_linear_2_235)"/>
<path d="M142.661 251.213L142.628 316.247C142.125 317.723 141.659 319.21 141.238 320.712C141.238 320.712 139.466 320.639 136.95 321.006C134.006 321.442 131.321 322.596 129.064 324.277L129.09 274.984C129.09 274.984 129.039 251.205 142.661 251.213Z" fill="#FFC283"/>
<path d="M351.046 457.118C339.596 464.234 315.877 470.685 267.515 470.658C219.152 470.632 195.441 464.16 183.999 457.03C169.926 448.271 174.406 438.5 174.406 438.5C177.832 440.971 203.928 458.159 267.521 458.192C331.115 458.225 357.229 441.066 360.657 438.598C360.657 438.598 365.127 448.374 351.046 457.118Z" fill="#6B779B"/>
<path d="M404.051 628.11C402.458 631.278 399.101 633.156 395.556 633.154L139.303 633.02C135.758 633.018 132.403 631.137 130.812 627.968C127.263 620.94 135.374 615.379 135.374 615.379L267.438 615.439L399.502 615.517C399.504 615.517 407.599 621.088 404.051 628.11Z" fill="#6B779B"/>
<path d="M413.67 513.592L399.504 615.516L267.44 615.438L135.376 615.379L121.316 513.439C119.657 501.428 128.997 490.722 141.124 490.727L393.888 490.859C406.012 490.866 415.34 501.582 413.67 513.592Z" fill="url(#paint2_linear_2_235)"/>
<path d="M372.722 490.846L162.288 490.736C162.298 470.412 183.999 457.027 183.999 457.027C195.442 464.158 219.154 470.631 267.515 470.656C315.876 470.681 339.595 464.232 351.046 457.115C351.046 457.114 372.732 470.522 372.722 490.846Z" fill="url(#paint3_radial_2_235)"/>
<path opacity="0.3" d="M389.653 387.447C384.402 401.351 375.946 414.36 362.616 423.803C361.963 424.26 361.31 424.707 360.664 425.172C357.236 427.64 331.122 444.799 267.529 444.766C203.935 444.733 177.839 427.545 174.413 425.074C173.769 424.608 173.116 424.16 172.462 423.704C159.142 414.247 150.7 401.23 145.464 387.32C140.157 373.233 138.146 358.243 137.672 345.096C137.105 360.683 138.226 381.553 145.457 400.743C150.695 414.653 159.136 427.67 172.456 437.127C173.109 437.583 173.761 438.031 174.406 438.497C177.833 440.968 203.929 458.156 267.522 458.189C331.115 458.222 357.229 441.063 360.658 438.595C361.303 438.13 361.956 437.682 362.61 437.226C375.94 427.782 384.395 414.776 389.646 400.87C396.898 381.687 398.042 360.819 397.49 345.232C397.002 358.379 394.977 373.366 389.653 387.447Z" fill="#002245"/>
<path opacity="0.3" d="M312.72 250.951L312.713 264.229C312.702 287.385 293.92 306.147 270.764 306.135L264.439 306.132C241.283 306.12 222.521 287.338 222.533 264.183L222.54 250.904C219.425 251.674 216.247 252.541 213.029 253.53L213.021 269.978C213.006 298.016 235.725 320.759 263.764 320.774L271.424 320.777C299.463 320.792 322.205 298.073 322.22 270.034L322.228 253.586C319.011 252.593 315.833 251.724 312.72 250.951Z" fill="#002245"/>
<path opacity="0.3" d="M134.09 376.809C126.833 374.532 121.977 367.692 121.98 360.086L121.969 382.458C121.965 390.065 126.82 396.905 134.078 399.182C137.093 400.124 140.833 400.743 145.453 400.744C142.638 393.277 140.764 385.555 139.538 377.987C137.505 377.715 135.692 377.31 134.09 376.809Z" fill="#002245"/>
<path opacity="0.3" d="M136.394 253.368L136.363 313.241L136.353 313.419C136.29 314.477 135.424 315.318 134.363 315.331C134.356 315.331 134.349 315.331 134.344 315.331C133.615 315.34 132.306 315.394 130.689 315.628C130.138 315.709 129.601 315.824 129.068 315.955L129.063 324.273C131.319 322.591 134.004 321.438 136.95 321.002C139.464 320.637 141.237 320.708 141.237 320.708C141.659 319.206 142.125 317.72 142.627 316.243L142.66 251.209C140.128 251.209 138.07 252.032 136.394 253.368Z" fill="#002245"/>
<path opacity="0.3" d="M351.049 450.851C339.6 457.967 315.881 464.418 267.519 464.391C219.156 464.365 195.445 457.893 184.003 450.763C177.607 446.782 175.05 442.596 174.156 439.209C173.446 441.607 172.184 449.671 183.999 457.027C195.442 464.157 219.154 470.631 267.515 470.656C315.876 470.68 339.595 464.232 351.046 457.115C362.87 449.772 361.615 441.707 360.908 439.307C360.011 442.694 357.448 446.877 351.049 450.851Z" fill="#002245"/>
<path opacity="0.3" d="M176.685 473.477C180.431 470.046 185.828 469.11 190.494 471.122C203.673 476.808 226.901 481.375 267.51 481.395C308.119 481.415 331.352 476.872 344.536 471.202C349.203 469.195 354.599 470.135 358.344 473.57C362.689 477.557 367.887 483.478 370.687 490.846L372.722 490.847C372.732 470.523 351.046 457.115 351.046 457.115C339.597 464.232 315.877 470.682 267.515 470.656C219.153 470.629 195.442 464.158 183.999 457.027C183.999 457.027 162.298 470.414 162.288 490.736L164.323 490.738C167.13 483.374 172.334 477.459 176.685 473.477Z" fill="#002245"/>
<path opacity="0.3" d="M395.559 625.1L139.306 624.965C135.894 624.964 132.673 623.207 131.018 620.25C129.88 622.373 129.334 625.042 130.812 627.967C132.403 631.137 135.758 633.018 139.302 633.019L395.556 633.154C399.1 633.155 402.457 631.278 404.051 628.11C405.527 625.188 404.985 622.517 403.85 620.394C402.19 623.35 398.971 625.101 395.559 625.1Z" fill="#002245"/>
<path opacity="0.3" d="M393.885 490.859H393.137C400.048 494.291 404.461 501.897 403.317 510.163L391.378 596.486C390.677 601.558 386.34 605.334 381.22 605.331L267.445 605.263L153.669 605.212C148.549 605.21 144.216 601.428 143.519 596.355L131.67 510.021C130.534 501.753 134.956 494.152 141.87 490.727H141.122C128.997 490.72 119.657 501.428 121.314 513.439L135.374 615.379L267.438 615.438L399.502 615.516L413.668 513.592C415.34 501.582 406.012 490.866 393.885 490.859Z" fill="#002245"/>
<path d="M267.713 461.327C267.647 461.327 267.592 461.327 267.526 461.327C203.853 461.294 177.262 444.418 172.579 441.036C172.227 440.782 171.87 440.535 171.515 440.288C171.227 440.087 170.938 439.888 170.651 439.684C135.732 414.9 133.174 366.836 134.758 340.392C136.659 308.685 153.863 280.184 180.779 264.155C218.609 241.627 265.014 241.968 267.638 242.005C270.241 241.972 316.663 241.673 354.475 264.246C381.375 280.305 398.55 308.822 400.416 340.531C401.971 366.977 399.367 415.039 364.42 439.785C364.133 439.989 363.844 440.19 363.554 440.391C363.199 440.636 362.842 440.882 362.492 441.135C357.81 444.509 331.238 461.327 267.713 461.327ZM267.192 248.268C262.578 248.268 218.74 248.84 183.985 269.537C158.852 284.504 142.787 311.131 141.013 340.767C139.505 365.916 141.824 411.543 174.277 434.576C174.544 434.766 174.814 434.952 175.085 435.14C175.473 435.41 175.863 435.679 176.246 435.957C178.949 437.909 204.475 455.029 267.529 455.062C267.587 455.062 267.653 455.062 267.711 455.062C330.634 455.064 356.13 438.001 358.832 436.053C359.213 435.778 359.603 435.509 359.991 435.239C360.262 435.052 360.534 434.864 360.802 434.674C393.281 411.676 395.646 366.05 394.165 340.899C392.42 311.262 376.383 284.619 351.267 269.625C314.744 247.823 268.164 248.263 267.686 248.269C267.653 248.269 267.618 248.269 267.587 248.269C267.564 248.269 267.431 248.268 267.192 248.268Z" fill="#003D7C"/>
<path d="M145.456 403.878C140.893 403.876 136.752 403.3 133.151 402.171C124.589 399.484 118.841 391.563 118.846 382.462L118.869 338.38C118.874 328.168 126.455 319.368 136.506 317.908C139.273 317.507 141.285 317.58 141.369 317.583L141.12 323.843L141.245 320.713L141.129 323.843C141.115 323.841 139.565 323.793 137.409 324.107C130.416 325.122 125.14 331.26 125.137 338.382L125.113 382.464C125.11 388.813 129.096 394.329 135.03 396.192C138.024 397.132 141.535 397.61 145.463 397.611L145.456 403.878Z" fill="#003D7C"/>
<path d="M132.203 324.276L125.939 324.273L125.966 274.978C125.966 274.346 126.017 259.231 133.235 252C135.836 249.396 139.007 248.074 142.657 248.074C142.661 248.074 142.662 248.074 142.666 248.074C143.497 248.074 144.293 248.404 144.88 248.993C145.467 249.58 145.795 250.378 145.795 251.209L145.762 316.242L139.498 316.238L139.531 255.08C137.043 256.359 135.129 259.291 133.819 263.844C132.248 269.299 132.232 274.922 132.232 274.976L132.203 324.276Z" fill="#003D7C"/>
<path d="M271.455 323.91C271.445 323.91 271.437 323.91 271.426 323.91L263.761 323.907C249.363 323.899 235.832 318.286 225.657 308.101C215.483 297.915 209.882 284.378 209.891 269.98L209.899 253.535L216.163 253.538L216.155 269.983C216.148 282.706 221.096 294.671 230.089 303.672C239.082 312.673 251.042 317.636 263.765 317.641L271.429 317.644C271.437 317.644 271.445 317.644 271.455 317.644C284.168 317.644 296.123 312.697 305.119 303.71C314.121 294.718 319.081 282.759 319.088 270.035L319.096 253.59L325.361 253.593L325.352 270.038C325.344 284.434 319.732 297.967 309.546 308.142C299.369 318.311 285.84 323.91 271.455 323.91Z" fill="#003D7C"/>
<path d="M267.534 442.183C267.534 442.183 346.382 444.238 358.488 395.343C363.721 374.211 360.568 360.274 355.299 351.26C349.761 341.785 339.499 336.076 328.525 336.071L267.588 336.039L206.632 336.008C196.032 336.003 186.008 341.284 180.4 350.28C174.806 359.251 171.242 373.402 176.627 395.251C188.683 444.155 267.534 442.183 267.534 442.183Z" fill="#002245"/>
<path opacity="0.5" d="M229.935 409.587C248.818 409.587 264.126 400.372 264.126 389.006C264.126 377.64 248.818 368.426 229.935 368.426C211.052 368.426 195.745 377.64 195.745 389.006C195.745 400.372 211.052 409.587 229.935 409.587Z" fill="url(#paint4_radial_2_235)"/>
<path opacity="0.5" d="M307.002 409.587C325.885 409.587 341.193 400.372 341.193 389.006C341.193 377.64 325.885 368.426 307.002 368.426C288.119 368.426 272.812 377.64 272.812 389.006C272.812 400.372 288.119 409.587 307.002 409.587Z" fill="url(#paint5_radial_2_235)"/>
<path d="M267.538 437.28C267.538 437.28 342.113 439.141 353.564 394.888C358.513 375.762 355.529 363.148 350.547 354.991C345.309 346.416 335.603 341.248 325.223 341.243L267.59 341.213L209.937 341.184C199.911 341.179 190.431 345.959 185.127 354.099C179.836 362.218 176.464 375.025 181.559 394.799C192.96 439.063 267.538 437.28 267.538 437.28Z" stroke="#FFC283" stroke-width="2.68479" stroke-miterlimit="10"/>
<path d="M194.15 438.405C169.064 438.391 150.951 432.669 140.311 421.394C130.399 410.891 130.933 399.483 130.962 399.002L137.214 399.36L134.088 399.181L137.216 399.344C137.2 399.723 136.881 408.728 144.99 417.223C154.291 426.969 171.292 432.127 194.153 432.139L194.15 438.405Z" fill="#FFC283"/>
<path d="M194.156 443.613C198.764 443.613 202.499 439.878 202.499 435.27C202.499 430.663 198.764 426.928 194.156 426.928C189.549 426.928 185.813 430.663 185.813 435.27C185.813 439.878 189.549 443.613 194.156 443.613Z" fill="#FFC283"/>
<path d="M267.807 473.793C267.705 473.793 267.616 473.793 267.516 473.793C214.591 473.765 182.914 466.198 173.364 451.301C168.596 443.864 171.438 437.462 171.563 437.191L177.257 439.804C177.214 439.911 175.739 443.562 178.763 448.111C183.573 455.348 201.5 467.494 267.52 467.528C267.613 467.528 267.709 467.528 267.802 467.528C333.991 467.528 351.736 455.305 356.423 448.012C359.322 443.501 357.828 439.933 357.811 439.898L363.508 437.293C363.631 437.561 366.469 443.967 361.692 451.399C352.145 466.258 320.551 473.793 267.807 473.793Z" fill="#003D7C"/>
<path d="M395.57 636.289C395.568 636.289 395.566 636.289 395.563 636.289L139.308 636.155C134.521 636.153 130.091 633.493 128.018 629.381C124.762 622.921 128.613 617.098 132.033 614.039L118.217 513.871C117.303 507.248 119.299 500.559 123.694 495.521C128.084 490.485 134.435 487.598 141.116 487.598C141.119 487.598 141.124 487.598 141.127 487.598L393.896 487.73C400.582 487.734 406.934 490.628 411.323 495.673C415.711 500.717 417.7 507.408 416.779 514.029L402.859 614.182C406.276 617.244 410.12 623.07 406.858 629.527C404.783 633.635 400.353 636.289 395.57 636.289ZM136.455 618.511C134.966 619.776 131.824 623.009 133.616 626.563C134.632 628.583 136.87 629.89 139.313 629.892L395.568 630.026C395.568 630.026 395.57 630.026 395.571 630.026C398.013 630.026 400.248 628.723 401.268 626.704C403.061 623.153 399.925 619.916 398.437 618.648L136.455 618.511ZM267.449 612.314L396.787 612.382L410.578 513.166C411.25 508.34 409.8 503.462 406.601 499.785C403.401 496.108 398.771 493.998 393.896 493.995L141.127 493.862C141.124 493.862 141.121 493.862 141.119 493.862C136.249 493.862 131.62 495.967 128.419 499.637C125.215 503.311 123.76 508.187 124.427 513.015L138.115 612.246L267.449 612.314Z" fill="#003D7C"/>
<path d="M165.423 490.742L159.158 490.739C159.17 468.915 181.415 454.945 182.362 454.361L185.649 459.694L184.006 457.028L185.653 459.692C185.449 459.816 165.431 472.44 165.423 490.742Z" fill="#003D7C"/>
<path d="M267.768 588.675C287.459 588.675 303.422 572.713 303.422 553.021C303.422 533.33 287.459 517.367 267.768 517.367C248.076 517.367 232.114 533.33 232.114 553.021C232.114 572.713 248.076 588.675 267.768 588.675Z" fill="#002245"/>
<path d="M259.822 548.603C259.375 548.157 259.375 547.43 259.822 546.983C260.268 546.537 260.995 546.537 261.441 546.983C261.888 547.43 261.888 548.157 261.441 548.603C260.995 549.05 260.268 549.05 259.822 548.603Z" fill="white"/>
<path d="M261.985 560.435C261.538 559.989 261.538 559.262 261.985 558.815C262.431 558.369 263.158 558.369 263.605 558.815C264.051 559.262 264.051 559.989 263.605 560.435C263.158 560.882 262.431 560.882 261.985 560.435Z" fill="white"/>
<path d="M277.133 550.729C277.133 550.729 277.879 548.152 278.212 545.879C278.429 544.381 278.151 543.299 276.837 542.248C275.522 541.198 272.837 541.739 271.462 542.517C270.087 543.295 260.083 548.331 260.083 548.331C260.083 548.331 267.876 541.707 270.715 540.119C273.555 538.531 276.269 538.771 278.269 540.148C280.269 541.528 281.015 544.252 280.39 547.281C279.762 550.306 279.047 552.916 279.047 552.916L277.137 550.729H277.133Z" fill="white"/>
<path d="M265.428 542.702C265.428 542.702 262.86 541.953 260.596 541.619C259.103 541.401 258.025 541.68 256.978 542.999C255.932 544.319 256.471 547.014 257.246 548.394C258.021 549.774 263.039 559.814 263.039 559.814C263.039 559.814 256.439 551.993 254.857 549.143C253.275 546.297 253.514 543.569 254.886 541.562C256.261 539.555 258.978 538.806 261.993 539.437C265.007 540.067 267.607 540.784 267.607 540.784L265.428 542.702Z" fill="white"/>
<path d="M257.234 554.534C257.234 554.534 256.487 557.112 256.155 559.388C255.937 560.886 256.216 561.969 257.53 563.019C258.844 564.069 261.53 563.528 262.905 562.75C264.28 561.972 274.283 556.936 274.283 556.936C274.283 556.936 266.491 563.56 263.651 565.148C260.816 566.736 258.098 566.496 256.098 565.119C254.098 563.739 253.352 561.015 253.977 557.986C254.605 554.961 255.319 552.352 255.319 552.352L257.23 554.538L257.234 554.534Z" fill="white"/>
<path d="M268.937 562.565C268.937 562.565 271.505 563.314 273.769 563.648C275.262 563.866 276.341 563.587 277.387 562.268C278.434 560.949 277.894 558.253 277.119 556.873C276.344 555.493 271.327 545.453 271.327 545.453C271.327 545.453 277.926 553.274 279.509 556.124C281.091 558.97 280.851 561.698 279.48 563.705C278.105 565.712 275.391 566.462 272.373 565.834C269.359 565.203 266.759 564.487 266.759 564.487L268.937 562.569V562.565Z" fill="white"/>
<path d="M270.635 546.572C270.189 546.125 270.189 545.399 270.635 544.952C271.082 544.506 271.809 544.506 272.255 544.952C272.702 545.399 272.702 546.125 272.255 546.572C271.809 547.019 271.082 547.019 270.635 546.572Z" fill="white"/>
<path d="M272.924 558.146C272.477 557.7 272.477 556.973 272.924 556.526C273.37 556.08 274.097 556.08 274.544 556.526C274.99 556.973 274.99 557.7 274.544 558.146C274.097 558.593 273.37 558.593 272.924 558.146Z" fill="white"/>
<path d="M267.154 554.395C268.146 554.395 268.949 553.591 268.949 552.6C268.949 551.608 268.146 550.805 267.154 550.805C266.163 550.805 265.359 551.608 265.359 552.6C265.359 553.591 266.163 554.395 267.154 554.395Z" fill="white"/>
<path d="M211.698 397.692C212.489 396.028 213.549 394.65 214.739 393.312C215.949 392.006 217.32 390.821 218.849 389.82C221.89 387.815 225.663 386.565 229.519 386.644C231.438 386.664 233.352 387.002 235.13 387.628C235.584 387.76 236.019 387.94 236.444 388.134C236.868 388.328 237.308 388.492 237.714 388.712C238.52 389.167 239.341 389.587 240.069 390.132C243.051 392.217 245.463 394.843 247.224 397.81C247.481 398.243 247.339 398.803 246.906 399.06C246.582 399.253 246.188 399.221 245.901 399.014L245.896 399.011C243.219 397.053 240.593 395.232 237.837 393.968C236.477 393.307 235.082 392.817 233.689 392.477C232.299 392.116 230.892 391.958 229.494 391.98C226.698 392.013 223.911 392.756 221.176 393.993C218.443 395.212 215.745 396.929 213.111 398.79L213.051 398.833C212.638 399.125 212.068 399.025 211.776 398.614C211.58 398.334 211.562 397.981 211.698 397.692Z" fill="#FFC283"/>
<path d="M321.999 398.849C319.367 396.987 316.672 395.267 313.939 394.044C311.205 392.804 308.419 392.059 305.623 392.023C304.224 391.999 302.818 392.155 301.428 392.515C300.035 392.853 298.64 393.341 297.278 394.001C294.52 395.262 291.893 397.081 289.214 399.035L289.211 399.038C288.803 399.335 288.232 399.246 287.935 398.839C287.713 398.536 287.708 398.139 287.889 397.834C289.654 394.869 292.069 392.246 295.052 390.165C295.781 389.619 296.602 389.2 297.408 388.747C297.814 388.526 298.253 388.362 298.678 388.17C299.103 387.976 299.537 387.798 299.992 387.665C301.77 387.042 303.685 386.705 305.604 386.687C309.46 386.611 313.232 387.866 316.271 389.875C317.8 390.878 319.17 392.064 320.377 393.371C321.566 394.709 322.625 396.091 323.414 397.755C323.631 398.211 323.436 398.756 322.98 398.974C322.671 399.12 322.321 399.078 322.059 398.896L321.999 398.849Z" fill="#FFC283"/>
<path d="M267.439 586.292C267.433 586.292 267.428 586.292 267.422 586.292C258.449 586.286 250.015 582.787 243.67 576.44C237.329 570.09 233.838 561.653 233.844 552.68C233.847 543.707 237.346 535.27 243.696 528.928C250.04 522.59 258.472 519.102 267.439 519.102C267.445 519.102 267.45 519.102 267.456 519.102C285.981 519.11 301.043 534.189 301.034 552.717C301.026 571.23 285.955 586.292 267.439 586.292ZM267.439 523.387C259.617 523.387 252.261 526.43 246.728 531.96C241.189 537.493 238.137 544.85 238.132 552.68C238.129 560.507 241.172 567.869 246.705 573.408C252.238 578.947 259.595 581.998 267.425 582.004C267.428 582.004 267.433 582.004 267.439 582.004C283.593 582.004 296.738 568.868 296.746 552.711C296.752 536.551 283.613 523.398 267.453 523.39C267.45 523.387 267.445 523.387 267.439 523.387Z" fill="#FFC283"/>
<rect x="149.607" y="622.996" width="238.226" height="63.3813" rx="14.6724" fill="#002245"/>
<rect x="150.418" y="624.089" width="236.041" height="61.1958" rx="13.5797" fill="white" fill-opacity="0.35" stroke="white" stroke-width="2.18556"/>
<path d="M188.946 653.097C188.949 654.389 188.697 655.669 188.203 656.864C187.71 658.058 186.986 659.144 186.072 660.058C185.158 660.971 184.073 661.696 182.878 662.189C181.684 662.682 180.403 662.935 179.111 662.932H176.926C175.633 662.935 174.353 662.682 173.158 662.189C171.964 661.696 170.879 660.971 169.965 660.058C169.051 659.144 168.326 658.058 167.833 656.864C167.34 655.669 167.088 654.389 167.09 653.097M178.018 662.932V667.303M183.482 652.004C183.482 653.453 182.907 654.843 181.882 655.868C180.857 656.892 179.467 657.468 178.018 657.468C176.569 657.468 175.179 656.892 174.155 655.868C173.13 654.843 172.554 653.453 172.554 652.004V644.355C172.554 642.905 173.13 641.516 174.155 640.491C175.179 639.466 176.569 638.891 178.018 638.891C179.467 638.891 180.857 639.466 181.882 640.491C182.907 641.516 183.482 642.905 183.482 644.355V652.004Z" stroke="white" stroke-width="2.18556" stroke-linecap="round" stroke-linejoin="round"/>
<rect x="243.663" y="635.711" width="48.0824" height="34.8183" rx="17.4091" fill="white"/>
<path d="M260.438 649.644C259.399 649.883 258.47 650.495 257.805 651.378C257.14 652.261 256.781 653.361 256.788 654.493L256.778 655.465C256.783 655.901 256.947 656.318 257.237 656.626C257.526 656.934 257.917 657.109 258.326 657.114L262.222 657.092C262.629 657.089 263.018 656.915 263.306 656.608C263.593 656.302 263.757 655.888 263.76 655.454C263.765 655.018 263.929 654.602 264.219 654.294C264.508 653.985 264.899 653.81 265.308 653.805H271.46C271.664 653.803 271.866 653.845 272.054 653.927C272.243 654.01 272.414 654.131 272.558 654.285C272.702 654.438 272.816 654.62 272.893 654.821C272.97 655.022 273.01 655.237 273.008 655.454C273.012 655.888 273.175 656.302 273.462 656.608C273.75 656.915 274.139 657.089 274.546 657.092H278.442C278.851 657.088 279.242 656.912 279.532 656.604C279.821 656.296 279.986 655.879 279.99 655.443L279.98 654.471C279.987 653.339 279.628 652.239 278.963 651.356C278.299 650.473 277.369 649.861 276.33 649.622C271.08 648.551 265.686 648.558 260.438 649.644Z" fill="#FF0004"/>
<path d="M188.966 93H346.755C353.633 93 359.212 98.5789 359.212 105.456V163.761C359.164 170.591 353.585 176.122 346.755 176.122H345.409L345.024 184.923L344.88 187.953C344.832 189.059 343.87 189.925 342.715 189.828C342.283 189.78 341.85 189.636 341.513 189.347C336.848 185.067 332.231 180.691 327.758 176.122H188.966C182.136 176.122 176.605 170.591 176.605 163.761V105.456C176.557 98.627 182.088 93.0481 188.917 93H188.966Z" fill="white"/>
<path d="M203.797 116.214H207.546V135.373H203.797V127.436H196.68V135.373H192.903V116.214H196.68V123.823H203.797V116.214ZM212.146 120.046C211.562 120.046 211.051 119.836 210.613 119.416C210.193 118.978 209.983 118.467 209.983 117.883C209.983 117.3 210.193 116.789 210.613 116.351C211.051 115.913 211.562 115.694 212.146 115.694C212.748 115.694 213.259 115.913 213.678 116.351C214.116 116.789 214.335 117.3 214.335 117.883C214.335 118.467 214.116 118.978 213.678 119.416C213.259 119.836 212.748 120.046 212.146 120.046ZM210.394 135.373V121.688H213.925V135.373H210.394ZM223.068 116.214H226.845V135.373H223.068V116.214ZM234.333 116.186L232.28 123.795H229.406L230.501 116.186H234.333ZM251.886 121.305C253.455 121.305 254.705 121.816 255.636 122.837C256.585 123.859 257.059 125.228 257.059 126.943V135.373H253.528V127.189C253.528 126.368 253.328 125.73 252.926 125.273C252.525 124.817 251.959 124.589 251.229 124.589C250.426 124.589 249.797 124.854 249.341 125.383C248.903 125.912 248.684 126.678 248.684 127.682V135.373H245.153V127.189C245.153 126.368 244.952 125.73 244.551 125.273C244.149 124.817 243.584 124.589 242.854 124.589C242.069 124.589 241.44 124.854 240.965 125.383C240.509 125.912 240.281 126.678 240.281 127.682V135.373H236.75V121.688H240.281V123.138C241.102 121.916 242.37 121.305 244.086 121.305C245.764 121.305 247.005 121.962 247.808 123.275C248.72 121.962 250.08 121.305 251.886 121.305ZM276.206 121.688H279.737V135.373H276.206V133.758C275.148 135.09 273.661 135.756 271.745 135.756C269.92 135.756 268.351 135.063 267.037 133.676C265.742 132.271 265.094 130.556 265.094 128.53C265.094 126.505 265.742 124.799 267.037 123.412C268.351 122.007 269.92 121.305 271.745 121.305C273.661 121.305 275.148 121.971 276.206 123.303V121.688ZM269.692 131.322C270.404 132.034 271.307 132.39 272.402 132.39C273.497 132.39 274.4 132.034 275.111 131.322C275.841 130.592 276.206 129.662 276.206 128.53C276.206 127.399 275.841 126.478 275.111 125.766C274.4 125.036 273.497 124.671 272.402 124.671C271.307 124.671 270.404 125.036 269.692 125.766C268.98 126.478 268.625 127.399 268.625 128.53C268.625 129.662 268.98 130.592 269.692 131.322ZM199.52 143.326L195.889 149.254V153.373H194.884V149.225L191.268 143.326H192.402L195.401 148.249L198.386 143.326H199.52ZM204.961 152.469C204.234 153.186 203.344 153.545 202.292 153.545C201.239 153.545 200.345 153.186 199.608 152.469C198.881 151.742 198.517 150.847 198.517 149.785C198.517 148.723 198.881 147.833 199.608 147.115C200.345 146.388 201.239 146.025 202.292 146.025C203.344 146.025 204.234 146.388 204.961 147.115C205.698 147.833 206.067 148.723 206.067 149.785C206.067 150.847 205.698 151.742 204.961 152.469ZM200.283 151.809C200.828 152.354 201.498 152.627 202.292 152.627C203.086 152.627 203.756 152.354 204.301 151.809C204.847 151.254 205.119 150.579 205.119 149.785C205.119 148.991 204.847 148.321 204.301 147.776C203.756 147.221 203.086 146.943 202.292 146.943C201.498 146.943 200.828 147.221 200.283 147.776C199.737 148.321 199.465 148.991 199.465 149.785C199.465 150.579 199.737 151.254 200.283 151.809ZM212.417 146.197H213.364V153.373H212.417V152.253C211.881 153.115 211.077 153.545 210.005 153.545C209.135 153.545 208.446 153.282 207.939 152.756C207.441 152.22 207.192 151.502 207.192 150.603V146.197H208.14V150.603C208.14 151.244 208.307 151.742 208.642 152.096C208.986 152.45 209.47 152.627 210.092 152.627C210.781 152.627 211.34 152.411 211.771 151.981C212.201 151.541 212.417 150.866 212.417 149.957V146.197ZM216.028 147.388C216.468 146.517 217.224 146.082 218.296 146.082V147.001C217.645 147.001 217.104 147.192 216.674 147.575C216.243 147.957 216.028 148.56 216.028 149.383V153.373H215.081V146.197H216.028V147.388ZM229.439 153.373L228.507 150.904H223.742L222.809 153.373H221.747L225.607 143.326H226.641L230.502 153.373H229.439ZM224.1 149.957H228.148L226.124 144.575L224.1 149.957ZM231.505 143.326H232.509V153.373H231.505V143.326ZM234.525 149.397V148.479H239.692V149.397H234.525ZM245.283 143.326C246.182 143.326 246.933 143.628 247.536 144.231C248.139 144.833 248.44 145.584 248.44 146.484C248.44 147.383 248.139 148.134 247.536 148.737C246.933 149.34 246.182 149.641 245.283 149.641H242.699V153.373H241.695V143.326H245.283ZM245.283 148.694C245.905 148.694 246.417 148.488 246.818 148.077C247.23 147.656 247.436 147.125 247.436 146.484C247.436 145.843 247.23 145.317 246.818 144.905C246.417 144.484 245.905 144.274 245.283 144.274H242.699V148.694H245.283ZM255.169 152.469C254.441 153.186 253.552 153.545 252.499 153.545C251.447 153.545 250.552 153.186 249.815 152.469C249.088 151.742 248.724 150.847 248.724 149.785C248.724 148.723 249.088 147.833 249.815 147.115C250.552 146.388 251.447 146.025 252.499 146.025C253.552 146.025 254.441 146.388 255.169 147.115C255.905 147.833 256.274 148.723 256.274 149.785C256.274 150.847 255.905 151.742 255.169 152.469ZM250.49 151.809C251.035 152.354 251.705 152.627 252.499 152.627C253.293 152.627 253.963 152.354 254.508 151.809C255.054 151.254 255.327 150.579 255.327 149.785C255.327 148.991 255.054 148.321 254.508 147.776C253.963 147.221 253.293 146.943 252.499 146.943C251.705 146.943 251.035 147.221 250.49 147.776C249.944 148.321 249.672 148.991 249.672 149.785C249.672 150.579 249.944 151.254 250.49 151.809ZM265.932 146.197H266.908L264.697 153.373H263.664L261.813 147.589L259.961 153.373H258.928L256.717 146.197H257.693L259.459 152.153L261.339 146.197H262.286L264.166 152.153L265.932 146.197ZM271.084 146.025C272.146 146.025 273.003 146.403 273.653 147.158C274.313 147.905 274.643 148.79 274.643 149.814C274.643 149.919 274.634 150.067 274.615 150.258H268.314C268.41 150.986 268.716 151.565 269.233 151.995C269.759 152.416 270.405 152.627 271.17 152.627C271.716 152.627 272.184 152.517 272.577 152.297C272.979 152.067 273.28 151.77 273.481 151.407L274.313 151.895C273.998 152.402 273.567 152.804 273.022 153.1C272.476 153.397 271.854 153.545 271.156 153.545C270.027 153.545 269.108 153.191 268.4 152.483C267.692 151.775 267.338 150.876 267.338 149.785C267.338 148.713 267.687 147.819 268.386 147.101C269.084 146.383 269.984 146.025 271.084 146.025ZM271.084 146.943C270.338 146.943 269.711 147.168 269.204 147.618C268.706 148.058 268.41 148.632 268.314 149.34H273.667C273.572 148.584 273.28 147.996 272.792 147.575C272.304 147.154 271.735 146.943 271.084 146.943ZM276.81 147.388C277.251 146.517 278.006 146.082 279.078 146.082V147.001C278.427 147.001 277.887 147.192 277.456 147.575C277.026 147.957 276.81 148.56 276.81 149.383V153.373H275.863V146.197H276.81V147.388ZM282.97 146.025C284.032 146.025 284.889 146.403 285.539 147.158C286.199 147.905 286.529 148.79 286.529 149.814C286.529 149.919 286.52 150.067 286.501 150.258H280.2C280.296 150.986 280.602 151.565 281.119 151.995C281.645 152.416 282.291 152.627 283.056 152.627C283.602 152.627 284.07 152.517 284.463 152.297C284.865 152.067 285.166 151.77 285.367 151.407L286.199 151.895C285.884 152.402 285.453 152.804 284.908 153.1C284.362 153.397 283.74 153.545 283.042 153.545C281.913 153.545 280.994 153.191 280.286 152.483C279.578 151.775 279.224 150.876 279.224 149.785C279.224 148.713 279.573 147.819 280.272 147.101C280.97 146.383 281.87 146.025 282.97 146.025ZM282.97 146.943C282.224 146.943 281.597 147.168 281.09 147.618C280.592 148.058 280.296 148.632 280.2 149.34H285.554C285.458 148.584 285.166 147.996 284.678 147.575C284.19 147.154 283.621 146.943 282.97 146.943ZM293.921 143.326H294.868V153.373H293.921V151.966C293.26 153.019 292.294 153.545 291.022 153.545C289.998 153.545 289.122 153.182 288.395 152.454C287.677 151.727 287.319 150.837 287.319 149.785C287.319 148.732 287.677 147.843 288.395 147.115C289.122 146.388 289.998 146.025 291.022 146.025C292.294 146.025 293.26 146.551 293.921 147.603V143.326ZM289.084 151.809C289.629 152.354 290.299 152.627 291.093 152.627C291.887 152.627 292.557 152.354 293.103 151.809C293.648 151.254 293.921 150.579 293.921 149.785C293.921 148.991 293.648 148.321 293.103 147.776C292.557 147.221 291.887 146.943 291.093 146.943C290.299 146.943 289.629 147.221 289.084 147.776C288.539 148.321 288.266 148.991 288.266 149.785C288.266 150.579 288.539 151.254 289.084 151.809ZM303.619 143.326C304.519 143.326 305.27 143.628 305.872 144.231C306.475 144.833 306.777 145.584 306.777 146.484C306.777 147.383 306.475 148.134 305.872 148.737C305.27 149.34 304.519 149.641 303.619 149.641H301.036V153.373H300.031V143.326H303.619ZM303.619 148.694C304.241 148.694 304.753 148.488 305.155 148.077C305.566 147.656 305.772 147.125 305.772 146.484C305.772 145.843 305.566 145.317 305.155 144.905C304.753 144.484 304.241 144.274 303.619 144.274H301.036V148.694H303.619ZM313.663 146.197H314.61V153.373H313.663V151.966C313.003 153.019 312.036 153.545 310.764 153.545C309.74 153.545 308.864 153.182 308.137 152.454C307.42 151.727 307.061 150.837 307.061 149.785C307.061 148.732 307.42 147.843 308.137 147.115C308.864 146.388 309.74 146.025 310.764 146.025C312.036 146.025 313.003 146.551 313.663 147.603V146.197ZM308.826 151.809C309.372 152.354 310.041 152.627 310.836 152.627C311.63 152.627 312.299 152.354 312.845 151.809C313.39 151.254 313.663 150.579 313.663 149.785C313.663 148.991 313.39 148.321 312.845 147.776C312.299 147.221 311.63 146.943 310.836 146.943C310.041 146.943 309.372 147.221 308.826 147.776C308.281 148.321 308.008 148.991 308.008 149.785C308.008 150.579 308.281 151.254 308.826 151.809ZM317.276 147.388C317.716 146.517 318.472 146.082 319.544 146.082V147.001C318.893 147.001 318.352 147.192 317.922 147.575C317.491 147.957 317.276 148.56 317.276 149.383V153.373H316.329V146.197H317.276V147.388ZM324.498 147.115H322.432V151.464C322.432 151.856 322.508 152.139 322.661 152.311C322.814 152.474 323.044 152.56 323.35 152.569C323.656 152.569 324.039 152.56 324.498 152.541V153.373C323.494 153.526 322.738 153.454 322.231 153.158C321.733 152.861 321.484 152.297 321.484 151.464V147.115H319.977V146.197H321.484V144.475L322.432 144.187V146.197H324.498V147.115ZM329.148 146.025C330.019 146.025 330.703 146.292 331.201 146.828C331.708 147.355 331.962 148.067 331.962 148.967V153.373H331.014V148.967C331.014 148.326 330.842 147.828 330.498 147.474C330.163 147.12 329.684 146.943 329.062 146.943C328.373 146.943 327.814 147.163 327.383 147.603C326.953 148.034 326.737 148.704 326.737 149.613V153.373H325.79V146.197H326.737V147.316C327.273 146.455 328.077 146.025 329.148 146.025ZM336.821 146.025C337.884 146.025 338.74 146.403 339.39 147.158C340.051 147.905 340.381 148.79 340.381 149.814C340.381 149.919 340.371 150.067 340.352 150.258H334.051C334.147 150.986 334.453 151.565 334.97 151.995C335.496 152.416 336.142 152.627 336.908 152.627C337.453 152.627 337.922 152.517 338.314 152.297C338.716 152.067 339.017 151.77 339.218 151.407L340.051 151.895C339.735 152.402 339.304 152.804 338.759 153.1C338.214 153.397 337.592 153.545 336.893 153.545C335.764 153.545 334.846 153.191 334.138 152.483C333.43 151.775 333.075 150.876 333.075 149.785C333.075 148.713 333.425 147.819 334.123 147.101C334.822 146.383 335.721 146.025 336.821 146.025ZM336.821 146.943C336.075 146.943 335.448 147.168 334.941 147.618C334.444 148.058 334.147 148.632 334.051 149.34H339.405C339.309 148.584 339.017 147.996 338.529 147.575C338.041 147.154 337.472 146.943 336.821 146.943ZM342.548 147.388C342.988 146.517 343.744 146.082 344.815 146.082V147.001C344.165 147.001 343.624 147.192 343.194 147.575C342.763 147.957 342.548 148.56 342.548 149.383V153.373H341.601V146.197H342.548V147.388Z" fill="#002245"/>
<path d="M295.392 135.756C293.494 135.756 291.898 135.336 290.602 134.497C289.307 133.639 288.394 132.481 287.865 131.021L291.095 129.133C291.843 131.085 293.312 132.061 295.501 132.061C296.56 132.061 297.335 131.87 297.828 131.486C298.321 131.103 298.567 130.62 298.567 130.036C298.567 129.361 298.266 128.841 297.664 128.476C297.062 128.092 295.985 127.682 294.434 127.244C293.576 126.989 292.847 126.733 292.244 126.478C291.661 126.222 291.068 125.885 290.465 125.465C289.881 125.027 289.434 124.48 289.124 123.823C288.814 123.166 288.659 122.399 288.659 121.524C288.659 119.79 289.27 118.413 290.493 117.391C291.734 116.351 293.221 115.831 294.954 115.831C296.505 115.831 297.864 116.214 299.032 116.98C300.218 117.728 301.14 118.778 301.797 120.128L298.622 121.962C297.855 120.319 296.633 119.498 294.954 119.498C294.169 119.498 293.549 119.681 293.093 120.046C292.655 120.392 292.436 120.849 292.436 121.414C292.436 122.016 292.682 122.509 293.175 122.892C293.686 123.257 294.653 123.659 296.076 124.096C296.66 124.279 297.098 124.425 297.39 124.534C297.7 124.626 298.111 124.781 298.622 125C299.151 125.2 299.552 125.392 299.826 125.574C300.118 125.757 300.446 126.003 300.811 126.313C301.176 126.624 301.45 126.943 301.632 127.271C301.833 127.6 301.997 128.001 302.125 128.476C302.271 128.932 302.344 129.434 302.344 129.981C302.344 131.751 301.696 133.156 300.401 134.196C299.123 135.236 297.454 135.756 295.392 135.756ZM304.127 116.214H307.904V135.373H304.127V116.214ZM321.988 116.214H325.765V135.373H322.891L314.68 123.659V135.373H310.903V116.214H313.777L321.988 127.901V116.214ZM343.743 135.373H339.391L332.548 126.396V135.373H328.771V116.214H332.548V124.671L339.117 116.214H343.469L336.38 125.52L343.743 135.373Z" fill="#FFC283"/>
<path d="M342.859 191.031C342.137 191.031 341.416 190.742 340.839 190.261C336.414 186.221 331.893 181.845 327.276 177.276H189.466C182.06 177.228 176.048 171.216 176 163.809L176 107.094C176 99.6392 182.012 93.5793 189.466 93.5312H346.754C354.209 93.5312 360.221 99.543 360.221 106.998C360.221 107.046 360.221 107.046 360.221 107.094V163.809C360.221 171.264 354.209 177.276 346.754 177.276H346.466L345.985 188.097C345.937 189.299 345.215 190.309 344.109 190.838C343.725 190.934 343.292 191.031 342.859 191.031ZM189.466 95.6955C183.214 95.6955 178.116 100.793 178.116 107.046V163.761C178.164 170.014 183.214 175.063 189.466 175.112H327.757C328.046 175.112 328.335 175.208 328.527 175.4C333.096 180.065 337.809 184.49 342.234 188.578C342.522 188.866 342.907 188.914 343.244 188.722C343.58 188.626 343.869 188.289 343.869 187.953L344.35 176.122C344.398 175.544 344.879 175.112 345.456 175.112H346.803C353.055 175.063 358.105 170.014 358.153 163.761V107.046C358.153 100.793 353.055 95.6955 346.803 95.6955H189.466Z" fill="black"/>
<defs>
<filter id="filter0_d_2_235" x="50.7815" y="67.7631" width="434.437" height="703.576" filterUnits="userSpaceOnUse" color-interpolation-filters="sRGB">
<feFlood flood-opacity="0" result="BackgroundImageFix"/>
<feColorMatrix in="SourceAlpha" type="matrix" values="0 0 0 0 0 0 0 0 0 0 0 0 0 0 0 0 0 0 127 0" result="hardAlpha"/>
<feOffset dy="5.29801"/>
<feGaussianBlur stdDeviation="28.6093"/>
<feComposite in2="hardAlpha" operator="out"/>
<feColorMatrix type="matrix" values="0 0 0 0 0 0 0 0 0 0 0 0 0 0 0 0 0 0 0.1 0"/>
<feBlend mode="normal" in2="BackgroundImageFix" result="effect1_dropShadow_2_235"/>
<feBlend mode="normal" in="SourceGraphic" in2="effect1_dropShadow_2_235" result="shape"/>
</filter>
<radialGradient id="paint0_radial_2_235" cx="0" cy="0" r="1" gradientUnits="userSpaceOnUse" gradientTransform="translate(266.733 242.259) rotate(0.0299272) scale(279.026 279.026)">
<stop stop-color="white"/>
<stop offset="0.2421" stop-color="#FBFBFD"/>
<stop offset="0.5034" stop-color="#EEEEF6"/>
<stop offset="0.7726" stop-color="#D8D9EA"/>
<stop offset="1" stop-color="#C0C2DD"/>
</radialGradient>
<linearGradient id="paint1_linear_2_235" x1="133.295" y1="302.286" x2="133.812" y2="414.472" gradientUnits="userSpaceOnUse">
<stop stop-color="white"/>
<stop offset="0.2347" stop-color="#FAFAFC"/>
<stop offset="0.5061" stop-color="#ECEDF5"/>
<stop offset="0.7945" stop-color="#D5D6E8"/>
<stop offset="1" stop-color="#C0C2DD"/>
</linearGradient>
<linearGradient id="paint2_linear_2_235" x1="267.536" y1="429.81" x2="267.425" y2="642.1" gradientUnits="userSpaceOnUse">
<stop stop-color="white"/>
<stop offset="0.2596" stop-color="#FBFBFD"/>
<stop offset="0.5067" stop-color="#F0F0F7"/>
<stop offset="0.7487" stop-color="#DDDEEC"/>
<stop offset="0.9863" stop-color="#C2C4DE"/>
<stop offset="1" stop-color="#C0C2DD"/>
</linearGradient>
<radialGradient id="paint3_radial_2_235" cx="0" cy="0" r="1" gradientUnits="userSpaceOnUse" gradientTransform="translate(270.7 369.402) rotate(0.0299273) scale(216.317 216.318)">
<stop stop-color="white"/>
<stop offset="0.2327" stop-color="#F7F7FB"/>
<stop offset="0.6001" stop-color="#E0E1EE"/>
<stop offset="1" stop-color="#C0C2DD"/>
</radialGradient>
<radialGradient id="paint4_radial_2_235" cx="0" cy="0" r="1" gradientUnits="userSpaceOnUse" gradientTransform="translate(229.933 389.007) rotate(0.029932) scale(34.1917 20.579)">
<stop stop-color="#00B7FF"/>
<stop offset="0.0437" stop-color="#009AD6"/>
<stop offset="0.0993" stop-color="#007AAA"/>
<stop offset="0.1607" stop-color="#005D81"/>
<stop offset="0.2263" stop-color="#00445E"/>
<stop offset="0.2974" stop-color="#002245"/>
<stop offset="0.3758" stop-color="#002245"/>
<stop offset="0.4646" stop-color="#002245"/>
<stop offset="0.5698" stop-color="#002245"/>
<stop offset="0.7074" stop-color="#002245"/>
<stop offset="1" stop-color="#002245"/>
</radialGradient>
<radialGradient id="paint5_radial_2_235" cx="0" cy="0" r="1" gradientUnits="userSpaceOnUse" gradientTransform="translate(307 389.007) rotate(0.029932) scale(34.1917 20.579)">
<stop stop-color="#00B7FF"/>
<stop offset="0.0437" stop-color="#009AD6"/>
<stop offset="0.0993" stop-color="#007AAA"/>
<stop offset="0.1607" stop-color="#005D81"/>
<stop offset="0.2263" stop-color="#00445E"/>
<stop offset="0.2974" stop-color="#002245"/>
<stop offset="0.3758" stop-color="#002245"/>
<stop offset="0.4646" stop-color="#002245"/>
<stop offset="0.5698" stop-color="#002245"/>
<stop offset="0.7074" stop-color="#002245"/>
<stop offset="1" stop-color="#002245"/>
</radialGradient>
</defs>
</svg>
