<svg width="360" height="435" viewBox="0 0 360 435" fill="none" xmlns="http://www.w3.org/2000/svg">
<g filter="url(#filter0_d_709_45445)">
<rect x="1.39876e-05" y="372" width="320" height="360" transform="rotate(-90 1.39876e-05 372)" fill="white" fill-opacity="0.35" shape-rendering="crispEdges"/>
</g>
<rect x="28" y="361" width="297" height="304" rx="22.2332" transform="rotate(-90 28 361)" fill="#002245"/>
<g opacity="0.5">
<path d="M41.0187 174.156H41.0868C43.3002 174.156 45.1051 175.961 45.1051 178.174V221.592C45.1051 223.805 43.3002 225.61 41.0868 225.61H41.0187C38.8053 225.61 37.0005 223.805 37.0005 221.592V178.174C36.9664 175.927 38.7712 174.156 41.0187 174.156Z" fill="#FFC283"/>
<path d="M57.0202 183.011H57.0883C59.3017 183.011 61.1065 184.816 61.1065 187.029V210.355C61.1065 212.569 59.3017 214.373 57.0883 214.373H57.0202C54.8068 214.373 53.002 212.569 53.002 210.355V187.029C53.002 184.816 54.8068 183.011 57.0202 183.011Z" fill="#FFC283"/>
<path d="M201.343 162H201.411C203.624 162 205.429 163.805 205.429 166.018V233.715C205.429 235.928 203.624 237.733 201.411 237.733H201.343C199.129 237.733 197.325 235.928 197.325 233.715V166.052C197.291 163.805 199.095 162 201.343 162Z" fill="#FFC283"/>
<path d="M185.745 174.156H185.813C188.027 174.156 189.832 175.961 189.832 178.174V221.592C189.832 223.805 188.027 225.61 185.813 225.61H185.745C183.532 225.61 181.727 223.805 181.727 221.592V178.174C181.693 175.927 183.498 174.156 185.745 174.156Z" fill="#FFC283"/>
<path d="M220.272 174.156H220.34C222.554 174.156 224.358 175.961 224.358 178.174V221.592C224.358 223.805 222.554 225.61 220.34 225.61H220.272C218.059 225.61 216.254 223.805 216.254 221.592V178.174C216.254 175.927 218.059 174.156 220.272 174.156Z" fill="#FFC283"/>
<path d="M169.366 183.011H169.434C171.647 183.011 173.452 184.816 173.452 187.029V210.355C173.452 212.569 171.647 214.373 169.434 214.373H169.366C167.152 214.373 165.348 212.569 165.348 210.355V187.029C165.348 184.816 167.152 183.011 169.366 183.011Z" fill="#FFC283"/>
<path d="M236.273 183.011H236.341C238.554 183.011 240.359 184.816 240.359 187.029V210.355C240.359 212.569 238.554 214.373 236.341 214.373H236.273C234.059 214.373 232.254 212.569 232.254 210.355V187.029C232.22 184.816 234.025 183.011 236.273 183.011Z" fill="#FFC283"/>
<path d="M154.417 175.689H154.485C156.698 175.689 158.503 177.494 158.503 179.708V217.745C158.503 219.958 156.698 221.763 154.485 221.763H154.417C152.203 221.763 150.398 219.958 150.398 217.745V179.708C150.398 177.494 152.203 175.689 154.417 175.689Z" fill="#FFC283"/>
<path d="M103.987 162H104.055C106.269 162 108.073 163.805 108.073 166.018V233.715C108.073 235.928 106.269 237.733 104.055 237.733H103.987C101.774 237.733 99.9688 235.928 99.9688 233.715V166.052C99.9688 163.805 101.774 162 103.987 162Z" fill="#FFC283"/>
<path d="M88.3854 174.156H88.4535C90.667 174.156 92.4717 175.961 92.4717 178.174V221.592C92.4717 223.805 90.667 225.61 88.4535 225.61H88.3854C86.172 225.61 84.3672 223.805 84.3672 221.592V178.174C84.3672 175.927 86.172 174.156 88.3854 174.156Z" fill="#FFC283"/>
<path d="M122.948 174.156H123.016C125.229 174.156 127.034 175.961 127.034 178.174V221.592C127.034 223.805 125.229 225.61 123.016 225.61H122.948C120.735 225.61 118.93 223.805 118.93 221.592V178.174C118.93 175.927 120.735 174.156 122.948 174.156Z" fill="#FFC283"/>
<path d="M138.926 183.011H138.994C141.208 183.011 143.013 184.816 143.013 187.029V210.355C143.013 212.569 141.208 214.373 138.994 214.373H138.926C136.713 214.373 134.908 212.569 134.908 210.355V187.029C134.908 184.816 136.713 183.011 138.926 183.011Z" fill="#FFC283"/>
<path d="M71.8014 193.327H71.8695C74.083 193.327 75.8878 195.132 75.8878 197.345V200.036C75.8878 202.249 74.083 204.054 71.8695 204.054H71.8014C69.588 204.054 67.7832 202.249 67.7832 200.036V197.345C67.7832 195.132 69.588 193.327 71.8014 193.327Z" fill="#FFC283"/>
<path d="M300.397 172.214H301.555C303.462 172.214 305.028 173.78 305.028 175.687V224.11C305.028 226.017 303.462 227.584 301.555 227.584H300.397C298.49 227.584 296.924 226.017 296.924 224.11V175.687C296.924 173.78 298.49 172.214 300.397 172.214Z" fill="#FFC283"/>
<path d="M285.382 174.156H285.45C287.664 174.156 289.468 175.961 289.468 178.174V221.592C289.468 223.805 287.664 225.61 285.45 225.61H285.382C283.169 225.61 281.364 223.805 281.364 221.592V178.174C281.33 175.927 283.135 174.156 285.382 174.156Z" fill="#FFC283"/>
<path d="M319.913 174.156H319.981C322.194 174.156 323.999 175.961 323.999 178.174V221.592C323.999 223.805 322.194 225.61 319.981 225.61H319.913C317.699 225.61 315.895 223.805 315.895 221.592V178.174C315.895 175.927 317.699 174.156 319.913 174.156Z" fill="#FFC283"/>
<path d="M269.007 183.011H269.075C271.288 183.011 273.093 184.816 273.093 187.029V210.355C273.093 212.569 271.288 214.373 269.075 214.373H269.007C266.793 214.373 264.988 212.569 264.988 210.355V187.029C264.988 184.816 266.793 183.011 269.007 183.011Z" fill="#FFC283"/>
<path d="M254.024 193.327H254.092C256.306 193.327 258.11 195.132 258.11 197.345V200.036C258.11 202.249 256.306 204.054 254.092 204.054H254.024C251.811 204.054 250.006 202.249 250.006 200.036V197.345C250.006 195.132 251.777 193.327 254.024 193.327Z" fill="#FFC283"/>
</g>
<path d="M212.333 95.2559L212.328 105.562C212.318 123.13 198.068 137.365 180.5 137.356L175.7 137.354C158.132 137.344 143.897 123.095 143.906 105.527L143.911 95.2206C161.92 89.6899 178.125 89.9621 178.125 89.9621C178.125 89.9621 194.33 89.7065 212.333 95.2559Z" fill="#FFC283"/>
<path opacity="0.4" d="M143.911 99.8941C161.92 94.3634 178.125 94.6357 178.125 94.6357C178.125 94.6357 194.328 94.3811 212.33 99.9295L212.333 94.7365C194.33 89.187 178.125 89.4416 178.125 89.4416C178.125 89.4416 161.919 89.1694 143.911 94.7001L143.906 105.006C143.906 105.042 143.908 105.078 143.908 105.113L143.911 99.8941Z" fill="white"/>
<path d="M254.573 187.542C251.283 196.254 245.985 204.405 237.633 210.322C237.224 210.608 236.814 210.888 236.41 211.179C234.262 212.726 217.899 223.477 178.053 223.457C138.207 223.436 121.856 212.666 119.709 211.118C119.306 210.826 118.897 210.545 118.487 210.26C110.141 204.334 104.852 196.178 101.571 187.462C96.5866 174.237 96.2301 159.725 96.8246 149.761C97.0792 145.506 97.7931 141.334 98.928 137.313C99.1919 136.372 99.4839 135.441 99.7988 134.516V134.511C104.123 121.705 112.815 110.641 124.706 103.566C130.904 99.8733 137.522 97.1796 143.91 95.2207L143.904 105.527C143.895 123.095 158.13 137.345 175.698 137.354L180.499 137.356C198.067 137.365 212.317 123.13 212.326 105.562L212.331 95.256C218.717 97.2222 225.332 99.9221 231.527 103.621C243.41 110.709 252.091 121.782 256.401 134.592V134.597C256.715 135.522 257.006 136.453 257.269 137.395C258.4 141.416 259.11 145.589 259.36 149.845C259.943 159.81 259.571 174.323 254.573 187.542Z" fill="url(#paint0_radial_709_45445)"/>
<path d="M101.57 187.461C98.6765 187.46 96.3331 187.071 94.4427 186.482C89.8961 185.055 86.8533 180.769 86.8554 176.003L86.8699 148.387C86.872 144.81 88.5898 141.57 91.2991 139.546C92.7124 138.493 94.3949 137.77 96.2406 137.497C97.8161 137.268 98.927 137.313 98.927 137.313C97.7922 141.333 97.0782 145.504 96.8236 149.761C96.2292 159.724 96.5856 174.237 101.57 187.461Z" fill="url(#paint1_linear_709_45445)"/>
<path d="M269.313 148.481L269.299 176.097C269.297 180.863 266.25 185.145 261.701 186.567C259.811 187.155 257.467 187.541 254.574 187.539C259.572 174.319 259.944 159.807 259.36 149.843C259.109 145.587 258.399 141.415 257.269 137.393C257.269 137.393 258.379 137.348 259.954 137.579C261.799 137.855 263.48 138.579 264.894 139.634C267.601 141.661 269.316 144.904 269.313 148.481Z" fill="url(#paint2_linear_709_45445)"/>
<path d="M99.8241 93.7705L99.8034 134.519C99.4885 135.444 99.1964 136.376 98.9325 137.317C98.9325 137.317 97.8226 137.271 96.2461 137.501C94.4015 137.774 92.719 138.498 91.3046 139.55L91.3212 108.665C91.3212 108.665 91.289 93.7653 99.8241 93.7705Z" fill="#FFC283"/>
<path d="M264.915 108.755L264.899 139.64C263.486 138.586 261.804 137.861 259.959 137.586C258.384 137.355 257.274 137.4 257.274 137.4C257.011 136.457 256.72 135.527 256.406 134.601L256.427 93.8523C264.963 93.8565 264.915 108.755 264.915 108.755Z" fill="#FFC283"/>
<path d="M230.39 222.786C223.216 227.246 208.354 231.287 178.052 231.271C147.749 231.254 132.892 227.199 125.723 222.731C116.905 217.243 119.712 211.121 119.712 211.121C121.859 212.67 138.21 223.439 178.056 223.46C217.902 223.481 234.264 212.729 236.412 211.182C236.412 211.182 239.213 217.308 230.39 222.786Z" fill="#6B779B"/>
<path d="M263.602 340.837C262.603 342.822 260.5 343.999 258.279 343.998L97.7167 343.914C95.4959 343.912 93.3936 342.734 92.3969 340.748C90.173 336.345 95.2548 332.86 95.2548 332.86L178.003 332.898L260.751 332.947C260.752 332.947 265.825 336.437 263.602 340.837Z" fill="#6B779B"/>
<path d="M269.632 258.171L260.756 322.035L178.008 321.986L95.2594 321.949L86.4499 258.076C85.4107 250.55 91.2626 243.842 98.8614 243.845L257.237 243.928C264.834 243.932 270.678 250.646 269.632 258.171Z" fill="url(#paint3_linear_709_45445)"/>
<path d="M243.974 243.919L112.121 243.851C112.127 231.116 125.725 222.729 125.725 222.729C132.894 227.197 147.752 231.253 178.054 231.269C208.355 231.284 223.217 227.244 230.392 222.785C230.392 222.784 243.98 231.185 243.974 243.919Z" fill="url(#paint4_radial_709_45445)"/>
<path opacity="0.3" d="M254.582 179.132C251.291 187.844 245.994 195.995 237.641 201.912C237.232 202.198 236.822 202.478 236.418 202.769C234.27 204.316 217.907 215.068 178.062 215.047C138.216 215.026 121.865 204.257 119.718 202.708C119.314 202.416 118.905 202.135 118.495 201.85C110.149 195.924 104.86 187.768 101.579 179.052C98.2534 170.226 96.9939 160.834 96.6967 152.596C96.3413 162.362 97.0438 175.439 101.575 187.463C104.857 196.179 110.145 204.334 118.491 210.26C118.901 210.546 119.309 210.826 119.713 211.119C121.86 212.667 138.212 223.436 178.057 223.457C217.903 223.478 234.266 212.726 236.414 211.18C236.818 210.889 237.228 210.608 237.637 210.322C245.989 204.405 251.287 196.256 254.577 187.543C259.121 175.523 259.838 162.448 259.492 152.681C259.186 160.919 257.918 170.309 254.582 179.132Z" fill="#002245"/>
<path opacity="0.3" d="M206.379 93.6072L206.375 101.927C206.367 116.436 194.599 128.192 180.091 128.184L176.127 128.182C161.618 128.175 149.863 116.407 149.87 101.898L149.874 93.5781C147.922 94.0603 145.931 94.6038 143.915 95.2232L143.91 105.529C143.901 123.097 158.136 137.347 175.704 137.356L180.504 137.359C198.072 137.368 212.322 123.133 212.331 105.565L212.337 95.2586C210.321 94.6361 208.329 94.0915 206.379 93.6072Z" fill="#002245"/>
<path opacity="0.3" d="M94.4501 172.468C89.9035 171.041 86.8607 166.755 86.8628 161.989L86.8555 176.007C86.8534 180.773 89.8952 185.059 94.4428 186.486C96.3321 187.076 98.6756 187.464 101.57 187.465C99.8063 182.786 98.632 177.948 97.864 173.206C96.5899 173.035 95.454 172.782 94.4501 172.468Z" fill="#002245"/>
<path opacity="0.3" d="M261.712 172.551C266.261 171.13 269.308 166.847 269.31 162.081L269.303 176.099C269.301 180.865 266.254 185.148 261.705 186.569C259.815 187.158 257.471 187.543 254.578 187.541C256.346 182.864 257.526 178.027 258.3 173.286C259.573 173.116 260.709 172.863 261.712 172.551Z" fill="#002245"/>
<path opacity="0.3" d="M95.8961 95.1226L95.8764 132.638L95.8701 132.749C95.8306 133.412 95.2882 133.939 94.6231 133.947C94.6189 133.947 94.6147 133.947 94.6116 133.947C94.1544 133.952 93.3344 133.986 92.3212 134.133C91.9762 134.184 91.6394 134.256 91.3059 134.338L91.3027 139.549C92.7161 138.496 94.3986 137.773 96.2442 137.5C97.8197 137.271 98.9306 137.316 98.9306 137.316C99.1946 136.375 99.4866 135.443 99.8015 134.518L99.8223 93.7695C98.2354 93.7695 96.9457 94.285 95.8961 95.1226Z" fill="#002245"/>
<path opacity="0.3" d="M260.352 95.2078L260.332 132.723L260.339 132.834C260.377 133.497 260.92 134.025 261.585 134.033C261.589 134.033 261.593 134.033 261.596 134.033C262.053 134.039 262.873 134.074 263.887 134.222C264.232 134.274 264.568 134.346 264.902 134.428L264.899 139.64C263.486 138.585 261.804 137.861 259.959 137.585C258.384 137.354 257.274 137.399 257.274 137.399C257.011 136.457 256.72 135.526 256.406 134.601L256.427 93.8516C258.014 93.8516 259.303 94.3691 260.352 95.2078Z" fill="#002245"/>
<path opacity="0.3" d="M230.394 218.86C223.22 223.319 208.359 227.361 178.056 227.344C147.753 227.327 132.896 223.272 125.727 218.805C121.72 216.311 120.117 213.688 119.557 211.565C119.112 213.068 118.321 218.121 125.725 222.73C132.894 227.197 147.752 231.253 178.054 231.269C208.355 231.285 223.217 227.244 230.392 222.785C237.801 218.184 237.014 213.131 236.571 211.627C236.009 213.749 234.404 216.37 230.394 218.86Z" fill="#002245"/>
<path opacity="0.3" d="M121.142 233.036C123.489 230.886 126.871 230.3 129.794 231.561C138.052 235.123 152.606 237.985 178.05 237.998C203.495 238.01 218.052 235.164 226.313 231.611C229.237 230.353 232.618 230.942 234.965 233.095C237.687 235.593 240.944 239.303 242.698 243.919L243.974 243.92C243.98 231.186 230.392 222.785 230.392 222.785C223.218 227.244 208.356 231.285 178.054 231.269C147.751 231.252 132.894 227.197 125.725 222.729C125.725 222.729 112.127 231.117 112.121 243.851L113.396 243.852C115.155 239.238 118.416 235.532 121.142 233.036Z" fill="#002245"/>
<path opacity="0.3" d="M258.284 338.951L97.7223 338.867C95.5846 338.866 93.5665 337.765 92.5293 335.912C91.8164 337.243 91.4745 338.915 92.4005 340.748C93.3971 342.734 95.4994 343.912 97.7202 343.913L258.282 343.998C260.503 343.999 262.606 342.822 263.605 340.837C264.53 339.006 264.19 337.333 263.479 336.003C262.439 337.855 260.422 338.952 258.284 338.951Z" fill="#002245"/>
<path opacity="0.3" d="M257.234 243.928H256.765C261.095 246.078 263.861 250.844 263.144 256.023L255.663 310.111C255.224 313.289 252.506 315.655 249.298 315.653L178.01 315.61L106.721 315.578C103.513 315.577 100.797 313.208 100.361 310.029L92.9367 255.934C92.2248 250.753 94.9954 245.991 99.3279 243.845H98.8592C91.2614 243.841 85.4096 250.55 86.4477 258.076L95.2572 321.949L178.005 321.986L260.754 322.035L269.63 258.171C270.677 250.646 264.832 243.932 257.234 243.928Z" fill="#002245"/>
<path d="M178.183 225.425C178.141 225.425 178.107 225.425 178.066 225.425C138.17 225.404 121.509 214.83 118.574 212.711C118.354 212.552 118.131 212.397 117.908 212.242C117.727 212.116 117.546 211.992 117.367 211.864C95.4869 196.335 93.8844 166.219 94.8769 149.65C96.0678 129.783 106.848 111.925 123.712 101.882C147.416 87.7661 176.492 87.9802 178.136 88.0031C179.767 87.9823 208.854 87.7952 232.546 101.939C249.401 112.001 260.162 129.869 261.331 149.737C262.306 166.308 260.675 196.422 238.777 211.927C238.597 212.055 238.416 212.181 238.235 212.307C238.012 212.46 237.789 212.614 237.569 212.773C234.636 214.887 217.986 225.425 178.183 225.425ZM177.857 91.9272C174.966 91.9272 147.498 92.2857 125.721 105.254C109.974 114.632 99.9078 131.316 98.7958 149.885C97.8511 165.642 99.304 194.231 119.638 208.663C119.806 208.783 119.975 208.899 120.145 209.016C120.388 209.186 120.632 209.354 120.872 209.529C122.566 210.752 138.56 221.479 178.068 221.5C178.104 221.5 178.146 221.5 178.182 221.5C217.608 221.501 233.583 210.809 235.276 209.589C235.515 209.417 235.759 209.248 236.002 209.079C236.172 208.961 236.342 208.844 236.51 208.724C256.861 194.315 258.342 165.727 257.414 149.968C256.321 131.398 246.273 114.704 230.536 105.309C207.651 91.6487 178.466 91.9241 178.166 91.9282C178.146 91.9282 178.124 91.9282 178.104 91.9282C178.09 91.9282 178.006 91.9272 177.857 91.9272Z" fill="#003D7C"/>
<path d="M101.58 189.43C98.7207 189.429 96.1257 189.068 93.8696 188.36C88.5051 186.677 84.9032 181.714 84.9063 176.011L84.9208 148.391C84.9239 141.992 89.6742 136.478 95.9719 135.564C97.7053 135.312 98.9659 135.358 99.0189 135.36L98.863 139.282L98.941 137.321L98.8682 139.282C98.8599 139.281 97.8883 139.251 96.5373 139.447C92.1559 140.083 88.8501 143.929 88.8481 148.392L88.8335 176.012C88.8314 179.99 91.3287 183.447 95.047 184.614C96.9228 185.203 99.1228 185.503 101.584 185.504L101.58 189.43Z" fill="#003D7C"/>
<path d="M93.2726 139.553L89.3475 139.551L89.3641 108.664C89.3641 108.268 89.3963 98.7975 93.919 94.2665C95.5485 92.6349 97.5355 91.8066 99.8228 91.8066C99.8249 91.8066 99.826 91.8066 99.828 91.8066C100.349 91.8066 100.848 92.0135 101.215 92.3824C101.583 92.7503 101.789 93.2501 101.789 93.7708L101.768 134.519L97.8431 134.517L97.8639 96.1963C96.3051 96.9976 95.1058 98.8349 94.2848 101.688C93.3007 105.106 93.2903 108.629 93.2903 108.663L93.2726 139.553Z" fill="#003D7C"/>
<path d="M254.605 189.508C254.599 189.508 254.593 189.508 254.588 189.508L254.59 185.583C254.594 185.583 254.599 185.583 254.605 185.583C257.06 185.583 259.254 185.286 261.127 184.701C264.846 183.538 267.348 180.084 267.35 176.106L267.364 148.485C267.366 144.022 264.065 140.173 259.684 139.532C258.33 139.334 257.361 139.364 257.353 139.364L257.206 135.442C257.26 135.44 258.519 135.395 260.253 135.649C266.548 136.569 271.293 142.09 271.289 148.487L271.275 176.108C271.272 181.81 267.664 186.769 262.298 188.447C260.046 189.151 257.457 189.508 254.605 189.508Z" fill="#003D7C"/>
<path d="M266.867 139.645L262.942 139.643L262.957 108.756C262.957 108.718 262.951 105.196 261.97 101.777C261.151 98.924 259.954 97.0856 258.396 96.2823L258.376 134.603L254.451 134.601L254.472 93.8526C254.472 93.332 254.68 92.8331 255.048 92.4652C255.416 92.0974 255.914 91.8916 256.435 91.8916C256.435 91.8916 256.435 91.8916 256.436 91.8916C258.726 91.8926 260.714 92.7219 262.342 94.3566C266.861 98.8918 266.883 108.363 266.882 108.764L266.867 139.645Z" fill="#003D7C"/>
<path d="M180.524 139.324C180.518 139.324 180.513 139.324 180.505 139.324L175.703 139.322C166.682 139.317 158.204 135.8 151.828 129.418C145.454 123.036 141.944 114.554 141.949 105.532L141.954 95.2285L145.88 95.2306L145.874 105.534C145.87 113.506 148.97 121.003 154.605 126.643C160.24 132.283 167.733 135.392 175.705 135.396L180.508 135.398C180.513 135.398 180.518 135.398 180.524 135.398C188.49 135.398 195.981 132.298 201.617 126.667C207.257 121.032 210.365 113.54 210.37 105.567L210.375 95.2628L214.3 95.2649L214.295 105.569C214.29 114.589 210.773 123.068 204.391 129.444C198.014 135.815 189.537 139.324 180.524 139.324Z" fill="#003D7C"/>
<path d="M178.071 213.431C178.071 213.431 227.476 214.719 235.061 184.083C238.34 170.842 236.365 162.109 233.063 156.461C229.593 150.524 223.163 146.947 216.287 146.944L178.106 146.924L139.912 146.904C133.271 146.901 126.989 150.21 123.476 155.847C119.971 161.468 117.737 170.335 121.112 184.024C128.666 214.667 178.071 213.431 178.071 213.431Z" fill="#002245"/>
<path opacity="0.5" d="M154.511 193.005C166.342 193.005 175.934 187.232 175.934 180.11C175.934 172.988 166.342 167.215 154.511 167.215C142.679 167.215 133.088 172.988 133.088 180.11C133.088 187.232 142.679 193.005 154.511 193.005Z" fill="url(#paint5_radial_709_45445)"/>
<path opacity="0.5" d="M202.802 193.005C214.633 193.005 224.225 187.232 224.225 180.11C224.225 172.988 214.633 167.215 202.802 167.215C190.97 167.215 181.379 172.988 181.379 180.11C181.379 187.232 190.97 193.005 202.802 193.005Z" fill="url(#paint6_radial_709_45445)"/>
<path d="M178.072 210.358C178.072 210.358 224.799 211.524 231.973 183.797C235.074 171.812 233.205 163.909 230.083 158.798C226.801 153.425 220.72 150.187 214.216 150.184L178.104 150.165L141.981 150.147C135.699 150.144 129.758 153.139 126.435 158.239C123.12 163.326 121.007 171.351 124.2 183.741C131.343 211.475 178.072 210.358 178.072 210.358Z" stroke="#FFC283" stroke-width="1.68222" stroke-miterlimit="10"/>
<path d="M132.089 211.062C116.371 211.053 105.021 207.468 98.3548 200.403C92.1444 193.822 92.479 186.674 92.4967 186.373L96.4145 186.597L94.4556 186.485L96.4156 186.587C96.4052 186.825 96.2057 192.467 101.286 197.79C107.114 203.896 117.766 207.128 132.091 207.135L132.089 211.062Z" fill="#FFC283"/>
<path d="M132.095 214.326C134.982 214.326 137.322 211.986 137.322 209.099C137.322 206.212 134.982 203.872 132.095 203.872C129.208 203.872 126.867 206.212 126.867 209.099C126.867 211.986 129.208 214.326 132.095 214.326Z" fill="#FFC283"/>
<path d="M178.245 233.234C178.182 233.234 178.126 233.234 178.063 233.234C144.902 233.217 125.054 228.476 119.07 219.141C116.082 214.482 117.863 210.47 117.941 210.301L121.509 211.938C121.482 212.005 120.558 214.292 122.453 217.143C125.466 221.677 136.699 229.287 178.066 229.309C178.124 229.309 178.184 229.309 178.242 229.309C219.715 229.309 230.833 221.65 233.77 217.081C235.587 214.254 234.65 212.019 234.64 211.997L238.21 210.364C238.286 210.533 240.065 214.546 237.072 219.203C231.09 228.513 211.294 233.234 178.245 233.234Z" fill="#003D7C"/>
<path d="M258.295 335.052C258.294 335.052 258.293 335.052 258.291 335.052L97.7279 334.968C94.7287 334.967 91.953 333.3 90.6539 330.724C88.6139 326.676 91.027 323.027 93.1699 321.111L84.5132 258.348C83.9406 254.198 85.1908 250.007 87.9447 246.85C90.6955 243.695 94.6747 241.886 98.8607 241.886C98.8628 241.886 98.8659 241.886 98.868 241.886L257.247 241.969C261.436 241.971 265.416 243.784 268.166 246.946C270.916 250.106 272.162 254.298 271.585 258.447L262.863 321.2C265.003 323.119 267.412 326.769 265.368 330.815C264.068 333.389 261.292 335.052 258.295 335.052ZM95.9405 323.913C95.0072 324.706 93.039 326.731 94.1613 328.958C94.7984 330.224 96.2003 331.043 97.7311 331.044L258.294 331.128C258.294 331.128 258.295 331.128 258.296 331.128C259.826 331.128 261.227 330.311 261.866 329.046C262.989 326.821 261.024 324.793 260.092 323.999L95.9405 323.913ZM178.018 320.03L259.058 320.073L267.699 257.906C268.12 254.882 267.212 251.826 265.207 249.522C263.202 247.218 260.301 245.896 257.247 245.894L98.868 245.811C98.8659 245.811 98.8638 245.811 98.8628 245.811C95.8116 245.811 92.9111 247.13 90.9054 249.429C88.8977 251.731 87.9863 254.787 88.404 257.812L96.9807 319.988L178.018 320.03Z" fill="#003D7C"/>
<path d="M114.085 243.855L110.16 243.853C110.167 230.179 124.106 221.425 124.699 221.06L126.759 224.401L125.729 222.731L126.761 224.4C126.633 224.478 114.091 232.387 114.085 243.855Z" fill="#003D7C"/>
<path d="M245.943 243.924L242.018 243.922C242.024 232.413 229.492 224.532 229.365 224.455L231.429 221.115C232.022 221.482 245.95 230.25 245.943 243.924Z" fill="#003D7C"/>
<path d="M178.215 305.218C190.553 305.218 200.555 295.216 200.555 282.878C200.555 270.54 190.553 260.538 178.215 260.538C165.877 260.538 155.875 270.54 155.875 282.878C155.875 295.216 165.877 305.218 178.215 305.218Z" fill="#002245"/>
<path d="M173.235 280.111C172.955 279.831 172.955 279.375 173.235 279.096C173.515 278.816 173.97 278.816 174.25 279.096C174.53 279.375 174.53 279.831 174.25 280.111C173.97 280.39 173.515 280.39 173.235 280.111Z" fill="white"/>
<path d="M174.593 287.524C174.313 287.244 174.313 286.789 174.593 286.509C174.873 286.229 175.328 286.229 175.608 286.509C175.888 286.789 175.888 287.244 175.608 287.524C175.328 287.804 174.873 287.804 174.593 287.524Z" fill="white"/>
<path d="M184.083 281.442C184.083 281.442 184.551 279.828 184.759 278.404C184.896 277.465 184.721 276.787 183.898 276.129C183.074 275.47 181.391 275.81 180.53 276.297C179.668 276.784 173.4 279.94 173.4 279.94C173.4 279.94 178.283 275.789 180.062 274.794C181.841 273.799 183.542 273.95 184.795 274.812C186.048 275.677 186.516 277.384 186.124 279.282C185.73 281.177 185.283 282.812 185.283 282.812L184.086 281.442H184.083Z" fill="white"/>
<path d="M176.748 276.413C176.748 276.413 175.139 275.944 173.72 275.735C172.785 275.598 172.109 275.773 171.453 276.599C170.798 277.426 171.135 279.115 171.621 279.979C172.107 280.844 175.251 287.135 175.251 287.135C175.251 287.135 171.115 282.234 170.124 280.449C169.133 278.666 169.283 276.956 170.142 275.699C171.003 274.441 172.706 273.972 174.595 274.367C176.484 274.762 178.113 275.211 178.113 275.211L176.748 276.413Z" fill="white"/>
<path d="M171.613 283.827C171.613 283.827 171.145 285.442 170.937 286.868C170.801 287.807 170.975 288.485 171.799 289.143C172.622 289.801 174.305 289.462 175.167 288.974C176.028 288.487 182.296 285.332 182.296 285.332C182.296 285.332 177.413 289.482 175.634 290.477C173.857 291.472 172.155 291.321 170.901 290.459C169.648 289.594 169.181 287.887 169.572 285.99C169.966 284.094 170.414 282.459 170.414 282.459L171.611 283.829L171.613 283.827Z" fill="white"/>
<path d="M178.947 288.859C178.947 288.859 180.556 289.328 181.975 289.537C182.91 289.674 183.586 289.499 184.242 288.672C184.897 287.846 184.559 286.157 184.074 285.292C183.588 284.428 180.444 278.137 180.444 278.137C180.444 278.137 184.579 283.037 185.571 284.823C186.562 286.606 186.412 288.315 185.553 289.573C184.691 290.831 182.991 291.3 181.1 290.907C179.211 290.512 177.582 290.063 177.582 290.063L178.947 288.861V288.859Z" fill="white"/>
<path d="M180.011 278.837C179.731 278.557 179.731 278.102 180.011 277.822C180.291 277.542 180.746 277.542 181.026 277.822C181.306 278.102 181.306 278.557 181.026 278.837C180.746 279.117 180.291 279.117 180.011 278.837Z" fill="white"/>
<path d="M181.446 286.09C181.166 285.81 181.166 285.355 181.446 285.075C181.726 284.795 182.181 284.795 182.461 285.075C182.741 285.355 182.741 285.81 182.461 286.09C182.181 286.37 181.726 286.37 181.446 286.09Z" fill="white"/>
<path d="M177.83 283.739C178.451 283.739 178.954 283.235 178.954 282.614C178.954 281.993 178.451 281.489 177.83 281.489C177.209 281.489 176.705 281.993 176.705 282.614C176.705 283.235 177.209 283.739 177.83 283.739Z" fill="white"/>
<path d="M143.075 185.551C143.571 184.509 144.235 183.646 144.981 182.807C145.738 181.989 146.598 181.246 147.556 180.619C149.461 179.363 151.825 178.579 154.241 178.629C155.444 178.642 156.643 178.854 157.757 179.245C158.042 179.329 158.314 179.441 158.58 179.562C158.846 179.684 159.122 179.787 159.376 179.925C159.881 180.21 160.396 180.473 160.852 180.815C162.72 182.121 164.231 183.766 165.335 185.625C165.496 185.896 165.407 186.248 165.136 186.409C164.933 186.529 164.686 186.51 164.506 186.38L164.503 186.378C162.825 185.151 161.18 184.01 159.453 183.218C158.601 182.804 157.727 182.497 156.854 182.284C155.983 182.058 155.102 181.959 154.226 181.972C152.474 181.993 150.728 182.459 149.014 183.234C147.301 183.998 145.611 185.073 143.96 186.239L143.923 186.266C143.664 186.449 143.307 186.387 143.124 186.129C143.001 185.954 142.99 185.732 143.075 185.551Z" fill="#FFC283"/>
<path d="M212.188 186.275C210.538 185.108 208.85 184.03 207.137 183.264C205.424 182.487 203.678 182.02 201.926 181.998C201.05 181.983 200.169 182.081 199.298 182.306C198.425 182.518 197.551 182.824 196.698 183.237C194.97 184.027 193.324 185.167 191.645 186.391L191.643 186.393C191.388 186.58 191.03 186.523 190.844 186.269C190.705 186.079 190.702 185.83 190.815 185.639C191.921 183.781 193.434 182.138 195.303 180.834C195.76 180.492 196.274 180.229 196.779 179.945C197.034 179.807 197.309 179.704 197.575 179.583C197.841 179.462 198.113 179.351 198.398 179.268C199.512 178.877 200.713 178.666 201.915 178.654C204.331 178.607 206.694 179.393 208.598 180.652C209.556 181.281 210.415 182.024 211.171 182.842C211.916 183.681 212.579 184.547 213.074 185.589C213.21 185.875 213.088 186.217 212.802 186.353C212.608 186.444 212.389 186.418 212.225 186.304L212.188 186.275Z" fill="#FFC283"/>
<path d="M178.009 303.726C178.005 303.726 178.002 303.726 177.998 303.726C172.376 303.722 167.091 301.529 163.116 297.553C159.143 293.574 156.955 288.288 156.959 282.665C156.961 277.043 159.154 271.756 163.132 267.783C167.107 263.812 172.39 261.626 178.009 261.626C178.012 261.626 178.016 261.626 178.02 261.626C189.627 261.631 199.064 271.079 199.059 282.688C199.053 294.288 189.611 303.726 178.009 303.726ZM178.009 264.311C173.108 264.311 168.499 266.218 165.032 269.683C161.561 273.15 159.649 277.759 159.646 282.665C159.644 287.57 161.551 292.183 165.018 295.653C168.484 299.123 173.094 301.035 178 301.039C178.002 301.039 178.005 301.039 178.009 301.039C188.131 301.039 196.367 292.808 196.372 282.685C196.376 272.56 188.143 264.318 178.018 264.313C178.016 264.311 178.012 264.311 178.009 264.311Z" fill="#FFC283"/>
<rect x="73" y="312" width="211" height="41" rx="12.9795" fill="#002245"/>
<rect x="73.9667" y="312.467" width="209.067" height="40.0666" rx="12.0128" fill="white" fill-opacity="0.35" stroke="white" stroke-width="1.93338"/>
<path d="M107.953 332.067C107.956 333.21 107.732 334.343 107.296 335.399C106.86 336.456 106.219 337.416 105.41 338.225C104.602 339.033 103.642 339.674 102.585 340.11C101.528 340.546 100.396 340.77 99.2528 340.767H97.3194C96.1761 340.77 95.0436 340.546 93.9869 340.11C92.9302 339.674 91.9701 339.033 91.1617 338.225C90.3533 337.416 89.7126 336.456 89.2762 335.399C88.8399 334.343 88.6166 333.21 88.6192 332.067M98.2861 340.767V344.634M103.12 331.1C103.12 332.382 102.61 333.612 101.704 334.518C100.797 335.425 99.568 335.934 98.2861 335.934C97.0042 335.934 95.7748 335.425 94.8683 334.518C93.9619 333.612 93.4526 332.382 93.4526 331.1V324.333C93.4526 323.052 93.9619 321.822 94.8683 320.916C95.7748 320.009 97.0042 319.5 98.2861 319.5C99.568 319.5 100.797 320.009 101.704 320.916C102.61 321.822 103.12 323.052 103.12 324.333V331.1Z" stroke="white" stroke-width="1.93338" stroke-linecap="round" stroke-linejoin="round"/>
<path d="M265.175 325.917L259.723 328.333V325.433C259.723 324.921 259.519 324.429 259.156 324.066C258.794 323.704 258.302 323.5 257.789 323.5H243.289C242.776 323.5 242.284 323.704 241.922 324.066C241.559 324.429 241.355 324.921 241.355 325.433V338.967C241.355 339.48 241.559 339.972 241.922 340.334C242.284 340.697 242.776 340.9 243.289 340.9H257.789C258.302 340.9 258.794 340.697 259.156 340.334C259.519 339.972 259.723 339.48 259.723 338.967V336.067L265.175 338.484C265.322 338.54 265.48 338.56 265.637 338.542C265.793 338.523 265.943 338.467 266.072 338.377C266.202 338.287 266.308 338.168 266.38 338.028C266.453 337.888 266.491 337.733 266.489 337.575V326.825C266.491 326.668 266.453 326.512 266.38 326.373C266.308 326.233 266.202 326.113 266.072 326.023C265.943 325.934 265.793 325.877 265.637 325.859C265.48 325.84 265.322 325.86 265.175 325.917V325.917Z" stroke="white" stroke-width="1.93338" stroke-linecap="round" stroke-linejoin="round"/>
<rect x="146" y="316.5" width="65" height="31" rx="15.5" fill="white"/>
<path d="M171.197 330.225C170.278 330.436 169.455 330.978 168.867 331.759C168.279 332.54 167.962 333.513 167.968 334.515L167.959 335.375C167.963 335.76 168.109 336.129 168.365 336.401C168.621 336.674 168.967 336.829 169.329 336.834L172.775 336.814C173.135 336.811 173.479 336.657 173.734 336.386C173.988 336.115 174.132 335.748 174.135 335.365C174.14 334.979 174.285 334.611 174.541 334.338C174.797 334.066 175.143 333.91 175.505 333.906H180.947C181.127 333.905 181.306 333.941 181.472 334.014C181.639 334.087 181.791 334.195 181.918 334.33C182.046 334.466 182.146 334.627 182.215 334.805C182.283 334.983 182.318 335.173 182.316 335.365C182.319 335.748 182.464 336.115 182.718 336.386C182.973 336.657 183.317 336.811 183.677 336.814H187.123C187.485 336.81 187.831 336.655 188.087 336.382C188.343 336.109 188.489 335.741 188.493 335.355L188.484 334.495C188.49 333.494 188.172 332.521 187.584 331.74C186.996 330.959 186.174 330.417 185.255 330.206C180.611 329.258 175.839 329.265 171.197 330.225Z" fill="#FF0004"/>
<path d="M189.336 25H290.791C295.213 25 298.8 28.5871 298.8 33.0091V70.4978C298.769 74.8889 295.182 78.4451 290.791 78.4451H289.925L289.678 84.104L289.585 86.0521C289.554 86.7634 288.936 87.32 288.193 87.2582C287.915 87.2272 287.637 87.1345 287.42 86.9489C284.421 84.1968 281.452 81.3828 278.576 78.4451H189.336C184.945 78.4451 181.389 74.8889 181.389 70.4978V33.0091C181.358 28.618 184.914 25.0309 189.305 25H189.336Z" fill="white"/>
<path d="M198.873 40.3521H201.284V52.6709H198.873V47.5674H194.297V52.6709H191.869V40.3521H194.297V45.2444H198.873V40.3521ZM204.241 42.8159C203.865 42.8159 203.537 42.6809 203.255 42.4111C202.985 42.1295 202.851 41.801 202.851 41.4256C202.851 41.0502 202.985 40.7217 203.255 40.4401C203.537 40.1585 203.865 40.0177 204.241 40.0177C204.628 40.0177 204.956 40.1585 205.226 40.4401C205.508 40.7217 205.649 41.0502 205.649 41.4256C205.649 41.801 205.508 42.1295 205.226 42.4111C204.956 42.6809 204.628 42.8159 204.241 42.8159ZM203.115 52.6709V43.8717H205.385V52.6709H203.115ZM211.264 40.3521H213.692V52.6709H211.264V40.3521ZM218.507 40.3345L217.187 45.2268H215.339L216.043 40.3345H218.507ZM229.793 43.6254C230.802 43.6254 231.606 43.9539 232.204 44.6109C232.814 45.2679 233.119 46.1478 233.119 47.2506V52.6709H230.849V47.409C230.849 46.8811 230.72 46.4704 230.462 46.1771C230.204 45.8838 229.84 45.7372 229.371 45.7372C228.854 45.7372 228.45 45.9073 228.156 46.2475C227.875 46.5878 227.734 47.0805 227.734 47.7258V52.6709H225.464V47.409C225.464 46.8811 225.335 46.4704 225.077 46.1771C224.819 45.8838 224.455 45.7372 223.986 45.7372C223.481 45.7372 223.076 45.9073 222.771 46.2475C222.478 46.5878 222.331 47.0805 222.331 47.7258V52.6709H220.061V43.8717H222.331V44.8045C222.859 44.0184 223.675 43.6254 224.777 43.6254C225.857 43.6254 226.655 44.0477 227.171 44.8925C227.757 44.0477 228.631 43.6254 229.793 43.6254ZM245.43 43.8717H247.7V52.6709H245.43V51.6326C244.75 52.489 243.794 52.9173 242.562 52.9173C241.388 52.9173 240.379 52.4715 239.535 51.5798C238.702 50.6764 238.285 49.5736 238.285 48.2713C238.285 46.969 238.702 45.8721 239.535 44.9804C240.379 44.0771 241.388 43.6254 242.562 43.6254C243.794 43.6254 244.75 44.0536 245.43 44.91V43.8717ZM241.242 50.0664C241.699 50.5239 242.28 50.7527 242.984 50.7527C243.688 50.7527 244.269 50.5239 244.726 50.0664C245.196 49.5971 245.43 48.9987 245.43 48.2713C245.43 47.5439 245.196 46.9515 244.726 46.4939C244.269 46.0246 243.688 45.79 242.984 45.79C242.28 45.79 241.699 46.0246 241.242 46.4939C240.784 46.9515 240.555 47.5439 240.555 48.2713C240.555 48.9987 240.784 49.5971 241.242 50.0664ZM196.123 57.2112L193.788 61.0224V63.6709H193.142V61.004L190.817 57.2112H191.546L193.475 60.3764L195.394 57.2112H196.123ZM199.622 63.0895C199.154 63.5509 198.582 63.7816 197.905 63.7816C197.228 63.7816 196.653 63.5509 196.18 63.0895C195.712 62.622 195.478 62.0467 195.478 61.3639C195.478 60.681 195.712 60.1088 196.18 59.6474C196.653 59.1799 197.228 58.9461 197.905 58.9461C198.582 58.9461 199.154 59.1799 199.622 59.6474C200.095 60.1088 200.332 60.681 200.332 61.3639C200.332 62.0467 200.095 62.622 199.622 63.0895ZM196.613 62.665C196.964 63.0157 197.395 63.191 197.905 63.191C198.416 63.191 198.846 63.0157 199.197 62.665C199.548 62.3082 199.723 61.8745 199.723 61.3639C199.723 60.8532 199.548 60.4226 199.197 60.0719C198.846 59.7151 198.416 59.5367 197.905 59.5367C197.395 59.5367 196.964 59.7151 196.613 60.0719C196.263 60.4226 196.087 60.8532 196.087 61.3639C196.087 61.8745 196.263 62.3082 196.613 62.665ZM204.415 59.0568H205.024V63.6709H204.415V62.9511C204.071 63.5048 203.554 63.7816 202.865 63.7816C202.305 63.7816 201.862 63.6125 201.536 63.2741C201.216 62.9296 201.056 62.4682 201.056 61.8899V59.0568H201.665V61.8899C201.665 62.3021 201.773 62.622 201.988 62.8496C202.21 63.0772 202.52 63.191 202.92 63.191C203.363 63.191 203.723 63.0526 204 62.7758C204.277 62.4928 204.415 62.059 204.415 61.4746V59.0568ZM206.737 59.8228C207.02 59.2629 207.506 58.983 208.195 58.983V59.5736C207.777 59.5736 207.429 59.6966 207.152 59.9427C206.876 60.1888 206.737 60.5764 206.737 61.1055V63.6709H206.128V59.0568H206.737V59.8228ZM215.36 63.6709L214.761 62.0837H211.697L211.097 63.6709H210.414L212.896 57.2112H213.561L216.043 63.6709H215.36ZM211.928 61.4746H214.53L213.229 58.014L211.928 61.4746ZM216.688 57.2112H217.334V63.6709H216.688V57.2112ZM218.63 61.1147V60.5241H221.953V61.1147H218.63ZM225.547 57.2112C226.125 57.2112 226.608 57.405 226.996 57.7926C227.384 58.1802 227.577 58.6631 227.577 59.2414C227.577 59.8197 227.384 60.3026 226.996 60.6902C226.608 61.0778 226.125 61.2716 225.547 61.2716H223.886V63.6709H223.24V57.2112H225.547ZM225.547 60.6625C225.947 60.6625 226.276 60.5303 226.535 60.2657C226.799 59.995 226.931 59.6536 226.931 59.2414C226.931 58.8292 226.799 58.4908 226.535 58.2263C226.276 57.9556 225.947 57.8203 225.547 57.8203H223.886V60.6625H225.547ZM231.904 63.0895C231.436 63.5509 230.864 63.7816 230.187 63.7816C229.51 63.7816 228.935 63.5509 228.461 63.0895C227.994 62.622 227.76 62.0467 227.76 61.3639C227.76 60.681 227.994 60.1088 228.461 59.6474C228.935 59.1799 229.51 58.9461 230.187 58.9461C230.864 58.9461 231.436 59.1799 231.904 59.6474C232.377 60.1088 232.614 60.681 232.614 61.3639C232.614 62.0467 232.377 62.622 231.904 63.0895ZM228.895 62.665C229.246 63.0157 229.677 63.191 230.187 63.191C230.698 63.191 231.128 63.0157 231.479 62.665C231.83 62.3082 232.005 61.8745 232.005 61.3639C232.005 60.8532 231.83 60.4226 231.479 60.0719C231.128 59.7151 230.698 59.5367 230.187 59.5367C229.677 59.5367 229.246 59.7151 228.895 60.0719C228.545 60.4226 228.369 60.8532 228.369 61.3639C228.369 61.8745 228.545 62.3082 228.895 62.665ZM238.824 59.0568H239.451L238.03 63.6709H237.366L236.175 59.952L234.985 63.6709H234.321L232.899 59.0568H233.527L234.662 62.8865L235.871 59.0568H236.48L237.689 62.8865L238.824 59.0568ZM242.137 58.9461C242.82 58.9461 243.37 59.1891 243.789 59.6751C244.213 60.155 244.425 60.724 244.425 61.3823C244.425 61.45 244.419 61.5453 244.407 61.6684H240.356C240.417 62.136 240.614 62.5082 240.946 62.785C241.285 63.0557 241.7 63.191 242.192 63.191C242.543 63.191 242.844 63.1203 243.097 62.9788C243.355 62.8311 243.549 62.6404 243.678 62.4066L244.213 62.7204C244.01 63.0465 243.733 63.3048 243.383 63.4956C243.032 63.6863 242.632 63.7816 242.183 63.7816C241.457 63.7816 240.866 63.554 240.411 63.0988C239.956 62.6435 239.728 62.0652 239.728 61.3639C239.728 60.6748 239.953 60.0996 240.402 59.6382C240.851 59.1768 241.429 58.9461 242.137 58.9461ZM242.137 59.5367C241.657 59.5367 241.254 59.6813 240.928 59.9704C240.608 60.2534 240.417 60.6225 240.356 61.0778H243.798C243.736 60.5918 243.549 60.2134 243.235 59.9427C242.921 59.672 242.555 59.5367 242.137 59.5367ZM245.819 59.8228C246.102 59.2629 246.588 58.983 247.277 58.983V59.5736C246.858 59.5736 246.511 59.6966 246.234 59.9427C245.957 60.1888 245.819 60.5764 245.819 61.1055V63.6709H245.21V59.0568H245.819V59.8228ZM249.779 58.9461C250.462 58.9461 251.013 59.1891 251.431 59.6751C251.856 60.155 252.068 60.724 252.068 61.3823C252.068 61.45 252.062 61.5453 252.049 61.6684H247.998C248.06 62.136 248.257 62.5082 248.589 62.785C248.927 63.0557 249.342 63.191 249.835 63.191C250.185 63.191 250.487 63.1203 250.739 62.9788C250.997 62.8311 251.191 62.6404 251.32 62.4066L251.856 62.7204C251.653 63.0465 251.376 63.3048 251.025 63.4956C250.674 63.6863 250.274 63.7816 249.825 63.7816C249.099 63.7816 248.509 63.554 248.054 63.0988C247.598 62.6435 247.371 62.0652 247.371 61.3639C247.371 60.6748 247.595 60.0996 248.044 59.6382C248.493 59.1768 249.072 58.9461 249.779 58.9461ZM249.779 59.5367C249.299 59.5367 248.896 59.6813 248.57 59.9704C248.25 60.2534 248.06 60.6225 247.998 61.0778H251.44C251.379 60.5918 251.191 60.2134 250.877 59.9427C250.564 59.672 250.198 59.5367 249.779 59.5367ZM256.82 57.2112H257.429V63.6709H256.82V62.7665C256.396 63.4433 255.774 63.7816 254.956 63.7816C254.298 63.7816 253.735 63.5479 253.267 63.0803C252.806 62.6127 252.575 62.0406 252.575 61.3639C252.575 60.6871 252.806 60.115 253.267 59.6474C253.735 59.1799 254.298 58.9461 254.956 58.9461C255.774 58.9461 256.396 59.2845 256.82 59.9612V57.2112ZM253.71 62.665C254.061 63.0157 254.492 63.191 255.002 63.191C255.513 63.191 255.943 63.0157 256.294 62.665C256.645 62.3082 256.82 61.8745 256.82 61.3639C256.82 60.8532 256.645 60.4226 256.294 60.0719C255.943 59.7151 255.513 59.5367 255.002 59.5367C254.492 59.5367 254.061 59.7151 253.71 60.0719C253.36 60.4226 253.184 60.8532 253.184 61.3639C253.184 61.8745 253.36 62.3082 253.71 62.665ZM263.056 57.2112C263.634 57.2112 264.117 57.405 264.505 57.7926C264.892 58.1802 265.086 58.6631 265.086 59.2414C265.086 59.8197 264.892 60.3026 264.505 60.6902C264.117 61.0778 263.634 61.2716 263.056 61.2716H261.395V63.6709H260.749V57.2112H263.056ZM263.056 60.6625C263.456 60.6625 263.785 60.5303 264.043 60.2657C264.308 59.995 264.44 59.6536 264.44 59.2414C264.44 58.8292 264.308 58.4908 264.043 58.2263C263.785 57.9556 263.456 57.8203 263.056 57.8203H261.395V60.6625H263.056ZM269.514 59.0568H270.123V63.6709H269.514V62.7665C269.089 63.4433 268.468 63.7816 267.65 63.7816C266.992 63.7816 266.429 63.5479 265.961 63.0803C265.5 62.6127 265.269 62.0406 265.269 61.3639C265.269 60.6871 265.5 60.115 265.961 59.6474C266.429 59.1799 266.992 58.9461 267.65 58.9461C268.468 58.9461 269.089 59.2845 269.514 59.9612V59.0568ZM266.404 62.665C266.755 63.0157 267.185 63.191 267.696 63.191C268.207 63.191 268.637 63.0157 268.988 62.665C269.339 62.3082 269.514 61.8745 269.514 61.3639C269.514 60.8532 269.339 60.4226 268.988 60.0719C268.637 59.7151 268.207 59.5367 267.696 59.5367C267.185 59.5367 266.755 59.7151 266.404 60.0719C266.053 60.4226 265.878 60.8532 265.878 61.3639C265.878 61.8745 266.053 62.3082 266.404 62.665ZM271.837 59.8228C272.12 59.2629 272.606 58.983 273.295 58.983V59.5736C272.877 59.5736 272.529 59.6966 272.252 59.9427C271.975 60.1888 271.837 60.5764 271.837 61.1055V63.6709H271.228V59.0568H271.837V59.8228ZM276.481 59.6474H275.152V62.4436C275.152 62.6958 275.201 62.8773 275.3 62.988C275.398 63.0926 275.546 63.148 275.743 63.1541C275.939 63.1541 276.185 63.148 276.481 63.1357V63.6709C275.835 63.7693 275.349 63.7232 275.023 63.5325C274.703 63.3418 274.543 62.9788 274.543 62.4436V59.6474H273.574V59.0568H274.543V57.9494L275.152 57.7649V59.0568H276.481V59.6474ZM279.471 58.9461C280.031 58.9461 280.47 59.1183 280.79 59.4629C281.116 59.8012 281.279 60.2596 281.279 60.8379V63.6709H280.67V60.8379C280.67 60.4257 280.56 60.1058 280.338 59.8781C280.123 59.6505 279.815 59.5367 279.415 59.5367C278.972 59.5367 278.612 59.6782 278.336 59.9612C278.059 60.238 277.92 60.6687 277.92 61.2531V63.6709H277.311V59.0568H277.92V59.7766C278.265 59.2229 278.782 58.9461 279.471 58.9461ZM284.404 58.9461C285.087 58.9461 285.638 59.1891 286.056 59.6751C286.481 60.155 286.693 60.724 286.693 61.3823C286.693 61.45 286.687 61.5453 286.674 61.6684H282.623C282.685 62.136 282.882 62.5082 283.214 62.785C283.552 63.0557 283.967 63.191 284.46 63.191C284.81 63.191 285.112 63.1203 285.364 62.9788C285.622 62.8311 285.816 62.6404 285.945 62.4066L286.481 62.7204C286.278 63.0465 286.001 63.3048 285.65 63.4956C285.299 63.6863 284.899 63.7816 284.45 63.7816C283.724 63.7816 283.134 63.554 282.679 63.0988C282.223 62.6435 281.996 62.0652 281.996 61.3639C281.996 60.6748 282.22 60.0996 282.669 59.6382C283.118 59.1768 283.697 58.9461 284.404 58.9461ZM284.404 59.5367C283.924 59.5367 283.521 59.6813 283.195 59.9704C282.875 60.2534 282.685 60.6225 282.623 61.0778H286.065C286.004 60.5918 285.816 60.2134 285.502 59.9427C285.189 59.672 284.823 59.5367 284.404 59.5367ZM288.086 59.8228C288.369 59.2629 288.855 58.983 289.544 58.983V59.5736C289.126 59.5736 288.778 59.6966 288.501 59.9427C288.225 60.1888 288.086 60.5764 288.086 61.1055V63.6709H287.477V59.0568H288.086V59.8228Z" fill="#002245"/>
<path d="M257.766 52.9173C256.546 52.9173 255.519 52.6474 254.686 52.1078C253.853 51.5563 253.267 50.8113 252.927 49.8728L255.003 48.6585C255.484 49.9138 256.429 50.5415 257.837 50.5415C258.517 50.5415 259.016 50.4183 259.332 50.1719C259.649 49.9256 259.808 49.6147 259.808 49.2392C259.808 48.8051 259.614 48.4708 259.227 48.2361C258.84 47.9898 258.147 47.7258 257.15 47.4442C256.599 47.28 256.13 47.1157 255.742 46.9515C255.367 46.7872 254.986 46.5702 254.598 46.3003C254.223 46.0187 253.936 45.6668 253.736 45.2444C253.537 44.8221 253.437 44.3293 253.437 43.7662C253.437 42.6516 253.83 41.7658 254.616 41.1088C255.414 40.4401 256.37 40.1057 257.485 40.1057C258.482 40.1057 259.356 40.3521 260.107 40.8448C260.869 41.3259 261.462 42.0005 261.884 42.8686L259.843 44.0477C259.35 42.9918 258.564 42.4639 257.485 42.4639C256.98 42.4639 256.581 42.5812 256.288 42.8159C256.006 43.0388 255.866 43.3321 255.866 43.6958C255.866 44.0829 256.024 44.3997 256.341 44.6461C256.669 44.8807 257.291 45.1388 258.206 45.4204C258.582 45.5377 258.863 45.6316 259.051 45.702C259.25 45.7606 259.514 45.8604 259.843 46.0011C260.183 46.1302 260.441 46.2534 260.617 46.3707C260.805 46.488 261.016 46.6464 261.251 46.8459C261.485 47.0453 261.661 47.2506 261.779 47.4618C261.908 47.673 262.013 47.9311 262.095 48.2361C262.189 48.5294 262.236 48.8521 262.236 49.204C262.236 50.3421 261.82 51.2454 260.987 51.9142C260.165 52.5829 259.092 52.9173 257.766 52.9173ZM263.382 40.3521H265.811V52.6709H263.382V40.3521ZM274.866 40.3521H277.295V52.6709H275.447L270.168 45.1388V52.6709H267.739V40.3521H269.587L274.866 47.8666V40.3521ZM288.855 52.6709H286.056L281.657 46.8987V52.6709H279.228V40.3521H281.657V45.79L285.88 40.3521H288.679L284.121 46.3355L288.855 52.6709Z" fill="#FFC283"/>
<path d="M288.286 88.0304C287.822 88.0304 287.358 87.8449 286.987 87.5356C284.142 84.9381 281.236 82.1241 278.267 79.1864H189.658C184.896 79.1555 181.031 75.2901 181 70.5279L181 34.0611C181 29.2681 184.865 25.3717 189.658 25.3408H290.791C295.584 25.3408 299.449 29.2062 299.449 33.9993C299.449 34.0302 299.449 34.0302 299.449 34.0611V70.5279C299.449 75.321 295.584 79.1864 290.791 79.1864H290.605L290.296 86.1441C290.265 86.9172 289.801 87.5665 289.09 87.9067C288.843 87.9685 288.564 88.0304 288.286 88.0304ZM189.658 26.7324C185.638 26.7324 182.361 30.0102 182.361 34.0302V70.497C182.392 74.517 185.638 77.7639 189.658 77.7949H278.576C278.762 77.7949 278.947 77.8567 279.071 77.9804C282.009 80.9799 285.039 83.8249 287.884 86.4533C288.07 86.6389 288.317 86.6698 288.533 86.5461C288.75 86.4843 288.935 86.2678 288.935 86.0513L289.245 78.4442C289.276 78.0732 289.585 77.7949 289.956 77.7949H290.822C294.842 77.7639 298.089 74.517 298.12 70.497V34.0302C298.12 30.0102 294.842 26.7324 290.822 26.7324H189.658Z" fill="black"/>
<defs>
<filter id="filter0_d_709_45445" x="-57.2185" y="0.079473" width="474.437" height="434.437" filterUnits="userSpaceOnUse" color-interpolation-filters="sRGB">
<feFlood flood-opacity="0" result="BackgroundImageFix"/>
<feColorMatrix in="SourceAlpha" type="matrix" values="0 0 0 0 0 0 0 0 0 0 0 0 0 0 0 0 0 0 127 0" result="hardAlpha"/>
<feOffset dy="5.29801"/>
<feGaussianBlur stdDeviation="28.6093"/>
<feComposite in2="hardAlpha" operator="out"/>
<feColorMatrix type="matrix" values="0 0 0 0 0 0 0 0 0 0 0 0 0 0 0 0 0 0 0.1 0"/>
<feBlend mode="normal" in2="BackgroundImageFix" result="effect1_dropShadow_709_45445"/>
<feBlend mode="normal" in="SourceGraphic" in2="effect1_dropShadow_709_45445" result="shape"/>
</filter>
<radialGradient id="paint0_radial_709_45445" cx="0" cy="0" r="1" gradientUnits="userSpaceOnUse" gradientTransform="translate(177.563 88.1592) rotate(0.0299272) scale(174.831 174.831)">
<stop stop-color="white"/>
<stop offset="0.2421" stop-color="#FBFBFD"/>
<stop offset="0.5034" stop-color="#EEEEF6"/>
<stop offset="0.7726" stop-color="#D8D9EA"/>
<stop offset="1" stop-color="#C0C2DD"/>
</radialGradient>
<linearGradient id="paint1_linear_709_45445" x1="93.9549" y1="125.77" x2="94.2787" y2="196.063" gradientUnits="userSpaceOnUse">
<stop stop-color="white"/>
<stop offset="0.2347" stop-color="#FAFAFC"/>
<stop offset="0.5061" stop-color="#ECEDF5"/>
<stop offset="0.7945" stop-color="#D5D6E8"/>
<stop offset="1" stop-color="#C0C2DD"/>
</linearGradient>
<linearGradient id="paint2_linear_709_45445" x1="262.168" y1="130.971" x2="261.896" y2="190.569" gradientUnits="userSpaceOnUse">
<stop stop-color="white"/>
<stop offset="0.2254" stop-color="#F9F9FC"/>
<stop offset="0.5375" stop-color="#E7E8F2"/>
<stop offset="0.8989" stop-color="#CACBE2"/>
<stop offset="1" stop-color="#C0C2DD"/>
</linearGradient>
<linearGradient id="paint3_linear_709_45445" x1="178.068" y1="205.676" x2="177.998" y2="338.691" gradientUnits="userSpaceOnUse">
<stop stop-color="white"/>
<stop offset="0.2596" stop-color="#FBFBFD"/>
<stop offset="0.5067" stop-color="#F0F0F7"/>
<stop offset="0.7487" stop-color="#DDDEEC"/>
<stop offset="0.9863" stop-color="#C2C4DE"/>
<stop offset="1" stop-color="#C0C2DD"/>
</linearGradient>
<radialGradient id="paint4_radial_709_45445" cx="0" cy="0" r="1" gradientUnits="userSpaceOnUse" gradientTransform="translate(180.049 167.826) rotate(0.0299273) scale(135.539 135.539)">
<stop stop-color="white"/>
<stop offset="0.2327" stop-color="#F7F7FB"/>
<stop offset="0.6001" stop-color="#E0E1EE"/>
<stop offset="1" stop-color="#C0C2DD"/>
</radialGradient>
<radialGradient id="paint5_radial_709_45445" cx="0" cy="0" r="1" gradientUnits="userSpaceOnUse" gradientTransform="translate(154.509 180.11) rotate(0.0299319) scale(21.4237 12.8943)">
<stop stop-color="#00B7FF"/>
<stop offset="0.0437" stop-color="#009AD6"/>
<stop offset="0.0993" stop-color="#007AAA"/>
<stop offset="0.1607" stop-color="#005D81"/>
<stop offset="0.2263" stop-color="#00445E"/>
<stop offset="0.2974" stop-color="#002245"/>
<stop offset="0.3758" stop-color="#002245"/>
<stop offset="0.4646" stop-color="#002245"/>
<stop offset="0.5698" stop-color="#002245"/>
<stop offset="0.7074" stop-color="#002245"/>
<stop offset="1" stop-color="#002245"/>
</radialGradient>
<radialGradient id="paint6_radial_709_45445" cx="0" cy="0" r="1" gradientUnits="userSpaceOnUse" gradientTransform="translate(202.8 180.11) rotate(0.0299319) scale(21.4237 12.8943)">
<stop stop-color="#00B7FF"/>
<stop offset="0.0437" stop-color="#009AD6"/>
<stop offset="0.0993" stop-color="#007AAA"/>
<stop offset="0.1607" stop-color="#005D81"/>
<stop offset="0.2263" stop-color="#00445E"/>
<stop offset="0.2974" stop-color="#002245"/>
<stop offset="0.3758" stop-color="#002245"/>
<stop offset="0.4646" stop-color="#002245"/>
<stop offset="0.5698" stop-color="#002245"/>
<stop offset="0.7074" stop-color="#002245"/>
<stop offset="1" stop-color="#002245"/>
</radialGradient>
</defs>
</svg>
