<svg width="176" height="40" viewBox="0 0 176 40" fill="none" xmlns="http://www.w3.org/2000/svg">
<path d="M173.708 26.4307L176 28.6848C174.243 30.1111 172.231 30.8243 169.964 30.8243C167.137 30.8243 164.87 29.9201 163.163 28.1117C161.457 26.2779 160.604 23.9983 160.604 21.273C160.604 18.5986 161.495 16.3445 163.278 14.5107C165.086 12.6513 167.315 11.7217 169.964 11.7217C172.231 11.7217 174.243 12.4348 176 13.8612L173.746 16.1535C172.676 15.3384 171.416 14.9309 169.964 14.9309C168.206 14.9309 166.805 15.5167 165.761 16.6884C164.742 17.8345 164.233 19.3627 164.233 21.273C164.233 23.1832 164.742 24.7242 165.761 25.8958C166.805 27.042 168.206 27.6151 169.964 27.6151C171.441 27.6151 172.689 27.2203 173.708 26.4307Z" fill="#002245"/>
<path d="M143.662 12.1035H150.272C153.099 12.1035 155.124 12.5238 156.346 13.3643C157.441 14.1029 158.129 14.9944 158.409 16.0387C158.715 17.0575 158.868 18.4074 158.868 20.0884V30.442H155.506V20.1266C155.506 19.6682 155.493 19.2861 155.468 18.9805C155.442 18.6493 155.353 18.2418 155.2 17.7579C155.047 17.2485 154.831 16.841 154.551 16.5353C154.27 16.2042 153.863 15.924 153.328 15.6948C152.793 15.4401 152.144 15.3128 151.38 15.3128H147.024V30.442H143.662V12.1035Z" fill="#002245"/>
<path d="M126.162 12.1035H129.524V21.693C129.524 23.7561 129.843 25.1952 130.479 26.0102C131.116 26.8253 132.288 27.2328 133.994 27.2328H138.006V12.1035H141.368V29.5251C141.368 32.7089 140.527 35.1031 138.846 36.7077C137.191 38.3378 134.58 39.1528 131.014 39.1528H128.263V35.9436H130.67C135.331 35.9436 137.777 34.1097 138.006 30.442H134.796C131.46 30.442 129.18 29.8562 127.958 28.6846C126.761 27.513 126.162 25.1315 126.162 21.5402V12.1035Z" fill="#002245"/>
<path d="M124.437 12.1035V15.3128H117.674C116.936 15.3128 116.299 15.4528 115.764 15.733C115.229 16.0132 114.962 16.408 114.962 16.9174C114.962 17.223 115.026 17.5032 115.153 17.7579C115.28 17.9871 115.42 18.1781 115.573 18.331C115.751 18.4838 116.006 18.6493 116.337 18.8276C116.694 18.9805 116.961 19.0951 117.14 19.1715C117.343 19.2224 118.158 19.4771 119.585 19.9356C121.011 20.3941 122.068 20.7761 122.756 21.0817C123.443 21.3874 123.966 21.8076 124.322 22.3425C124.704 22.8519 124.946 23.3613 125.048 23.8707C125.15 24.3547 125.201 24.8386 125.201 25.3225C125.201 28.7355 122.858 30.442 118.171 30.442H111.562V27.2328H118.171C120.565 27.2328 121.762 26.596 121.762 25.3225C121.762 24.7112 121.406 24.2018 120.693 23.7943C120.005 23.3868 119.152 23.0429 118.133 22.7628C117.14 22.4826 116.134 22.1642 115.115 21.8076C114.121 21.4256 113.268 20.827 112.555 20.012C111.867 19.1715 111.523 18.1399 111.523 16.9174C111.523 15.3637 112.122 14.1793 113.319 13.3643C114.516 12.5238 115.968 12.1035 117.674 12.1035H124.437Z" fill="#002245"/>
<path d="M104.995 19.6682V23.1066C104.027 22.368 102.842 21.9987 101.441 21.9987C100.244 21.9987 99.3147 22.2406 98.6525 22.7246C97.9903 23.183 97.6592 23.8453 97.6592 24.7112C97.6592 26.3923 98.9072 27.2328 101.403 27.2328H106.446V19.9356C106.446 16.8537 104.944 15.3128 101.938 15.3128H95.8253V12.1035H102.129C104.6 12.1035 106.497 12.7148 107.822 13.9374C109.146 15.1599 109.808 16.9174 109.808 19.2097V30.442H101.289C99.1237 30.442 97.4045 29.9581 96.131 28.9902C94.8575 28.0224 94.2207 26.6088 94.2207 24.7494C94.2207 22.8901 94.8957 21.4765 96.2456 20.5087C97.5955 19.5408 99.2893 19.0569 101.327 19.0569C102.473 19.0569 103.696 19.2606 104.995 19.6682Z" fill="#002245"/>
<path d="M81.4454 15.3132L88.2842 8.47448V12.104H93.4419V15.3132H88.2842V23.1835C88.2842 24.0749 88.4243 24.8136 88.7044 25.3994C89.0101 25.9852 89.4431 26.4055 90.0034 26.6602C90.5638 26.8894 91.0859 27.0422 91.5698 27.1186C92.0792 27.195 92.7032 27.2332 93.4419 27.2332V30.4425C90.5128 30.4425 88.3478 29.8821 86.947 28.7615C85.5461 27.6408 84.8457 25.7815 84.8457 23.1835V15.3132H81.4454Z" fill="#002245"/>
<path d="M76.6352 19.6682V23.1066C75.6673 22.368 74.483 21.9987 73.0821 21.9987C71.885 21.9987 70.9554 22.2406 70.2931 22.7246C69.6309 23.183 69.2998 23.8453 69.2998 24.7112C69.2998 26.3923 70.5478 27.2328 73.0439 27.2328H78.087V19.9356C78.087 16.8537 76.5843 15.3128 73.5788 15.3128H67.4659V12.1035H73.7698C76.2404 12.1035 78.1379 12.7148 79.4624 13.9374C80.7868 15.1599 81.4491 16.9174 81.4491 19.2097V30.442H72.9293C70.7643 30.442 69.0451 29.9581 67.7716 28.9902C66.4981 28.0224 65.8613 26.6088 65.8613 24.7494C65.8613 22.8901 66.5363 21.4765 67.8862 20.5087C69.2361 19.5408 70.9299 19.0569 72.9675 19.0569C74.1137 19.0569 75.3362 19.2606 76.6352 19.6682Z" fill="#002245"/>
<path d="M60.7047 3.69824H64.1432V30.4419H55.165C52.3887 30.4419 50.1346 29.5632 48.4026 27.8057C46.6707 26.0228 45.8047 23.7815 45.8047 21.0816C45.8047 18.4327 46.6961 16.2168 48.4791 14.4339C50.2874 12.6255 52.4269 11.7213 54.8975 11.7213C56.4767 11.7213 57.954 12.1034 59.3293 12.8675V16.306C58.0558 15.389 56.5786 14.9306 54.8975 14.9306C53.3693 14.9306 52.0703 15.5037 51.0006 16.6498C49.9563 17.7705 49.4342 19.2478 49.4342 21.0816C49.4342 22.9409 49.9309 24.4309 50.9242 25.5516C51.943 26.6723 53.3566 27.2327 55.165 27.2327H60.7047V3.69824Z" fill="#002245"/>
<path d="M8.34807 14.096C7.73293 13.4808 7.73293 12.4798 8.34807 11.8647C8.96321 11.2495 9.96421 11.2495 10.5794 11.8647C11.1945 12.4798 11.1945 13.4808 10.5794 14.096C9.96421 14.7111 8.96321 14.7111 8.34807 14.096Z" fill="#002245"/>
<path d="M11.3266 30.3909C10.7114 29.7757 10.7114 28.7747 11.3266 28.1596C11.9417 27.5445 12.9427 27.5445 13.5579 28.1596C14.173 28.7747 14.173 29.7757 13.5579 30.3909C12.9427 31.006 11.9417 31.006 11.3266 30.3909Z" fill="#002245"/>
<path d="M32.1927 17.02C32.1927 17.02 33.2208 13.4702 33.6782 10.3401C33.9783 8.27636 33.5946 6.78535 31.7844 5.33877C29.9742 3.89219 26.275 4.6377 24.3812 5.70905C22.4873 6.78041 8.70898 13.7171 8.70898 13.7171C8.70898 13.7171 19.4424 4.59326 23.3531 2.40612C27.2638 0.21897 31.0023 0.549757 33.7569 2.44561C36.5116 4.34641 37.5397 8.09862 36.6789 12.2705C35.8131 16.4374 34.8293 20.0317 34.8293 20.0317L32.1976 17.02H32.1927Z" fill="#002245"/>
<path d="M16.0714 5.96077C16.0714 5.96077 12.5346 4.92891 9.41589 4.46975C7.35972 4.16859 5.87416 4.55368 4.43287 6.37055C2.99158 8.18741 3.73436 11.9001 4.8018 13.8009C5.86924 15.7017 12.7805 29.5306 12.7805 29.5306C12.7805 29.5306 3.69008 18.7578 1.51093 14.8328C-0.66822 10.9127 -0.338642 7.15555 1.55028 4.39076C3.44413 1.62597 7.18755 0.594107 11.3393 1.46304C15.491 2.33198 19.072 3.3194 19.072 3.3194L16.0714 5.96077Z" fill="#002245"/>
<path d="M4.78238 22.2626C4.78238 22.2626 3.75429 25.8124 3.29682 28.9475C2.99676 31.0112 3.38045 32.5022 5.19067 33.9488C7.00089 35.3954 10.7 34.6499 12.5939 33.5785C14.4877 32.5072 28.2661 25.5705 28.2661 25.5705C28.2661 25.5705 17.5326 34.6943 13.622 36.8815C9.71622 39.0686 5.9728 38.7378 3.21812 36.842C0.46343 34.9412 -0.564658 31.189 0.296181 27.0171C1.16194 22.8502 2.14576 19.2559 2.14576 19.2559L4.77746 22.2676L4.78238 22.2626Z" fill="#002245"/>
<path d="M20.903 33.3179C20.903 33.3179 24.4398 34.3497 27.5585 34.8089C29.6147 35.1101 31.1002 34.725 32.5415 32.9081C33.9828 31.0912 33.24 27.3785 32.1726 25.4777C31.1052 23.5769 24.1938 9.74805 24.1938 9.74805C24.1938 9.74805 33.2843 20.5209 35.4635 24.4459C37.6426 28.3659 37.313 32.1231 35.4241 34.8879C33.5303 37.6527 29.7918 38.6845 25.6351 37.8205C21.4834 36.9516 17.9023 35.9642 17.9023 35.9642L20.903 33.3228V33.3179Z" fill="#002245"/>
<path d="M23.2426 11.2932C22.6275 10.6781 22.6275 9.67708 23.2426 9.06194C23.8577 8.4468 24.8587 8.4468 25.4739 9.06194C26.089 9.67708 26.089 10.6781 25.4739 11.2932C24.8587 11.9084 23.8577 11.9084 23.2426 11.2932Z" fill="#002245"/>
<path d="M26.3949 27.2376C25.7798 26.6224 25.7798 25.6214 26.3949 25.0063C27.0101 24.3911 28.0111 24.3911 28.6262 25.0063C29.2414 25.6214 29.2414 26.6224 28.6262 27.2376C28.0111 27.8527 27.0101 27.8527 26.3949 27.2376Z" fill="#002245"/>
<path d="M18.4489 22.0685C19.8143 22.0685 20.9212 20.9614 20.9212 19.5958C20.9212 18.2301 19.8143 17.123 18.4489 17.123C17.0835 17.123 15.9766 18.2301 15.9766 19.5958C15.9766 20.9614 17.0835 22.0685 18.4489 22.0685Z" fill="#FFC283"/>
</svg>
