<svg width="211" height="46" viewBox="0 0 211 46" fill="none" xmlns="http://www.w3.org/2000/svg">
<path d="M207.281 30.4757L210.017 33.1655C207.92 34.8675 205.519 35.7185 202.814 35.7185C199.44 35.7185 196.735 34.6396 194.699 32.4817C192.662 30.2934 191.644 27.5732 191.644 24.3212C191.644 21.1299 192.708 18.4401 194.836 16.2519C196.993 14.0332 199.653 12.9238 202.814 12.9238C205.519 12.9238 207.92 13.7748 210.017 15.4768L207.327 18.2122C206.051 17.2396 204.546 16.7533 202.814 16.7533C200.717 16.7533 199.045 17.4524 197.799 18.8505C196.583 20.2181 195.975 22.0417 195.975 24.3212C195.975 26.6006 196.583 28.4394 197.799 29.8375C199.045 31.2052 200.717 31.889 202.814 31.889C204.576 31.889 206.066 31.4179 207.281 30.4757Z" fill="white"/>
<path d="M171.428 13.3789H179.315C182.689 13.3789 185.105 13.8804 186.564 14.8834C187.871 15.7648 188.691 16.8285 189.026 18.0746C189.39 19.2903 189.573 20.9012 189.573 22.9071V35.2618H185.561V22.9527C185.561 22.4056 185.546 21.9497 185.515 21.585C185.485 21.1899 185.379 20.7036 185.196 20.1261C185.014 19.5183 184.756 19.032 184.421 18.6673C184.087 18.2722 183.601 17.9378 182.962 17.6643C182.324 17.3604 181.549 17.2084 180.637 17.2084H175.44V35.2618H171.428V13.3789Z" fill="white"/>
<path d="M150.546 13.3789H154.558V24.8218C154.558 27.2837 154.938 29.0009 155.698 29.9735C156.458 30.946 157.856 31.4323 159.892 31.4323H164.679V13.3789H168.691V34.1677C168.691 37.9668 167.688 40.8237 165.682 42.7385C163.706 44.6836 160.591 45.6562 156.336 45.6562H153.054V41.8267H155.926C161.488 41.8267 164.405 39.6384 164.679 35.2618H160.849C156.868 35.2618 154.148 34.5628 152.689 33.1647C151.26 31.7666 150.546 28.9249 150.546 24.6395V13.3789Z" fill="white"/>
<path d="M148.489 13.3789V17.2084H140.419C139.538 17.2084 138.778 17.3756 138.14 17.7099C137.502 18.0442 137.183 18.5153 137.183 19.1232C137.183 19.4879 137.259 19.8222 137.411 20.1261C137.563 20.3997 137.73 20.6276 137.912 20.81C138.125 20.9923 138.429 21.1899 138.824 21.4026C139.249 21.585 139.568 21.7218 139.781 21.8129C140.024 21.8737 140.997 22.1777 142.699 22.7247C144.401 23.2718 145.662 23.7277 146.483 24.0924C147.303 24.4571 147.927 24.9586 148.352 25.5969C148.808 26.2047 149.097 26.8126 149.218 27.4204C149.34 27.9979 149.401 28.5754 149.401 29.1528C149.401 33.2255 146.604 35.2618 141.012 35.2618H133.125V31.4323H141.012C143.869 31.4323 145.298 30.6725 145.298 29.1528C145.298 28.4234 144.872 27.8156 144.021 27.3293C143.2 26.843 142.182 26.4327 140.967 26.0984C139.781 25.764 138.581 25.3841 137.365 24.9586C136.18 24.5027 135.162 23.7885 134.311 22.8159C133.49 21.8129 133.08 20.582 133.08 19.1232C133.08 17.2692 133.794 15.8559 135.222 14.8834C136.651 13.8804 138.383 13.3789 140.419 13.3789H148.489Z" fill="white"/>
<path d="M125.287 22.4056V26.5087C124.132 25.6273 122.719 25.1866 121.047 25.1866C119.619 25.1866 118.509 25.4753 117.719 26.0528C116.929 26.5998 116.534 27.39 116.534 28.4234C116.534 30.4293 118.023 31.4323 121.002 31.4323H127.02V22.7247C127.02 19.0472 125.226 17.2084 121.64 17.2084H114.346V13.3789H121.868C124.816 13.3789 127.08 14.1083 128.661 15.5672C130.241 17.0261 131.031 19.1232 131.031 21.8585V35.2618H120.865C118.282 35.2618 116.23 34.6844 114.71 33.5294C113.191 32.3745 112.431 30.6877 112.431 28.469C112.431 26.2503 113.236 24.5635 114.847 23.4086C116.458 22.2536 118.479 21.6762 120.911 21.6762C122.278 21.6762 123.737 21.9193 125.287 22.4056Z" fill="white"/>
<path d="M97.187 17.2093L105.348 9.04883V13.3798H111.502V17.2093H105.348V26.6008C105.348 27.6645 105.515 28.5459 105.849 29.2449C106.214 29.944 106.73 30.4455 107.399 30.7494C108.068 31.0229 108.691 31.2053 109.268 31.2965C109.876 31.3876 110.621 31.4332 111.502 31.4332V35.2627C108.007 35.2627 105.424 34.5941 103.752 33.2568C102.08 31.9195 101.244 29.7008 101.244 26.6008V17.2093H97.187Z" fill="white"/>
<path d="M91.4458 22.4056V26.5087C90.2909 25.6273 88.8776 25.1866 87.206 25.1866C85.7775 25.1866 84.6682 25.4753 83.878 26.0528C83.0878 26.5998 82.6926 27.39 82.6926 28.4234C82.6926 30.4293 84.1819 31.4323 87.1604 31.4323H93.1782V22.7247C93.1782 19.0472 91.385 17.2084 87.7987 17.2084H80.5044V13.3789H88.0266C90.9747 13.3789 93.239 14.1083 94.8194 15.5672C96.3999 17.0261 97.1901 19.1232 97.1901 21.8585V35.2618H87.0236C84.4402 35.2618 82.3887 34.6844 80.8691 33.5294C79.3494 32.3745 78.5896 30.6877 78.5896 28.469C78.5896 26.2503 79.395 24.5635 81.0058 23.4086C82.6167 22.2536 84.6378 21.6762 87.0692 21.6762C88.4369 21.6762 89.8958 21.9193 91.4458 22.4056Z" fill="white"/>
<path d="M72.4369 3.34961H76.5399V35.2622H65.8264C62.5136 35.2622 59.8238 34.2136 57.7571 32.1165C55.6903 29.989 54.657 27.3144 54.657 24.0928C54.657 20.9319 55.7207 18.2877 57.8482 16.1602C60.0061 14.0023 62.5591 12.9234 65.5073 12.9234C67.3916 12.9234 69.1544 13.3793 70.7956 14.2911V18.3941C69.276 17.3 67.5132 16.7529 65.5073 16.7529C63.6837 16.7529 62.1336 17.4367 60.8571 18.8044C59.611 20.1417 58.988 21.9045 58.988 24.0928C58.988 26.3115 59.5806 28.0895 60.766 29.4268C61.9817 30.764 63.6685 31.4327 65.8264 31.4327H72.4369V3.34961Z" fill="white"/>
<path d="M9.96068 15.756C9.22665 15.022 9.22665 13.8275 9.96068 13.0935C10.6947 12.3595 11.8892 12.3595 12.6232 13.0935C13.3572 13.8275 13.3572 15.022 12.6232 15.756C11.8892 16.4901 10.6947 16.4901 9.96068 15.756Z" fill="white"/>
<path d="M13.5154 35.2013C12.7813 34.4673 12.7813 33.2728 13.5154 32.5388C14.2494 31.8048 15.4439 31.8048 16.1779 32.5388C16.9119 33.2728 16.9119 34.4673 16.1779 35.2013C15.4439 35.9354 14.2494 35.9354 13.5154 35.2013Z" fill="white"/>
<path d="M38.4151 19.2457C38.4151 19.2457 39.6419 15.0098 40.1878 11.2746C40.5459 8.81206 40.088 7.03287 37.9279 5.3067C35.7678 3.58053 31.3537 4.47013 29.0938 5.74855C26.834 7.02698 10.3926 15.3043 10.3926 15.3043C10.3926 15.3043 23.2005 4.41711 27.867 1.80724C32.5336 -0.802636 36.9946 -0.407915 40.2817 1.85437C43.5688 4.12254 44.7956 8.59997 43.7684 13.5782C42.7353 18.5505 41.5613 22.8394 41.5613 22.8394L38.421 19.2457H38.4151Z" fill="white"/>
<path d="M19.1773 6.04918C19.1773 6.04918 14.9569 4.81788 11.2354 4.26999C8.7818 3.91061 7.00912 4.37014 5.28926 6.53816C3.5694 8.70618 4.45574 13.1365 5.72949 15.4047C7.00325 17.6728 15.2503 34.1745 15.2503 34.1745C15.2503 34.1745 4.40291 21.3196 1.80258 16.6359C-0.797749 11.9582 -0.404471 7.47489 1.84954 4.17572C4.10942 0.876564 8.57636 -0.35473 13.5305 0.682149C18.4846 1.71903 22.7579 2.8973 22.7579 2.8973L19.1773 6.04918Z" fill="white"/>
<path d="M5.70671 25.5019C5.70671 25.5019 4.47991 29.7378 3.93402 33.4788C3.57596 35.9414 4.03381 37.7206 6.1939 39.4467C8.354 41.1729 12.7681 40.2833 15.028 39.0049C17.2879 37.7265 33.7292 29.4491 33.7292 29.4491C33.7292 29.4491 20.9213 40.3363 16.2548 42.9462C11.5941 45.5561 7.1272 45.1614 3.8401 42.8991C0.553 40.6309 -0.673793 36.1535 0.353426 31.1753C1.38652 26.203 2.56048 21.9141 2.56048 21.9141L5.70084 25.5078L5.70671 25.5019Z" fill="white"/>
<path d="M24.9419 38.6937C24.9419 38.6937 29.1623 39.925 32.8838 40.4729C35.3374 40.8323 37.1101 40.3727 38.8299 38.2047C40.5498 36.0367 39.6634 31.6064 38.3897 29.3382C37.1159 27.07 28.8688 10.5684 28.8688 10.5684C28.8688 10.5684 39.7163 23.4233 42.3166 28.1069C44.9169 32.7847 44.5237 37.268 42.2696 40.5671C40.0098 43.8663 35.5487 45.0976 30.5887 44.0666C25.6346 43.0297 21.3613 41.8515 21.3613 41.8515L24.9419 38.6996V38.6937Z" fill="white"/>
<path d="M27.7341 12.4123C27.0001 11.6782 27.0001 10.4838 27.7341 9.74974C28.4682 9.01571 29.6626 9.01571 30.3967 9.74974C31.1307 10.4838 31.1307 11.6782 30.3967 12.4123C29.6626 13.1463 28.4682 13.1463 27.7341 12.4123Z" fill="white"/>
<path d="M31.4958 31.4377C30.7618 30.7036 30.7618 29.5092 31.4958 28.7751C32.2299 28.0411 33.4243 28.0411 34.1584 28.7751C34.8924 29.5092 34.8924 30.7036 34.1584 31.4377C33.4243 32.1717 32.2299 32.1717 31.4958 31.4377Z" fill="white"/>
<path d="M22.0146 25.2705C23.6439 25.2705 24.9648 23.9494 24.9648 22.3198C24.9648 20.6902 23.6439 19.3691 22.0146 19.3691C20.3853 19.3691 19.0645 20.6902 19.0645 22.3198C19.0645 23.9494 20.3853 25.2705 22.0146 25.2705Z" fill="white"/>
</svg>
