<svg width="38" height="38" viewBox="0 0 38 38" fill="none" xmlns="http://www.w3.org/2000/svg">
<circle cx="19" cy="19" r="19" transform="matrix(-4.37114e-08 -1 -1 4.37114e-08 38 38)" fill="#2674CF" fill-opacity="0.2"/>
<circle cx="11.8547" cy="11.8547" r="12.4407" transform="matrix(-4.37114e-08 -1 -1 4.37114e-08 30.8566 30.8547)" fill="#002245" stroke="#003D7C" stroke-width="1.17208"/>
<rect x="16.4339" y="17.1993" width="5.541" height="5.541" fill="#FFA344"/>
<path d="M26.1971 19.4124L25.694 14.3664C25.6676 14.0984 25.547 13.8484 25.3537 13.661C25.1603 13.4735 24.9067 13.3607 24.638 13.3426L19.7705 13.0033C19.6097 12.991 19.4481 13.0133 19.2967 13.0688C19.1453 13.1244 19.0076 13.2117 18.8929 13.3251L12.3405 19.7108C12.2327 19.8167 12.147 19.943 12.0886 20.0824C12.0301 20.2218 12 20.3714 12 20.5225C12 20.6737 12.0301 20.8233 12.0886 20.9626C12.147 21.102 12.2327 21.2283 12.3405 21.3343L17.7053 26.7108C17.9188 26.9216 18.2068 27.0398 18.5068 27.0398C18.8068 27.0398 19.0948 26.9216 19.3083 26.7108L25.8578 20.3338C25.9812 20.2146 26.0758 20.0689 26.1346 19.9078C26.1934 19.7467 26.2148 19.5743 26.1971 19.4036V19.4124ZM21.3033 21.1675L21.1658 21.4015C21.1363 21.4513 21.0969 21.4944 21.0501 21.5284C21.0033 21.5623 20.95 21.5863 20.8936 21.5989C20.8371 21.6115 20.7787 21.6124 20.7219 21.6016C20.6651 21.5908 20.6111 21.5685 20.5632 21.5361L19.7646 20.9862C19.7474 20.9738 19.727 20.9667 19.7058 20.9655C19.6846 20.9644 19.6636 20.9694 19.6451 20.9798C19.6266 20.9903 19.6116 21.0058 19.6017 21.0245C19.5917 21.0433 19.5874 21.0645 19.5891 21.0856L19.6564 22.0539C19.6604 22.1116 19.6525 22.1695 19.6331 22.2241C19.6138 22.2786 19.5834 22.3285 19.5439 22.3708C19.5043 22.4131 19.4565 22.4467 19.4034 22.4697C19.3503 22.4927 19.293 22.5045 19.2352 22.5043H18.9631C18.9053 22.5045 18.848 22.4927 18.7949 22.4697C18.7418 22.4467 18.694 22.4131 18.6544 22.3708C18.6149 22.3285 18.5845 22.2786 18.5652 22.2241C18.5458 22.1695 18.5379 22.1116 18.5419 22.0539L18.6092 21.0856C18.6109 21.0645 18.6066 21.0433 18.5966 21.0245C18.5867 21.0058 18.5716 20.9903 18.5532 20.9798C18.5347 20.9694 18.5137 20.9644 18.4925 20.9655C18.4713 20.9667 18.4509 20.9738 18.4337 20.9862L17.6351 21.5361C17.5872 21.5685 17.5332 21.5908 17.4764 21.6016C17.4196 21.6124 17.3612 21.6115 17.3047 21.5989C17.2483 21.5863 17.195 21.5623 17.1482 21.5284C17.1014 21.4944 17.062 21.4513 17.0325 21.4015L16.895 21.1675C16.8669 21.118 16.8491 21.0633 16.8426 21.0068C16.8362 20.9503 16.8411 20.893 16.8572 20.8384C16.8733 20.7838 16.9002 20.733 16.9364 20.689C16.9725 20.6451 17.0172 20.6088 17.0676 20.5825L17.9686 20.132C17.988 20.1237 18.0046 20.1098 18.0162 20.0921C18.0279 20.0744 18.0341 20.0537 18.0341 20.0325C18.0341 20.0114 18.0279 19.9907 18.0162 19.973C18.0046 19.9553 17.988 19.9414 17.9686 19.9331L17.0676 19.4826C17.0172 19.4562 16.9725 19.42 16.9364 19.376C16.9002 19.3321 16.8733 19.2813 16.8572 19.2267C16.8411 19.1721 16.8362 19.1148 16.8426 19.0583C16.8491 19.0017 16.8669 18.9471 16.895 18.8976L17.0325 18.6636C17.062 18.6138 17.1014 18.5707 17.1482 18.5367C17.195 18.5028 17.2483 18.4788 17.3047 18.4662C17.3612 18.4536 17.4196 18.4527 17.4764 18.4635C17.5332 18.4743 17.5872 18.4966 17.6351 18.529L18.4307 19.0614C18.448 19.0737 18.4684 19.0809 18.4896 19.082C18.5108 19.0831 18.5318 19.0782 18.5503 19.0677C18.5687 19.0573 18.5838 19.0417 18.5937 19.023C18.6036 19.0043 18.608 18.9831 18.6062 18.9619L18.539 17.9937C18.535 17.936 18.5429 17.878 18.5622 17.8235C18.5816 17.769 18.612 17.719 18.6515 17.6767C18.691 17.6345 18.7388 17.6008 18.7919 17.5778C18.8451 17.5548 18.9023 17.5431 18.9602 17.5432H19.2322C19.2901 17.5431 19.3474 17.5548 19.4005 17.5778C19.4536 17.6008 19.5014 17.6345 19.5409 17.6767C19.5805 17.719 19.6108 17.769 19.6302 17.8235C19.6496 17.878 19.6575 17.936 19.6535 17.9937L19.6008 18.9619C19.5991 18.9831 19.6034 19.0043 19.6134 19.023C19.6233 19.0417 19.6383 19.0573 19.6568 19.0677C19.6753 19.0782 19.6963 19.0831 19.7175 19.082C19.7387 19.0809 19.7591 19.0737 19.7763 19.0614L20.5749 18.5114C20.6228 18.479 20.6768 18.4567 20.7336 18.4459C20.7904 18.4351 20.8488 18.436 20.9053 18.4486C20.9617 18.4612 21.015 18.4852 21.0618 18.5192C21.1086 18.5531 21.148 18.5963 21.1775 18.646L21.315 18.88C21.3435 18.9294 21.3616 18.9841 21.3683 19.0408C21.375 19.0974 21.3702 19.1548 21.354 19.2095C21.3379 19.2642 21.3108 19.3151 21.2744 19.359C21.2381 19.4029 21.1931 19.439 21.1424 19.4651L20.0279 20.0238L21.1307 20.5737C21.1826 20.5997 21.2286 20.6361 21.2658 20.6807C21.303 20.7253 21.3306 20.7771 21.3468 20.8329C21.363 20.8887 21.3675 20.9472 21.36 21.0048C21.3525 21.0623 21.3332 21.1178 21.3033 21.1675ZM23.4943 16.221C23.3785 16.221 23.2654 16.1867 23.1692 16.1224C23.073 16.0581 22.998 15.9668 22.9538 15.8599C22.9095 15.753 22.8979 15.6353 22.9205 15.5218C22.943 15.4083 22.9988 15.3041 23.0806 15.2223C23.1624 15.1405 23.2666 15.0847 23.3801 15.0622C23.4936 15.0396 23.6112 15.0512 23.7181 15.0955C23.825 15.1397 23.9164 15.2147 23.9807 15.3109C24.045 15.4071 24.0793 15.5203 24.0793 15.636C24.0793 15.7911 24.0177 15.9399 23.9079 16.0497C23.7982 16.1594 23.6494 16.221 23.4943 16.221Z" fill="#FFC283"/>
</svg>
