<svg width="38" height="38" viewBox="0 0 38 38" fill="none" xmlns="http://www.w3.org/2000/svg">
<circle cx="19" cy="19" r="19" transform="matrix(-4.37114e-08 -1 -1 4.37114e-08 38 37.9999)" fill="#2674CF" fill-opacity="0.2"/>
<circle cx="11.8547" cy="11.8547" r="12.4407" transform="matrix(-4.37114e-08 -1 -1 4.37114e-08 30.8566 30.8546)" fill="#002245" stroke="#003D7C" stroke-width="1.17208"/>
<path d="M14.7322 12.9999C13.7816 12.9999 13 13.7862 13 14.7368V23.2677C13 24.2182 13.7816 25.0046 14.7322 25.0046H23.2678C24.2184 25.0046 25 24.2182 25 23.2677V14.7368C25 13.7862 24.2184 12.9999 23.2678 12.9999H14.7322Z" fill="#FFC283"/>
<path d="M17.8008 13C17.7217 12.9997 17.6432 13.0151 17.57 13.0452C17.4967 13.0754 17.4302 13.1198 17.3742 13.1758C17.3182 13.2318 17.2738 13.2983 17.2437 13.3715C17.2135 13.4447 17.1981 13.5232 17.1984 13.6024V18.404C17.1994 18.5221 17.2352 18.6373 17.3014 18.7352C17.3675 18.8331 17.4611 18.9092 17.5703 18.9541C17.6795 18.9991 17.7996 19.0108 17.9155 18.9877C18.0313 18.9647 18.1378 18.908 18.2216 18.8248L19.0021 18.0501L19.7768 18.8248C19.8606 18.908 19.9671 18.9647 20.0829 18.9877C20.1988 19.0108 20.3189 18.9991 20.4281 18.9541C20.5373 18.9092 20.6309 18.8331 20.6971 18.7352C20.7632 18.6373 20.799 18.5221 20.8 18.404V13.6024C20.8006 13.4433 20.7379 13.2904 20.6259 13.1774C20.5138 13.0644 20.3614 13.0006 20.2023 13H17.8008Z" fill="#FFC283"/>
<path d="M17.8008 13C17.7217 12.9997 17.6432 13.0151 17.57 13.0452C17.4967 13.0754 17.4302 13.1198 17.3742 13.1758C17.3182 13.2318 17.2738 13.2983 17.2437 13.3715C17.2135 13.4447 17.1981 13.5232 17.1984 13.6024V18.404C17.1994 18.5221 17.2352 18.6373 17.3014 18.7352C17.3675 18.8331 17.4611 18.9092 17.5703 18.9541C17.6795 18.9991 17.7996 19.0108 17.9155 18.9877C18.0313 18.9647 18.1378 18.908 18.2216 18.8248L19.0021 18.0501L19.7768 18.8248C19.8606 18.908 19.9671 18.9647 20.0829 18.9877C20.1988 19.0108 20.3189 18.9991 20.4281 18.9541C20.5373 18.9092 20.6309 18.8331 20.6971 18.7352C20.7632 18.6373 20.799 18.5221 20.8 18.404V13.6024C20.8006 13.4433 20.7379 13.2904 20.6259 13.1774C20.5138 13.0644 20.3614 13.0006 20.2023 13H17.8008Z" fill="#FFA344"/>
</svg>
