<svg width="31" height="25" viewBox="0 0 31 25" fill="none" xmlns="http://www.w3.org/2000/svg">
<path d="M13.7778 0H9.75208C8.29358 0 6.99115 0.920312 6.50677 2.29271L0.16684 20.1931C0.0592014 20.5052 0 20.8389 0 21.1726C0 22.7925 1.31858 24.1111 2.93854 24.1111H13.7778V20.6667C13.7778 19.7141 14.5474 18.9444 15.5 18.9444C16.4526 18.9444 17.2222 19.7141 17.2222 20.6667V24.1111H28.0615C29.6868 24.1111 31 22.7925 31 21.1726C31 20.8389 30.9408 20.5052 30.8332 20.1931L24.4932 2.29271C24.0035 0.920312 22.7064 0 21.2479 0H17.2222V3.44444C17.2222 4.39705 16.4526 5.16667 15.5 5.16667C14.5474 5.16667 13.7778 4.39705 13.7778 3.44444V0ZM17.2222 10.3333V13.7778C17.2222 14.7304 16.4526 15.5 15.5 15.5C14.5474 15.5 13.7778 14.7304 13.7778 13.7778V10.3333C13.7778 9.38073 14.5474 8.61111 15.5 8.61111C16.4526 8.61111 17.2222 9.38073 17.2222 10.3333Z" fill="#003D7C"/>
</svg>
