<svg width="32" height="32" viewBox="0 0 32 32" fill="none" xmlns="http://www.w3.org/2000/svg">
<path d="M15.575 12.1139C13.6635 12.1139 12.1139 13.6635 12.1139 15.575C12.1139 17.4865 13.6635 19.0361 15.575 19.0361C17.4865 19.0361 19.0361 17.4865 19.0361 15.575C19.0361 13.6635 17.4865 12.1139 15.575 12.1139Z" fill="#003D7C"/>
<path fill-rule="evenodd" clip-rule="evenodd" d="M0 15.575C0 6.97316 6.97316 0 15.575 0C24.1768 0 31.15 6.97316 31.15 15.575C31.15 24.1768 24.1768 31.15 15.575 31.15C6.97316 31.15 0 24.1768 0 15.575ZM6.92222 15.575C6.92222 10.7962 10.7962 6.92222 15.575 6.92222C20.3538 6.92222 24.2278 10.7962 24.2278 15.575C24.2278 20.3538 20.3538 24.2278 15.575 24.2278C10.7962 24.2278 6.92222 20.3538 6.92222 15.575Z" fill="#003D7C"/>
</svg>
