<svg width="38" height="38" viewBox="0 0 38 38" fill="none" xmlns="http://www.w3.org/2000/svg">
<circle cx="19" cy="19" r="19" transform="matrix(-4.37114e-08 -1 -1 4.37114e-08 37.9999 37.9999)" fill="#2674CF" fill-opacity="0.2"/>
<circle cx="11.8547" cy="11.8547" r="12.4407" transform="matrix(-4.37114e-08 -1 -1 4.37114e-08 30.8565 30.8546)" fill="#002245" stroke="#003D7C" stroke-width="1.17208"/>
<path d="M17.0312 13.3125H20.9687C21.089 13.3125 21.1874 13.4109 21.1874 13.5312V14.625H16.8124V13.5312C16.8124 13.4109 16.9109 13.3125 17.0312 13.3125ZM15.4999 13.5312V14.625H13.7499C12.7847 14.625 11.9999 15.4098 11.9999 16.375V19H17.2499H20.7499H25.9999V16.375C25.9999 15.4098 25.2152 14.625 24.2499 14.625H22.4999V13.5312C22.4999 12.6863 21.8136 12 20.9687 12H17.0312C16.1862 12 15.4999 12.6863 15.4999 13.5312ZM25.9999 19.875H20.7499V20.75C20.7499 21.234 20.3589 21.625 19.8749 21.625H18.1249C17.6409 21.625 17.2499 21.234 17.2499 20.75V19.875H11.9999V23.375C11.9999 24.3402 12.7847 25.125 13.7499 25.125H24.2499C25.2152 25.125 25.9999 24.3402 25.9999 23.375V19.875Z" fill="white"/>
</svg>
