<svg width="38" height="38" viewBox="0 0 38 38" fill="none" xmlns="http://www.w3.org/2000/svg">
<circle cx="19" cy="19" r="19" transform="matrix(-4.37114e-08 -1 -1 4.37114e-08 37.9999 37.9999)" fill="#2674CF" fill-opacity="0.2"/>
<circle cx="11.8547" cy="11.8547" r="12.4407" transform="matrix(-4.37114e-08 -1 -1 4.37114e-08 30.8565 30.8546)" fill="#002245" stroke="#003D7C" stroke-width="1.17208"/>
<g clip-path="url(#clip0_0_158)">
<path d="M18.9999 12.9991C19.3871 12.9991 19.6999 13.312 19.6999 13.6991V15.0991H22.3249C23.1955 15.0991 23.8999 15.8035 23.8999 16.6741V22.6241C23.8999 23.4948 23.1955 24.1991 22.3249 24.1991H15.6749C14.8043 24.1991 14.0999 23.4948 14.0999 22.6241V16.6741C14.0999 15.8035 14.8043 15.0991 15.6749 15.0991H18.2999V13.6991C18.2999 13.312 18.6127 12.9991 18.9999 12.9991ZM16.5499 21.3991C16.3574 21.3991 16.1999 21.5566 16.1999 21.7491C16.1999 21.9416 16.3574 22.0991 16.5499 22.0991H17.2499C17.4424 22.0991 17.5999 21.9416 17.5999 21.7491C17.5999 21.5566 17.4424 21.3991 17.2499 21.3991H16.5499ZM18.6499 21.3991C18.4574 21.3991 18.2999 21.5566 18.2999 21.7491C18.2999 21.9416 18.4574 22.0991 18.6499 22.0991H19.3499C19.5424 22.0991 19.6999 21.9416 19.6999 21.7491C19.6999 21.5566 19.5424 21.3991 19.3499 21.3991H18.6499ZM20.7499 21.3991C20.5574 21.3991 20.3999 21.5566 20.3999 21.7491C20.3999 21.9416 20.5574 22.0991 20.7499 22.0991H21.4499C21.6424 22.0991 21.7999 21.9416 21.7999 21.7491C21.7999 21.5566 21.6424 21.3991 21.4499 21.3991H20.7499ZM17.7749 18.5991C17.7749 18.3671 17.6827 18.1445 17.5186 17.9804C17.3545 17.8163 17.132 17.7241 16.8999 17.7241C16.6678 17.7241 16.4453 17.8163 16.2812 17.9804C16.1171 18.1445 16.0249 18.3671 16.0249 18.5991C16.0249 18.8312 16.1171 19.0538 16.2812 19.2179C16.4453 19.382 16.6678 19.4741 16.8999 19.4741C17.132 19.4741 17.3545 19.382 17.5186 19.2179C17.6827 19.0538 17.7749 18.8312 17.7749 18.5991ZM21.0999 19.4741C21.332 19.4741 21.5545 19.382 21.7186 19.2179C21.8827 19.0538 21.9749 18.8312 21.9749 18.5991C21.9749 18.3671 21.8827 18.1445 21.7186 17.9804C21.5545 17.8163 21.332 17.7241 21.0999 17.7241C20.8678 17.7241 20.6453 17.8163 20.4812 17.9804C20.3171 18.1445 20.2249 18.3671 20.2249 18.5991C20.2249 18.8312 20.3171 19.0538 20.4812 19.2179C20.6453 19.382 20.8678 19.4741 21.0999 19.4741ZM13.0499 17.8991H13.3999V22.0991H13.0499C12.4702 22.0991 11.9999 21.6288 11.9999 21.0491V18.9491C11.9999 18.3695 12.4702 17.8991 13.0499 17.8991ZM24.9499 17.8991C25.5296 17.8991 25.9999 18.3695 25.9999 18.9491V21.0491C25.9999 21.6288 25.5296 22.0991 24.9499 22.0991H24.5999V17.8991H24.9499Z" fill="white"/>
</g>
<defs>
<clipPath id="clip0_0_158">
<rect width="14" height="11.2" fill="white" transform="translate(11.9999 12.9999)"/>
</clipPath>
</defs>
</svg>
