<svg width="38" height="38" viewBox="0 0 38 38" fill="none" xmlns="http://www.w3.org/2000/svg">
<circle cx="19" cy="19" r="19" transform="matrix(-4.37114e-08 -1 -1 4.37114e-08 37.9999 37.9999)" fill="#2674CF" fill-opacity="0.2"/>
<circle cx="11.8547" cy="11.8547" r="12.4407" transform="matrix(-4.37114e-08 -1 -1 4.37114e-08 30.8565 30.8546)" fill="#002245" stroke="#003D7C" stroke-width="1.17208"/>
<path d="M19.4227 14.5521L16.9016 16.594C16.4823 16.9326 16.4016 17.542 16.7193 17.9769C17.0553 18.4405 17.709 18.5317 18.1595 18.1801L20.7457 16.1695C20.928 16.0288 21.1885 16.0601 21.3317 16.2424C21.475 16.4247 21.4411 16.6852 21.2588 16.8284L20.7145 17.2503L24.3346 20.584V15.6668H24.3164L24.2148 15.6017L22.324 14.3907C21.9255 14.1354 21.4593 14 20.9853 14C20.4176 14 19.8654 14.1953 19.4227 14.5521ZM20.0165 17.792L18.67 18.839C17.8496 19.4797 16.6594 19.313 16.0448 18.4692C15.4666 17.6748 15.6124 16.5654 16.3755 15.9481L18.5424 14.1953C18.2403 14.0677 17.9147 14.0026 17.584 14.0026C17.0943 14 16.6177 14.1458 16.2088 14.4167L14.3337 15.6668V21.5007H15.0681L17.4485 23.6728C17.959 24.139 18.7481 24.1025 19.2143 23.5921C19.3576 23.4332 19.4539 23.2483 19.5034 23.0556L19.9462 23.4618C20.454 23.928 21.2458 23.8942 21.712 23.3863C21.8292 23.2587 21.9151 23.1103 21.9698 22.9566C22.4751 23.2952 23.1626 23.2248 23.5871 22.7613C24.0533 22.2534 24.0195 21.4617 23.5116 20.9955L20.0165 17.792ZM11.4167 15.6668C11.1875 15.6668 11 15.8543 11 16.0835V21.5007C11 21.9617 11.3724 22.3341 11.8334 22.3341H12.6668C13.1278 22.3341 13.5002 21.9617 13.5002 21.5007V15.6668H11.4167ZM12.2501 20.6673C12.3606 20.6673 12.4666 20.7112 12.5448 20.7894C12.6229 20.8675 12.6668 20.9735 12.6668 21.084C12.6668 21.1945 12.6229 21.3005 12.5448 21.3787C12.4666 21.4568 12.3606 21.5007 12.2501 21.5007C12.1396 21.5007 12.0336 21.4568 11.9555 21.3787C11.8773 21.3005 11.8334 21.1945 11.8334 21.084C11.8334 20.9735 11.8773 20.8675 11.9555 20.7894C12.0336 20.7112 12.1396 20.6673 12.2501 20.6673ZM25.168 15.6668V21.5007C25.168 21.9617 25.5405 22.3341 26.0014 22.3341H26.8349C27.2958 22.3341 27.6683 21.9617 27.6683 21.5007V16.0835C27.6683 15.8543 27.4808 15.6668 27.2516 15.6668H25.168ZM26.0014 21.084C26.0014 20.9735 26.0453 20.8675 26.1235 20.7894C26.2016 20.7112 26.3076 20.6673 26.4181 20.6673C26.5287 20.6673 26.6347 20.7112 26.7128 20.7894C26.791 20.8675 26.8349 20.9735 26.8349 21.084C26.8349 21.1945 26.791 21.3005 26.7128 21.3787C26.6347 21.4568 26.5287 21.5007 26.4181 21.5007C26.3076 21.5007 26.2016 21.4568 26.1235 21.3787C26.0453 21.3005 26.0014 21.1945 26.0014 21.084Z" fill="#FFC283"/>
<path d="M19.4235 14.5521L16.9024 16.594C16.4831 16.9326 16.4023 17.542 16.7201 17.9769C17.056 18.4405 17.7098 18.5317 18.1603 18.1801L20.7465 16.1695C20.9288 16.0288 21.1893 16.0601 21.3325 16.2424C21.4757 16.4247 21.4419 16.6852 21.2596 16.8284L20.7153 17.2503L24.3354 20.584V15.6668H24.3172L24.2156 15.6017L22.3248 14.3907C21.9263 14.1354 21.4601 14 20.9861 14C20.4183 14 19.8662 14.1953 19.4235 14.5521ZM25.1688 15.6668V21.5007C25.1688 21.9617 25.5412 22.3341 26.0022 22.3341H26.8356C27.2966 22.3341 27.669 21.9617 27.669 21.5007V16.0835C27.669 15.8543 27.4815 15.6668 27.2523 15.6668H25.1688ZM26.0022 21.084C26.0022 20.9735 26.0461 20.8675 26.1243 20.7894C26.2024 20.7112 26.3084 20.6673 26.4189 20.6673C26.5294 20.6673 26.6354 20.7112 26.7136 20.7894C26.7917 20.8675 26.8356 20.9735 26.8356 21.084C26.8356 21.1945 26.7917 21.3005 26.7136 21.3787C26.6354 21.4568 26.5294 21.5007 26.4189 21.5007C26.3084 21.5007 26.2024 21.4568 26.1243 21.3787C26.0461 21.3005 26.0022 21.1945 26.0022 21.084Z" fill="#FFA344"/>
</svg>
