<svg width="32" height="33" viewBox="0 0 32 33" fill="none" xmlns="http://www.w3.org/2000/svg">
<path d="M32 4.85707C32 2.33564 29.95 0.285645 27.4286 0.285645H4.57143C2.05 0.285645 0 2.33564 0 4.85707V27.7142C0 30.2356 2.05 32.2856 4.57143 32.2856H27.4286C29.95 32.2856 32 30.2356 32 27.7142V4.85707ZM18.2857 9.4285C18.2857 10.6928 17.2643 11.7142 16 11.7142H9.14286C7.87857 11.7142 6.85714 10.6928 6.85714 9.4285C6.85714 8.16422 7.87857 7.14279 9.14286 7.14279H16C17.2643 7.14279 18.2857 8.16422 18.2857 9.4285ZM22.8571 13.9999C24.1214 13.9999 25.1429 15.0214 25.1429 16.2856C25.1429 17.5499 24.1214 18.5714 22.8571 18.5714H9.14286C7.87857 18.5714 6.85714 17.5499 6.85714 16.2856C6.85714 15.0214 7.87857 13.9999 9.14286 13.9999H22.8571ZM13.7143 23.1428C13.7143 24.4071 12.6929 25.4285 11.4286 25.4285H9.14286C7.87857 25.4285 6.85714 24.4071 6.85714 23.1428C6.85714 21.8785 7.87857 20.8571 9.14286 20.8571H11.4286C12.6929 20.8571 13.7143 21.8785 13.7143 23.1428Z" fill="#003D7C"/>
</svg>
