<svg width="38" height="38" viewBox="0 0 38 38" fill="none" xmlns="http://www.w3.org/2000/svg">
<circle cx="19" cy="19" r="19" transform="matrix(-4.37114e-08 -1 -1 4.37114e-08 37.9999 38)" fill="#2674CF" fill-opacity="0.2"/>
<circle cx="11.8547" cy="11.8547" r="12.4407" transform="matrix(-4.37114e-08 -1 -1 4.37114e-08 30.8565 30.8547)" fill="#002245" stroke="#003D7C" stroke-width="1.17208"/>
<path d="M20.6001 24.1511L17.4 24.1511L17.4 22.5581L20.6001 22.5581L20.6001 24.1511ZM21.0001 25.7441C21.6626 25.7441 22.2001 25.209 22.2001 24.5494L22.2001 22.1598C22.2001 21.5002 21.6626 20.965 21.0001 20.965L19.8001 20.965L19.8001 20.1685L26.2001 20.1685C26.6426 20.1685 27.0001 19.8126 27.0001 19.372C27.0001 18.9314 26.6426 18.5755 26.2001 18.5755L23.8001 18.5755L23.8001 17.779L25.0001 17.779C25.6626 17.779 26.2001 17.2438 26.2001 16.5842L26.2001 14.1947C26.2001 13.535 25.6626 12.9999 25.0001 12.9999L21.0001 12.9999C20.3376 12.9999 19.8001 13.535 19.8001 14.1947L19.8001 16.5842C19.8001 17.2438 20.3376 17.779 21.0001 17.779L22.2001 17.779L22.2001 18.5755L15.8 18.5755L15.8 17.779L17 17.779C17.6625 17.779 18.2 17.2438 18.2 16.5842L18.2 14.1947C18.2 13.535 17.6625 12.9999 17 12.9999L13 12.9999C12.3375 12.9999 11.8 13.535 11.8 14.1947L11.8 16.5842C11.8 17.2438 12.3375 17.779 13 17.779L14.2 17.779L14.2 18.5755L11.8 18.5755C11.3575 18.5755 11 18.9314 11 19.372C11 19.8126 11.3575 20.1685 11.8 20.1685L18.2 20.1685L18.2 20.965L17 20.965C16.3375 20.965 15.8 21.5002 15.8 22.1598L15.8 24.5494C15.8 25.209 16.3375 25.7441 17 25.7441L21.0001 25.7441ZM24.6001 14.5929L24.6001 16.1859L21.4001 16.1859L21.4001 14.5929L24.6001 14.5929ZM16.6 16.1859L13.4 16.1859L13.4 14.5929L16.6 14.5929L16.6 16.1859Z" fill="white"/>
</svg>
