<svg width="38" height="38" viewBox="0 0 38 38" fill="none" xmlns="http://www.w3.org/2000/svg">
<circle cx="19" cy="19" r="19" transform="matrix(-4.37114e-08 -1 -1 4.37114e-08 37.9999 37.9999)" fill="#2674CF" fill-opacity="0.2"/>
<circle cx="11.8547" cy="11.8547" r="12.4407" transform="matrix(-4.37114e-08 -1 -1 4.37114e-08 30.8565 30.8546)" fill="#002245" stroke="#003D7C" stroke-width="1.17208"/>
<path d="M19.4984 11C20.0169 11 20.4358 11.4189 20.4358 11.9373V12.8746H21.3731C21.7509 12.8746 22.0936 13.1031 22.2401 13.4546C22.3866 13.8061 22.3045 14.2074 22.038 14.4769L20.1634 16.3515C19.7972 16.7176 19.2026 16.7176 18.8365 16.3515L16.9618 14.4769C16.6924 14.2074 16.6133 13.8061 16.7597 13.4546C16.9062 13.1031 17.246 12.8746 17.6267 12.8746H18.5641V11.9373C18.5641 11.4189 18.9829 11 19.5014 11H19.4984ZM16.9618 22.5231L18.8365 20.6485C19.2026 20.2824 19.7972 20.2824 20.1634 20.6485L22.038 22.5231C22.3075 22.7926 22.3866 23.1939 22.2401 23.5454C22.0936 23.8969 21.7539 24.1254 21.3731 24.1254H20.4358V25.0627C20.4358 25.5811 20.0169 26 19.4984 26C18.98 26 18.5611 25.5811 18.5611 25.0627V24.1254H17.6238C17.246 24.1254 16.9032 23.8969 16.7568 23.5454C16.6103 23.1939 16.6924 22.7926 16.9589 22.5231H16.9618ZM12.9372 17.5612H13.8745V16.6239C13.8745 16.246 14.103 15.9033 14.4545 15.7569C14.806 15.6104 15.2073 15.6924 15.4768 15.959L17.3514 17.8336C17.7175 18.1998 17.7175 18.7944 17.3514 19.1605L15.4768 21.0351C15.2073 21.3046 14.806 21.3837 14.4545 21.2373C14.103 21.0908 13.8745 20.751 13.8745 20.3702V19.4329H12.9372C12.4188 19.4329 11.9999 19.0141 11.9999 18.4956C11.9999 17.9772 12.4188 17.5583 12.9372 17.5583V17.5612ZM21.6484 19.1605C21.2823 18.7944 21.2823 18.1998 21.6484 17.8336L23.523 15.959C23.7925 15.6895 24.1938 15.6104 24.5453 15.7569C24.8968 15.9033 25.1253 16.2431 25.1253 16.6239V17.5612H26.0626C26.581 17.5612 26.9999 17.9801 26.9999 18.4985C26.9999 19.017 26.581 19.4359 26.0626 19.4359H25.1253V20.3732C25.1253 20.751 24.8968 21.0937 24.5453 21.2402C24.1938 21.3866 23.7925 21.3046 23.523 21.0381L21.6484 19.1634V19.1605ZM19.4984 17.5612C19.747 17.5612 19.9854 17.66 20.1612 17.8358C20.337 18.0115 20.4358 18.2499 20.4358 18.4985C20.4358 18.7471 20.337 18.9855 20.1612 19.1613C19.9854 19.3371 19.747 19.4359 19.4984 19.4359C19.2499 19.4359 19.0114 19.3371 18.8357 19.1613C18.6599 18.9855 18.5611 18.7471 18.5611 18.4985C18.5611 18.2499 18.6599 18.0115 18.8357 17.8358C19.0114 17.66 19.2499 17.5612 19.4984 17.5612Z" fill="white"/>
</svg>
