<svg width="38" height="38" viewBox="0 0 38 38" fill="none" xmlns="http://www.w3.org/2000/svg">
<circle cx="19" cy="19" r="19" transform="matrix(-4.37114e-08 -1 -1 4.37114e-08 37.9999 37.9999)" fill="#2674CF" fill-opacity="0.2"/>
<circle cx="11.8547" cy="11.8547" r="12.4407" transform="matrix(-4.37114e-08 -1 -1 4.37114e-08 30.8565 30.8546)" fill="#002245" stroke="#003D7C" stroke-width="1.17208"/>
<path d="M13.24 19.8482C13.4888 19.3836 13.4127 18.8123 13.0496 18.4314C12.5088 17.8627 12.2193 17.1797 12.2193 16.4687C12.2193 14.8564 13.8392 13.2187 16.2818 13.2187C18.7244 13.2187 20.3443 14.8564 20.3443 16.4687C20.3443 18.081 18.7244 19.7187 16.2818 19.7187C15.9492 19.7187 15.6267 19.6857 15.322 19.6273C15.058 19.5765 14.7838 19.6121 14.5425 19.734C14.4384 19.7873 14.3318 19.8381 14.2226 19.8863C13.8164 20.0691 13.3873 20.2291 12.9556 20.3433C13.0267 20.2265 13.0927 20.1123 13.1562 19.998C13.1841 19.9498 13.2121 19.899 13.2375 19.8482H13.24ZM16.2818 20.9375C19.1992 20.9375 21.563 18.9367 21.563 16.4687C21.563 14.0008 19.1992 12 16.2818 12C13.3644 12 11.0006 14.0008 11.0006 16.4687C11.0006 17.5301 11.4373 18.5025 12.166 19.2693C12.1431 19.3125 12.1177 19.3582 12.0949 19.3988C11.8334 19.866 11.5287 20.3256 11.1656 20.7217C10.998 20.8994 10.9549 21.1584 11.0488 21.3793C11.1478 21.6052 11.3662 21.75 11.6099 21.75C12.7017 21.75 13.8062 21.4123 14.7254 20.9959C14.8472 20.94 14.9691 20.8816 15.0859 20.8232C15.4693 20.8994 15.8705 20.9375 16.2818 20.9375ZM21.9693 24.1875C22.3806 24.1875 22.7792 24.1468 23.1652 24.0732C23.282 24.1316 23.4038 24.19 23.5257 24.2459C24.4449 24.6623 25.5493 25 26.6411 25C26.8849 25 27.1032 24.8552 27.1997 24.6318C27.2962 24.4084 27.2505 24.1494 27.0829 23.9742C26.7224 23.5781 26.4177 23.1185 26.1536 22.6513C26.1308 22.6082 26.1054 22.565 26.0825 22.5218C26.8138 21.7525 27.2505 20.7801 27.2505 19.7187C27.2505 17.3219 25.0187 15.3642 22.2181 15.2551C22.3222 15.641 22.3755 16.0473 22.3755 16.4687V16.484C24.5896 16.6541 26.0318 18.1978 26.0318 19.7187C26.0318 20.4297 25.7423 21.1127 25.2015 21.6789C24.8384 22.0597 24.7622 22.6336 25.0111 23.0957C25.039 23.1465 25.0669 23.1972 25.0923 23.2455C25.1558 23.3597 25.2243 23.474 25.2929 23.5908C24.8613 23.4765 24.4322 23.3191 24.0259 23.1338C23.9167 23.0855 23.8101 23.0347 23.706 22.9814C23.4648 22.8595 23.1906 22.824 22.9265 22.8748C22.6193 22.9357 22.2968 22.9662 21.9667 22.9662C20.4001 22.9662 19.1738 22.2933 18.4933 21.3843C18.0871 21.5215 17.6605 21.623 17.2238 21.684C18.0845 23.1668 19.8873 24.1875 21.9693 24.1875Z" fill="#FFC283"/>
<path d="M21.9686 24.1876C22.3799 24.1876 22.7785 24.147 23.1645 24.0734C23.2813 24.1318 23.4031 24.1901 23.525 24.246C24.4441 24.6624 25.5486 25.0001 26.6404 25.0001C26.8842 25.0001 27.1025 24.8554 27.199 24.6319C27.2955 24.4085 27.2498 24.1495 27.0822 23.9743C26.7217 23.5782 26.417 23.1187 26.1529 22.6515C26.1301 22.6083 26.1047 22.5652 26.0818 22.522C26.8131 21.7527 27.2498 20.7802 27.2498 19.7189C27.2498 17.322 25.018 15.3644 22.2174 15.2552C22.3215 15.6412 22.3748 16.0474 22.3748 16.4689V16.4841C24.5889 16.6542 26.031 18.198 26.031 19.7189C26.031 20.4298 25.7416 21.1128 25.2008 21.679C24.8377 22.0599 24.7615 22.6337 25.0103 23.0958C25.0383 23.1466 25.0662 23.1974 25.0916 23.2456C25.1551 23.3599 25.2236 23.4741 25.2922 23.5909C24.8605 23.4767 24.4314 23.3193 24.0252 23.1339C23.916 23.0857 23.8094 23.0349 23.7053 22.9816C23.4641 22.8597 23.1898 22.8241 22.9258 22.8749C22.6186 22.9359 22.2961 22.9663 21.966 22.9663C20.3994 22.9663 19.1731 22.2935 18.4926 21.3845C18.0863 21.5216 17.6598 21.6232 17.2231 21.6841C18.0838 23.1669 19.8865 24.1876 21.9686 24.1876Z" fill="#FFA344"/>
</svg>
