<svg width="35" height="28" viewBox="0 0 35 28" fill="none" xmlns="http://www.w3.org/2000/svg">
<path d="M7 -0.000488281C5.06953 -0.000488281 3.5 1.56904 3.5 3.49951V15.7495H1.05C0.470313 15.7495 0 16.2198 0 16.7995C0 19.1183 1.88125 20.9995 4.2 20.9995H17.5V15.7495H7V3.49951H24.5V5.24951H28V3.49951C28 1.56904 26.4305 -0.000488281 24.5 -0.000488281H7ZM28 6.99951H21.875C20.4258 6.99951 19.25 8.17529 19.25 9.62451V25.3745C19.25 26.8237 20.4258 27.9995 21.875 27.9995H32.375C33.8242 27.9995 35 26.8237 35 25.3745V13.9995H29.75C28.782 13.9995 28 13.2175 28 12.2495V6.99951ZM29.75 6.99951V12.2495H35L29.75 6.99951Z" fill="#003D7C"/>
</svg>
