<svg width="38" height="38" viewBox="0 0 38 38" fill="none" xmlns="http://www.w3.org/2000/svg">
<circle cx="19" cy="19" r="19" transform="matrix(-4.37114e-08 -1 -1 4.37114e-08 38 37.9999)" fill="#2674CF" fill-opacity="0.2"/>
<circle cx="11.8547" cy="11.8547" r="12.4407" transform="matrix(-4.37114e-08 -1 -1 4.37114e-08 30.8566 30.8546)" fill="#002245" stroke="#003D7C" stroke-width="1.17208"/>
<path d="M23.8125 13.3125H17.6875C17.2035 13.3125 16.8125 13.7035 16.8125 14.1875V14.625H15.5V14.1875C15.5 12.9789 16.4789 12 17.6875 12H23.8125C25.0211 12 26 12.9789 26 14.1875V20.3125C26 21.5211 25.0211 22.5 23.8125 22.5H23.375V21.1875H23.8125C24.2965 21.1875 24.6875 20.7965 24.6875 20.3125V14.1875C24.6875 13.7035 24.2965 13.3125 23.8125 13.3125ZM13.3125 24.25C13.3125 24.4906 13.5094 24.6875 13.75 24.6875H20.75C20.9906 24.6875 21.1875 24.4906 21.1875 24.25V19H13.3125V24.25ZM13.75 15.5H20.75C21.7152 15.5 22.5 16.2848 22.5 17.25V24.25C22.5 25.2152 21.7152 26 20.75 26H13.75C12.7848 26 12 25.2152 12 24.25V17.25C12 16.2848 12.7848 15.5 13.75 15.5Z" fill="#FFC283"/>
<path d="M13.3125 24.25C13.3125 24.4906 13.5094 24.6875 13.75 24.6875H20.75C20.9906 24.6875 21.1875 24.4906 21.1875 24.25V19H13.3125V24.25ZM13.75 15.5H20.75C21.7152 15.5 22.5 16.2848 22.5 17.25V24.25C22.5 25.2152 21.7152 26 20.75 26H13.75C12.7848 26 12 25.2152 12 24.25V17.25C12 16.2848 12.7848 15.5 13.75 15.5Z" fill="#FFA344"/>
<path d="M17.8029 19.6288C17.6497 19.5847 17.4903 19.6738 17.4462 19.827L16.2932 23.8623C16.2491 24.0154 16.3383 24.1749 16.4914 24.219C16.6445 24.2631 16.8039 24.174 16.8481 24.0208L18.001 19.9855C18.0452 19.8324 17.956 19.6729 17.8029 19.6288ZM18.5289 20.7106C18.4163 20.8232 18.4163 21.006 18.5289 21.1186L19.3332 21.9239L18.528 22.7292C18.4154 22.8418 18.4154 23.0246 18.528 23.1372C18.6406 23.2498 18.8234 23.2498 18.936 23.1372L19.9448 22.1284C20.0574 22.0158 20.0574 21.8329 19.9448 21.7203L18.936 20.7115C18.8234 20.5989 18.6406 20.5989 18.528 20.7115L18.5289 20.7106ZM15.7663 20.7106C15.6537 20.598 15.4708 20.598 15.3583 20.7106L14.3494 21.7194C14.2368 21.832 14.2368 22.0149 14.3494 22.1275L15.3583 23.1363C15.4708 23.2489 15.6537 23.2489 15.7663 23.1363C15.8789 23.0237 15.8789 22.8409 15.7663 22.7283L14.961 21.9239L15.7663 21.1186C15.8789 21.006 15.8789 20.8232 15.7663 20.7106Z" fill="#FFC283"/>
</svg>
