<svg width="12" height="11" viewBox="0 0 12 11" fill="none" xmlns="http://www.w3.org/2000/svg">
<path d="M8.7425 0.158203H3.32394C1.82696 0.158203 0.609131 1.37639 0.609131 2.87381V7.83247C0.609131 9.32989 1.82696 10.5481 3.32394 10.5481H8.7425C10.2395 10.5481 11.4573 9.32989 11.4573 7.83247V2.87381C11.4573 1.37639 10.2395 0.158203 8.7425 0.158203ZM1.56683 2.87381C1.56683 1.90478 2.3552 1.11618 3.32394 1.11618H8.7425C9.71124 1.11618 10.4996 1.90478 10.4996 2.87381V7.83247C10.4996 8.8015 9.71124 9.5901 8.7425 9.5901H3.32394C2.3552 9.5901 1.56683 8.8015 1.56683 7.83247V2.87381Z" fill="#FFC283"/>
<path d="M6.0328 7.87812C7.42487 7.87812 8.55803 6.74523 8.55803 5.35214C8.55803 3.95905 7.42548 2.82617 6.0328 2.82617C4.64012 2.82617 3.50757 3.95905 3.50757 5.35214C3.50757 6.74523 4.64012 7.87812 6.0328 7.87812ZM6.0328 3.78476C6.89724 3.78476 7.60033 4.48806 7.60033 5.35276C7.60033 6.21746 6.89724 6.92075 6.0328 6.92075C5.16836 6.92075 4.46527 6.21746 4.46527 5.35276C4.46527 4.48806 5.16836 3.78476 6.0328 3.78476Z" fill="#FFC283"/>
<path d="M8.79147 3.23423C9.16633 3.23423 9.47186 2.92922 9.47186 2.55364C9.47186 2.17806 9.16694 1.87305 8.79147 1.87305C8.416 1.87305 8.11108 2.17806 8.11108 2.55364C8.11108 2.92922 8.416 3.23423 8.79147 3.23423Z" fill="#FFC283"/>
</svg>
