<svg width="24" height="24" viewBox="0 0 24 24" fill="none" xmlns="http://www.w3.org/2000/svg">
<path d="M1 12C1 18.0751 5.92487 23 12 23C18.0751 23 23 18.0751 23 12C23 5.92487 18.0751 1 12 1C5.92487 1 1 5.92487 1 12Z" stroke="#002245" stroke-width="1.65" stroke-linecap="round" stroke-linejoin="round"/>
<path d="M13.0996 1.0542C13.0996 1.0542 16.3996 5.39988 16.3996 11.9998C16.3996 18.5998 13.0996 22.9456 13.0996 22.9456" stroke="#002245" stroke-width="1.65" stroke-linecap="round" stroke-linejoin="round"/>
<path d="M10.8996 22.9456C10.8996 22.9456 7.59961 18.5998 7.59961 11.9998C7.59961 5.39988 10.8996 1.0542 10.8996 1.0542" stroke="#002245" stroke-width="1.65" stroke-linecap="round" stroke-linejoin="round"/>
<path d="M1.69336 15.85H22.3082" stroke="#002245" stroke-width="1.65" stroke-linecap="round" stroke-linejoin="round"/>
<path d="M1.69336 8.15002H22.3082" stroke="#002245" stroke-width="1.65" stroke-linecap="round" stroke-linejoin="round"/>
</svg>
