<svg width="12" height="11" viewBox="0 0 12 11" fill="none" xmlns="http://www.w3.org/2000/svg">
<path d="M3.09891 10.6813H0.856513V3.6244H3.09891V10.6813ZM1.97771 2.63511C1.25223 2.63511 0.724609 2.10749 0.724609 1.38201C0.724609 0.656527 1.31818 0.128906 1.97771 0.128906C2.70319 0.128906 3.23081 0.656527 3.23081 1.38201C3.23081 2.10749 2.70319 2.63511 1.97771 2.63511ZM11.277 10.6813H9.03465V6.85608C9.03465 5.73488 8.57297 5.40512 7.91344 5.40512C7.25392 5.40512 6.59439 5.93274 6.59439 6.92203V10.6813H4.35201V3.6244H6.46249V4.61369C6.66035 4.15202 7.45178 3.42654 8.57297 3.42654C9.82607 3.42654 11.1451 4.15202 11.1451 6.32845V10.6813H11.277Z" fill="#FFC283"/>
</svg>
