<svg width="21" height="21" viewBox="0 0 21 21" fill="none" xmlns="http://www.w3.org/2000/svg">
<path d="M13.368 5.82333C13.368 5.82333 12.7173 4.54816 12.0167 3.54279C11.5544 2.88035 11.0508 2.56094 10.156 2.63225C9.2612 2.70357 8.41402 3.89479 8.16314 4.69945C7.91225 5.50412 5.85954 11.116 5.85954 11.116C5.85954 11.116 6.47241 5.69358 6.99714 4.0391C7.52187 2.38462 8.66549 1.48696 9.94613 1.29216C11.2281 1.09876 12.5132 1.88601 13.376 3.29255C14.2362 4.69899 14.9111 5.97498 14.9111 5.97498L13.3694 5.82203L13.368 5.82333Z" fill="#003D7C"/>
<path d="M5.88338 6.97429C5.88338 6.97429 4.61087 7.62047 3.60829 8.31756C2.94769 8.7776 2.63019 9.28019 2.70476 10.1754C2.77933 11.0707 3.97338 11.9224 4.77878 12.1763C5.58418 12.4302 11.2023 14.5039 11.2023 14.5039C11.2023 14.5039 5.77886 13.8711 4.12284 13.3402C2.46812 12.8107 1.56517 11.6621 1.36574 10.3804C1.16769 9.09748 1.95146 7.81364 3.35444 6.95844C4.75743 6.10324 6.03066 5.43277 6.03066 5.43277L5.88338 6.97429Z" fill="#003D7C"/>
<path d="M7.01748 14.5701C7.01748 14.5701 7.66816 15.8452 8.37007 16.852C8.83242 17.5144 9.33606 17.8338 10.2308 17.7625C11.1256 17.6912 11.9728 16.5 12.2237 15.6953C12.4746 14.8907 14.5273 9.27875 14.5273 9.27875C14.5273 9.27875 13.9144 14.7012 13.3897 16.3557C12.8663 18.0089 11.7213 18.9078 10.4407 19.1026C9.15873 19.296 7.87363 18.5088 7.01079 17.1022C6.15065 15.6958 5.47569 14.4198 5.47569 14.4198L7.0174 14.5728L7.01748 14.5701Z" fill="#003D7C"/>
<path d="M14.5007 13.4187C14.5007 13.4187 15.7732 12.7725 16.7758 12.0755C17.4364 11.6154 17.7539 11.1128 17.6794 10.2176C17.6048 9.32232 16.4107 8.47059 15.6053 8.2167C14.7999 7.96281 9.18179 5.88911 9.18179 5.88911C9.18179 5.88911 14.6053 6.52193 16.2613 7.05284C17.916 7.58235 18.8189 8.73091 19.0184 10.0126C19.2164 11.2955 18.4341 12.5781 17.031 13.436C15.628 14.2912 14.3548 14.9616 14.3548 14.9616L14.502 13.4201L14.5007 13.4187Z" fill="#003D7C"/>
</svg>
