<svg width="24" height="19" viewBox="0 0 24 19" fill="none" xmlns="http://www.w3.org/2000/svg">
<path d="M2.375 19C1.72187 19 1.16276 18.7674 0.697656 18.3023C0.232552 17.8372 0 17.2781 0 16.625V2.375C0 1.72187 0.232552 1.16276 0.697656 0.697656C1.16276 0.232552 1.72187 0 2.375 0H21.375C22.0281 0 22.5872 0.232552 23.0523 0.697656C23.5174 1.16276 23.75 1.72187 23.75 2.375V16.625C23.75 17.2781 23.5174 17.8372 23.0523 18.3023C22.5872 18.7674 22.0281 19 21.375 19H2.375ZM11.875 10.6875L2.375 4.75V16.625H21.375V4.75L11.875 10.6875ZM11.875 8.3125L21.375 2.375H2.375L11.875 8.3125ZM2.375 4.75V2.375V16.625V4.75Z" fill="#FFC283"/>
</svg>
