<svg width="29" height="30" viewBox="0 0 29 30" fill="none" xmlns="http://www.w3.org/2000/svg">
<circle cx="14.3172" cy="14.3172" r="14.3172" transform="matrix(-4.37114e-08 -1 -1 4.37114e-08 28.6344 29.4595)" fill="#2674CF" fill-opacity="0.2"/>
<circle cx="8.93297" cy="8.93297" r="9.37457" transform="matrix(-4.37114e-08 -1 -1 4.37114e-08 23.2516 24.075)" fill="#002245" stroke="#003D7C" stroke-width="0.883206"/>
<path d="M10.2795 15.5662C9.93256 15.5662 9.65132 15.2849 9.65132 14.938C9.65132 14.5911 9.93256 14.3098 10.2795 14.3098L16.7534 14.3098L15.1358 12.6923C14.8891 12.4456 14.8909 12.0451 15.1397 11.8007C15.3855 11.5593 15.7799 11.561 16.0234 11.8046L18.6692 14.4503C18.9385 14.7196 18.9385 15.1563 18.6692 15.4257L16.0234 18.0714C15.7799 18.315 15.3855 18.3167 15.1397 18.0753C14.8909 17.8308 14.8891 17.4304 15.1358 17.1837L16.7534 15.5662L10.2795 15.5662Z" fill="#FFC283" stroke="#FFC283" stroke-width="0.44053"/>
</svg>
