<svg width="23" height="24" viewBox="0 0 23 24" fill="none" xmlns="http://www.w3.org/2000/svg">
<path d="M21.8704 21.2756L17.7581 17.1934C19.3543 15.2016 20.1274 12.6735 19.9182 10.1288C19.709 7.58412 18.5336 5.21635 16.6336 3.51235C14.7336 1.80835 12.2534 0.897644 9.70302 0.967484C7.15264 1.03732 4.72593 2.08241 2.92187 3.88784C1.11781 5.69327 0.0735238 8.12182 0.00373648 10.6741C-0.0660508 13.2264 0.843967 15.7085 2.54667 17.61C4.24938 19.5114 6.61535 20.6878 9.15809 20.8971C11.7008 21.1064 14.2271 20.3328 16.2174 18.7353L20.2964 22.8174C20.3994 22.9214 20.522 23.0039 20.6571 23.0603C20.7922 23.1166 20.937 23.1456 21.0834 23.1456C21.2297 23.1456 21.3746 23.1166 21.5097 23.0603C21.6447 23.0039 21.7673 22.9214 21.8704 22.8174C22.0701 22.6106 22.1818 22.3342 22.1818 22.0465C22.1818 21.7588 22.0701 21.4824 21.8704 21.2756ZM9.99905 18.7353C8.46446 18.7353 6.96434 18.2799 5.68837 17.4267C4.41241 16.5735 3.41791 15.3608 2.83065 13.9419C2.24339 12.523 2.08973 10.9618 2.38912 9.45554C2.6885 7.94929 3.42748 6.56571 4.5126 5.47977C5.59771 4.39383 6.98024 3.65429 8.48534 3.35468C9.99045 3.05507 11.5505 3.20884 12.9683 3.79655C14.3861 4.38425 15.5979 5.3795 16.4504 6.65644C17.303 7.93337 17.7581 9.43464 17.7581 10.9704C17.7581 13.0298 16.9406 15.0048 15.4855 16.461C14.0304 17.9172 12.0569 18.7353 9.99905 18.7353Z" fill="#002245"/>
</svg>
