<svg width="14" height="9" viewBox="0 0 14 9" fill="none" xmlns="http://www.w3.org/2000/svg">
<path d="M13.1488 2.56503C13.0731 1.83382 12.9101 1.0255 12.3103 0.600708C11.8457 0.27129 11.2351 0.259112 10.665 0.259788C9.46002 0.259788 8.25432 0.26182 7.04929 0.262497C5.89024 0.26385 4.73119 0.264525 3.57215 0.265878C3.08797 0.265878 2.61732 0.228674 2.16763 0.438365C1.78151 0.618293 1.47924 0.960565 1.29733 1.34139C1.0451 1.87103 0.99236 2.47101 0.96193 3.05679C0.905804 4.12351 0.91189 5.19293 0.978836 6.25897C1.0282 7.03686 1.1533 7.89659 1.75446 8.39241C2.28732 8.83141 3.03928 8.85305 3.73038 8.85373C5.92405 8.85576 8.11839 8.85779 10.3127 8.85914C10.594 8.85981 10.8875 8.8544 11.1742 8.82329C11.7382 8.76241 12.2758 8.60074 12.6383 8.18272C13.0041 7.7613 13.0981 7.17485 13.1535 6.61951C13.2888 5.27207 13.2874 3.91179 13.1488 2.56503ZM5.78069 6.44837V2.67056L9.05091 4.55912L5.78069 6.44837Z" fill="#FFC283"/>
</svg>
