<svg width="53" height="43" viewBox="0 0 53 43" fill="none" xmlns="http://www.w3.org/2000/svg">
<path d="M6.9 2H46.1C48.795 2 51 4.205 51 6.9V36.3C51 38.995 48.795 41.2 46.1 41.2H6.9C4.205 41.2 2 38.995 2 36.3V6.9C2 4.205 4.205 2 6.9 2Z" stroke="#FFC283" stroke-width="3.5" stroke-linecap="round" stroke-linejoin="round"/>
<path d="M14.5 2H38.5C40.15 2 41.5 3.35 41.5 5V23C41.5 24.65 40.15 26 38.5 26H14.5C12.85 26 11.5 24.65 11.5 23V5C11.5 3.35 12.85 2 14.5 2Z" stroke="#FFC283" stroke-width="2.14286" stroke-linecap="round" stroke-linejoin="round"/>
</svg>
