<svg width="71" height="48" viewBox="0 0 71 48" fill="none" xmlns="http://www.w3.org/2000/svg">
<path d="M21.0161 0.594755C21.644 0.858187 22.1856 1.35291 22.5676 1.92322C22.5676 1.98034 22.5676 2.03745 22.5676 2.0963C22.6121 2.08238 22.6566 2.06846 22.7025 2.05413C25.8159 1.37441 29.5181 2.65883 32.1188 4.34624C33.5175 5.29624 34.7396 6.42476 35.8378 7.72116C35.879 7.67598 35.9202 7.63081 35.9626 7.58426C37.981 5.43893 40.6772 3.94903 43.5295 3.39434C43.6796 3.36506 43.6796 3.36506 43.8326 3.33519C45.5543 3.05308 47.4373 3.12516 49.1081 3.65395C49.0964 3.5772 49.0848 3.50046 49.0728 3.42138C49.1081 3.13473 49.1081 3.13473 49.3468 2.91298C49.4543 2.84055 49.5633 2.77034 49.6733 2.70205C49.7593 2.64641 49.7593 2.64641 49.8471 2.58966C51.4607 1.56753 51.4607 1.56753 52.32 1.57708C52.6036 1.72227 52.7745 1.86932 52.9962 2.0963C52.9645 2.32345 52.9645 2.32345 52.9117 2.52898C52.8177 2.55419 52.7238 2.5794 52.6271 2.60537C51.7368 2.8532 51.0308 3.16552 50.2914 3.74049C50.404 4.10936 50.5433 4.4481 50.7088 4.79515C51.3557 6.23794 51.46 7.85794 50.945 9.37452C50.4639 10.649 49.6416 11.63 48.6855 12.5672C48.7696 12.635 48.7696 12.635 48.8555 12.7041C49.6594 13.3902 49.9807 14.0831 50.1003 15.1416C50.2664 17.2518 49.1056 19.7062 47.8402 21.3074C47.1807 22.094 46.278 22.8588 45.2391 22.9786C44.5713 23.0067 43.8913 22.9187 43.3648 22.4628C42.8514 21.8799 42.8084 21.307 42.8269 20.5414C42.872 19.7016 43.2122 19.0259 43.6986 18.3651C43.7474 18.2902 43.7962 18.2152 43.8465 18.138C44.3979 17.5421 45.0539 17.218 45.8117 16.9806C45.8117 17.0377 45.8117 17.0948 45.8117 17.1536C45.7217 17.237 45.6274 17.3154 45.5317 17.3916C44.7597 18.0637 43.9418 19.0484 43.7884 20.0959C43.7631 20.5163 43.8149 20.8613 44.0367 21.2208C44.3126 21.4836 44.4896 21.5577 44.8608 21.6211C45.4394 21.5828 45.8792 21.2383 46.2772 20.8307C47.6342 19.2324 48.6307 17.2157 48.5438 15.0487C48.4569 14.3144 48.2731 13.7027 47.7557 13.173C47.507 13.1995 47.3039 13.2312 47.0795 13.346C46.9408 13.3587 46.8015 13.3651 46.6622 13.3677C46.5512 13.371 46.5512 13.371 46.438 13.3744C46.1956 13.3406 46.1282 13.2814 45.9807 13.0864C45.8577 12.8345 45.8581 12.6727 45.8962 12.3941C46.208 12.0749 46.4734 12.0288 46.9052 11.9723C47.4205 11.8949 47.6703 11.7536 48.0093 11.3557C48.07 11.2846 48.1307 11.2136 48.1932 11.1404C48.3915 10.8991 48.5819 10.6534 48.77 10.4038C48.8235 10.3331 48.877 10.2623 48.9321 10.1895C49.7442 9.06256 50.1577 7.90834 50.0379 6.50965C49.903 5.87463 49.6781 5.36721 49.2771 4.86546C46.8808 7.24635 45.2342 11.0864 44.2856 14.3042C43.4421 17.1567 42.2507 19.8829 40.7402 22.4323C40.7803 22.4966 40.8204 22.5609 40.8617 22.6271C41.1925 23.2231 41.1897 24.078 41.0205 24.733C40.7871 25.2508 40.406 25.5819 39.8897 25.791C38.684 26.1484 37.3168 25.7538 36.201 25.2482C35.9393 25.1853 35.8233 25.2545 35.5843 25.3746C35.4223 25.4468 35.2603 25.5189 35.0983 25.5909C35.0168 25.6275 34.9353 25.6641 34.8513 25.7018C33.9524 26.0388 32.8655 26.1653 31.9322 25.9046C31.2803 25.5929 30.751 25.0825 30.4838 24.3926C30.3344 23.7743 30.3313 23.1203 30.5974 22.5405C30.6761 22.3606 30.6761 22.3606 30.6819 22.1727C30.5491 21.9347 30.3873 21.7506 30.2074 21.5477C29.8419 21.1122 29.5911 20.601 29.3295 20.0959C29.303 20.0448 29.2764 19.9938 29.2491 19.9413C28.1558 17.8192 27.3077 15.5692 26.5445 13.3041C25.7299 10.8874 24.8036 8.52375 23.8607 6.15684C23.7259 5.81827 23.5913 5.4796 23.4568 5.14092C23.3617 4.90209 23.266 4.66351 23.1702 4.42494C23.1126 4.2804 23.055 4.13586 22.9975 3.99131C22.9709 3.92552 22.9443 3.85973 22.9169 3.79194C22.8134 3.53096 22.7366 3.33269 22.7366 3.0482C22.1098 3.29347 21.8515 3.61604 21.5695 4.23131C21.1463 5.44147 21.0988 6.89259 21.6378 8.06731C21.6717 8.14573 21.7056 8.22415 21.7405 8.30494C22.2071 9.28109 23.0885 10.2982 24.0256 10.8148C24.3869 10.9381 24.7498 11.0232 25.1228 11.1012C25.394 11.1955 25.52 11.2981 25.695 11.5288C25.6825 11.8488 25.6647 11.9924 25.4414 12.2211C24.9709 12.3094 24.5596 12.3011 24.0837 12.2535C23.6061 12.2146 23.2267 12.1977 22.8212 12.4807C22.4109 12.8546 22.1849 13.2361 22.1238 13.801C22.0235 15.952 23.3448 18.3571 24.6807 19.9228C24.7339 19.9949 24.787 20.0669 24.8418 20.1412C25.0271 20.3655 25.2101 20.5149 25.4467 20.68C25.5191 20.7313 25.5916 20.7826 25.6662 20.8355C26.0174 21.0588 26.3018 21.0765 26.7093 21.0478C27.0244 20.8966 27.0244 20.8966 27.2164 20.6151C27.3639 19.4572 26.4348 18.2218 25.7795 17.3483C25.4561 16.9242 25.1195 16.5127 24.7652 16.1152C25.0188 16.0287 25.0188 16.0287 25.2024 16.1071C26.5956 16.9889 27.9593 18.4835 28.4843 20.0959C28.5639 21.1829 28.5639 21.1829 28.2307 21.6535C27.8094 22.111 27.1825 22.2678 26.5825 22.2917C25.1765 22.231 24.1629 21.2476 23.2438 20.2581C22.5014 19.3986 21.9544 18.4406 21.4318 17.4295C21.3673 17.3056 21.3673 17.3056 21.3016 17.1792C20.9242 16.4319 20.6584 15.7203 20.6711 14.8712C20.6719 14.8079 20.6727 14.7446 20.6736 14.6793C20.7098 13.5322 21.2236 12.5616 22.0066 11.7559C22.1617 11.616 22.3177 11.4825 22.4831 11.3557C22.3597 11.0588 22.2015 10.886 21.9706 10.6688C20.8014 9.49289 20.044 7.93888 20.0002 6.25004C20.0364 4.90895 20.4866 3.69059 21.3684 2.69056C21.4873 2.53534 21.4873 2.53534 21.4536 2.34881C21.2989 1.97841 21.0178 1.78161 20.6816 1.5933C20.1195 1.40797 19.5907 1.49325 19.0176 1.57708C19.059 1.02538 19.059 1.02538 19.2659 0.765799C19.736 0.38654 20.4565 0.454268 21.0161 0.594755ZM23.6664 2.78859C23.5712 3.02928 23.5809 3.13177 23.6608 3.38291C23.7027 3.47894 23.7447 3.57496 23.7879 3.6739C23.8108 3.72703 23.8337 3.78017 23.8573 3.83492C23.9336 4.01122 24.0113 4.18683 24.089 4.36247C24.1434 4.48727 24.1978 4.61211 24.252 4.73699C24.394 5.06279 24.5372 5.38799 24.6809 5.713C24.7613 5.89505 24.8415 6.07721 24.9215 6.25942C25.2886 7.09442 25.6601 7.92735 26.0331 8.7596C26.0626 8.82556 26.0922 8.89152 26.1226 8.95948C26.8988 10.6922 27.6837 12.4203 28.4804 14.1432C29.3386 15.9994 30.1778 17.8644 31.0103 19.7328C31.0525 19.8277 31.0525 19.8277 31.0957 19.9245C31.1488 20.0437 31.2018 20.1629 31.2549 20.2821C31.3876 20.5801 31.3876 20.5801 31.5271 20.8747C31.8543 20.8294 32.1578 20.7509 32.4727 20.6529C33.108 20.4719 33.7061 20.4206 34.3164 20.7016C34.2266 20.7268 34.1368 20.752 34.0443 20.778C33.3777 20.9732 32.8013 21.1503 32.2878 21.6535C32.3998 22.2824 32.9883 22.6371 33.4659 22.9894C34.0796 23.4236 34.7428 23.7499 35.4152 24.0765C35.4753 24.1132 35.5353 24.1499 35.5971 24.1877C35.821 24.2764 35.949 24.2365 36.1759 24.1631C37.176 23.6272 38.0214 22.8282 38.7962 21.9997C38.7381 21.9535 38.68 21.9073 38.6202 21.8597C38.3392 21.6248 38.0738 21.3765 37.8083 21.1235C37.7592 21.077 37.7101 21.0305 37.6596 20.9825C37.4724 20.8048 37.2862 20.6268 37.1057 20.442C37.7041 20.4754 38.2398 20.6298 38.8085 20.8117C39.0669 20.8937 39.2847 20.9612 39.5569 20.9612C39.59 20.8839 39.6231 20.8065 39.6572 20.7268C40.6294 18.4563 41.6281 16.2024 42.6901 13.9743C43.0434 13.232 43.3857 12.4859 43.7197 11.7343C44.8579 9.188 46.1812 6.63064 47.9898 4.50917C48.0241 4.45541 48.0584 4.40164 48.0938 4.34624C48.0659 4.26057 48.038 4.1749 48.0093 4.08663C45.8302 3.22477 43.1436 4.10847 41.1328 5.01555C39.6144 5.72774 38.2166 6.60195 36.868 7.60758C36.7982 7.65955 36.7284 7.71152 36.6565 7.76506C36.5933 7.81338 36.53 7.86169 36.4648 7.91147C36.4089 7.95416 36.3529 7.99685 36.2952 8.04083C36.2558 8.07813 36.2165 8.11542 36.1759 8.15384C36.1759 8.21096 36.1759 8.26807 36.1759 8.32692C36.2352 8.38581 36.2945 8.44471 36.3555 8.5054C37.5617 9.70891 37.8547 11.625 37.8932 13.2784C37.8949 13.3427 37.8967 13.4071 37.8985 13.4733C37.9039 13.6761 37.909 13.8788 37.914 14.0816C37.9176 14.2202 37.9213 14.3588 37.925 14.4974C37.934 14.8347 37.9426 15.1721 37.9509 15.5094C39.9794 14.143 41.0394 11.5598 41.8443 9.30586C41.8838 9.19873 41.8838 9.19873 41.9241 9.08943C42.0728 8.65766 42.1227 8.35085 42.0081 7.89423C41.6876 7.33638 41.2444 7.20832 40.6557 7.02887C40.6557 6.9432 40.6557 6.85753 40.6557 6.76926C41.2921 6.73372 41.8589 6.8279 42.3832 7.22358C42.7007 7.57246 42.7598 7.88013 42.7823 8.34855C42.7678 8.69595 42.7032 9.00256 42.605 9.3329C42.5865 9.39584 42.5679 9.45877 42.5488 9.52361C41.9486 11.4756 41.0133 13.327 39.7623 14.9222C39.6461 15.0707 39.5325 15.221 39.4192 15.3719C38.6586 16.3669 37.6445 17.0959 36.4051 17.302C34.6865 17.4871 33.123 16.9429 31.7807 15.8556C31.6918 15.7895 31.6029 15.7235 31.5113 15.6555C29.9256 14.1042 29.0142 11.5346 28.5371 9.3924C28.5229 9.32922 28.5087 9.26605 28.4941 9.20096C28.3279 8.40647 28.3851 7.73964 28.8012 7.03969C29.2112 6.64326 29.631 6.56696 30.1734 6.57861C30.3438 6.59619 30.3438 6.59619 30.5974 6.68272C30.5974 6.7684 30.5974 6.85407 30.5974 6.94233C30.4483 6.9343 30.4483 6.9343 30.2962 6.92611C29.9116 6.92681 29.6668 7.01236 29.3295 7.20194C28.9708 7.59372 28.9575 8.00495 28.9623 8.51993C29.1554 10.6877 30.2621 12.9125 31.6116 14.5575C31.679 14.6461 31.679 14.6461 31.7477 14.7364C32.2459 15.3769 32.9012 15.891 33.6402 16.2017C33.696 16.1732 33.7518 16.1446 33.8093 16.1152C33.7715 16.07 33.7336 16.0248 33.6947 15.9783C32.841 14.9142 32.5371 13.8428 32.6259 12.4807C32.8208 10.9594 33.8255 9.41301 34.739 8.24038C32.845 5.4495 29.3374 3.63203 26.1365 3.01731C25.3074 2.86726 24.5088 2.77238 23.6664 2.78859ZM35.4152 9.01921C34.1865 10.6147 33.193 12.1859 33.3866 14.2979C33.5288 15.0264 33.9687 15.5287 34.4855 16.0287C34.5376 16.0793 34.5898 16.1299 34.6436 16.1821C35.0877 16.5361 35.5195 16.4807 36.0604 16.4258C36.3433 16.3751 36.5896 16.3219 36.8521 16.2017C36.9636 16.0417 36.9636 16.0417 37.0053 15.8448C37.0233 15.7821 37.0413 15.7194 37.0598 15.6548C37.4732 13.566 37.1035 11.4092 36.0122 9.60265C35.8346 9.361 35.6534 9.19617 35.4152 9.01921ZM31.3581 22.7785C31.1828 23.1374 31.2155 23.6108 31.3224 23.9903C31.5845 24.5356 32.1064 24.8087 32.6206 25.0663C33.2682 25.1881 33.7777 25.054 34.3164 24.6823C34.3164 24.6252 34.3164 24.5681 34.3164 24.5092C34.0174 24.3322 33.7184 24.1553 33.4193 23.9784C33.3179 23.9184 33.2165 23.8584 33.1151 23.7984C32.5322 23.4533 31.9484 23.1103 31.3581 22.7785ZM39.1405 23.3099C39.0911 23.3379 39.0417 23.3659 38.9908 23.3947C38.8861 23.4542 38.7814 23.5138 38.6768 23.5737C38.518 23.6645 38.3587 23.7544 38.1994 23.8443C38.0975 23.9023 37.9956 23.9603 37.8938 24.0184C37.7553 24.0972 37.7553 24.0972 37.6141 24.1777C37.3702 24.3293 37.1547 24.4945 36.9366 24.6823C37.4717 24.9135 37.9843 24.97 38.5585 24.9744C38.6227 24.9755 38.6869 24.9767 38.753 24.9779C39.1934 24.9744 39.5061 24.8978 39.895 24.6823C40.1235 24.3314 40.1099 24.0559 40.064 23.6439C39.9969 23.4259 39.9125 23.2428 39.8105 23.0381C39.5468 23.0381 39.3696 23.18 39.1405 23.3099Z" fill="#8090A2"/>
<path d="M61.9842 31.3712C62.7122 31.8695 63.2208 32.7225 63.3937 33.5937C63.504 34.6399 63.4235 35.5877 62.8232 36.4711C62.2084 37.2428 61.422 37.8298 60.4306 37.9399C59.2462 38.0038 58.3019 37.8369 57.3426 37.0724C56.6741 36.4479 56.3107 35.5877 56.2197 34.6755C56.1747 33.6657 56.4397 32.7866 57.058 31.9854C58.3549 30.5707 60.3846 30.4436 61.9842 31.3712ZM58.7449 32.5553C58.6734 32.5999 58.6019 32.6446 58.5283 32.6905C58.0516 33.1786 57.8722 33.6973 57.8521 34.3834C57.8821 35.111 58.0511 35.5143 58.5705 36.006C59.0491 36.4248 59.4809 36.4897 60.0973 36.4758C60.7341 36.4096 61.0917 36.0774 61.4965 35.5925C61.8609 35.0511 61.8453 34.4896 61.7877 33.8534C61.6439 33.2326 61.2846 32.8205 60.7735 32.4688C60.1638 32.1577 59.3097 32.1505 58.7449 32.5553Z" fill="#8090A2"/>
<path d="M16.1445 30.9131C16.6745 30.9131 17.2045 30.9131 17.7505 30.9131C17.7505 31.7984 17.7505 32.6836 17.7505 33.5957C18.6152 33.5957 19.4798 33.5957 20.3707 33.5957C20.3707 32.7104 20.3707 31.8252 20.3707 30.9131C20.8728 30.9131 21.3749 30.9131 21.8922 30.9131C21.8922 33.1976 21.8922 35.4822 21.8922 37.836C21.3901 37.836 20.888 37.836 20.3707 37.836C20.3707 36.9222 20.3707 36.0083 20.3707 35.0668C19.506 35.0668 18.6414 35.0668 17.7505 35.0668C17.7505 35.9807 17.7505 36.8945 17.7505 37.836C17.2205 37.836 16.6906 37.836 16.1445 37.836C16.1445 35.5514 16.1445 33.2669 16.1445 30.9131Z" fill="#8090A2"/>
<path d="M31.2734 30.9131C32.947 30.9131 34.6206 30.9131 36.3449 30.9131C36.3449 31.37 36.3449 31.8269 36.3449 32.2977C35.1734 32.2977 34.0019 32.2977 32.7949 32.2977C32.7949 32.726 32.7949 33.1544 32.7949 33.5957C33.8269 33.5957 34.8589 33.5957 35.9223 33.5957C35.9223 34.0812 35.9223 34.5667 35.9223 35.0668C34.8902 35.0668 33.8582 35.0668 32.7949 35.0668C32.7949 35.5237 32.7949 35.9807 32.7949 36.4514C33.9943 36.4514 35.1937 36.4514 36.4294 36.4514C36.4294 36.9083 36.4294 37.3652 36.4294 37.836C34.7279 37.836 33.0265 37.836 31.2734 37.836C31.2734 35.5514 31.2734 33.2669 31.2734 30.9131Z" fill="#8090A2"/>
<path d="M2.95726 30.8276C3.43144 30.8276 3.90562 30.8276 4.39417 30.8276C4.67744 31.3964 4.93919 31.9675 5.17964 32.5563C5.21245 32.636 5.24526 32.7157 5.27907 32.7979C5.38411 33.0532 5.48875 33.3088 5.59335 33.5644C5.6654 33.7399 5.73746 33.9154 5.80955 34.0909C5.9505 34.4343 6.09128 34.7778 6.2319 35.1213C6.37089 35.4608 6.51031 35.8001 6.65017 36.1392C6.74893 36.3787 6.84732 36.6184 6.94573 36.8581C6.9798 36.9406 7.01387 37.023 7.04897 37.108C7.07886 37.1812 7.10875 37.2543 7.13954 37.3297C7.16473 37.391 7.18992 37.4523 7.21587 37.5155C7.26798 37.664 7.26798 37.664 7.26798 37.8371C6.73801 37.8371 6.20805 37.8371 5.66202 37.8371C5.5644 37.6122 5.46677 37.3873 5.36619 37.1556C5.3353 37.0849 5.30441 37.0142 5.27259 36.9413C5.23655 36.8577 5.23655 36.8577 5.19978 36.7723C5.175 36.7152 5.15021 36.6581 5.12467 36.5993C5.07036 36.4525 5.07036 36.4525 5.07036 36.2794C4.14989 36.2794 3.22943 36.2794 2.28107 36.2794C2.19739 36.565 2.11371 36.8506 2.0275 37.1448C1.91592 37.3732 1.80435 37.6017 1.6894 37.8371C1.18733 37.8371 0.685255 37.8371 0.167969 37.8371C0.235971 37.489 0.311531 37.2334 0.444653 36.9122C0.485763 36.8125 0.526874 36.7127 0.56923 36.6099C0.615084 36.4997 0.660944 36.3896 0.706809 36.2794C0.754412 36.1643 0.801976 36.0491 0.849505 35.9339C0.95572 35.6767 1.06217 35.4196 1.16876 35.1625C1.37369 34.6681 1.57762 34.1732 1.78152 33.6783C2.1731 32.7279 2.56508 31.7777 2.95726 30.8276ZM3.63345 32.818C3.50618 33.1315 3.37958 33.4452 3.25309 33.7591C3.21681 33.8484 3.18053 33.9378 3.14314 34.0298C3.10882 34.1152 3.0745 34.2005 3.03914 34.2884C3.00727 34.3673 2.9754 34.4461 2.94257 34.5274C2.86301 34.7143 2.86301 34.7143 2.87273 34.8948C3.4027 34.8948 3.93266 34.8948 4.47869 34.8948C4.28584 34.1709 4.01531 33.5017 3.71797 32.818C3.69008 32.818 3.66219 32.818 3.63345 32.818Z" fill="#8090A2"/>
<path d="M13.3191 31.2926C13.4755 31.3911 13.6271 31.4976 13.7771 31.606C13.7223 31.9374 13.5697 32.1709 13.3914 32.4497C13.3102 32.5776 13.3102 32.5776 13.2273 32.708C13.1856 32.7727 13.1439 32.8374 13.1009 32.9041C12.7626 32.7678 12.4323 32.6182 12.1021 32.4629C11.6488 32.2711 11.2071 32.2123 10.7395 32.3957C10.5412 32.5483 10.5412 32.5483 10.5123 32.8175C10.5382 33.0833 10.5382 33.0833 10.723 33.2052C11.1742 33.4293 11.6586 33.5543 12.1401 33.6942C12.7866 33.8932 13.4578 34.1557 13.8193 34.7754C14.1046 35.4326 14.1045 36.0299 13.8583 36.7029C13.5755 37.336 13.119 37.5818 12.5092 37.8366C11.6328 38.137 10.5407 37.9378 9.7199 37.577C9.42661 37.4197 9.14892 37.2475 8.87467 37.0578C8.79099 37.0007 8.70731 36.9436 8.62109 36.8847C8.75326 36.5799 8.93341 36.342 9.1388 36.0843C9.20004 36.0071 9.26127 35.9299 9.32436 35.8503C9.39464 35.7627 9.39464 35.7627 9.46633 35.6732C9.66065 35.7722 9.85426 35.8724 10.0474 35.9737C10.1346 36.0191 10.2218 36.0645 10.3116 36.1113C10.3987 36.1569 10.4859 36.2026 10.5757 36.2496C11.0655 36.4833 11.5504 36.5212 12.076 36.3926C12.3123 36.2431 12.3596 36.1193 12.4247 35.8463C12.3617 35.5539 12.3617 35.5539 12.0443 35.4244C11.6571 35.2571 11.2597 35.1449 10.8557 35.0296C10.0933 34.809 9.4961 34.5507 9.04371 33.856C8.81097 33.2061 8.82191 32.5618 9.10182 31.9251C9.39844 31.388 9.83872 31.0998 10.3938 30.8904C11.3788 30.6471 12.4289 30.806 13.3191 31.2926Z" fill="#8090A2"/>
<path d="M64.3223 30.9126C64.9368 30.7599 65.5865 30.6469 66.1818 30.9126C66.804 31.5549 67.1719 32.4353 67.5342 33.2491C67.576 33.3348 67.576 33.3348 67.6187 33.4222C67.6745 33.4222 67.7303 33.4222 67.7877 33.4222C67.8966 33.2583 67.9972 33.0887 68.0941 32.9171C68.1382 32.84 68.1382 32.84 68.1832 32.7612C68.2774 32.5961 68.3707 32.4304 68.4639 32.2647C68.5573 32.0997 68.6509 31.9348 68.7447 31.7701C68.83 31.6202 68.9148 31.47 68.9995 31.3198C69.1401 31.0857 69.1401 31.0857 69.3092 30.9126C69.4835 30.893 69.4835 30.893 69.6955 30.8957C69.7712 30.8963 69.8469 30.8968 69.9249 30.8974C70.0438 30.8996 70.0438 30.8996 70.165 30.9018C70.2448 30.9026 70.3247 30.9034 70.407 30.9042C70.6046 30.9062 70.8021 30.9091 70.9997 30.9126C70.885 31.2295 70.7451 31.5043 70.5694 31.7901C70.5175 31.875 70.4655 31.9599 70.412 32.0473C70.3566 32.1369 70.3013 32.2265 70.2442 32.3188C70.1595 32.4567 70.1595 32.4567 70.0732 32.5974C69.6891 33.2215 69.3008 33.8428 68.9067 34.4603C68.623 34.9051 68.5341 35.1639 68.5217 35.689C68.52 35.7502 68.5182 35.8115 68.5164 35.8745C68.5109 36.0703 68.5059 36.266 68.5009 36.4618C68.4973 36.5944 68.4936 36.727 68.4899 36.8596C68.4807 37.1849 68.4724 37.5102 68.4639 37.8355C67.9619 37.8355 67.4598 37.8355 66.9425 37.8355C66.9511 37.6587 66.9597 37.4819 66.9686 37.2997C67.02 35.6438 66.7863 34.6297 65.7557 33.2979C65.498 32.9526 65.2832 32.5841 65.0671 32.2107C64.9955 32.0899 64.9238 31.9691 64.8522 31.8483C64.671 31.539 64.4959 31.2264 64.3223 30.9126Z" fill="#8090A2"/>
<path d="M37.9512 30.914C38.5379 30.773 39.1565 30.6687 39.7262 30.914C40.4116 31.598 40.8197 32.6077 41.1631 33.5101C41.4363 33.252 41.6201 32.9873 41.8086 32.66C41.8922 32.5158 41.8922 32.5158 41.9774 32.3688C42.0353 32.2679 42.0931 32.167 42.151 32.066C42.2656 31.8673 42.3804 31.6687 42.4953 31.4701C42.5458 31.3821 42.5964 31.2941 42.6484 31.2035C42.769 31.0006 42.769 31.0006 42.8536 30.914C42.9794 30.9065 43.1056 30.9048 43.2316 30.9056C43.3076 30.9059 43.3836 30.9061 43.4619 30.9064C43.5818 30.9075 43.5818 30.9075 43.7041 30.9086C43.8245 30.9092 43.8245 30.9092 43.9473 30.9098C44.1462 30.9108 44.3451 30.9123 44.544 30.914C44.429 31.3326 44.2462 31.6591 44.0052 32.012C43.9292 32.1259 43.8534 32.2399 43.7777 32.3541C43.7376 32.4146 43.6975 32.4751 43.6562 32.5374C43.4298 32.8846 43.2131 33.2379 42.9962 33.5913C42.9547 33.6588 42.9132 33.7263 42.8704 33.7958C42.79 33.9269 42.7103 34.0585 42.6315 34.1907C42.5155 34.3755 42.5155 34.3755 42.3939 34.5282C41.96 35.1037 42.0266 35.8027 42.0242 36.4956C42.0222 36.6259 42.0201 36.7561 42.0177 36.8864C42.0121 37.2033 42.0103 37.5199 42.0083 37.8369C41.5062 37.8369 41.0042 37.8369 40.4869 37.8369C40.4945 37.6591 40.5021 37.4813 40.51 37.2981C40.5528 35.7052 40.3727 34.6843 39.3895 33.3949C39.0871 32.9853 38.8256 32.549 38.5587 32.1147C38.5076 32.0341 38.4566 31.9535 38.4039 31.8705C38.3333 31.7581 38.3333 31.7581 38.2612 31.6435C38.2196 31.5777 38.178 31.5118 38.1351 31.444C38.0387 31.2657 37.9888 31.1133 37.9512 30.914Z" fill="#8090A2"/>
<path d="M24.3438 30.9131C24.8737 30.9131 25.4037 30.9131 25.9497 30.9131C25.9497 32.7122 25.9497 34.5113 25.9497 36.3649C27.0375 36.3649 28.1254 36.3649 29.2461 36.3649C29.2461 36.8503 29.2461 37.3358 29.2461 37.836C27.6284 37.836 26.0106 37.836 24.3438 37.836C24.3438 35.5514 24.3438 33.2669 24.3438 30.9131Z" fill="#8090A2"/>
<path d="M52.5736 30.9131C53.1035 30.9131 53.6335 30.9131 54.1795 30.9131C54.1853 31.5525 54.1899 32.192 54.1927 32.8315C54.194 33.1285 54.1958 33.4255 54.1987 33.7225C54.202 34.0649 54.2032 34.4073 54.2043 34.7498C54.2056 34.8551 54.2069 34.9604 54.2083 35.0689C54.2084 35.8606 54.1271 36.6262 53.6377 37.2705C53.0563 37.8452 52.4013 37.9459 51.6254 37.9437C50.8438 37.9289 50.3694 37.6951 49.7549 37.2144C49.6152 37.0572 49.6152 37.0572 49.6152 36.711C49.7516 36.5326 49.8847 36.3749 50.0379 36.2134C50.0782 36.1696 50.1185 36.1258 50.16 36.0806C50.2594 35.9727 50.3599 35.8658 50.4605 35.7591C50.5134 35.7956 50.5664 35.8321 50.6209 35.8697C50.69 35.9171 50.7591 35.9645 50.8303 36.0133C50.8989 36.0605 50.9676 36.1077 51.0383 36.1563C51.37 36.3776 51.5834 36.386 51.9819 36.3649C52.1794 36.318 52.1794 36.318 52.32 36.1918C52.4709 35.8751 52.5114 35.6155 52.516 35.2652C52.5177 35.1682 52.5194 35.0712 52.5211 34.9712C52.5226 34.8156 52.5226 34.8156 52.524 34.6568C52.5257 34.5498 52.5273 34.4429 52.529 34.3327C52.5332 34.0495 52.5367 33.7662 52.5398 33.483C52.5432 33.1935 52.5476 32.904 52.5518 32.6146C52.5599 32.0474 52.567 31.4803 52.5736 30.9131Z" fill="#8090A2"/>
<path d="M0 42.5081C0.486382 42.4974 0.486382 42.4974 0.982591 42.4865C1.08388 42.4833 1.18517 42.4802 1.28953 42.4769C1.81572 42.4713 2.14194 42.4819 2.53572 42.8543C2.76169 43.2013 2.7648 43.4846 2.70477 43.8927C2.53572 44.1577 2.53572 44.1577 2.36667 44.3254C2.41995 44.3464 2.47323 44.3673 2.52812 44.3889C2.70477 44.4985 2.70477 44.4985 2.78368 44.6675C2.85822 45.0154 2.89051 45.223 2.78401 45.5694C2.5346 45.9153 2.26462 46.0599 1.85953 46.1427C1.71306 46.1495 1.56636 46.152 1.41974 46.1511C1.34508 46.1509 1.27041 46.1507 1.19349 46.1505C1.09949 46.1497 1.00548 46.1489 0.908632 46.1481C0.608784 46.1463 0.308935 46.1445 0 46.1427C0 44.9433 0 43.7439 0 42.5081ZM0.507144 42.9408C0.507144 43.2835 0.507144 43.6262 0.507144 43.9792C0.741395 43.9862 0.975447 43.9914 1.20975 43.9955C1.30936 43.9987 1.30936 43.9987 1.41099 44.0021C1.475 44.0029 1.53901 44.0037 1.60496 44.0046C1.66383 44.006 1.72271 44.0073 1.78336 44.0087C1.9967 43.9696 2.0708 43.8973 2.19762 43.7196C2.20467 43.4095 2.20467 43.4095 2.1131 43.1139C1.8173 42.8817 1.47519 42.9211 1.11994 42.93C1.03152 42.9312 1.03152 42.9312 0.941319 42.9324C0.796581 42.9344 0.651859 42.9375 0.507144 42.9408ZM0.507144 44.4985C0.507144 44.8697 0.507144 45.2409 0.507144 45.6234C0.723791 45.6305 0.940217 45.6356 1.15692 45.6397C1.24836 45.6429 1.24836 45.6429 1.34165 45.6463C1.72692 45.6517 1.98206 45.6198 2.28215 45.3638C2.3385 45.1042 2.3385 45.1042 2.28215 44.8446C2.15155 44.6684 2.05212 44.5971 1.85953 44.4985C1.62982 44.4922 1.40237 44.4904 1.17277 44.4931C1.07716 44.4936 1.07716 44.4936 0.979619 44.4942C0.822124 44.4953 0.664633 44.4968 0.507144 44.4985Z" fill="#8090A2"/>
<path d="M17.1163 42.5571C17.5469 42.8212 17.7593 43.1914 17.9509 43.655C18.0558 44.2991 17.9503 44.9226 17.7502 45.5372C17.8339 45.6228 17.9175 45.7085 18.0038 45.7968C17.948 45.911 17.8922 46.0252 17.8347 46.1429C17.4966 46.1429 17.4966 46.1429 17.3328 46.0456C17.2466 46.0081 17.2466 46.0081 17.1585 45.9698C17.0962 45.9962 17.0339 46.0225 16.9697 46.0496C16.4952 46.239 15.9182 46.2237 15.4301 46.0834C14.9697 45.8679 14.6658 45.548 14.4445 45.0788C14.2686 44.5322 14.2711 43.8579 14.5066 43.3305C15.0411 42.4139 16.1705 42.1274 17.1163 42.5571ZM15.0613 43.4657C14.8315 43.8495 14.8369 44.236 14.8764 44.6718C14.9967 45.0278 15.1727 45.3104 15.4677 45.5443C15.8429 45.7202 16.2517 45.6838 16.6514 45.6237C16.9708 45.4745 17.1088 45.3454 17.317 45.0612C17.4918 44.5045 17.5161 43.9447 17.2695 43.4116C16.923 43.0378 16.6949 42.9248 16.1918 42.9032C15.6826 42.9179 15.3988 43.0725 15.0613 43.4657Z" fill="#8090A2"/>
<path d="M52.1504 42.5098C52.573 42.5098 52.573 42.5098 52.7098 42.6204C52.7488 42.6718 52.7877 42.7232 52.8279 42.7761C52.8723 42.8334 52.9167 42.8906 52.9624 42.9495C53.0082 43.0115 53.0541 43.0734 53.1013 43.1372C53.149 43.1995 53.1968 43.2619 53.246 43.3261C53.3894 43.5144 53.5309 43.7041 53.6718 43.8943C53.713 43.9496 53.7542 44.0049 53.7967 44.0618C54.0113 44.3503 54.2223 44.6409 54.4325 44.9328C54.4604 44.1332 54.4883 43.3336 54.5171 42.5098C54.6844 42.5098 54.8518 42.5098 55.0242 42.5098C55.0242 43.7092 55.0242 44.9086 55.0242 46.1443C54.5488 46.0469 54.5488 46.0469 54.3252 45.7579C54.2518 45.6646 54.2518 45.6646 54.1768 45.5695C54.127 45.5039 54.0771 45.4384 54.0258 45.3709C53.9769 45.3084 53.928 45.2458 53.8777 45.1814C53.7236 44.9839 53.5709 44.7853 53.4182 44.5866C53.1951 44.3011 52.972 44.0155 52.7421 43.7213C52.7142 44.5209 52.6863 45.3205 52.6575 46.1443C52.4902 46.1443 52.3228 46.1443 52.1504 46.1443C52.1504 44.9449 52.1504 43.7455 52.1504 42.5098Z" fill="#8090A2"/>
<path d="M46.8267 43.5463C47.0802 43.6815 47.0802 43.6815 47.2493 43.8059C47.2911 43.7648 47.333 43.7238 47.3761 43.6815C47.6618 43.4987 47.9318 43.4496 48.2636 43.4598C48.5954 43.56 48.7899 43.6289 48.9973 43.916C49.1212 44.1784 49.1383 44.3402 49.1336 44.6297C49.1323 44.7623 49.1323 44.7623 49.1311 44.8976C49.129 44.9889 49.1268 45.0802 49.1247 45.1743C49.1229 45.3137 49.1229 45.3137 49.1212 45.456C49.1182 45.6848 49.114 45.9136 49.1088 46.1424C48.968 46.1461 48.827 46.1459 48.6862 46.1424C48.5501 46.0031 48.5861 45.8485 48.5809 45.656C48.5781 45.575 48.5753 45.4941 48.5724 45.4107C48.5673 45.239 48.5624 45.0673 48.5579 44.8955C48.555 44.8145 48.5521 44.7335 48.5492 44.65C48.547 44.5753 48.5449 44.5006 48.5427 44.4237C48.5331 44.2202 48.5331 44.2202 48.3481 44.0655C48.0558 44.0222 48.0558 44.0222 47.7564 44.0655C47.5249 44.3075 47.47 44.4904 47.4596 44.8241C47.4566 44.901 47.4536 44.978 47.4505 45.0573C47.4486 45.1369 47.4467 45.2166 47.4447 45.2987C47.4419 45.3796 47.439 45.4606 47.436 45.5441C47.429 45.7435 47.4232 45.9429 47.4183 46.1424C47.251 46.1424 47.0836 46.1424 46.9112 46.1424C46.9091 46.0887 46.9069 46.035 46.9048 45.9797C46.895 45.7364 46.8846 45.4932 46.8742 45.25C46.8709 45.1655 46.8676 45.081 46.8641 44.9939C46.8606 44.9128 46.857 44.8316 46.8534 44.748C46.8503 44.6732 46.8472 44.5985 46.844 44.5214C46.8328 44.3109 46.8328 44.3109 46.7421 44.0655C46.2973 44.0219 46.2973 44.0219 45.9022 44.1791C45.7474 44.4307 45.7152 44.661 45.7011 44.9508C45.6976 45.0203 45.694 45.0897 45.6904 45.1612C45.687 45.2334 45.6837 45.3055 45.6803 45.3798C45.6767 45.4529 45.673 45.526 45.6692 45.6014C45.6603 45.7817 45.6518 45.962 45.6433 46.1424C45.5039 46.1424 45.3644 46.1424 45.2207 46.1424C45.2207 45.2857 45.2207 44.429 45.2207 43.5463C45.3602 43.5463 45.4996 43.5463 45.6433 43.5463C45.6712 43.6034 45.6991 43.6605 45.7278 43.7194C45.7836 43.6747 45.8394 43.6301 45.8969 43.5842C46.2341 43.4187 46.4712 43.4473 46.8267 43.5463Z" fill="#8090A2"/>
<path d="M57.524 43.4887C57.5886 43.4955 57.6532 43.5023 57.7198 43.5093C57.8991 43.5482 57.8991 43.5482 58.1526 43.7213C58.1805 43.6642 58.2084 43.6071 58.2372 43.5482C58.4045 43.5482 58.5719 43.5482 58.7443 43.5482C58.7443 44.4049 58.7443 45.2616 58.7443 46.1443C58.5769 46.1443 58.4096 46.1443 58.2372 46.1443C58.2093 46.0872 58.1814 46.0301 58.1526 45.9712C58.1062 45.9991 58.0598 46.027 58.012 46.0557C57.6504 46.2179 57.2714 46.1902 56.8848 46.1443C56.5676 45.9936 56.4238 45.8628 56.2191 45.5764C56.0479 45.0407 56.0232 44.5335 56.272 44.0242C56.6541 43.5895 56.9503 43.4221 57.524 43.4887ZM56.7157 44.2405C56.5592 44.5027 56.5467 44.6673 56.5467 44.9761C56.6576 45.3735 56.7963 45.4976 57.1383 45.7116C57.5043 45.7708 57.6616 45.7573 57.973 45.5494C58.2203 45.2962 58.2342 45.2293 58.2636 44.8625C58.261 44.5752 58.2377 44.5009 58.0787 44.2459C57.8464 44.0151 57.7768 43.9845 57.45 43.9593C57.1165 43.9824 56.9711 44.0239 56.7157 44.2405Z" fill="#8090A2"/>
<path d="M23.7985 43.4885C23.8631 43.4953 23.9277 43.5021 23.9943 43.5092C24.1735 43.548 24.1735 43.548 24.4271 43.7211C24.455 43.664 24.4829 43.6069 24.5116 43.548C24.679 43.548 24.8464 43.548 25.0188 43.548C25.0188 44.4047 25.0188 45.2615 25.0188 46.1441C24.8514 46.1441 24.6841 46.1441 24.5116 46.1441C24.4838 46.0585 24.4559 45.9728 24.4271 45.8845C24.3575 45.9476 24.3575 45.9476 24.2865 46.012C23.9389 46.2446 23.5598 46.1976 23.1593 46.1441C22.7809 45.9573 22.5685 45.7591 22.3985 45.3653C22.264 44.8535 22.3316 44.4447 22.5676 43.9807C22.9154 43.5609 23.2753 43.4278 23.7985 43.4885ZM22.9057 44.4134C22.7865 44.6574 22.8004 44.8348 22.8212 45.1057C22.9278 45.3458 23.0165 45.4936 23.2227 45.6519C23.4991 45.7384 23.7169 45.7424 24.0045 45.7114C24.291 45.5265 24.4039 45.4365 24.5116 45.1057C24.5445 44.7422 24.5504 44.5608 24.3532 44.2511C24.107 43.9991 24.0383 43.9841 23.6823 43.9483C23.2967 43.9511 23.1437 44.1033 22.9057 44.4134Z" fill="#8090A2"/>
<path d="M70.2668 43.5735C70.6023 43.7892 70.7137 43.8807 70.8479 44.2712C70.9166 44.5849 70.9166 44.5849 70.9166 45.0176C70.2193 45.0176 69.522 45.0176 68.8035 45.0176C69.0663 45.5252 69.0663 45.5252 69.3262 45.6156C69.7552 45.6453 69.9574 45.611 70.3249 45.3637C70.5204 45.4341 70.5204 45.4341 70.663 45.5368C70.663 45.6225 70.663 45.7082 70.663 45.7964C70.268 46.159 69.8821 46.1721 69.3724 46.1672C68.9673 46.1239 68.7419 45.9216 68.4813 45.6179C68.2522 45.2352 68.2476 44.8467 68.2964 44.4118C68.4126 44.0229 68.6067 43.7938 68.9514 43.5952C69.4112 43.3922 69.794 43.3817 70.2668 43.5735ZM68.9726 44.1522C68.9168 44.295 68.861 44.4378 68.8035 44.5849C69.3335 44.5849 69.8634 44.5849 70.4095 44.5849C70.2793 44.1693 70.2793 44.1693 70.0714 43.9792C69.6205 43.8638 69.3576 43.8772 68.9726 44.1522Z" fill="#8090A2"/>
<path d="M5.64263 43.5568C5.97163 43.7511 6.0958 43.8852 6.25543 44.2382C6.25543 44.4953 6.25543 44.7523 6.25543 45.0171C5.586 45.0171 4.91657 45.0171 4.22685 45.0171C4.45058 45.4468 4.45058 45.4468 4.81852 45.6228C5.00746 45.6317 5.00746 45.6317 5.19888 45.6012C5.26251 45.5936 5.32614 45.586 5.3917 45.5782C5.58855 45.5342 5.74172 45.4629 5.91733 45.3632C6.08638 45.5363 6.08638 45.5363 6.08638 45.7039C6.00186 45.8824 6.00186 45.8824 5.80111 46.0339C5.27808 46.2185 4.77981 46.246 4.2744 46.0014C3.97703 45.7192 3.7506 45.4949 3.69033 45.0691C3.67503 44.6156 3.71536 44.2745 3.97328 43.8921C4.48364 43.4088 4.99299 43.3572 5.64263 43.5568ZM4.3959 44.1517C4.34012 44.2945 4.28433 44.4373 4.22685 44.5844C4.75682 44.5844 5.28678 44.5844 5.83281 44.5844C5.71026 44.1463 5.71026 44.1463 5.41547 43.9949C4.99144 43.8265 4.77475 43.9124 4.3959 44.1517Z" fill="#8090A2"/>
<path d="M43.5521 43.5907C43.9256 43.8037 44.0865 44.0861 44.2072 44.4993C44.2637 44.9706 44.1756 45.2954 43.9536 45.7108C43.5184 46.1238 43.2387 46.1686 42.66 46.1624C42.216 46.1255 41.9555 45.8701 41.6715 45.5377C41.5411 45.1372 41.5443 44.7445 41.5869 44.3262C41.9841 43.513 42.7323 43.2345 43.5521 43.5907ZM42.2631 44.1531C42.0351 44.5033 42.0392 44.7806 42.0941 45.1916C42.2237 45.4571 42.3118 45.5831 42.5903 45.6783C42.8894 45.7339 43.0672 45.7282 43.3514 45.608C43.639 45.3568 43.6884 45.1966 43.737 44.813C43.6872 44.39 43.58 44.2692 43.2774 43.9801C42.8922 43.8036 42.6205 43.9598 42.2631 44.1531Z" fill="#8090A2"/>
<path d="M18.9342 43.5488C19.1015 43.5488 19.2689 43.5488 19.4413 43.5488C19.4434 43.5973 19.4455 43.6457 19.4477 43.6956C19.4575 43.9153 19.4679 44.135 19.4783 44.3547C19.4816 44.4309 19.4849 44.5072 19.4884 44.5857C19.4919 44.6591 19.4954 44.7324 19.4991 44.808C19.5022 44.8755 19.5053 44.943 19.5085 45.0126C19.5209 45.2097 19.5209 45.2097 19.6104 45.4526C19.8337 45.6285 19.964 45.6254 20.2496 45.6203C20.5429 45.5686 20.5429 45.5686 20.6814 45.3681C20.8345 45.0113 20.8414 44.6866 20.8518 44.3006C20.8547 44.2283 20.8576 44.1559 20.8605 44.0814C20.8675 43.9039 20.873 43.7264 20.8782 43.5488C21.0456 43.5488 21.2129 43.5488 21.3854 43.5488C21.3854 44.4055 21.3854 45.2622 21.3854 46.1449C21.218 46.1449 21.0506 46.1449 20.8782 46.1449C20.8782 46.0592 20.8782 45.9736 20.8782 45.8853C20.8242 45.9281 20.7701 45.971 20.7144 46.0151C20.3665 46.1896 20.0759 46.1974 19.6949 46.1449C19.379 46.0043 19.2006 45.8372 19.0187 45.5392C18.9375 45.2897 18.9243 45.1345 18.9259 44.8756C18.9262 44.7984 18.9265 44.7211 18.9267 44.6415C18.9274 44.5611 18.9281 44.4808 18.9289 44.398C18.9293 44.3166 18.9296 44.2352 18.93 44.1514C18.931 43.9505 18.9324 43.7497 18.9342 43.5488Z" fill="#8090A2"/>
<path d="M31.7812 43.5471C31.9765 43.5471 32.1718 43.5471 32.3729 43.5471C32.3904 43.5965 32.4079 43.6458 32.4259 43.6967C32.5048 43.9192 32.5841 44.1415 32.6635 44.3638C32.691 44.4415 32.7185 44.5192 32.7468 44.5993C32.7733 44.6732 32.7997 44.7471 32.8269 44.8232C32.8512 44.8916 32.8756 44.9601 32.9007 45.0306C32.9521 45.1898 32.9521 45.1898 33.0491 45.2779C33.0692 45.2285 33.0892 45.1792 33.1098 45.1283C33.2003 44.9058 33.2911 44.6835 33.3819 44.4612C33.4135 44.3835 33.445 44.3058 33.4775 44.2257C33.5077 44.1518 33.538 44.0779 33.5691 44.0018C33.597 43.9334 33.6249 43.8649 33.6536 43.7944C33.7253 43.6337 33.7253 43.6337 33.8098 43.5471C33.9788 43.5436 34.148 43.5435 34.317 43.5471C34.1582 44.0606 33.9765 44.5543 33.7613 45.0456C33.7335 45.1098 33.7057 45.174 33.6771 45.2402C33.5896 45.4422 33.5016 45.644 33.4136 45.8458C33.3537 45.9839 33.2937 46.1221 33.2338 46.2604C33.0881 46.5965 32.9419 46.9324 32.7955 47.2682C32.6282 47.2682 32.4608 47.2682 32.2884 47.2682C32.3057 47.22 32.323 47.1718 32.3409 47.1222C32.3637 47.0561 32.3864 46.9901 32.4099 46.9221C32.4325 46.8578 32.455 46.7936 32.4782 46.7274C32.696 45.9143 32.5469 45.4876 32.2092 44.7262C32.1289 44.5399 32.0489 44.3536 31.9691 44.1671C31.9332 44.0854 31.8972 44.0037 31.8602 43.9195C31.7812 43.7202 31.7812 43.7202 31.7812 43.5471Z" fill="#8090A2"/>
<path d="M62.3791 43.5488C62.5186 43.5488 62.658 43.5488 62.8017 43.5488C62.8059 43.65 62.81 43.7512 62.8143 43.8554C62.8206 43.9894 62.827 44.1234 62.8334 44.2573C62.836 44.3239 62.8386 44.3904 62.8413 44.459C62.8595 44.8198 62.8808 45.1299 63.0553 45.4526C63.2992 45.6556 63.2992 45.6556 63.6047 45.6149C63.8923 45.5654 63.8923 45.5654 64.0422 45.4141C64.2155 45.0717 64.2026 44.7298 64.2122 44.3493C64.2151 44.2724 64.218 44.1956 64.221 44.1164C64.2279 43.9272 64.2338 43.7381 64.2386 43.5488C64.406 43.5488 64.5733 43.5488 64.7458 43.5488C64.7458 44.4055 64.7458 45.2622 64.7458 46.1449C64.6063 46.1449 64.4668 46.1449 64.3231 46.1449C64.3231 46.0592 64.3231 45.9736 64.3231 45.8853C64.2552 45.9281 64.1872 45.971 64.1171 46.0151C63.7465 46.1749 63.4519 46.211 63.0553 46.1449C62.7107 45.9653 62.5192 45.8203 62.3791 45.4526C62.3599 45.2386 62.3599 45.2386 62.3626 45.0024C62.3631 44.9176 62.3637 44.8328 62.3642 44.7455C62.3657 44.6576 62.3671 44.5697 62.3685 44.4791C62.3693 44.3899 62.3701 44.3006 62.3708 44.2087C62.3728 43.9887 62.3756 43.7688 62.3791 43.5488Z" fill="#8090A2"/>
<path d="M8.87461 43.5911C8.95829 43.634 9.04197 43.6768 9.12818 43.721C9.10177 43.8886 9.10177 43.8886 9.04366 44.0671C8.79009 44.1536 8.79009 44.1536 8.59991 44.0671C8.29921 43.9551 8.08548 44.0049 7.7758 44.0671C7.7758 44.1813 7.7758 44.2956 7.7758 44.4132C7.8451 44.43 7.91439 44.4467 7.98579 44.4639C8.07688 44.4865 8.16797 44.509 8.26181 44.5322C8.35203 44.5543 8.44225 44.5764 8.5352 44.5992C9.05485 44.7494 9.05485 44.7494 9.23912 44.992C9.32725 45.2954 9.29734 45.4946 9.21271 45.7978C8.96107 46.0769 8.8123 46.1305 8.44539 46.1768C7.89246 46.1968 7.51529 46.1869 7.09961 45.7978C7.1275 45.6836 7.1554 45.5694 7.18413 45.4517C7.52223 45.4517 7.52223 45.4517 7.67015 45.5382C7.96363 45.6718 8.21663 45.6406 8.53652 45.6248C8.5923 45.5962 8.64809 45.5676 8.70556 45.5382C8.67767 45.424 8.64978 45.3098 8.62104 45.1921C8.53856 45.1701 8.45608 45.1481 8.3711 45.1255C8.26356 45.0957 8.15602 45.0659 8.04522 45.0352C7.93833 45.0061 7.83145 44.977 7.72132 44.947C7.32923 44.8073 7.32923 44.8073 7.18413 44.5863C7.12971 44.1476 7.12971 44.1476 7.18413 43.894C7.6466 43.3949 8.27157 43.3251 8.87461 43.5911Z" fill="#8090A2"/>
<path d="M38.3746 42.5082C38.4304 42.5653 38.4862 42.6225 38.5437 42.6813C38.4879 42.7955 38.4321 42.9098 38.3746 43.0274C38.2962 43.0078 38.2177 42.9882 38.1369 42.968C37.8748 42.9125 37.8748 42.9125 37.7143 43.0437C37.5895 43.2199 37.5895 43.2199 37.5294 43.5467C37.7804 43.5467 38.0314 43.5467 38.2901 43.5467C38.2901 43.6894 38.2901 43.8322 38.2901 43.9793C38.0391 43.9793 37.788 43.9793 37.5294 43.9793C37.5294 44.6933 37.5294 45.4072 37.5294 46.1428C37.362 46.1428 37.1947 46.1428 37.0222 46.1428C37.0222 45.4288 37.0222 44.7149 37.0222 43.9793C36.8828 43.9793 36.7433 43.9793 36.5996 43.9793C36.5996 43.8366 36.5996 43.6938 36.5996 43.5467C36.7391 43.5467 36.8785 43.5467 37.0222 43.5467C37.0361 43.4668 37.0361 43.4668 37.0503 43.3854C37.0637 43.3155 37.0771 43.2455 37.0909 43.1735C37.1037 43.1042 37.1164 43.0349 37.1295 42.9636C37.1992 42.7427 37.268 42.6507 37.4448 42.5082C37.793 42.3894 38.013 42.4436 38.3746 42.5082Z" fill="#8090A2"/>
<path d="M60.6881 42.769C60.6881 43.0261 60.6881 43.2831 60.6881 43.5479C60.9392 43.5479 61.1902 43.5479 61.4488 43.5479C61.4488 43.6907 61.4488 43.8334 61.4488 43.9806C61.1978 43.9806 60.9468 43.9806 60.6881 43.9806C60.716 44.4946 60.7439 45.0086 60.7726 45.5382C61.1649 45.6332 61.1649 45.6332 61.4488 45.6247C61.4767 45.7675 61.5046 45.9103 61.5334 46.0574C61.2417 46.2067 60.9225 46.187 60.6036 46.144C60.3473 45.9537 60.281 45.8454 60.181 45.5382C60.1742 45.4163 60.1719 45.2942 60.1727 45.1721C60.1731 45.068 60.1731 45.068 60.1735 44.9617C60.1743 44.8896 60.175 44.8175 60.1757 44.7432C60.1761 44.67 60.1765 44.5969 60.1768 44.5216C60.1778 44.3412 60.1794 44.1609 60.181 43.9806C60.0136 43.9806 59.8463 43.9806 59.6738 43.9806C59.6738 43.8378 59.6738 43.695 59.6738 43.5479C59.8412 43.5479 60.0085 43.5479 60.181 43.5479C60.181 43.3194 60.181 43.091 60.181 42.8556C60.4345 42.769 60.4345 42.769 60.6881 42.769Z" fill="#8090A2"/>
<path d="M10.9884 42.769C10.9884 43.0261 10.9884 43.2831 10.9884 43.5479C11.2394 43.5479 11.4904 43.5479 11.7491 43.5479C11.7491 43.6907 11.7491 43.8334 11.7491 43.9806C11.498 43.9806 11.247 43.9806 10.9884 43.9806C11.0002 44.2222 11.0126 44.4637 11.0253 44.7053C11.0287 44.774 11.032 44.8427 11.0354 44.9135C11.0466 45.2808 11.0466 45.2808 11.1574 45.6247C11.3527 45.6247 11.5479 45.6247 11.7491 45.6247C11.777 45.7675 11.8049 45.9103 11.8336 46.0574C11.5613 46.1968 11.2828 46.1959 10.9884 46.144C10.6908 45.9106 10.5477 45.7387 10.4812 45.3651C10.4754 45.1263 10.4733 44.8899 10.4759 44.6512C10.4763 44.5867 10.4767 44.5223 10.4771 44.4558C10.4781 44.2974 10.4796 44.139 10.4812 43.9806C10.3417 43.9806 10.2023 43.9806 10.0586 43.9806C10.0586 43.8378 10.0586 43.695 10.0586 43.5479C10.1981 43.5479 10.3375 43.5479 10.4812 43.5479C10.4812 43.3194 10.4812 43.091 10.4812 42.8556C10.7348 42.769 10.7348 42.769 10.9884 42.769Z" fill="#8090A2"/>
<path d="M30.3444 42.854C30.3444 43.0824 30.3444 43.3109 30.3444 43.5463C30.5675 43.5463 30.7907 43.5463 31.0206 43.5463C31.0206 43.689 31.0206 43.8318 31.0206 43.9789C30.7695 43.9789 30.5185 43.9789 30.2598 43.9789C30.2877 44.5215 30.3156 45.0641 30.3444 45.6231C30.5675 45.6231 30.7907 45.6231 31.0206 45.6231C31.0484 45.7659 31.0763 45.9087 31.1051 46.0558C30.8382 46.1925 30.5467 46.2132 30.2598 46.1423C30.0281 45.9798 30.0281 45.9798 29.8372 45.7097C29.7865 45.4101 29.7972 45.1201 29.8108 44.8173C29.8137 44.6964 29.8137 44.6964 29.8166 44.573C29.8215 44.3749 29.8285 44.177 29.8372 43.9789C29.6699 43.9789 29.5025 43.9789 29.3301 43.9789C29.3301 43.8362 29.3301 43.6934 29.3301 43.5463C29.4974 43.5463 29.6648 43.5463 29.8372 43.5463C29.8372 43.3178 29.8372 43.0893 29.8372 42.854C30.0908 42.7674 30.0908 42.7674 30.3444 42.854Z" fill="#8090A2"/>
<path d="M40.656 43.4607C40.8568 43.5472 40.8568 43.5472 40.9941 43.6338C40.9383 43.7765 40.8826 43.9193 40.8251 44.0664C40.7731 44.0634 40.7211 44.0604 40.6676 44.0573C40.5993 44.055 40.531 44.0526 40.4606 44.0502C40.3929 44.0472 40.3252 44.0442 40.2555 44.0411C40.0207 44.0722 39.955 44.1385 39.8108 44.326C39.7139 44.5245 39.7096 44.6548 39.6995 44.8757C39.696 44.9493 39.6924 45.0229 39.6888 45.0988C39.6855 45.1758 39.6821 45.2527 39.6787 45.332C39.6732 45.4485 39.6732 45.4485 39.6677 45.5673C39.6587 45.7593 39.6501 45.9513 39.6417 46.1433C39.5009 46.147 39.36 46.1468 39.2191 46.1433C39.1346 46.0568 39.1346 46.0568 39.125 45.8166C39.1254 45.7119 39.1259 45.6072 39.1263 45.4994C39.1266 45.3864 39.1269 45.2735 39.1272 45.1571C39.1279 45.0369 39.1286 44.9168 39.1293 44.7966C39.1297 44.6761 39.1301 44.5556 39.1305 44.4351C39.1315 44.1391 39.1329 43.8432 39.1346 43.5472C39.302 43.5472 39.4693 43.5472 39.6417 43.5472C39.6696 43.6043 39.6975 43.6614 39.7263 43.7203C39.7855 43.6775 39.8448 43.6346 39.9059 43.5905C40.1865 43.4406 40.3437 43.4267 40.656 43.4607Z" fill="#8090A2"/>
<path d="M67.6182 43.547C67.6461 43.6613 67.674 43.7755 67.7027 43.8932C67.4676 44.0472 67.3503 44.066 67.0635 44.0608C66.783 44.0378 66.783 44.0378 66.6305 44.1713C66.4897 44.3671 66.4849 44.4851 66.4791 44.7268C66.4752 44.842 66.4752 44.842 66.4712 44.9597C66.4697 45.0396 66.4681 45.1196 66.4666 45.202C66.4623 45.3609 66.4577 45.5198 66.4527 45.6787C66.4512 45.7491 66.4497 45.8195 66.4482 45.892C66.4349 46.0566 66.4349 46.0566 66.3504 46.1431C66.2109 46.1431 66.0714 46.1431 65.9277 46.1431C65.9277 45.2864 65.9277 44.4297 65.9277 43.547C66.0672 43.547 66.2067 43.547 66.3504 43.547C66.3782 43.6041 66.4061 43.6613 66.4349 43.7201C66.5159 43.6532 66.5159 43.6532 66.5986 43.5849C66.9573 43.4125 67.2372 43.4765 67.6182 43.547Z" fill="#8090A2"/>
<path d="M26.2031 42.5098C26.3705 42.5098 26.5378 42.5098 26.7103 42.5098C26.7103 43.7092 26.7103 44.9086 26.7103 46.1443C26.5429 46.1443 26.3756 46.1443 26.2031 46.1443C26.2031 44.9449 26.2031 43.7455 26.2031 42.5098Z" fill="#8090A2"/>
<path d="M27.8926 43.5488C28.0599 43.5488 28.2273 43.5488 28.3997 43.5488C28.3997 44.4055 28.3997 45.2622 28.3997 46.1449C28.2324 46.1449 28.065 46.1449 27.8926 46.1449C27.8926 45.2882 27.8926 44.4315 27.8926 43.5488Z" fill="#8090A2"/>
<path d="M27.8931 42.5081C28.0339 42.5044 28.1749 42.5046 28.3157 42.5081C28.4003 42.5946 28.4003 42.5946 28.4055 42.8164C28.4038 42.886 28.4021 42.9556 28.4003 43.0273C28.1995 43.0814 28.1995 43.0814 27.9776 43.1138C27.9219 43.0567 27.8661 42.9996 27.8086 42.9408C27.8403 42.7136 27.8403 42.7136 27.8931 42.5081Z" fill="#8090A2"/>
</svg>
