<svg width="115" height="62" viewBox="0 0 115 62" fill="none" xmlns="http://www.w3.org/2000/svg">
<path d="M0.636719 1.09521C38.1663 1.09521 75.6958 1.09521 114.363 1.09521C114.363 11.5283 114.363 21.9615 114.363 32.7108C76.833 32.7108 39.3035 32.7108 0.636719 32.7108C0.636719 22.2776 0.636719 11.8445 0.636719 1.09521Z" fill="#FEFEFE"/>
<path d="M0.636719 1.09521C38.1663 1.09521 75.6958 1.09521 114.363 1.09521C114.363 11.5283 114.363 21.9615 114.363 32.7108C76.833 32.7108 39.3035 32.7108 0.636719 32.7108C0.636719 22.2776 0.636719 11.8445 0.636719 1.09521Z" fill="#8090A2"/>
<path d="M0.636719 1.26514C14.1693 1.26514 27.7018 1.26514 41.6444 1.26514C41.6444 3.17227 41.6444 5.0794 41.6444 7.04432C40.7131 7.04432 39.7817 7.04432 38.8221 7.04432C38.8221 7.2126 38.8221 7.38088 38.8221 7.55425C39.6987 7.55425 40.5753 7.55425 41.4784 7.55425C41.4784 11.9294 41.4784 16.3046 41.4784 20.8124C40.8991 20.2193 40.4563 19.6323 40.005 18.9427C39.8423 18.6973 39.6795 18.4521 39.5166 18.207C39.4308 18.0776 39.3449 17.9482 39.2565 17.8149C38.7955 17.1245 38.3262 16.4402 37.857 15.7556C37.7595 15.6131 37.6619 15.4706 37.5614 15.3237C37.164 14.7432 36.7663 14.1628 36.3683 13.5827C36.173 13.298 35.9782 13.0129 35.7837 12.7276C35.5886 12.4443 35.3905 12.163 35.1896 11.884C34.6839 11.1722 34.2769 10.5054 33.9529 9.68825C33.5206 8.7018 33.1424 7.90719 32.1811 7.38428C30.0076 6.84027 27.5871 7.08074 25.3742 7.2143C25.3742 7.32648 25.3742 7.43867 25.3742 7.55425C26.196 7.55425 27.0178 7.55425 27.8645 7.55425C27.8645 14.1731 27.8645 20.792 27.8645 27.6114C27.0427 27.6114 26.2209 27.6114 25.3742 27.6114C25.3742 27.7236 25.3742 27.8358 25.3742 27.9514C27.237 27.9514 29.0997 27.9514 31.019 27.9514C31.019 27.8392 31.019 27.727 31.019 27.6114C30.1424 27.6114 29.2658 27.6114 28.3626 27.6114C28.3626 21.5535 28.3626 15.4955 28.3626 9.25401C28.8223 9.72464 29.1599 10.0933 29.5183 10.6244C29.6544 10.825 29.6544 10.825 29.7933 11.0296C29.8896 11.1728 29.9859 11.3161 30.0851 11.4637C30.2935 11.7711 30.5019 12.0785 30.7103 12.386C30.8165 12.5432 30.9228 12.7004 31.0323 12.8624C31.5303 13.5984 32.0321 14.3317 32.5339 15.0651C32.6305 15.2064 32.7271 15.3477 32.8267 15.4933C33.4395 16.3896 34.0546 17.2843 34.6715 18.1778C35.583 19.498 36.4891 20.822 37.394 22.147C37.8024 22.745 38.2115 23.3425 38.621 23.9397C38.7242 24.0903 38.8274 24.2408 38.9337 24.396C39.1291 24.6811 39.3247 24.9662 39.5204 25.2512C40.0627 26.043 40.5896 26.842 41.1 27.6558C41.2956 27.9751 41.2956 27.9751 41.6444 28.1214C41.6444 29.6358 41.6444 31.1503 41.6444 32.7107C28.1119 32.7107 14.5793 32.7107 0.636719 32.7107C0.636719 22.3337 0.636719 11.9566 0.636719 1.26514Z" fill="#8090A2"/>
<path d="M38.8209 7.04464C40.071 7.0327 41.321 7.0237 42.5711 7.01822C43.1519 7.01558 43.7327 7.01203 44.3134 7.00617C52.3028 6.92779 52.3028 6.92779 54.6444 9.25499C55.569 10.3722 55.9088 11.4782 55.8448 12.9407C55.6401 14.2287 55.0788 15.3392 54.1158 16.2021C51.5702 17.9967 48.6276 18.0931 45.6279 18.0931C45.6279 21.2342 45.6279 24.3754 45.6279 27.6117C46.5045 27.6117 47.3811 27.6117 48.2842 27.6117C48.2842 27.7239 48.2842 27.8361 48.2842 27.9517C42.1368 28.459 42.1368 28.459 40.6327 27.6895C39.8954 26.9993 39.5423 26.1271 39.1851 25.1874C38.8416 24.3809 38.3225 23.7058 37.8144 23.0011C37.6181 22.7161 37.4224 22.4306 37.2275 22.1446C36.6273 21.2706 36.0255 20.3978 35.4232 19.5254C34.4929 18.1774 33.5694 16.8245 32.6456 15.4719C32.3421 15.0277 32.0383 14.5837 31.7345 14.1398C31.6335 13.9923 31.5326 13.8448 31.4286 13.6928C31.2395 13.4166 31.0504 13.1403 30.8613 12.8641C30.079 11.7206 29.3038 10.5723 28.5275 9.4243C28.4727 15.4262 28.4179 21.428 28.3615 27.6117C29.2381 27.6117 30.1147 27.6117 31.0178 27.6117C31.0178 27.7239 31.0178 27.8361 31.0178 27.9517C29.1551 27.9517 27.2923 27.9517 25.373 27.9517C25.373 27.8395 25.373 27.7273 25.373 27.6117C26.1949 27.6117 27.0167 27.6117 27.8634 27.6117C27.8634 20.9929 27.8634 14.374 27.8634 7.55457C27.0416 7.55457 26.2198 7.55457 25.373 7.55457C25.373 7.44238 25.373 7.3302 25.373 7.21461C31.1969 6.68027 31.1969 6.68027 32.6931 7.49348C33.4637 8.23074 33.875 9.1535 34.286 10.1344C34.6484 10.9308 35.1593 11.609 35.6665 12.3139C35.8607 12.5964 36.0542 12.8795 36.2469 13.1631C36.636 13.7322 37.0256 14.301 37.4156 14.8695C37.5137 15.0127 37.6118 15.1559 37.7129 15.3034C37.8935 15.5669 38.0742 15.8303 38.2551 16.0935C39.2874 17.6006 40.2958 19.1232 41.3113 20.6427C41.3661 16.3236 41.4208 12.0045 41.4773 7.55457C40.6007 7.55457 39.7241 7.55457 38.8209 7.55457C38.8209 7.38629 38.8209 7.21801 38.8209 7.04464Z" fill="#002245"/>
<path d="M7.11134 7.21436C12.6997 7.21436 18.288 7.21436 24.0457 7.21436C24.0457 8.84103 24.0457 10.4677 24.0457 12.1437C23.9361 12.1437 23.8265 12.1437 23.7137 12.1437C23.6432 11.9857 23.5728 11.8277 23.5003 11.6649C22.716 9.95382 21.9148 8.61594 20.1214 7.88604C19.4737 7.6984 18.8624 7.66461 18.1947 7.6539C18.0815 7.6509 17.9682 7.6479 17.8516 7.64482C17.4329 7.63418 17.0141 7.62627 16.5954 7.61805C15.6572 7.59701 14.7189 7.57598 13.7523 7.55431C13.7523 10.5272 13.7523 13.5001 13.7523 16.563C16.3988 16.5627 16.3988 16.5627 18.4956 15.2504C19.0882 14.3657 19.4039 13.3254 19.7291 12.3136C19.8387 12.3136 19.9482 12.3136 20.0611 12.3136C20.0611 15.2865 20.0611 18.2594 20.0611 21.3224C19.9516 21.3224 19.842 21.3224 19.7291 21.3224C19.6769 21.1747 19.6247 21.027 19.5709 20.8749C18.8425 18.8023 18.8425 18.8023 17.2387 17.4129C16.1312 17.035 14.9179 17.1393 13.7523 17.073C13.7523 20.5507 13.7523 24.0284 13.7523 27.6115C14.6186 27.594 15.4849 27.5764 16.3775 27.5584C16.6469 27.5541 16.9163 27.5499 17.1939 27.5455C19.5749 27.484 21.4696 27.1046 23.1741 25.2956C23.8451 24.4683 24.1843 23.5115 24.5438 22.5122C24.6537 22.2286 24.7642 21.9452 24.8758 21.6623C24.9854 21.6623 25.095 21.6623 25.2079 21.6623C25.2079 23.7377 25.2079 25.8131 25.2079 27.9514C19.1812 27.9514 13.1546 27.9514 6.94531 27.9514C6.94531 27.8393 6.94531 27.7271 6.94531 27.6115C7.82191 27.6115 8.69852 27.6115 9.60168 27.6115C9.60168 20.9926 9.60168 14.3737 9.60168 7.55431C8.77987 7.55431 7.95805 7.55431 7.11134 7.55431C7.11134 7.44212 7.11134 7.32994 7.11134 7.21436Z" fill="#002245"/>
<path d="M104.004 7.25152C104.715 7.5231 105.302 7.63828 106.061 7.554C106.171 7.38572 106.28 7.21745 106.393 7.04407C106.558 7.04407 106.722 7.04407 106.891 7.04407C106.891 8.89511 106.891 10.7462 106.891 12.6533C106.727 12.6533 106.563 12.6533 106.393 12.6533C106.288 12.367 106.288 12.367 106.18 12.075C105.424 10.076 104.792 8.45393 102.78 7.53275C101.521 7.02832 100.13 7.00544 98.8599 7.50088C97.9663 7.92482 97.2076 8.36777 96.6082 9.1794C96.2854 10.2484 96.2448 11.3335 96.6601 12.3771C97.8884 13.6346 99.4652 14.1463 101.08 14.693C101.562 14.8563 102.044 15.0206 102.525 15.1871C102.854 15.3009 103.183 15.4129 103.513 15.5229C104.924 16.0113 106.31 16.6445 107.296 17.8269C107.398 17.9459 107.501 18.0649 107.607 18.1875C108.582 19.6289 108.568 21.1686 108.385 22.8519C107.99 24.6608 106.855 26.1329 105.341 27.1245C102.531 28.6405 100.109 28.7106 97.0882 27.9136C96.1196 27.6636 95.2728 27.5694 94.2735 27.6112C94.1913 27.7795 94.1913 27.7795 94.1074 27.9511C93.9431 27.9511 93.7787 27.9511 93.6094 27.9511C93.6094 25.8196 93.6094 23.6881 93.6094 21.492C93.7737 21.492 93.9381 21.492 94.1074 21.492C94.1299 21.6014 94.1524 21.7107 94.1755 21.8234C94.6698 23.9475 95.5953 25.7676 97.3293 27.0588C98.9797 28.0839 100.926 28.0309 102.778 27.6796C103.973 27.2725 104.865 26.3089 105.429 25.1718C105.753 24.0824 105.746 22.7976 105.324 21.747C103.988 20.4122 102.396 19.9011 100.655 19.3461C95.9964 17.8418 95.9964 17.8418 94.6905 15.845C93.9407 14.3517 93.7894 12.3756 94.2637 10.7616C94.4621 10.3446 94.6772 9.97286 94.9376 9.59371C95.0574 9.41492 95.1773 9.23613 95.3007 9.05192C97.7286 6.56629 100.837 6.03628 104.004 7.25152Z" fill="#002245"/>
<path d="M54.7598 7.21436C57.8279 7.21436 60.896 7.21436 64.0571 7.21436C64.0571 7.32654 64.0571 7.43872 64.0571 7.55431C63.2352 7.55431 62.4134 7.55431 61.5667 7.55431C61.5667 14.1732 61.5667 20.792 61.5667 27.6115C66.3346 27.8217 66.3346 27.8217 70.3659 25.7418C71.4899 24.4588 71.9937 22.926 72.5242 21.3224C72.6338 21.3224 72.7434 21.3224 72.8563 21.3224C72.8563 23.51 72.8563 25.6976 72.8563 27.9514C66.8844 27.9514 60.9126 27.9514 54.7598 27.9514C54.7598 27.8393 54.7598 27.7271 54.7598 27.6115C55.6364 27.6115 56.513 27.6115 57.4161 27.6115C57.4161 20.9926 57.4161 14.3737 57.4161 7.55431C56.5395 7.55431 55.6629 7.55431 54.7598 7.55431C54.7598 7.44212 54.7598 7.32994 54.7598 7.21436Z" fill="#002245"/>
<path d="M72.6914 7.21436C75.8143 7.21436 78.9372 7.21436 82.1547 7.21436C82.1547 7.32654 82.1547 7.43872 82.1547 7.55431C81.2781 7.55431 80.4015 7.55431 79.4984 7.55431C79.5124 9.51956 79.5282 11.4848 79.5461 13.45C79.5544 14.3627 79.5621 15.2753 79.5684 16.188C79.5745 17.0697 79.5822 17.9514 79.591 18.833C79.5941 19.1685 79.5966 19.5039 79.5985 19.8393C79.6014 20.3112 79.6062 20.783 79.6114 21.2549C79.6118 21.3918 79.6122 21.5288 79.6125 21.6698C79.6373 23.4221 79.9479 25.3447 81.0444 26.7404C82.0709 27.5713 82.7889 27.8994 84.0847 27.8664C84.2153 27.8643 84.3458 27.8621 84.4803 27.8599C86.1311 27.8019 87.658 27.4579 88.865 26.2377C89.9438 24.8988 90.1725 23.2863 90.1768 21.6022C90.1784 21.4495 90.1801 21.2968 90.1818 21.1394C90.1869 20.6391 90.1898 20.1389 90.1926 19.6385C90.1957 19.2899 90.1989 18.9412 90.2023 18.5926C90.2108 17.6783 90.2174 16.764 90.2236 15.8496C90.2303 14.9153 90.2387 13.981 90.2471 13.0467C90.2631 11.2159 90.2771 9.38511 90.2899 7.55431C89.468 7.55431 88.6462 7.55431 87.7995 7.55431C87.7995 7.44212 87.7995 7.32994 87.7995 7.21436C89.6623 7.21436 91.5251 7.21436 93.4443 7.21436C93.4443 7.32654 93.4443 7.43872 93.4443 7.55431C92.5677 7.55431 91.6911 7.55431 90.7879 7.55431C90.7898 7.74706 90.7916 7.93982 90.7935 8.13842C90.8104 9.96368 90.8228 11.7889 90.8309 13.6142C90.8353 14.5525 90.8411 15.4906 90.8506 16.4288C90.8596 17.3358 90.8646 18.2428 90.8667 19.1499C90.8682 19.4942 90.8712 19.8386 90.8757 20.1829C90.9047 22.4895 90.856 24.5959 89.4286 26.5173C87.9972 27.9954 85.8994 28.4808 83.9291 28.5145C81.2746 28.4478 78.6239 28.1129 76.676 26.0817C75.1732 24.0457 75.2794 21.6113 75.2991 19.1904C75.3001 18.8539 75.3008 18.5174 75.3013 18.1809C75.3032 17.3009 75.308 16.421 75.3136 15.5411C75.3187 14.6409 75.321 13.7407 75.3235 12.8405C75.3288 11.0784 75.3375 9.31637 75.3478 7.55431C74.4712 7.55431 73.5946 7.55431 72.6914 7.55431C72.6914 7.44212 72.6914 7.32994 72.6914 7.21436Z" fill="#002245"/>
<path d="M45.6289 7.5542C49.0562 7.5542 49.0562 7.5542 49.7795 8.2341C51.1534 9.76455 51.2144 11.7171 51.1602 13.7039C51.0691 14.8306 50.7445 15.6481 50.0804 16.5417C48.5911 17.6938 47.6727 17.5828 45.6289 17.5828C45.6289 14.2734 45.6289 10.9639 45.6289 7.5542Z" fill="#8090A2"/>
<path d="M87.7991 7.21436C89.6618 7.21436 91.5246 7.21436 93.4439 7.21436C93.4439 7.32654 93.4439 7.43872 93.4439 7.55431C92.5672 7.55431 91.6906 7.55431 90.7875 7.55431C90.7902 7.84344 90.7902 7.84344 90.7931 8.13842C90.81 9.96368 90.8224 11.7889 90.8305 13.6142C90.8348 14.5525 90.8406 15.4906 90.8501 16.4288C90.8592 17.3358 90.8641 18.2428 90.8662 19.1499C90.8678 19.4942 90.8707 19.8386 90.8752 20.1829C90.9043 22.4895 90.8556 24.5959 89.4282 26.5173C88.0518 27.9385 86.0217 28.4764 84.1155 28.4954C83.6275 28.4923 83.1401 28.4798 82.6523 28.4614C82.6523 28.4053 82.6523 28.3492 82.6523 28.2914C83.2276 28.2073 83.2276 28.2073 83.8145 28.1214C83.8145 28.0653 83.8145 28.0092 83.8145 27.9514C83.9889 27.9348 84.1633 27.9181 84.3431 27.901C86.1961 27.7066 87.8311 27.4115 89.1272 25.9117C89.9803 24.5963 90.1724 23.1457 90.1763 21.6022C90.1788 21.3732 90.1788 21.3732 90.1814 21.1394C90.1865 20.6391 90.1893 20.1389 90.1921 19.6385C90.1952 19.2899 90.1985 18.9412 90.2019 18.5926C90.2104 17.6783 90.217 16.764 90.2231 15.8496C90.2298 14.9153 90.2383 13.981 90.2466 13.0467C90.2626 11.2159 90.2767 9.38511 90.2894 7.55431C89.4676 7.55431 88.6458 7.55431 87.7991 7.55431C87.7991 7.44212 87.7991 7.32994 87.7991 7.21436Z" fill="#002245"/>
<path d="M19.7288 12.3135C19.8384 12.3135 19.9479 12.3135 20.0608 12.3135C20.0608 15.2864 20.0608 18.2592 20.0608 21.3222C19.9513 21.3222 19.8417 21.3222 19.7288 21.3222C19.6766 21.1745 19.6243 21.0268 19.5705 20.8747C18.8421 18.8021 18.8421 18.8021 17.2384 17.4128C16.797 17.2621 16.4945 17.2122 16.038 17.189C15.9048 17.1819 15.7716 17.1748 15.6343 17.1674C15.4959 17.1607 15.3576 17.1541 15.215 17.1472C15.0747 17.1398 14.9345 17.1325 14.7899 17.1249C14.444 17.1069 14.098 17.0898 13.752 17.0728C13.752 16.9045 13.752 16.7363 13.752 16.5629C13.9364 16.5605 14.1209 16.5581 14.311 16.5556C16.4048 16.5087 16.4048 16.5087 18.2346 15.543C19.0322 14.6472 19.3652 13.4448 19.7288 12.3135Z" fill="#002245"/>
<path d="M100.644 6.62992C100.839 6.62894 100.839 6.62894 101.038 6.62793C102.096 6.64889 103.016 6.87228 104.004 7.25177C104.715 7.52304 105.302 7.63846 106.061 7.55417C106.17 7.38589 106.28 7.21761 106.393 7.04424C106.557 7.04424 106.722 7.04424 106.891 7.04424C106.891 8.89528 106.891 10.7463 106.891 12.6534C106.727 12.6534 106.562 12.6534 106.393 12.6534C106.287 12.3672 106.287 12.3672 106.18 12.0751C105.423 10.0762 104.791 8.4541 102.779 7.53292C101.376 6.97038 99.8448 7.09775 98.4238 7.55417C98.369 7.38589 98.3143 7.21761 98.2578 7.04424C99.0558 6.72338 99.7947 6.63293 100.644 6.62992Z" fill="#002245"/>
<path d="M37.8243 35.77C37.9886 35.8261 38.153 35.8822 38.3223 35.94C38.2128 36.0031 38.1032 36.0662 37.9903 36.1312C37.608 36.4318 37.608 36.4318 37.5856 36.9599C37.6689 37.5448 37.7076 37.6324 38.1563 37.9797C38.6766 38.173 39.1958 38.3368 39.7274 38.4926C40.4147 38.7081 40.8762 38.9126 41.3108 39.5095C41.3901 40.2407 41.3966 40.6657 41.1136 41.3367C40.6325 41.9482 40.2445 42.3625 39.4644 42.4715C39.1918 42.4619 39.1918 42.4619 38.9138 42.4522C38.7325 42.448 38.5513 42.4439 38.3645 42.4396C37.8435 42.4005 37.3415 42.3266 36.8281 42.2291C36.8281 41.6121 36.8281 40.9951 36.8281 40.3594C37.1602 40.8693 37.1602 40.8693 37.3988 41.3049C37.6454 41.7597 37.6454 41.7597 38.1563 42.0591C38.9151 42.1707 39.5916 42.2017 40.2524 41.7829C40.5507 41.2553 40.5784 40.96 40.4806 40.3594C39.998 39.7444 39.5642 39.5556 38.8308 39.3501C38.0287 39.0905 37.4639 38.9055 36.9941 38.1497C36.8887 37.4698 36.829 37.0657 37.1822 36.4758C37.4092 36.195 37.4092 36.195 37.8243 35.77Z" fill="#8090A2"/>
<path d="M69.8691 38.3198C71.0197 38.3198 72.1702 38.3198 73.3556 38.3198C73.1511 40.4139 72.573 43.3705 71.0313 44.9489C70.8122 44.9489 70.593 44.9489 70.3672 44.9489C70.4669 44.3497 70.6918 44.0275 71.0728 43.5678C72.1171 42.227 72.6444 40.8299 73.0236 39.1697C72.615 39.1799 72.2074 39.1947 71.7992 39.2122C71.6832 39.2146 71.5672 39.217 71.4477 39.2195C71.0683 39.231 71.0683 39.231 70.5332 39.3397C70.2734 39.665 70.2734 39.665 70.2012 40.0196C70.0916 40.0196 69.982 40.0196 69.8691 40.0196C69.8691 39.4587 69.8691 38.8977 69.8691 38.3198Z" fill="#8090A2"/>
<path d="M67.3787 38.3198C68.1131 38.5496 68.4419 38.8636 68.8729 39.5097C69.3008 40.8238 69.1387 42.3552 68.5409 43.5891C68.0851 44.3436 67.5392 44.826 66.7146 45.1189C66.1788 45.0974 65.8535 45.0411 65.4072 44.7364C65.1583 44.34 65.1838 44.0508 65.2204 43.5891C65.4396 43.533 65.6587 43.4769 65.8845 43.4191C66.0474 43.938 66.0474 44.26 65.8845 44.7789C66.6553 44.7209 66.6553 44.7209 67.3476 44.4071C67.8672 43.5951 67.8946 42.8366 67.8768 41.8893C67.9316 41.7771 67.9864 41.665 68.0428 41.5494C68.1938 40.0556 68.1938 40.0556 67.7108 38.6916C67.6012 38.5689 67.4916 38.4462 67.3787 38.3198Z" fill="#8090A2"/>
<path d="M56.253 38.3198C56.3626 38.3759 56.4721 38.432 56.585 38.4898C56.4669 38.5897 56.4669 38.5897 56.3464 38.6916C56.0078 39.0427 56.0078 39.0427 55.9209 39.8496C56.5236 39.8496 57.1263 39.8496 57.7472 39.8496C57.5462 39.0665 57.5462 39.0665 57.2491 38.3198C57.8924 38.5334 58.243 38.7271 58.5773 39.3397C58.5773 39.564 58.5773 39.7884 58.5773 40.0196C57.7007 40.0196 56.8241 40.0196 55.9209 40.0196C55.9415 40.2615 55.962 40.5034 55.9832 40.7526C55.9948 40.8887 56.0063 41.0247 56.0182 41.1649C56.0696 41.5956 56.0696 41.5956 56.419 42.0593C56.9785 42.1474 57.3859 42.1847 57.8789 41.8681C58.1217 41.6602 58.3507 41.4357 58.5773 41.2094C58.3698 41.8304 58.2999 42.022 57.7472 42.3993C56.9743 42.5289 56.3862 42.4662 55.6823 42.1124C55.0595 41.537 54.9626 41.1307 54.8418 40.2958C54.9532 39.4687 55.3304 39.0443 55.9209 38.4898C56.0305 38.4337 56.1401 38.3776 56.253 38.3198Z" fill="#8090A2"/>
<path d="M61.8984 38.3198C62.6107 38.3198 63.3229 38.3198 64.0567 38.3198C63.8376 38.3759 63.6184 38.432 63.3926 38.4898C63.3926 39.6677 63.3926 40.8457 63.3926 42.0593C63.6118 42.0593 63.8309 42.0593 64.0567 42.0593C64.0567 42.1715 64.0567 42.2837 64.0567 42.3993C63.3445 42.3993 62.6323 42.3993 61.8984 42.3993C61.8984 42.2871 61.8984 42.1749 61.8984 42.0593C62.1176 42.0593 62.3367 42.0593 62.5625 42.0593C62.5625 40.8814 62.5625 39.7034 62.5625 38.4898C62.3434 38.4337 62.1242 38.3776 61.8984 38.3198Z" fill="#8090A2"/>
<path d="M44.9648 38.3198C45.4579 38.3198 45.951 38.3198 46.4591 38.3198C46.6089 39.1937 46.6217 39.9681 46.5524 40.8588C46.5438 40.9751 46.5351 41.0913 46.5262 41.2111C46.5049 41.4939 46.4821 41.7766 46.4591 42.0593C46.6782 42.0593 46.8974 42.0593 47.1231 42.0593C47.1231 42.1715 47.1231 42.2837 47.1231 42.3993C46.4109 42.3993 45.6987 42.3993 44.9648 42.3993C44.9648 42.2871 44.9648 42.1749 44.9648 42.0593C45.184 42.0593 45.4031 42.0593 45.6289 42.0593C45.6289 40.8814 45.6289 39.7034 45.6289 38.4898C45.4098 38.4337 45.1906 38.3776 44.9648 38.3198Z" fill="#8090A2"/>
<path d="M90.1234 23.1919C90.2056 23.3602 90.2056 23.3602 90.2894 23.5318C90.399 23.5318 90.5086 23.5318 90.6215 23.5318C90.4509 24.8851 89.8066 26.2087 88.7952 27.1013C86.8987 28.3773 84.8513 28.5442 82.6523 28.4612C82.6523 28.4051 82.6523 28.349 82.6523 28.2912C83.2276 28.207 83.2276 28.207 83.8145 28.1212C83.8145 28.0651 83.8145 28.009 83.8145 27.9512C83.9889 27.9346 84.1633 27.9179 84.3431 27.9008C86.1961 27.7064 87.8311 27.4113 89.1272 25.9115C89.6739 25.0685 89.9181 24.1728 90.1234 23.1919Z" fill="#002245"/>
<path d="M76.0099 38.3198C76.6355 38.3564 76.8395 38.4894 77.3069 38.936C77.626 39.3668 77.6744 39.5405 77.7531 40.1046C77.6342 40.9564 77.3779 41.4838 76.8192 42.123C76.1573 42.5061 75.5919 42.5425 74.8477 42.3993C74.3392 42.0593 74.3392 42.0593 74.0176 41.7193C74.0724 41.495 74.1272 41.2706 74.1836 41.0394C74.4028 41.0394 74.6219 41.0394 74.8477 41.0394C74.9573 41.376 75.0668 41.7125 75.1797 42.0593C75.6568 42.1303 75.6568 42.1303 76.1759 42.0593C76.7675 41.2823 76.755 40.6008 76.7356 39.6504C76.6576 39.0421 76.4591 38.7222 76.0099 38.3198Z" fill="#8090A2"/>
<path d="M51.9385 38.3198C52.1029 38.3759 52.2673 38.432 52.4366 38.4898C52.3283 38.5772 52.22 38.6646 52.1085 38.7547C51.6576 39.3117 51.6941 39.6558 51.7103 40.3702C51.7124 40.579 51.7145 40.7878 51.7167 41.0029C51.7333 41.5748 51.7333 41.5748 52.1046 42.0593C52.664 42.1474 53.0715 42.1847 53.5644 41.8681C53.8072 41.6602 54.0363 41.4357 54.2629 41.2094C54.0554 41.8304 53.9854 42.022 53.4327 42.3993C52.6598 42.5289 52.0718 42.4662 51.3678 42.1124C50.7451 41.537 50.6482 41.1307 50.5273 40.2958C50.6388 39.4687 51.0159 39.0443 51.6065 38.4898C51.7161 38.4337 51.8256 38.3776 51.9385 38.3198Z" fill="#8090A2"/>
<path d="M66.2173 38.3198C66.3817 38.3759 66.5461 38.432 66.7154 38.4898C66.6071 38.5476 66.4988 38.6055 66.3872 38.6651C65.9922 38.9896 65.9922 38.9896 65.9748 39.5893C65.9761 39.8178 65.981 40.0462 65.9891 40.2745C65.9893 40.3896 65.9895 40.5046 65.9897 40.6231C66.0005 41.2468 66.0378 41.5286 66.3834 42.0593C66.9757 42.1844 66.9757 42.1844 67.5455 42.2293C67.5455 42.2854 67.5455 42.3415 67.5455 42.3993C66.7348 42.4866 66.2288 42.4978 65.5636 41.9849C65.027 41.4519 64.8712 40.9782 64.8438 40.2201C64.9373 39.4563 65.3681 39.0078 65.8957 38.5004C66.0549 38.411 66.0549 38.411 66.2173 38.3198Z" fill="#8090A2"/>
<path d="M74.6836 35.6001C75.0157 35.7701 75.3477 35.94 75.6798 36.11C76.5995 36.1924 76.5995 36.1924 77.423 35.8551C77.5052 35.7709 77.5874 35.6868 77.672 35.6001C77.4109 36.322 76.9627 36.7115 76.3438 37.1299C75.7292 37.1086 75.2641 36.988 74.6836 36.7899C74.6894 36.9293 74.6952 37.0686 74.7011 37.2122C74.7079 37.487 74.7079 37.487 74.7147 37.7673C74.7205 37.9487 74.7263 38.1301 74.7323 38.3171C74.6788 38.8807 74.5555 39.0999 74.1855 39.5095C74.2629 38.1806 74.3889 36.898 74.6836 35.6001Z" fill="#8090A2"/>
<path d="M47.2891 38.3197C48.5121 38.2571 48.5121 38.2571 48.9675 38.5282C49.2813 38.8296 49.2813 38.8296 49.3567 39.1996C49.3533 39.3393 49.3498 39.4791 49.3462 39.6231C49.3441 39.7748 49.3419 39.9265 49.3397 40.0829C49.3341 40.2407 49.3286 40.3986 49.3228 40.5613C49.3199 40.7211 49.3169 40.8809 49.3138 41.0456C49.3059 41.4403 49.295 41.8346 49.2813 42.2291C49.0622 42.2291 48.843 42.2291 48.6172 42.2291C48.5625 41.1073 48.5077 39.9855 48.4512 38.8296C48.0677 38.7174 47.6842 38.6053 47.2891 38.4897C47.2891 38.4336 47.2891 38.3775 47.2891 38.3197Z" fill="#8090A2"/>
<path d="M43.1387 38.4897C43.3578 38.4897 43.577 38.4897 43.8028 38.4897C43.8028 39.7238 43.8028 40.9578 43.8028 42.2292C43.5836 42.2292 43.3645 42.2292 43.1387 42.2292C43.1387 40.9952 43.1387 39.7612 43.1387 38.4897Z" fill="#8090A2"/>
<path d="M72.8556 39.6797C72.9652 39.6797 73.0747 39.6797 73.1876 39.6797C72.9502 40.9023 72.5929 42.0346 72.1085 43.1748C72.0592 43.2922 72.01 43.4095 71.9593 43.5304C71.4745 44.6408 71.4745 44.6408 71.0293 44.9489C70.8102 44.9489 70.591 44.9489 70.3652 44.9489C70.465 44.3497 70.6898 44.0275 71.0708 43.5679C71.9954 42.3842 72.5606 41.162 72.8556 39.6797Z" fill="#8090A2"/>
<path d="M65.3867 43.4194C65.7291 43.4938 65.7291 43.4938 66.0508 43.5894C65.996 43.9821 65.9412 44.3747 65.8848 44.7792C66.6671 44.726 66.6671 44.726 67.3479 44.3755C67.5313 44.1186 67.7046 43.8542 67.8771 43.5894C67.9866 43.5894 68.0962 43.5894 68.2091 43.5894C68.1564 44.0936 68.0414 44.2711 67.6903 44.6411C67.0228 45.072 66.4341 45.2018 65.6565 45.0342C65.2214 44.623 65.2517 44.1719 65.2207 43.5894C65.2755 43.5333 65.3303 43.4772 65.3867 43.4194Z" fill="#8090A2"/>
<path d="M86.8029 27.7815C86.7481 27.8937 86.6933 28.0059 86.6369 28.1215C85.3186 28.5404 84.0188 28.4946 82.6523 28.4614C82.6523 28.4053 82.6523 28.3493 82.6523 28.2915C83.2276 28.2073 83.2276 28.2073 83.8145 28.1215C83.8145 28.0654 83.8145 28.0093 83.8145 27.9515C84.2502 27.89 84.686 27.83 85.1219 27.7709C85.2459 27.7533 85.3698 27.7356 85.4974 27.7175C86.4333 27.5923 86.4333 27.5923 86.8029 27.7815Z" fill="#002245"/>
<path d="M36.8281 40.3594C37.1602 40.8693 37.1602 40.8693 37.3988 41.3049C37.6454 41.7597 37.6454 41.7597 38.1563 42.0591C38.6121 42.1002 38.6121 42.1002 39.1006 42.0804C39.2656 42.0773 39.4306 42.0742 39.6006 42.0711C39.7266 42.0671 39.8527 42.0632 39.9826 42.0591C39.9826 42.1713 39.9826 42.2835 39.9826 42.3991C39.6436 42.4037 39.3046 42.407 38.9657 42.4097C38.7769 42.4117 38.5882 42.4137 38.3937 42.4157C37.8553 42.4 37.3562 42.3335 36.8281 42.2291C36.8281 41.6121 36.8281 40.9951 36.8281 40.3594Z" fill="#8090A2"/>
<path d="M74.1836 41.0396C74.4028 41.0396 74.6219 41.0396 74.8477 41.0396C74.9573 41.3761 75.0668 41.7127 75.1797 42.0594C75.3338 42.0594 75.4879 42.0594 75.6467 42.0594C75.9891 42.0594 76.3315 42.0594 76.6739 42.0594C76.2784 42.4643 76.1675 42.4538 75.6259 42.4631C74.8971 42.4511 74.5343 42.2656 74.0176 41.7195C74.0724 41.4951 74.1272 41.2707 74.1836 41.0396Z" fill="#8090A2"/>
<path d="M38.3242 35.6002C39.1795 35.5848 39.971 35.6262 40.8146 35.7702C40.8146 36.3311 40.8146 36.892 40.8146 37.4699C40.4825 37.2999 40.4825 37.2999 40.3372 36.8962C40.1179 36.3722 39.9739 36.2099 39.4864 35.9401C38.8799 35.8169 38.8799 35.8169 38.3242 35.7702C38.3242 35.7141 38.3242 35.658 38.3242 35.6002Z" fill="#8090A2"/>
<path d="M57.25 38.3198C57.8933 38.5334 58.2438 38.7271 58.5782 39.3397C58.5782 39.564 58.5782 39.7884 58.5782 40.0196C58.3042 40.0196 58.0303 40.0196 57.7481 40.0196C57.7275 39.8338 57.707 39.648 57.6858 39.4565C57.6228 38.8172 57.6228 38.8172 57.25 38.3198Z" fill="#8090A2"/>
<path d="M53.1016 38.3198C53.9109 38.6385 53.9109 38.6385 54.0977 38.8298C54.1044 39.113 54.1048 39.3964 54.0977 39.6796C53.8238 39.6796 53.5498 39.6796 53.2676 39.6796C53.271 39.5184 53.2744 39.3571 53.278 39.191C53.305 38.6756 53.305 38.6756 53.1016 38.3198Z" fill="#8090A2"/>
<path d="M67.711 43.5889C67.8754 43.5889 68.0397 43.5889 68.2091 43.5889C68.1563 44.0931 68.0413 44.2706 67.6903 44.6406C67.1337 44.9998 66.701 45.0664 66.0508 45.1187C66.0508 45.0065 66.0508 44.8943 66.0508 44.7787C66.2323 44.7401 66.4137 44.7016 66.6007 44.6618C67.3021 44.4063 67.3784 44.2359 67.711 43.5889Z" fill="#8090A2"/>
<path d="M74.5176 36.4502C74.8496 36.7901 74.8496 36.7901 74.8574 37.2025C74.8412 37.3644 74.8249 37.5263 74.8081 37.6931C74.7863 37.9341 74.7863 37.9341 74.764 38.1798C74.6832 38.6626 74.5454 39.0634 74.3516 39.5098C74.2968 39.5098 74.242 39.5098 74.1855 39.5098C74.2091 39.1591 74.2335 38.8086 74.2582 38.458C74.2717 38.2628 74.2851 38.0676 74.299 37.8664C74.3439 37.3823 74.4139 36.9241 74.5176 36.4502Z" fill="#8090A2"/>
<path d="M37.8262 35.77C37.9906 35.8261 38.1549 35.8822 38.3243 35.94C38.1651 36.0399 38.1651 36.0399 38.0026 36.1418C37.5875 36.5153 37.5524 36.7487 37.4942 37.2998C37.3298 37.3559 37.1654 37.412 36.9961 37.4698C37.0678 36.6621 37.2165 36.2935 37.8262 35.77Z" fill="#8090A2"/>
<path d="M43.1387 35.77C43.4674 35.8542 43.4674 35.8542 43.8028 35.94C43.8028 36.1644 43.8028 36.3887 43.8028 36.6199C43.5288 36.5638 43.2549 36.5077 42.9727 36.4499C43.0274 36.2256 43.0822 36.0012 43.1387 35.77Z" fill="#8090A2"/>
<path d="M71.8614 42.3994C71.9709 42.5677 72.0805 42.736 72.1934 42.9093C71.843 43.4475 71.5733 43.6225 71.0312 43.9292C71.28 43.4002 71.5624 42.9003 71.8614 42.3994Z" fill="#8090A2"/>
<path d="M90.1231 23.1919C90.1778 23.3041 90.2326 23.4163 90.2891 23.5318C90.3987 23.5318 90.5082 23.5318 90.6211 23.5318C90.5663 23.8123 90.5115 24.0928 90.4551 24.3817C90.2907 24.4378 90.1264 24.4939 89.957 24.5517C90.0118 24.103 90.0666 23.6542 90.1231 23.1919Z" fill="#002245"/>
</svg>
