<svg width="99" height="45" viewBox="0 0 99 45" fill="none" xmlns="http://www.w3.org/2000/svg">
<path d="M49.6197 35.5087C49.6409 35.3949 49.8002 35.2776 49.8958 35.3109L50.4848 35.5257C50.5588 35.5524 50.6158 35.6387 50.6056 35.7168C50.3107 37.8429 48.0297 40.1318 45.3194 40.1318C41.4054 40.1318 39.5216 37.2013 39.5632 34.3025C39.5956 31.4191 41.5387 28.4951 45.3194 28.4951C48.0535 28.4951 50.4398 30.5771 50.4398 33.4105C50.4398 33.5045 50.3609 33.5854 50.259 33.5854H41.7528C41.4379 36.1274 43.1026 38.8281 45.3364 38.8281C48.7143 38.8281 49.6197 35.5145 49.6197 35.5087ZM45.3047 29.8666C43.7321 29.8279 41.9986 30.6637 41.9506 32.4458L48.0599 32.4376C47.8817 30.8417 46.8925 29.9068 45.3047 29.8666Z" fill="#8090A2"/>
<path d="M71.9609 34.2807C71.9609 30.7588 70.1783 29.8897 68.2352 29.8897C66.3371 29.8897 64.7214 31.7924 64.7214 34.2486C64.7214 36.7031 66.3371 38.6198 68.2352 38.6198C70.1726 38.6198 71.9609 37.5827 71.9609 34.2807ZM62.3423 34.336C62.3423 31.1222 64.9907 28.502 68.2647 28.502C69.6757 28.502 70.9682 28.9826 71.9858 29.7864V28.877C71.9858 28.7675 72.0764 28.6812 72.1867 28.6986L74.5235 29.0159C74.7995 29.0519 74.9845 29.2206 74.9253 29.4644C74.8747 29.6242 74.7414 29.7624 74.5839 29.8196C74.3204 29.9578 74.189 30.2577 74.1263 30.5464C74.0689 30.8382 74.0746 31.0947 74.0746 31.0947V38.9867C74.0746 45.7189 65.71 45.3667 63.6042 42.3452C63.5943 42.3452 63.5751 42.2992 63.6042 42.2338L63.6359 42.1877C63.6567 42.137 63.6895 42.0863 63.7344 42.0186C63.83 41.8727 63.9353 41.6885 64.0561 41.5059C64.1773 41.3194 64.1932 41.278 64.2819 41.1518C64.3322 41.0818 64.3507 41.1023 64.3771 41.069C64.3907 41.0434 64.4088 41.0164 64.422 41.0067C64.5074 40.9494 64.578 41.0164 64.6014 41.069C66.0634 43.8355 72.0764 44.2449 72.0764 39.2146V38.5177C71.0667 39.3559 69.6893 40.0779 68.2647 40.0779C64.9907 40.0779 62.3423 37.5529 62.3423 34.336Z" fill="#8090A2"/>
<path d="M26.281 34.1782C20.9514 33.6376 19.958 36.6502 21.0847 38.0298C22.1302 39.3083 26.5695 39.9615 26.281 34.1782ZM20.095 31.4036C19.9927 31.7794 20.0501 32.0936 19.7137 31.9995C19.4928 31.9314 19.33 31.6532 19.2345 31.4555C19.1224 31.19 18.997 30.8611 18.9147 30.594C18.8724 30.4439 18.8407 30.3208 18.832 30.2276C18.8218 30.1699 18.8218 30.1181 18.8218 30.0701C18.8407 30.0287 18.8543 29.9424 18.9328 29.8894C22.8793 27.2796 28.2761 28.5237 28.2761 32.1017C28.2761 34.8345 28.2399 36.4869 28.3162 37.4988C28.3913 38.5104 28.582 38.7828 28.9565 38.9314C29.2201 39.0452 29.2329 39.7027 28.821 39.7383H26.6559C26.648 39.7383 26.6019 39.7259 26.5695 39.6717C26.5513 39.6554 26.5483 39.6373 26.5434 39.6133L26.5109 39.5691C26.4403 39.436 26.4403 39.2921 26.409 39.1702C26.369 39.0518 26.3127 38.9241 26.2844 38.8142C24.0668 41.0671 18.3706 40.816 18.3706 36.9308C18.3706 34.4932 20.4428 33.5513 22.3745 33.2065C23.3528 33.0339 24.3266 32.9937 25.0659 33.0006C25.425 33.0006 25.7271 33.0099 25.9434 33.0099C26.0408 33.0188 26.3304 33.0188 26.3852 33.0188C26.3852 28.4649 20.701 29.2927 20.095 31.4036Z" fill="#8090A2"/>
<path d="M12.3225 28.9827C12.1779 29.0964 12.0295 29.0724 11.9053 28.9885C11.7225 28.8619 11.6636 28.4111 11.5719 28.1158C10.1291 25.0909 3.25671 25.7243 3.53273 28.8066C3.61127 29.6393 4.51105 30.3614 5.41951 30.7039C5.87413 30.8761 6.41483 31.0108 6.95892 31.1362C7.53323 31.2523 8.14001 31.3614 8.74716 31.481C11.1244 31.9643 13.6588 32.472 13.6588 35.3627C13.6588 41.1263 4.26864 41.0733 0.469016 38.5003C0.416152 38.4635 0.383679 38.3668 0.411624 38.3049L1.15848 35.8987C1.2676 35.6707 1.50209 35.5361 1.74676 35.6959C1.93744 35.8178 1.97104 36.341 2.06204 36.7597C2.67335 39.3168 11.3744 39.9538 11.3744 36.4954C11.3744 35.4122 10.6128 34.5899 9.73303 34.189C9.29201 33.9855 8.76831 33.8334 8.19967 33.6999C7.63518 33.5784 7.02538 33.4758 6.41483 33.3562C3.98394 32.9 1.35822 32.2615 1.35822 29.1158C1.35822 24.7906 8.15398 23.4327 13.055 26.2773C13.1158 26.3176 13.1483 26.4139 13.1302 26.4774L12.5332 28.557C12.4864 28.7354 12.4214 28.8933 12.3225 28.9827Z" fill="#8090A2"/>
<path d="M14.9664 37.531V27.3567C14.9562 27.2611 14.9487 27.1539 14.9408 27.0324C14.9185 26.9268 14.8902 26.8231 14.843 26.7209C14.7591 26.5251 14.5847 26.3297 14.2026 26.185C13.72 26.0135 14.1093 25.2856 14.4008 25.2663C14.6187 25.2605 14.852 25.1893 15.1054 25.103C15.3614 25.0097 15.6261 24.9006 15.8504 24.8147C16.0837 24.7303 16.3182 24.6533 16.4888 24.6533C16.7131 24.6638 16.8793 24.8062 16.8793 25.0972V37.5597C16.9049 38.1692 16.988 38.7624 17.4101 38.8541C17.5691 38.8839 17.7273 39.0356 17.7855 39.2059C17.8576 39.4431 17.7183 39.6373 17.449 39.7074L17.4188 39.7144H14.5235C14.2169 39.7144 14.033 39.5692 14.0489 39.3405C14.0632 39.1382 14.2339 38.9497 14.4616 38.8634C14.7508 38.7519 14.9664 38.132 14.9664 37.531Z" fill="#8090A2"/>
<path d="M89.0152 37.506C89.0427 38.1403 89.1307 38.7474 89.5578 38.8407C89.7262 38.8809 89.8908 39.0245 89.9516 39.1994C90.0305 39.4417 89.881 39.6464 89.6129 39.7156L89.5812 39.7261H86.7746C86.4672 39.7261 86.272 39.5763 86.289 39.3406C86.2947 39.1464 86.4703 38.9432 86.7115 38.8484C87.0676 38.7137 87.2337 38.0934 87.2481 37.4723L87.3032 31.2304C87.2904 31.1279 87.2847 31.0211 87.267 30.8992C87.2481 30.792 87.2224 30.6786 87.1741 30.5703C87.082 30.3737 86.9083 30.1701 86.4986 30.0219C86.1353 29.8896 86.2158 29.2205 86.6511 29.2112C86.872 29.1915 87.1242 29.1272 87.3814 29.0317C87.6608 28.9388 87.9198 28.8227 88.1611 28.7352C88.3925 28.647 88.6402 28.5712 88.823 28.5712C89.0511 28.5789 89.0152 28.7259 89.0152 29.0158L88.9903 30.4C89.1307 30.1968 89.5287 29.7104 89.753 29.4894C90.3307 28.9086 91.2248 28.3835 92.467 28.6338C92.5735 28.6582 92.6207 28.7604 92.5969 28.8625L92.0483 30.775C92.0238 30.8671 91.9162 30.9247 91.8252 30.8853C89.2436 29.7712 89.0106 33.1862 89.0152 33.3228V37.506Z" fill="#8090A2"/>
<path d="M51.5797 37.735V32.2895C51.5797 31.2856 51.3811 30.7663 51.2062 30.5086C51.122 30.3739 51.0288 30.3062 50.9729 30.2656C50.9502 30.2578 50.9389 30.2474 50.9302 30.2404C50.7418 30.228 50.5692 30.0705 50.5062 29.9069C50.439 29.6395 50.6376 29.432 50.9684 29.3678L53.2795 28.7262C53.4196 28.6929 53.5242 28.7928 53.4925 28.929C53.44 29.254 53.4612 30.0094 53.4778 30.3383C55.1784 27.4906 61.3062 27.8249 61.3062 33.1795V37.735C61.3062 37.7783 61.2994 37.8727 61.3062 37.9919C61.3164 38.1026 61.3164 38.2349 61.3478 38.3626C61.3882 38.6351 61.4995 38.8146 61.6653 38.8649C61.9266 38.9435 62.0931 39.1377 62.1309 39.3351C62.1581 39.5514 62.021 39.7732 61.7472 39.7732H58.8519C58.5755 39.7732 58.3973 39.5766 58.4234 39.3351C58.4555 39.1203 58.6363 38.9319 58.9044 38.8649C59.0124 38.8409 59.0962 38.8073 59.1804 38.6888C59.2658 38.5511 59.3575 38.2705 59.3575 37.7264C59.3575 37.7264 59.4338 35.6008 59.3575 33.1865C59.1952 28.8628 53.7293 28.9216 53.4778 33.1865V37.735C53.4612 38.2601 53.5544 38.5244 53.653 38.6676C53.7372 38.7972 53.8425 38.8409 53.9347 38.8731C54.2881 38.9868 54.3991 39.1706 54.3893 39.3846C54.381 39.6319 54.2318 39.7937 53.8686 39.7732H51.1481C50.4926 39.7906 50.2929 39.1524 51.0288 38.8731C51.2289 38.7972 51.5797 38.2531 51.5797 37.735Z" fill="#8090A2"/>
<path d="M39.1736 29.1155C39.2008 29.2858 39.1241 29.4746 39.0739 29.5431L32.57 38.7357C33.588 38.7519 34.9858 38.7817 36.0638 38.6451C37.2494 38.4749 38.2504 37.8368 38.7261 36.9111C38.9055 36.5559 39.169 36.4166 39.3801 36.5377C39.5806 36.6503 39.655 36.932 39.5806 37.223C39.305 38.1932 38.8217 39.5971 38.8217 39.5971C38.7975 39.6652 38.7261 39.7144 38.6517 39.7144H29.936C29.9069 39.7144 29.8597 39.7144 29.8159 39.7074C29.7642 39.7074 29.6788 39.6958 29.615 39.6373C29.4312 39.5096 29.4617 39.2922 29.5595 39.0762L36.1971 29.8113C35.2739 29.7861 33.995 29.7389 33.0458 29.855C32.0059 29.9816 31.1903 30.5632 30.7663 31.4517C30.6406 31.7094 30.3804 31.8096 30.1648 31.7794C29.936 31.7489 29.7208 31.56 29.7812 31.2601C29.9677 30.2977 30.5333 28.8624 30.5333 28.8624C30.5477 28.8075 30.6349 28.7421 30.7047 28.7421H38.6801C38.9818 28.7258 39.1536 28.893 39.1736 29.1155Z" fill="#8090A2"/>
<path d="M92.5559 26.1704H18.4116V25.131H92.5559V26.1704Z" fill="#8090A2"/>
<path d="M92.4782 43.5225H74.7363V42.4784H92.4782V43.5225Z" fill="#8090A2"/>
<path d="M61.8469 43.5225H1.02686V42.4784H61.8469V43.5225Z" fill="#8090A2"/>
<path d="M85.1004 35.5087C85.1295 35.3949 85.2843 35.2776 85.3957 35.3109L85.9809 35.5257C86.0429 35.5524 86.0965 35.6387 86.0878 35.7168C85.7906 37.8429 83.524 40.1318 80.8046 40.1318C76.8872 40.1318 75.017 37.2013 75.0472 34.3025C75.0831 31.4191 77.0379 28.4951 80.8046 28.4951C83.5421 28.4951 85.9228 30.5771 85.9228 33.4105C85.9228 33.5045 85.8408 33.5854 85.7464 33.5854H77.2474C76.9321 36.1274 78.5924 38.8281 80.816 38.8281C84.1984 38.8281 85.1004 35.5145 85.1004 35.5087ZM80.7959 29.8666C79.2184 29.8279 77.4781 30.6637 77.4392 32.4458L83.5568 32.4376C83.3646 30.8417 82.3776 29.9068 80.7959 29.8666Z" fill="#8090A2"/>
<path d="M83.1422 4.4994C75.9186 5.25786 72.7786 4.0416 65.0959 3.48165C57.4268 2.91473 50.5072 3.40928 43.7311 3.38065C29.7805 3.29745 22.3315 1.44345 22.3315 1.44345L22.1767 0.804947L21.2252 1.18109C21.2252 1.18109 17.9516 2.50415 17.1126 3.23476C16.2687 3.96575 15.2715 5.77679 14.9082 6.64013C14.5401 7.50928 14.3502 8.59939 14.3502 8.59939L15.6381 9.85744C15.6381 9.85744 15.4376 9.25144 16.7074 8.49026C17.6015 7.94965 18.1804 8.42796 18.3333 8.9465C18.4892 9.46505 18.5508 9.86518 17.8662 10.2111C17.1877 10.554 16.1411 10.5285 16.1411 10.5285C16.1411 10.5285 16.9287 11.7292 18.7951 11.559C19.1946 11.5265 21.5896 10.4425 22.3112 9.99869C22.6959 9.75257 24.1187 12.9695 24.1288 14.0906C24.1387 15.8176 22.1465 18.9854 15.8503 20.1788C9.56354 21.3653 9.04626 21.2295 7.16136 22.0065C5.27571 22.7746 4.49939 23.3888 4.45899 23.835C4.44993 23.8957 11.3393 24.4766 11.3393 24.4766C12.8315 24.1167 16.6259 23.4495 19.6579 22.5699C23.9155 21.3455 34.9942 16.5386 40.9343 14.6772C46.5581 12.9099 50.6632 12.3646 55.4064 12.6719C61.5723 13.079 62.005 14.885 66.0127 16.4337C70.4912 18.1681 73.5255 17.8287 77.5252 19.6382C80.6886 21.0662 83.0032 22.0928 85.8279 23.2073C88.6964 24.3419 90.8581 24.6433 90.8898 23.7545C90.9212 22.8083 89.9836 23.4267 88.056 21.8997C86.3127 20.5236 79.3641 15.9202 76.9449 14.7503C74.5767 13.6053 74.7409 14.053 73.0815 12.6456C70.8983 10.7641 65.3587 7.00931 65.4448 5.57208C65.4773 5.11236 74.4355 6.33559 79.3301 6.37003C86.0061 6.42304 90.1898 3.52538 91.0288 2.984C91.5147 2.68023 91.3218 2.00418 90.8898 2.27352C90.4133 2.55601 87.3224 4.06134 83.1422 4.4994Z" fill="#8090A2"/>
<path d="M94.6242 43.0854V41.2415H93.9668V40.8058H95.8404V41.2415H95.183V43.0854H94.6242Z" fill="#8090A2"/>
<path d="M98.3441 43.0854H97.7891V41.5747L97.3843 42.5499H97.0014L96.5963 41.5747V43.0854H96.0703V40.8058H96.7156L97.2091 41.9315L97.7003 40.8058H98.3441V43.0854Z" fill="#8090A2"/>
</svg>
