<svg width="95" height="61" viewBox="0 0 95 61" fill="none" xmlns="http://www.w3.org/2000/svg">
<path d="M45.4552 0.980997C45.5039 0.980413 45.5039 0.980413 45.5536 0.979817C47.1547 0.964591 48.5897 1.20437 49.8022 2.34721C49.9746 2.52638 50.1176 2.72232 50.2564 2.92887C50.2781 2.96095 50.2997 2.99303 50.322 3.02607C50.6144 3.48903 50.7734 4.01626 50.881 4.55084C50.8898 4.5947 50.8987 4.63855 50.9078 4.68374C51.129 6.0346 50.8593 7.45481 50.6077 8.78378C50.6017 8.8158 50.5957 8.84781 50.5894 8.8808C50.085 11.5386 49.3353 14.1456 48.6287 16.7535C48.5624 16.9985 48.496 17.2434 48.4297 17.4884C48.4225 17.5149 48.4153 17.5413 48.408 17.5685C46.8171 22.9895 46.8171 22.9895 46.587 29.9089C46.849 30.3545 47.1919 30.6246 47.68 30.7793C48.2039 30.9064 48.7785 30.7991 49.2488 30.5419C49.5006 30.3805 49.7103 30.1762 49.9233 29.9669C50.0409 29.853 50.1644 29.7457 50.2869 29.6373C50.5369 29.3937 50.6145 29.2068 50.6932 28.8661C50.7042 28.8212 50.7151 28.7763 50.7264 28.73C50.7563 28.6071 50.7857 28.484 50.8149 28.3609C50.8656 28.1487 50.9181 27.9368 50.9703 27.7249C50.9838 27.6699 50.9973 27.6149 51.0108 27.5598C51.1564 26.9661 51.3129 26.3757 51.4726 25.7857C51.486 25.7364 51.4993 25.687 51.513 25.6362C51.5943 25.3353 51.6758 25.0345 51.7575 24.7337C51.8799 24.2825 52.0021 23.8313 52.124 23.38C52.1373 23.3309 52.1506 23.2818 52.1642 23.2312C52.5763 21.7052 52.9787 20.176 53.35 18.6392C53.3629 18.5861 53.3757 18.5331 53.3886 18.48C53.6401 17.4413 53.8718 16.3989 54.0819 15.3508C54.0929 15.2962 54.0929 15.2962 54.1041 15.2405C54.44 13.5623 54.699 11.873 54.8627 10.1684C54.8653 10.1404 54.868 10.1125 54.8708 10.0837C54.9329 9.42839 54.9487 8.77404 54.9529 8.1162C54.9533 8.08111 54.9537 8.04602 54.9541 8.00987C54.9626 7.08858 54.8092 6.2014 54.1675 5.50168C53.7969 5.15293 53.2996 4.99463 52.8035 4.97117C52.4932 4.94976 52.1968 4.90856 51.974 4.66952C51.8438 4.43297 51.8191 4.23017 51.8825 3.97181C51.9698 3.69839 52.0967 3.49658 52.2863 3.28491C52.3188 3.2483 52.3513 3.21169 52.3848 3.17396C53.1353 2.35806 54.1841 1.85451 55.214 1.50471C55.2457 1.49387 55.2774 1.48303 55.31 1.47187C55.6924 1.34342 56.0789 1.24327 56.4729 1.15855C56.5093 1.15069 56.5457 1.14283 56.5833 1.13473C57.138 1.02089 57.6794 0.976496 58.2442 0.977935C58.346 0.97806 58.4478 0.977128 58.5496 0.976129C59.9029 0.970966 61.2061 1.3318 62.2014 2.29591C62.2282 2.32013 62.2551 2.34436 62.2827 2.36931C63.0295 3.06943 63.3744 4.21653 63.4163 5.21774C63.5263 8.8282 62.1498 12.6518 60.8072 17.7915C60.0546 20.6124 60.0546 20.6124 59.425 23.4631C59.4195 23.4911 59.4141 23.519 59.4085 23.5478C59.3306 23.9521 59.2777 24.3567 59.2347 24.7661C60.0168 24.6794 60.7118 24.3842 61.3036 23.8562C61.3351 23.83 61.3666 23.8037 61.399 23.7766C61.9918 23.2672 62.5516 22.471 62.6698 21.6804C62.6979 21.272 62.6675 20.956 62.4599 20.5988C62.2902 20.2967 62.2558 19.9902 62.3417 19.6502C62.4463 19.4077 62.6453 19.2158 62.826 19.0299C62.8573 18.9976 62.8887 18.9653 62.921 18.9321C64.4204 17.4726 66.8916 16.7817 68.9202 16.8035C69.3555 16.8155 69.7667 16.8875 70.0867 17.2101C70.1057 17.2293 70.1248 17.2486 70.1445 17.2684C70.4521 17.6112 70.4585 18.0298 70.4433 18.4671C70.3606 19.8355 69.6082 21.1288 68.7594 22.1551C68.7289 22.193 68.6983 22.2308 68.6667 22.2698C68.4564 22.528 68.2361 22.776 68.0104 23.0205C67.985 23.0483 67.9595 23.076 67.9332 23.1046C67.7844 23.2643 67.6302 23.4126 67.4656 23.5556C67.3656 23.643 67.2699 23.7349 67.1736 23.8266C66.9433 24.0425 66.7007 24.2388 66.4517 24.4319C66.3769 24.4902 66.3029 24.5493 66.229 24.6086C65.5267 25.1679 64.7736 25.6474 64.0053 26.1068C63.8561 26.1962 63.7104 26.2884 63.5677 26.3881C63.8144 27.1438 64.1758 27.8577 64.6607 28.4848C64.6866 28.5193 64.7125 28.5538 64.7392 28.5894C65.6187 29.7374 66.7994 30.6183 68.2492 30.8098C69.0068 30.894 69.7088 30.7124 70.316 30.2477C70.3703 30.2015 70.424 30.1545 70.477 30.1067C70.5085 30.079 70.54 30.0514 70.5725 30.0228C70.7369 29.8758 70.8946 29.7241 71.0479 29.5653C71.5567 29.0442 71.5567 29.0442 71.8697 29.0358C71.8996 29.0367 71.9295 29.0377 71.9604 29.0386C71.9619 29.0144 71.9634 28.9901 71.965 28.9651C71.9898 28.6338 72.0472 28.3107 72.1117 27.9853C72.1175 27.9555 72.1234 27.9258 72.1295 27.8951C72.3199 26.9388 72.5873 26.0027 72.8517 25.0653C73.2316 23.7598 73.2316 23.7598 73.5218 22.4321C73.5284 22.3946 73.535 22.3572 73.5418 22.3186C73.707 21.3415 73.7319 20.3097 73.412 19.3637C73.3281 19.1128 73.2965 18.9218 73.4047 18.6738C73.7704 17.9494 74.5986 17.6464 75.3175 17.4079C76.6811 16.9806 78.1273 16.8083 79.551 16.805C79.6529 16.8046 79.7548 16.8034 79.8567 16.8021C80.4779 16.7981 81.123 16.8524 81.6023 17.3041C81.8232 17.5315 81.9021 17.8226 81.9438 18.1299C81.9509 18.1797 81.9509 18.1797 81.9581 18.2305C82.0553 18.9535 81.9106 19.6228 81.7371 20.3232C81.7303 20.3505 81.7236 20.3778 81.7166 20.406C81.5756 20.9754 81.4151 21.5382 81.2494 22.1007C81.1673 22.3796 81.0865 22.6588 81.0057 22.9381C80.9977 22.9658 80.9897 22.9935 80.9815 23.022C80.1922 25.7177 80.1922 25.7177 79.9066 28.5021C79.9062 28.551 79.9058 28.5999 79.9054 28.6504C79.9117 29.3083 80.0364 30.0173 80.5093 30.5023C80.8184 30.764 81.1443 30.8844 81.5468 30.872C82.0552 30.8202 82.5123 30.6492 82.9685 30.4232C83.0066 30.405 83.0446 30.3867 83.0838 30.3679C84.6128 29.5841 85.4543 27.8459 85.9726 26.2775C86.4942 24.6544 86.7526 22.9378 86.7665 21.2319C86.7672 21.154 86.7682 21.0761 86.7693 20.9982C86.769 20.5815 86.6881 20.2213 86.5443 19.8332C86.4015 19.4444 86.289 19.0137 86.4671 18.6145C86.5116 18.5426 86.5116 18.5426 86.5598 18.476C86.5813 18.4425 86.5813 18.4425 86.6031 18.4082C87.3112 17.4315 89.1167 17.1545 90.1907 16.9861C91.0087 16.8668 91.8281 16.804 92.6543 16.7997C92.683 16.7994 92.7117 16.799 92.7412 16.7987C93.3771 16.7933 94.1415 16.8395 94.625 17.3081C94.8707 17.5809 94.9703 17.9141 94.9916 18.2782C94.9947 18.3244 94.9947 18.3244 94.9978 18.3716C95.0193 19.0261 94.8775 19.6774 94.7363 20.3122C94.7296 20.3427 94.7229 20.3732 94.7159 20.4046C94.5678 21.0751 94.4066 21.7422 94.2439 22.4092C93.9621 23.5654 93.6866 24.7222 93.451 25.8892C93.4296 25.9953 93.4079 26.1013 93.3861 26.2074C93.1914 27.1593 93.0275 28.1141 92.8809 29.0748C92.4948 31.6012 92.0858 34.1262 91.5955 36.6342C91.5872 36.6768 91.5788 36.7195 91.5703 36.7635C90.8494 40.459 89.9031 44.1494 86.8331 49.6495C86.814 49.6749 86.7949 49.7004 86.7753 49.7267C86.5712 49.9982 86.36 50.2598 86.1318 50.5111C86.0603 50.5901 85.9915 50.6706 85.923 50.7522C85.6059 51.1197 85.2601 51.4451 84.8813 51.7462C84.8386 51.781 84.7961 51.816 84.7535 51.8509C83.8943 52.553 82.9263 53.0981 81.8755 53.4473C81.8425 53.4582 81.8094 53.4692 81.7753 53.4806C80.0973 54.0256 78.1409 54.1472 76.4495 53.6055C76.4205 53.5963 76.3914 53.5872 76.3614 53.5778C75.5008 53.3 74.7155 52.8392 73.9903 52.3C73.9678 52.2835 73.9454 52.267 73.9222 52.25C73.787 52.1503 73.654 52.0478 73.5218 51.944C73.5014 51.928 73.481 51.912 73.46 51.8956C73.1279 51.6355 72.8032 51.3666 72.4798 51.0956C71.8286 50.5502 71.1669 50.0253 70.477 49.5308C70.4422 49.5057 70.4422 49.5057 70.4067 49.4802C69.9237 49.1349 69.4066 48.8419 68.8953 48.5424C68.777 48.473 68.659 48.4032 68.5411 48.3333C68.0433 48.0397 67.5347 47.7691 67.0215 47.5043C66.9325 47.4583 66.8436 47.4121 66.7548 47.3658C63.7242 45.7855 60.4552 44.6098 52.4815 42.6869C52.4269 42.6774 52.4269 42.6774 52.3712 42.6677C49.978 42.2532 47.5512 42.0103 45.1238 41.9549C45.0205 41.9525 44.9171 41.95 44.8138 41.9474C41.5168 41.8674 38.2591 42.2046 32.4951 43.755C32.4659 43.7646 32.4366 43.7742 32.4066 43.7841C29.9121 44.6061 27.4486 45.6871 25.1777 47.0204C25.049 47.095 24.9188 47.1667 24.7883 47.2382C24.4566 47.4203 24.1307 47.6109 23.8071 47.8075C23.7698 47.8301 23.7325 47.8527 23.6941 47.876C23.0725 48.2562 22.4635 48.6556 21.86 49.0643C21.7552 49.1353 21.6503 49.206 21.5453 49.2767C20.9903 49.6516 20.4421 50.0358 19.906 50.4382C19.8602 50.4725 19.8602 50.4725 19.8135 50.5075C19.1192 51.0289 18.44 51.5691 17.7709 52.1231C17.7089 52.1743 17.6468 52.2254 17.5847 52.2764C17.3173 52.4964 17.0558 52.723 16.7949 52.9508C16.7255 53.0112 16.6559 53.0713 16.5861 53.1312C16.3124 53.3668 16.0456 53.6083 15.7828 53.8563C15.6961 53.9376 15.6088 54.0171 15.5193 54.0951C15.1437 54.425 14.7864 54.7755 14.4371 55.1337C14.3577 55.2131 14.2771 55.2878 14.1921 55.361C13.8805 55.6312 13.5909 55.933 13.326 56.2498C13.1996 56.3924 13.0636 56.5252 12.9291 56.6599C12.7895 56.8004 12.6571 56.9444 12.5297 57.0964C12.4669 57.1691 12.401 57.2367 12.333 57.3044C12.2146 57.4226 12.1047 57.546 11.9969 57.6742C11.9446 57.7346 11.8903 57.7933 11.8347 57.8506C11.5371 58.1627 11.4211 58.489 11.2918 58.8948C11.1335 59.3897 10.9603 59.888 10.486 60.1553C9.81907 60.4712 9.04829 60.379 8.37087 60.1329C7.43436 59.783 6.57008 59.2643 5.7945 58.6296C5.74506 58.5902 5.74506 58.5902 5.69462 58.5501C5.0749 58.0547 4.49938 57.5174 3.94029 56.9533C3.91135 56.9241 3.88241 56.895 3.85259 56.865C3.67215 56.6816 3.50168 56.492 3.33524 56.2956C3.2991 56.2541 3.26292 56.2127 3.22667 56.1713C2.88877 55.7816 2.58326 55.3692 2.28127 54.9505C2.26011 54.9214 2.23896 54.8923 2.21717 54.8622C0.891137 53.0296 -0.239796 50.6998 0.0440217 48.3662C0.244132 47.2124 0.842171 46.22 1.78038 45.5224C1.91802 45.4252 2.058 45.3317 2.19832 45.2385C2.22362 45.2216 2.24892 45.2047 2.27499 45.1872C3.07927 44.6491 3.90116 44.1474 4.75401 43.6917C4.84759 43.6417 4.94088 43.5911 5.03406 43.5404C5.22154 43.4386 5.4102 43.3393 5.59932 43.2407C5.64507 43.2169 5.69082 43.193 5.73795 43.1684C8.84003 41.5557 12.1589 40.336 16.7246 39.0869C16.7596 39.0778 16.7947 39.0686 16.8309 39.0592C20.13 38.2013 23.4915 37.6211 26.8739 37.2276C26.911 37.2232 26.9482 37.2189 26.9864 37.2145C30.2354 36.8381 33.5108 36.6798 38.5676 36.6886C38.616 36.6894 38.6644 36.6903 38.7142 36.6912C42.0621 36.7525 45.4102 36.9712 62.6698 40.2341C62.703 40.2447 62.7361 40.2552 62.7702 40.266C65.0015 40.9747 67.1669 41.8414 69.2669 42.8847C69.3111 42.9066 69.3554 42.9284 69.401 42.951C70.0325 43.264 70.651 43.5929 71.2577 43.9528C71.2956 43.9751 71.3334 43.9973 71.3724 44.0202C72.0466 44.4177 72.695 44.8498 73.3403 45.2932C73.4354 45.3584 73.5307 45.4233 73.626 45.4882C74.0269 45.7625 74.4128 46.0497 74.789 46.3578C75.8583 47.2333 76.9896 48.0849 78.4404 47.9879C79.7042 47.8373 80.7027 47.124 81.4852 46.1255C83.7882 43.095 84.6478 38.9197 85.5912 33.724C85.5987 33.6779 85.6061 33.6317 85.6138 33.5842C85.6347 33.4536 85.6554 33.323 85.6759 33.1923C85.6819 33.1545 85.6879 33.1167 85.694 33.0777C85.7327 32.8265 85.7592 32.5755 85.7791 32.3221C85.7469 32.3566 85.7147 32.3911 85.6815 32.4266C85.1309 33.0062 84.5154 33.4287 83.8273 33.8254C83.7868 33.849 83.7868 33.849 83.7456 33.8731C81.243 35.3217 77.8331 36.1807 74.9985 35.4397C74.369 35.2579 73.7888 34.9655 73.2876 34.5375C73.2559 34.5111 73.2242 34.4847 73.1915 34.4576C72.4317 33.8001 72.1111 32.9191 71.8823 31.9661C71.8528 31.996 71.8233 32.0259 71.793 32.0568C71.7348 32.1156 71.6766 32.1743 71.6179 32.2326C71.5017 32.3484 71.3906 32.4662 71.2846 32.5916C71.0262 32.8946 70.742 33.1741 70.438 33.4298C70.418 33.4466 70.3981 33.4634 70.3775 33.4808C68.6832 34.901 66.5367 35.9088 64.2922 35.7161C63.0287 35.579 61.9817 34.9461 61.1828 33.9554C60.1355 32.6097 59.6149 30.9325 59.1731 29.303C59.1644 29.2711 59.1558 29.2393 59.1469 29.2065C59.1041 29.0487 59.0617 28.8908 59.02 28.7328C58.9423 28.4413 58.8599 28.1631 58.7272 27.8914C58.6715 27.9977 58.6317 28.0985 58.6011 28.2148C58.5881 28.2637 58.5881 28.2637 58.5749 28.3136C58.5657 28.349 58.5565 28.3844 58.547 28.4209C58.5371 28.4585 58.5272 28.496 58.517 28.5346C58.4844 28.6589 58.4521 28.7832 58.4198 28.9076C58.4086 28.9505 58.3975 28.9933 58.386 29.0375C57.6672 31.6387 57.6672 31.6387 57.2833 34.3035C57.2601 34.6434 57.2161 34.9491 56.9828 35.2075C56.7234 35.3712 56.4654 35.4247 56.1633 35.4284C56.0941 35.4303 56.0248 35.4323 55.9556 35.4343C55.9185 35.4352 55.8814 35.4361 55.8432 35.437C54.7492 35.4644 53.6594 35.5505 52.5686 35.6357C52.4305 35.6464 52.2923 35.657 52.1542 35.6675C52.0594 35.6749 51.9645 35.6825 51.8697 35.6901C51.5755 35.7131 51.2825 35.729 50.9874 35.7304C50.9603 35.7307 50.9332 35.7309 50.9053 35.7311C50.5869 35.7299 50.3089 35.6565 50.0612 35.4474C49.7329 35.0576 49.773 34.5356 49.7807 34.0553C49.7813 33.9906 49.7818 33.9259 49.7823 33.8612C49.7835 33.7042 49.7856 33.5472 49.788 33.3902C49.7511 33.4218 49.7141 33.4535 49.6761 33.486C49.1044 33.9695 48.4964 34.3858 47.8362 34.7353C47.809 34.7498 47.7819 34.7643 47.7539 34.7793C45.9254 35.7434 43.5962 36.0494 41.6072 35.4389C40.1904 34.9743 39.1828 34.0992 38.504 32.7633C38.4458 32.6435 38.4047 32.5353 38.3895 32.4012C38.3637 32.4012 38.338 32.4012 38.3114 32.4012C38.301 32.4246 38.2906 32.448 38.2799 32.4721C38.2323 32.5614 38.1832 32.6205 38.1127 32.6922C38.0768 32.7289 38.0768 32.7289 38.0401 32.7663C38.0145 32.7919 37.9889 32.8175 37.9625 32.8438C37.9362 32.8703 37.9098 32.8968 37.8827 32.9241C37.6714 33.1342 37.4512 33.3236 37.2184 33.5089C37.1877 33.5357 37.157 33.5625 37.1254 33.59C35.3015 35.1748 32.8952 35.8789 30.5211 35.7039C28.9891 35.5712 27.5206 35.0156 26.4835 33.8254C26.2042 33.4719 26.0104 33.0851 25.8199 32.6781C25.794 32.6253 25.768 32.5726 25.7419 32.5199C25.7205 32.542 25.6991 32.5641 25.677 32.5869C24.893 33.3946 24.893 33.3946 24.5317 33.6672C24.4894 33.7003 24.4471 33.7334 24.4047 33.7665C23.0642 34.8025 21.4916 35.5009 19.8084 35.6847C19.7707 35.6891 19.7329 35.6935 19.694 35.698C18.0758 35.8556 16.2676 35.596 14.9727 34.5277C13.9945 33.6663 13.4558 32.6037 13.3615 31.2897C13.3523 31.1059 13.3579 30.9233 13.3675 30.7397C13.3691 30.7049 13.3708 30.67 13.3725 30.6342C13.4636 28.8802 14.0081 27.2597 14.5918 25.6227C15.2786 23.7961 15.2786 23.7961 15.0738 21.9159C14.8866 21.5405 14.6526 21.3479 14.2653 21.2057C13.7899 21.0647 13.2966 21.2513 12.8795 21.4803C12.229 21.8574 11.687 22.4483 11.2595 23.065C11.2441 23.087 11.2287 23.109 11.2129 23.1316C10.4266 24.262 9.87875 25.5226 9.41628 26.8171C9.3866 26.9001 9.35673 26.9831 9.32683 27.066C8.55999 29.2027 7.81163 31.5847 7.72922 33.8748C7.68583 34.8611 7.68583 34.8611 7.34862 35.2224C6.99248 35.4389 6.60105 35.4271 6.19878 35.437C5.52159 35.4544 4.84655 35.4933 4.17116 35.5446C4.13619 35.5472 4.10122 35.5499 4.06519 35.5526C3.71126 35.5796 3.35741 35.6073 3.00359 35.6357C2.86888 35.6464 2.73416 35.657 2.59945 35.6675C2.50702 35.6749 2.41463 35.6825 2.32223 35.6901C2.03134 35.7134 1.74209 35.7286 1.45022 35.7291C1.42288 35.7291 1.39555 35.7291 1.36738 35.7292C0.975 35.7266 0.686532 35.6397 0.397785 35.3633C0.2142 35.0576 0.145711 34.746 0.15137 34.3916C0.152139 34.3303 0.152139 34.3303 0.152924 34.2678C0.20587 32.362 0.824422 30.4156 1.25343 28.5695C2.54715 24.3057 2.54715 24.3057 2.44791 20.0192C2.10291 19.0647 2.10291 19.0647 2.30811 18.612C2.74722 17.8484 3.78647 17.5111 4.58153 17.2982C5.90624 16.9578 7.25035 16.806 8.61485 16.7997C8.6476 16.7994 8.68035 16.799 8.71409 16.7987C9.36697 16.7939 10.0249 16.8493 10.5349 17.314C10.9245 17.7582 10.9078 18.2538 10.8789 18.82C10.8372 19.3826 10.7139 19.9351 10.5759 20.4804C10.5551 20.5636 10.5362 20.6472 10.5178 20.731C10.5307 20.744 10.5436 20.7571 10.5569 20.7705C10.5736 20.7532 10.5902 20.7359 10.6074 20.7181C11.1823 20.1231 11.1823 20.1231 11.5062 19.8654C11.6017 19.7889 11.6937 19.7094 11.7854 19.6284C13.3516 18.2525 15.4077 17.1609 17.4662 16.8541C17.5049 16.848 17.5049 16.848 17.5443 16.8419C18.935 16.6534 20.5428 16.8165 21.7163 17.6403C22.4122 18.1849 22.8115 18.9137 22.9516 19.7901C23.057 20.6338 22.9819 21.5249 22.8142 22.3529C22.8066 22.3917 22.7991 22.4304 22.7913 22.4704C22.6433 23.219 22.421 23.9476 22.2066 24.6787C21.7678 26.1317 21.7678 26.1317 21.4479 27.6144C21.443 27.6427 21.4381 27.671 21.4331 27.7002C21.2853 28.5774 21.2944 29.4686 21.7779 30.2364C22.0144 30.5518 22.4474 30.7542 22.8297 30.8103C23.5294 30.8689 24.141 30.7468 24.69 30.2829C24.921 30.0755 25.1377 29.8518 25.353 29.628C25.4296 29.5529 25.4296 29.5529 25.5076 29.5133C25.5282 29.4162 25.5438 29.322 25.5569 29.2237C25.5659 29.1617 25.5749 29.0997 25.5839 29.0377C25.5908 28.9884 25.5908 28.9884 25.598 28.9381C25.7019 28.21 25.8396 27.4978 26.0151 26.7837C26.0269 26.7355 26.0387 26.6874 26.0508 26.6378C26.2289 25.9184 26.432 25.2066 26.6363 24.4945C26.6586 24.4169 26.6809 24.3393 26.7031 24.2617C26.7105 24.2362 26.7178 24.2106 26.7253 24.1843C27.211 22.5959 27.211 22.5959 27.396 20.9535C27.396 20.8948 27.396 20.8948 27.3959 20.8349C27.3906 20.5008 27.3339 20.2152 27.2252 19.9002C27.2079 19.8473 27.2079 19.8473 27.1902 19.7934C27.1707 19.7344 27.1511 19.6755 27.1313 19.6166C27.0227 19.2771 27.023 18.8975 27.1688 18.5714C27.6443 17.7679 28.7996 17.4537 29.6397 17.2358C30.8751 16.9276 32.1448 16.8072 33.4149 16.7972C33.4462 16.7967 33.4775 16.7962 33.5098 16.7957C34.139 16.7875 34.7876 16.847 35.2759 17.2892C35.5624 17.5865 35.6751 17.93 35.6787 18.3427C35.678 18.3826 35.6773 18.4225 35.6765 18.4637C35.6756 18.5286 35.6756 18.5286 35.6746 18.5949C35.6391 19.9671 35.1682 21.3452 34.8026 22.6575C33.6703 26.2805 33.6703 26.2805 34.1346 29.8694C34.398 30.3218 34.7685 30.6268 35.2666 30.7793C35.8274 30.9181 36.4035 30.7942 36.8961 30.5079C37.1034 30.3699 37.2871 30.2127 37.4693 30.0426C37.5307 29.9881 37.5307 29.9881 37.6539 29.8981C37.8992 29.7012 37.9795 29.5488 38.0191 29.24C38.036 29.0644 38.0494 28.8887 38.0631 28.7129C38.0888 28.4411 38.1337 28.1726 38.1797 27.9037C38.1847 27.8745 38.1896 27.8453 38.1948 27.8152C38.5522 25.7441 39.2074 23.7406 39.8274 21.7386C40.9352 18.1614 41.9936 14.5467 42.4976 8.27541C42.498 8.16546 42.4992 8.05554 42.5005 7.9456C42.5056 7.07103 42.3542 6.20214 41.7478 5.53506C41.3433 5.15582 40.8308 4.99468 40.2901 4.97117C39.989 4.95293 39.7561 4.92798 39.5435 4.69177C39.4055 4.5214 39.3903 4.3501 39.3938 4.13515C39.4308 3.79317 39.621 3.53986 39.8338 3.28491C39.8583 3.25238 39.8828 3.21984 39.9081 3.18632C40.0552 3.00809 40.2393 2.87357 40.4194 2.73107C40.4529 2.7044 40.4864 2.67773 40.5209 2.65025C41.2279 2.108 42.065 1.73078 42.9044 1.45553C42.9621 1.43663 43.0196 1.41743 43.077 1.39781C43.8305 1.14049 44.6593 0.988896 45.4552 0.980997Z" fill="#8090A2"/>
</svg>
