<svg width="153" height="47" viewBox="0 0 153 47" fill="none" xmlns="http://www.w3.org/2000/svg">
<path d="M11.7121 2.28537C11.9376 2.28497 11.9376 2.28497 12.1677 2.28456C12.6737 2.28395 13.1797 2.28499 13.6857 2.28602C14.0513 2.28591 14.4168 2.28571 14.7823 2.28542C15.7885 2.2849 16.7948 2.28583 17.801 2.28698C18.8854 2.28798 19.9698 2.28764 21.0542 2.28747C22.9336 2.28735 24.8131 2.28807 26.6925 2.28937C29.4098 2.29125 32.1271 2.29185 34.8445 2.29214C39.2529 2.29264 43.6614 2.29418 48.0699 2.29637C52.3528 2.29849 56.6358 2.30012 60.9188 2.3011C61.1827 2.30116 61.4466 2.30122 61.7185 2.30129C63.0424 2.30159 64.3663 2.30188 65.6902 2.30217C76.6771 2.30456 87.664 2.30863 98.651 2.31379C98.5416 2.63896 98.5416 2.63896 98.4301 2.9707C97.9992 4.33436 97.982 5.68637 98.5664 7.00517C99.1628 8.07328 99.926 8.69529 100.963 9.31478C102.379 9.67705 103.625 9.67336 104.939 8.98277C106.233 8.15357 106.863 7.05363 107.223 5.54723C107.308 4.36248 107.104 3.44394 106.772 2.31379C111.369 2.29216 115.965 2.27589 120.562 2.26592C122.697 2.26117 124.831 2.25469 126.966 2.2441C128.827 2.23486 130.689 2.22892 132.55 2.22687C133.535 2.22567 134.52 2.22287 135.504 2.21611C136.433 2.20979 137.362 2.20792 138.291 2.2093C138.63 2.20904 138.969 2.20724 139.308 2.20366C143.056 2.16609 146.354 3.15663 149.141 5.8215C152.414 9.42789 152.708 13.6619 152.687 18.3294C152.687 18.7969 152.688 19.2643 152.689 19.7318C152.691 20.7054 152.689 21.679 152.684 22.6526C152.679 23.8903 152.682 25.1278 152.688 26.3655C152.691 27.3289 152.69 28.2923 152.688 29.2558C152.687 29.7117 152.688 30.1676 152.69 30.6236C152.706 35.1335 152.173 39.2874 149.014 42.7174C145.625 45.8973 142.05 46.1347 137.696 46.1104C137.146 46.1116 136.595 46.1132 136.045 46.1154C134.851 46.1188 133.657 46.1187 132.463 46.1154C130.688 46.1105 128.912 46.1122 127.137 46.1152C123.966 46.1204 120.794 46.1191 117.623 46.1149C114.848 46.1113 112.073 46.11 109.297 46.1108C109.113 46.1109 108.929 46.1109 108.739 46.111C107.991 46.1112 107.243 46.1115 106.495 46.1117C99.4827 46.114 92.47 46.1098 85.4573 46.1025C79.2295 46.0961 73.0016 46.095 66.7738 46.0984C65.1788 46.0993 63.5838 46.1002 61.9888 46.101C61.6942 46.1012 61.6942 46.1012 61.3937 46.1013C56.1867 46.1039 50.9796 46.1022 45.7726 46.0992C45.2122 46.0989 44.6518 46.0985 44.0914 46.0982C43.7197 46.098 43.348 46.0978 42.9762 46.0976C40.2029 46.096 37.4296 46.0966 34.6563 46.0983C31.5026 46.1001 28.3488 46.0986 25.1951 46.0927C23.4309 46.0895 21.6667 46.0888 19.9025 46.0918C18.5845 46.0937 17.2665 46.0908 15.9485 46.086C15.4159 46.0848 14.8832 46.0852 14.3506 46.0872C10.1147 46.1024 6.65832 45.634 3.45234 42.5009C1.27619 39.9446 0.22533 37.2625 0.228556 33.8979C0.226283 33.5533 0.226283 33.5533 0.223964 33.2018C0.219698 32.4464 0.218798 31.6911 0.218312 30.9357C0.216861 30.407 0.215343 29.8783 0.213761 29.3496C0.211064 28.2425 0.210223 27.1353 0.210491 26.0281C0.210537 24.6158 0.204383 23.2036 0.196607 21.7914C0.191567 20.6994 0.190676 19.6074 0.190914 18.5154C0.190385 17.9951 0.188408 17.4748 0.184899 16.9544C0.15856 12.6443 0.506054 9.1534 3.50874 5.83594C5.18615 4.23742 7.13719 3.21772 9.31766 2.54475C9.44699 2.50377 9.57632 2.46278 9.70957 2.42056C10.3844 2.2794 11.0231 2.28514 11.7121 2.28537Z" fill="#8090A2"/>
<path d="M25.7863 15.9402C26.0393 15.7692 26.0393 15.7692 26.2974 15.5947C26.5196 15.4467 26.7417 15.2988 26.9706 15.1463C27.1905 14.9989 27.4103 14.8516 27.6368 14.6997C29.2918 13.7129 31.7588 13.8567 33.6105 14.2071C35.0043 14.6995 36.0185 15.5599 36.6851 16.8929C37.1655 17.9597 37.3191 18.8003 37.317 19.98C37.317 20.131 37.317 20.282 37.3171 20.4376C37.3169 20.9362 37.3151 21.4349 37.3134 21.9335C37.313 22.2794 37.3126 22.6254 37.3124 22.9713C37.3116 23.8814 37.3093 24.7916 37.3068 25.7017C37.3045 26.6306 37.3035 27.5594 37.3024 28.4883C37.2999 30.3106 37.2961 32.1329 37.2914 33.9551C36.398 33.9551 35.5047 33.9551 34.5843 33.9551C34.5825 33.7581 34.5806 33.561 34.5788 33.3579C34.5612 31.4991 34.5415 29.6403 34.5194 27.7815C34.5082 26.8259 34.4977 25.8703 34.4891 24.9147C34.4808 23.9922 34.4703 23.0697 34.4584 22.1473C34.4542 21.7956 34.4508 21.444 34.4482 21.0923C34.4444 20.5991 34.4378 20.106 34.4306 19.6129C34.4276 19.3323 34.4246 19.0518 34.4215 18.7628C34.3596 18.0292 34.236 17.5161 33.9075 16.8641C32.4977 16.011 30.7206 16.0053 29.1701 16.4022C28.425 16.764 27.7262 17.1876 27.1398 17.7879C27.1119 18.2908 27.0997 18.7946 27.0935 19.2982C27.0913 19.456 27.0891 19.6137 27.0868 19.7762C27.0796 20.2998 27.074 20.8234 27.0685 21.3471C27.0638 21.7092 27.0591 22.0713 27.0543 22.4335C27.0418 23.3884 27.0306 24.3433 27.0198 25.2983C27.0085 26.272 26.9959 27.2458 26.9834 28.2195C26.9591 30.1313 26.9363 32.0432 26.9142 33.9551C26.0209 33.9551 25.1276 33.9551 24.2072 33.9551C24.2059 33.7609 24.2045 33.5668 24.2032 33.3667C24.1901 31.535 24.1738 29.7034 24.154 27.8718C24.1439 26.9302 24.1351 25.9886 24.129 25.047C24.1232 24.1379 24.114 23.229 24.1027 22.32C24.0989 21.9735 24.0963 21.627 24.0949 21.2805C24.0927 20.7944 24.0864 20.3086 24.0791 19.8226C24.0754 19.408 24.0754 19.408 24.0715 18.9849C23.9563 18.0432 23.6533 17.4017 22.9471 16.7802C21.2294 15.8472 19.3571 15.9735 17.5038 16.407C17.3223 16.4492 17.1409 16.4913 16.954 16.5348C16.8164 16.5672 16.6789 16.5997 16.5371 16.6331C16.5376 16.8467 16.5381 17.0603 16.5387 17.2804C16.5432 19.2891 16.5466 21.2977 16.5488 23.3063C16.55 24.3391 16.5516 25.3719 16.5542 26.4047C16.5566 27.4005 16.558 28.3964 16.5586 29.3922C16.559 29.773 16.5598 30.1538 16.561 30.5346C16.5626 31.0661 16.5629 31.5976 16.5628 32.1291C16.5633 32.4322 16.5638 32.7353 16.5643 33.0476C16.5371 33.7242 16.5371 33.7242 16.3116 33.9551C15.4927 33.9551 14.6738 33.9551 13.8301 33.9551C13.8301 27.8578 13.8301 21.7604 13.8301 15.4783C17.7894 13.4515 22.128 13.0446 25.7863 15.9402Z" fill="#002245"/>
<path d="M67.9718 15.0161C68.1146 15.1042 68.2574 15.1924 68.4045 15.2832C68.7195 15.4898 69.0242 15.7128 69.3254 15.94C69.494 15.8259 69.6627 15.7119 69.8365 15.5944C70.0586 15.4464 70.2808 15.2985 70.5097 15.146C70.7296 14.9987 70.9494 14.8513 71.1759 14.6994C72.8277 13.7145 75.3749 13.7854 77.2078 14.2664C77.6969 14.4825 78.1295 14.7175 78.5745 15.0161C78.7839 15.1543 78.9933 15.2924 79.209 15.4347C80.3216 16.5738 80.797 17.8265 80.8575 19.429C80.857 19.6973 80.8565 19.9655 80.856 20.2419C80.8561 20.3907 80.8561 20.5396 80.8561 20.6929C80.856 21.1815 80.8542 21.6701 80.8524 22.1587C80.852 22.4988 80.8517 22.839 80.8515 23.1791C80.8506 24.0717 80.8484 24.9644 80.8459 25.857C80.8436 26.7689 80.8426 27.6808 80.8414 28.5927C80.839 30.3801 80.835 32.1675 80.8304 33.9549C79.9371 33.9549 79.0437 33.9549 78.1233 33.9549C78.1215 33.7578 78.1197 33.5607 78.1178 33.3576C78.1002 31.4988 78.0805 29.64 78.0585 27.7812C78.0472 26.8256 78.0368 25.87 78.0282 24.9144C78.0198 23.9919 78.0094 23.0695 77.9975 22.147C77.9933 21.7953 77.9899 21.4437 77.9872 21.092C77.9834 20.5988 77.9769 20.1057 77.9697 19.6126C77.9667 19.3321 77.9637 19.0515 77.9606 18.7625C77.8986 18.0286 77.7756 17.516 77.4466 16.8638C76.226 16.1065 74.6022 16.0622 73.2309 16.3297C72.2293 16.5919 71.418 17.031 70.6789 17.7876C70.6509 18.2905 70.6387 18.7943 70.6326 19.298C70.6304 19.4557 70.6281 19.6134 70.6258 19.7759C70.6187 20.2995 70.6131 20.8231 70.6075 21.3468C70.6029 21.7089 70.5981 22.0711 70.5933 22.4332C70.5808 23.3881 70.5697 24.3431 70.5588 25.298C70.5475 26.2717 70.535 27.2455 70.5225 28.2192C70.4982 30.1311 70.4753 32.043 70.4533 33.9549C69.56 33.9549 68.6666 33.9549 67.7462 33.9549C67.7449 33.7607 67.7436 33.5665 67.7422 33.3664C67.7292 31.5347 67.7129 29.7031 67.6931 27.8715C67.683 26.9299 67.6741 25.9883 67.6681 25.0467C67.6622 24.1377 67.6531 23.2287 67.6418 22.3197C67.638 21.9732 67.6354 21.6267 67.634 21.2802C67.6318 20.7942 67.6255 20.3083 67.6182 19.8224C67.6144 19.4077 67.6144 19.4077 67.6106 18.9847C67.5115 18.1745 67.3232 17.7417 66.8439 17.0948C64.645 15.7536 62.7828 16.1248 60.3018 16.6328C60.2274 22.3491 60.1529 28.0654 60.0762 33.9549C59.1829 33.9549 58.2895 33.9549 57.3691 33.9549C57.3691 27.8575 57.3691 21.7602 57.3691 15.478C60.4057 13.9236 64.8392 13.0506 67.9718 15.0161Z" fill="#002245"/>
<path d="M94.5902 15.0168C95.8164 16.0491 96.6097 17.324 96.846 18.9431C96.8651 19.4105 96.8726 19.8785 96.8717 20.3463C96.8716 20.6237 96.8716 20.901 96.8716 21.1868C96.8704 21.4839 96.8693 21.7811 96.8681 22.0873C96.8677 22.3963 96.8673 22.7053 96.8671 23.0144C96.8663 23.825 96.864 24.6356 96.8615 25.4463C96.8592 26.2746 96.8582 27.1029 96.8571 27.9312C96.8546 29.5544 96.8508 31.1776 96.846 32.8007C96.5613 32.9493 96.2762 33.0972 95.991 33.2449C95.8323 33.3274 95.6736 33.4098 95.51 33.4947C94.0681 34.2019 92.7012 34.2644 91.1358 34.2587C90.9359 34.2624 90.736 34.2661 90.53 34.27C88.5315 34.2715 86.6923 33.9259 85.2062 32.4796C84.0309 31.0987 83.907 29.4408 83.9231 27.6853C84.0865 26.0128 84.9417 24.5434 86.1737 23.4568C88.5126 21.662 91.5007 21.077 94.3646 21.0218C94.3127 20.5449 94.2552 20.0686 94.1954 19.5927C94.164 19.3274 94.1326 19.0622 94.1002 18.7889C93.8541 17.7751 93.4359 17.1871 92.6189 16.5668C91.8409 16.3164 91.0695 16.3145 90.2617 16.316C90.0903 16.3157 89.919 16.3154 89.7425 16.315C88.566 16.3377 87.6541 16.5162 86.6188 17.1243C86.2434 17.3264 86.2434 17.3264 85.5666 17.3264C85.101 16.3169 85.101 16.3169 85.1621 15.7016C85.3959 15.1086 85.6264 15.0069 86.187 14.7425C86.3393 14.6678 86.4917 14.5931 86.6487 14.5161C88.9036 13.6442 92.5885 13.5343 94.5902 15.0168Z" fill="#002245"/>
<path d="M51.2641 15.0455C52.3522 15.9415 53.0376 17.3238 53.3086 18.712C53.3281 19.1777 53.3351 19.644 53.3342 20.1101C53.3341 20.3921 53.3341 20.6741 53.3341 20.9647C53.3329 21.2681 53.3318 21.5715 53.3306 21.8841C53.3302 22.1986 53.3298 22.5132 53.3296 22.8277C53.3288 23.6539 53.3265 24.4801 53.324 25.3063C53.3217 26.1501 53.3207 26.9939 53.3196 27.8376C53.3172 29.4919 53.3133 31.1462 53.3086 32.8006C51.3165 33.8641 49.5956 34.2747 47.3445 34.2585C47.1572 34.2574 46.9699 34.2562 46.7769 34.2551C44.3744 34.208 42.8602 33.6983 41.1831 31.92C40.3726 30.4677 40.2127 28.6595 40.45 27.0265C41.0663 25.1497 41.9237 23.8477 43.6082 22.8693C43.7498 22.7826 43.8915 22.696 44.0374 22.6067C46.1605 21.411 48.4404 21.1342 50.8271 21.0216C50.7752 20.5447 50.7177 20.0684 50.6579 19.5925C50.6265 19.3272 50.5951 19.062 50.5627 18.7887C50.3503 17.9136 50.0986 17.4942 49.4735 16.8643C48.5592 16.3317 47.6276 16.3138 46.5973 16.3158C46.3577 16.3153 46.3577 16.3153 46.1133 16.3149C44.9576 16.3387 44.09 16.5444 43.0892 17.1241C42.7059 17.3262 42.7059 17.3262 42.0291 17.3262C41.5624 16.3144 41.5624 16.3144 41.629 15.7005C41.9094 14.9728 42.4027 14.8388 43.0716 14.5276C45.68 13.5366 48.8424 13.4809 51.2641 15.0455Z" fill="#002245"/>
<path d="M116.401 16.2005C117.9 17.0692 118.375 18.0757 118.823 19.7145C119.518 22.9869 119.713 27.3081 118.098 30.3242C117.502 31.1948 116.787 31.7694 115.795 32.1079C114.67 32.258 113.578 32.3582 112.541 31.8282C110.961 30.5305 110.441 28.7839 110.155 26.7958C110.097 25.8243 110.093 24.8531 110.085 23.8799C110.078 23.623 110.072 23.366 110.065 23.1013C110.05 21.0331 110.337 18.902 111.579 17.1965C113.052 15.8286 114.567 15.6275 116.401 16.2005Z" fill="#8090A2"/>
<path d="M133.001 16.082C134.251 16.6355 134.895 17.4429 135.423 18.7119C136.614 22.0752 136.596 26.5336 135.217 29.8286C134.642 30.972 133.905 31.7016 132.716 32.1076C131.528 32.2241 130.543 32.2627 129.459 31.7178C127.833 30.2157 127.181 28.5232 127.027 26.3145C126.995 25.4975 126.982 24.6828 126.978 23.8652C126.975 23.5991 126.973 23.3331 126.971 23.059C126.992 20.8598 127.268 18.8501 128.655 17.0952C130.008 15.8755 131.231 15.5906 133.001 16.082Z" fill="#8090A2"/>
<path d="M134.661 14.5545C136.431 15.6488 137.656 17.3697 138.262 19.3825C139.167 23.2106 139.102 27.857 137.116 31.3063C136.124 32.7579 134.894 33.8219 133.166 34.1861C130.945 34.3805 129.134 34.387 127.335 32.9221C125.219 30.9729 124.458 28.125 124.296 25.2959C124.184 22.0573 124.523 18.5291 126.624 15.9402C128.743 13.9027 131.966 13.2916 134.661 14.5545ZM128.387 17.3837C126.505 20.3066 126.61 24.7375 127.23 28.0485C127.669 29.6354 128.351 31.019 129.749 31.9126C130.925 32.3853 132.302 32.2485 133.477 31.8476C135.088 30.6693 135.605 29.2598 135.999 27.3358C136.423 24.0579 136.447 20.1636 134.675 17.2682C133.68 16.2264 132.743 15.9078 131.348 15.8392C130.012 15.8848 129.306 16.4157 128.387 17.3837Z" fill="#002245"/>
<path d="M119.04 15.2764C121.25 17.7543 121.79 20.6188 121.747 23.8941C121.745 24.1466 121.743 24.399 121.74 24.6592C121.689 27.463 121.365 30.1815 119.447 32.3386C117.719 34.0036 116.193 34.3145 113.842 34.2503C112.238 34.1137 111.1 33.544 109.922 32.4162C107.424 29.3638 107.189 25.4867 107.513 21.6684C107.838 19.245 108.612 16.6959 110.566 15.1564C113.264 13.2847 116.317 13.5212 119.04 15.2764ZM111.812 17.0095C110.211 19.0081 110.047 21.2596 110.073 23.7642C110.07 24.017 110.067 24.2697 110.065 24.5302C110.074 27.2874 110.512 29.5115 112.3 31.6168C113.16 32.3128 114.103 32.2395 115.156 32.1888C116.335 32.0395 116.928 31.6429 117.757 30.7941C119.709 28.1912 119.369 24.2036 119.111 21.1091C118.868 19.3792 118.46 17.8391 117.15 16.6477C115.541 15.5148 113.257 15.5614 111.812 17.0095Z" fill="#002245"/>
<path d="M101.358 14.3237C102.177 14.3237 102.996 14.3237 103.84 14.3237C103.85 16.9679 103.858 19.6121 103.863 22.2563C103.865 23.4843 103.869 24.7122 103.874 25.9401C103.879 27.1262 103.881 28.3122 103.882 29.4983C103.883 29.9497 103.885 30.4012 103.887 30.8526C103.891 31.4872 103.891 32.1217 103.891 32.7563C103.893 33.0334 103.893 33.0334 103.896 33.3161C103.887 35.8438 103.261 37.9436 101.534 39.8079C100.531 40.7545 99.6578 41.5415 98.2423 41.6059C98.0794 41.5964 97.9166 41.5869 97.7488 41.5771C97.5707 40.4023 97.5707 40.4023 97.7488 39.7294C98.2249 39.3145 98.7287 39.0239 99.2689 38.7027C100.545 37.8049 100.851 36.1281 101.133 34.6482C101.195 33.9559 101.203 33.2678 101.205 32.5728C101.207 32.3742 101.209 32.1757 101.211 31.9712C101.218 31.3214 101.222 30.6716 101.226 30.0218C101.23 29.5688 101.235 29.1157 101.239 28.6627C101.251 27.475 101.26 26.2874 101.268 25.0997C101.277 23.8859 101.289 22.6721 101.3 21.4582C101.322 19.0801 101.341 16.7019 101.358 14.3237Z" fill="#002245"/>
<path d="M94.3665 22.8691C94.3665 25.8416 94.3665 28.8141 94.3665 31.8766C93.1393 32.2356 92.2073 32.4167 90.9686 32.4107C90.8149 32.4144 90.6612 32.4181 90.5029 32.422C89.2784 32.4232 88.3824 32.1423 87.4534 31.3154C86.8721 30.5789 86.5369 30.0505 86.4709 29.1051C86.4476 28.8145 86.4244 28.5239 86.4004 28.2245C86.4266 26.9306 86.87 25.9249 87.7636 25.01C89.5776 23.5088 92.0584 22.8691 94.3665 22.8691Z" fill="#8090A2"/>
<path d="M50.8269 22.8691C50.8269 25.8416 50.8269 28.8141 50.8269 31.8766C49.0336 32.4012 46.4466 32.9202 44.6796 31.9488C43.7138 31.1173 43.0178 30.385 42.8775 29.0591C42.8361 27.6376 42.9779 26.5604 43.8336 25.4097C45 24.1963 46.3032 23.7112 47.8942 23.3311C48.08 23.2837 48.2658 23.2364 48.4573 23.1876C49.2865 22.9855 49.9653 22.8691 50.8269 22.8691Z" fill="#8090A2"/>
<path d="M107.556 4.89716C107.556 7.57562 105.435 9.74695 102.819 9.74695C100.203 9.74695 98.082 7.57562 98.082 4.89716C98.082 2.21869 100.203 0.0473633 102.819 0.0473633C105.435 0.0473633 107.556 2.21869 107.556 4.89716Z" fill="#002245"/>
</svg>
