<svg width="164" height="45" viewBox="0 0 164 45" fill="none" xmlns="http://www.w3.org/2000/svg">
<path fill-rule="evenodd" clip-rule="evenodd" d="M85.8669 21.3951C85.8669 30.3627 78.765 37.6336 70.006 37.6336C61.2469 37.6336 54.145 30.3627 54.145 21.3951C54.145 12.4275 61.2469 5.15654 70.006 5.15654C78.765 5.15654 85.8669 12.4275 85.8669 21.3951ZM57.6066 21.3951C57.6066 28.4078 63.1599 34.0932 70.0095 34.0932C76.859 34.0932 82.4123 28.4078 82.4123 21.3951C82.4123 14.3824 76.859 8.69695 70.0095 8.69695C63.1599 8.69695 57.6066 14.3824 57.6066 21.3951ZM44.7518 0.245871V37.0274H40.9609V21.248H30.1312V37.0274H26.3403V21.248H0V17.3668H26.3438V0.245871H30.1347V17.3704H40.9644V0.245871H44.7553H44.7518ZM101.143 37.031H97.3517V10.8922H90.8175V7.01104H107.673V10.8922H101.139V37.0274L101.143 37.031ZM121.846 0.0952148L124.533 2.84648L121.853 5.59057L119.165 2.8393L121.846 0.0952148ZM123.759 7.01104V37.0274H119.968V7.01104H123.759ZM148.203 37.6336C139.444 37.6336 132.342 30.3627 132.342 21.3951C132.342 12.4275 139.444 5.15654 148.203 5.15654C154.321 5.15654 159.629 8.70412 162.27 13.891L162.435 14.2138L159.369 15.8531L159.205 15.5303C157.134 11.4661 152.982 8.70054 148.203 8.70054C141.354 8.70054 135.801 14.386 135.801 21.3987C135.801 28.4114 141.354 34.0968 148.203 34.0968C153.403 34.0968 157.87 30.8218 159.713 26.173L159.846 25.8359L163.052 27.1666L162.919 27.5074C160.564 33.4512 154.857 37.6408 148.203 37.6408V37.6336ZM148.361 38.6237L151.048 41.3749L148.368 44.119L145.681 41.3678L148.361 38.6237Z" fill="#8090A2"/>
</svg>
