<svg width="178" height="46" viewBox="0 0 178 46" fill="none" xmlns="http://www.w3.org/2000/svg">
<path d="M24.5801 22.7842C21.9148 22.7842 19.6937 23.997 17.8872 26.2709L17.5614 26.6954L17.2357 26.1497C16.0511 23.8757 14.363 22.7842 11.8162 22.7842C7.3444 22.7842 5.74522 26.8167 5.74522 26.8167V23.2087H0V44.4627H5.74522C5.74522 44.0382 5.74522 32.5774 5.74522 32.5774C5.74522 29.5151 7.01865 27.9992 9.80241 27.9992C12.2604 27.9992 13.3265 29.3029 13.3265 32.1529C13.3265 32.1529 13.3265 43.917 13.3265 44.3414H18.9533C18.9533 43.917 18.9533 32.4561 18.9533 32.4561C18.9533 29.3939 20.2267 27.8779 22.892 27.8779C25.35 27.8779 26.505 29.1816 26.505 32.0317C26.505 32.0317 26.505 43.7957 26.505 44.2202H32.1318C32.1318 43.7957 32.1318 31.4859 32.1318 31.4859C32.3391 26.0587 29.3776 22.7842 24.5801 22.7842Z" fill="#8090A2"/>
<path d="M87.8952 27.5752C89.4944 27.5752 90.9751 28.4545 91.9524 29.7582C92.2782 29.4247 95.6839 26.4837 96.0096 26.1502C93.8774 23.3305 91.449 22.1177 87.9249 22.1177C81.6466 22.1177 77.0859 26.7869 77.0859 33.3359C77.0859 39.885 81.6466 44.6755 87.9249 44.6755C91.3305 44.6755 93.6701 43.584 95.8912 41.0675C95.5654 40.7339 92.367 37.702 92.0709 37.3685C91.1232 38.3387 89.9386 39.3392 87.9249 39.3392C84.9338 39.3392 83.0385 37.0653 83.0385 33.3359C82.9792 29.8795 84.9042 27.5752 87.8952 27.5752Z" fill="#8090A2"/>
<path d="M110.551 22.7842C104.806 22.7842 103.858 26.8167 103.858 26.8167C103.858 26.8167 103.858 12.9909 103.858 12.5361H98.1133V44.4627H103.858C103.858 44.0382 103.858 32.5774 103.858 32.5774C103.858 29.7577 105.458 27.9992 108.33 27.9992C110.788 27.9992 112.151 29.4242 112.151 32.1529C112.151 32.1529 112.151 43.917 112.151 44.4627H117.896C117.896 44.0382 117.896 31.7285 117.896 31.7285C117.896 26.2709 115.023 22.7842 110.551 22.7842Z" fill="#8090A2"/>
<path d="M132.882 31.3954C132.882 31.3954 139.16 23.8761 139.811 23.2394H133.652C133.533 23.4516 126.722 31.1832 126.722 31.1832V12.5669H120.977V44.4935H126.722C126.722 44.069 126.722 37.6412 126.722 37.6412L128.854 35.3673C128.854 35.3673 133.948 44.3116 134.066 44.5238H140.67C139.397 42.4621 133.237 32.0927 132.911 31.6683V31.3954H132.882Z" fill="#8090A2"/>
<path d="M148.427 23.2393H142.682V44.4933H148.427V23.2393Z" fill="#8090A2"/>
<path d="M34.8848 23.2393V35.3368C34.8848 40.673 39.1493 45.0391 44.3614 45.0391C49.5736 45.0391 53.8381 40.673 53.8381 35.3368V23.2393H48.2113V35.3368C48.2113 37.5198 46.5233 39.3693 44.2726 39.3693C42.1403 39.3693 40.3338 37.6411 40.3338 35.3368V23.2393H34.8848Z" fill="#8090A2"/>
<path d="M75.34 44.4629V32.3654C75.34 27.0291 71.0755 22.6631 65.8634 22.6631C60.6512 22.6631 56.3867 27.0291 56.3867 32.3654V44.4629H62.0135V32.3654C62.0135 30.1824 63.7015 28.3329 65.9522 28.3329C68.0845 28.3329 69.8909 30.0611 69.8909 32.3654V44.4629H75.34Z" fill="#8090A2"/>
<path d="M171.201 44.4629V32.3654C171.201 27.0291 166.937 22.6631 161.725 22.6631C156.513 22.6631 152.248 27.0291 152.248 32.3654V44.4629H157.875V32.3654C157.875 30.1824 159.563 28.3329 161.814 28.3329C163.946 28.3329 165.752 30.0611 165.752 32.3654V44.4629H171.201Z" fill="#8090A2"/>
<path d="M148.841 0.893555C152.129 0.893555 154.794 3.50104 155.001 6.89684C158.2 7.10908 160.865 9.83785 160.865 13.2033C160.865 16.6901 158.111 19.5098 154.705 19.5098H151.951H145.88H142.682V7.20004C142.682 3.7436 145.436 0.893555 148.841 0.893555ZM154.291 10.0501H151.833V7.65484C151.833 6.22981 150.648 5.04734 149.286 5.04734C147.894 5.04734 146.739 6.26013 146.739 7.65484V10.0501V15.3863H151.951H154.291C155.682 15.3863 156.837 14.1736 156.837 12.7789C156.837 11.3841 155.653 10.0501 154.291 10.0501Z" fill="#8090A2"/>
<path d="M175.333 44.7056C173.853 44.7056 172.668 43.6141 172.668 41.9768C172.668 40.3396 173.853 39.248 175.333 39.248C176.814 39.248 177.999 40.3396 177.999 41.9768C177.999 43.6141 176.814 44.7056 175.333 44.7056ZM175.333 39.6725C174.06 39.6725 173.112 40.6427 173.112 41.9465C173.112 43.3715 174.06 44.2205 175.333 44.2205C176.607 44.2205 177.554 43.2502 177.554 41.9465C177.584 40.5518 176.607 39.6725 175.333 39.6725ZM175.866 42.189L176.518 43.4928H176.103L175.452 42.28H174.8V43.4928H174.386V40.5518H175.57C176.103 40.5518 176.518 40.764 176.518 41.4311C176.518 41.7646 176.311 42.0678 175.866 42.189ZM175.541 40.764H174.8V41.7343H175.541C175.955 41.7343 176.192 41.613 176.192 41.1885C176.074 40.9763 175.985 40.764 175.541 40.764Z" fill="#8090A2"/>
</svg>
