<svg width="83" height="11" viewBox="0 0 83 11" fill="none" xmlns="http://www.w3.org/2000/svg">
<path fill-rule="evenodd" clip-rule="evenodd" d="M19.378 0.018925C19.4159 0.018925 19.4348 0.0756948 19.4348 0.132466C19.4348 0.227086 19.3591 0.397402 19.3213 0.775879C19.3023 0.908346 19.2834 1.51391 19.2456 1.6653C19.2266 1.74099 19.2077 1.81669 19.1509 1.81669C19.0752 1.81669 19.0374 1.74099 19.0374 1.64637C19.0374 1.55176 19.0185 1.32467 18.9617 1.15436C18.8671 0.946194 18.7157 0.775877 17.9777 0.700182C17.7506 0.681258 16.2177 0.662335 16.0663 0.662335C16.0096 0.662335 15.9907 0.700182 15.9907 0.794801V4.5228C15.9907 4.61742 16.0096 4.65527 16.0663 4.65527H16.4259C16.9936 4.65527 18.0344 4.65527 18.2804 4.63634C18.6211 4.61742 18.8103 4.57957 18.9239 4.4471C19.0185 4.33356 19.0752 4.27679 19.132 4.27679C19.1699 4.27679 19.2077 4.29571 19.2077 4.39033C19.2077 4.46603 19.132 4.69311 19.0942 5.14729C19.0752 5.41222 19.0374 5.92317 19.0374 6.01779C19.0374 6.13133 19.0374 6.28272 18.9428 6.28272C18.8671 6.28272 18.8482 6.22595 18.8482 6.16918C18.8482 6.03671 18.8482 5.90424 18.7914 5.715C18.7346 5.52576 18.6021 5.29868 18.0723 5.24191C17.6938 5.20406 16.3124 5.16621 16.0853 5.16621C16.0096 5.16621 15.9907 5.20406 15.9907 5.26083V6.45303C15.9907 6.90721 15.9717 8.47789 15.9907 8.76174C16.0285 9.67009 16.2367 9.85933 17.4856 9.87825H17.5992C17.9587 9.87825 18.5643 9.87825 18.9428 9.72686C19.3023 9.57547 19.4726 9.31054 19.5673 8.76174C19.5862 8.61035 19.624 8.55358 19.6997 8.55358C19.7754 8.55358 19.7754 8.66712 19.7754 8.76174C19.7754 8.87529 19.6619 9.78363 19.5862 10.0675C19.4916 10.427 19.378 10.427 18.8292 10.427C16.8044 10.427 15.8582 10.3513 15.4419 10.3513H15.404C15.3851 10.3513 15.1391 10.3703 14.8552 10.3703C14.5903 10.3892 14.3254 10.3892 14.0415 10.3892C13.8901 10.3892 13.8144 10.3703 13.8144 10.2757C13.8144 10.2378 13.8333 10.2 13.928 10.2C14.0604 10.2 14.2118 10.181 14.3443 10.1432C14.6281 10.0864 14.6849 9.78363 14.7417 9.40515C14.7984 8.91313 14.8174 8.08048 14.8174 7.03967V2.97104C14.8174 1.81669 14.8174 1.51391 14.7985 1.17328C14.7795 0.719106 14.666 0.492021 14.1929 0.397402C14.0793 0.378478 13.8523 0.359552 13.7198 0.359552C13.663 0.359552 13.6062 0.340629 13.6062 0.283858C13.6062 0.208162 13.6819 0.170313 13.8333 0.170313C14.4389 0.170313 15.2526 0.208164 15.3851 0.208164H15.8771C16.7098 0.208164 18.3561 0.208162 18.5832 0.189239C18.8482 0.170315 19.0752 0.151392 19.1888 0.113544C19.2645 0.0756966 19.3213 0.018925 19.378 0.018925ZM0.227086 0.34063C0.851573 0.34063 1.72207 0.378477 1.77884 0.378477C2.10055 0.378477 2.64934 0.34063 3.27383 0.34063C5.54469 0.34063 6.03671 1.6653 6.03671 2.32763C6.03671 3.40629 5.3933 4.06863 4.73096 4.71204C5.75285 5.01482 7.11537 5.96101 7.11537 7.51277C7.11537 8.93206 5.96101 10.3892 3.59553 10.3892C3.27383 10.3892 1.87346 10.3135 1.75992 10.3135C1.68422 10.3135 0.813725 10.3513 0.416324 10.3513C0.264933 10.3513 0.189239 10.3324 0.189239 10.2378C0.189239 10.2 0.208162 10.1621 0.302781 10.1621C0.435248 10.1621 0.58664 10.1432 0.719107 10.1053C1.00296 10.0486 1.05974 9.76471 1.11651 9.36731C1.17328 8.87529 1.1922 7.96694 1.1922 6.86936V3.42522C1.1922 2.00593 1.1922 1.68422 1.17328 1.30574C1.15435 0.851572 1.04081 0.64341 0.586639 0.548791C0.473096 0.529867 0.24601 0.510943 0.113543 0.510943C0.0567713 0.510943 0 0.492021 0 0.435249C0 0.359554 0.0756948 0.34063 0.227086 0.34063ZM73.2164 0.018925C73.3299 0.018925 73.557 0.321704 73.6895 0.454171C73.8976 0.681257 75.9414 2.83858 78.042 5.03375C79.4045 6.45303 80.8995 8.08048 81.3347 8.51573L81.1833 1.74099C81.1644 0.870497 81.0698 0.586639 80.6535 0.473096C80.4264 0.435249 80.1993 0.416326 79.9911 0.397402C79.8965 0.397402 79.8776 0.359554 79.8776 0.302783C79.8776 0.227087 79.9911 0.208164 80.1614 0.208164C80.7859 0.208164 81.4293 0.246011 81.5807 0.246011C81.7321 0.246011 82.1863 0.208164 82.754 0.208164C82.9054 0.208164 83 0.227087 83 0.302783C83 0.359554 82.9432 0.397402 82.8486 0.397402C82.7729 0.397402 82.6783 0.397401 82.5269 0.435249C82.0727 0.529868 82.016 0.813727 82.016 1.62745L81.997 9.443C81.997 10.3324 81.9781 10.3892 81.8646 10.3892C81.751 10.3892 81.5996 10.2378 80.8616 9.53762C80.7102 9.40515 78.7421 7.43707 77.285 5.92317C76.0739 4.65527 74.8817 3.38737 73.7084 2.10055L73.8787 8.49681C73.8976 9.59439 74.049 9.93502 74.4086 10.0486C74.6357 10.1053 74.8627 10.1243 75.0898 10.1243C75.1655 10.1243 75.2034 10.1432 75.2034 10.2C75.2034 10.2757 75.1277 10.3135 74.9574 10.3135C74.1815 10.3135 73.6327 10.2757 73.5002 10.2757C73.3678 10.2757 72.8 10.3135 72.1756 10.3135C72.0431 10.3135 71.9485 10.2946 71.9485 10.2C71.9485 10.1432 71.9863 10.1243 72.062 10.1243C72.1756 10.1243 72.4216 10.1053 72.6297 10.0486C72.9704 9.95395 73.0461 9.57547 73.0461 8.34542L73.065 0.700182C73.065 0.15139 73.1028 0.018925 73.2164 0.018925ZM50.6781 0.018925C50.7727 0.018925 50.8105 0.132467 50.8484 0.378477L51.7567 8.6482C51.8135 9.14022 51.9081 9.87825 52.4948 10.0675C52.8922 10.181 53.2517 10.181 53.3842 10.181C53.4599 10.181 53.4977 10.2 53.4977 10.2567C53.4977 10.3324 53.3842 10.3703 53.2139 10.3703C52.9111 10.3703 51.435 10.3324 50.943 10.2946C50.6213 10.2757 50.5645 10.2378 50.5645 10.1621C50.5645 10.1053 50.5835 10.0864 50.6591 10.0675C50.7348 10.0486 50.7348 9.82148 50.7159 9.57547L50.0536 2.63041H50.0157L46.6851 9.63224C46.4013 10.2189 46.3634 10.3513 46.231 10.3513C46.1363 10.3513 46.0607 10.2189 45.8146 9.72686C45.4551 9.06452 44.2818 6.73689 44.225 6.60442C44.0926 6.35841 42.5787 3.12244 42.4273 2.76288H42.3705L41.8217 9.00775C41.8028 9.21592 41.8028 9.46192 41.8028 9.68901C41.8028 9.89717 41.9542 10.0675 42.1623 10.1053C42.3894 10.1621 42.5976 10.181 42.6733 10.181C42.7301 10.181 42.7868 10.2 42.7868 10.2567C42.7868 10.3513 42.7111 10.3703 42.5408 10.3703C42.0299 10.3703 41.3865 10.3324 41.2729 10.3324C41.1594 10.3324 40.497 10.3703 40.1375 10.3703C40.005 10.3703 39.9104 10.3513 39.9104 10.2567C39.9104 10.2189 39.9672 10.181 40.0429 10.181C40.1564 10.181 40.251 10.181 40.4592 10.1432C40.9134 10.0675 40.9512 9.53762 41.008 9.02668L41.992 0.246011C42.0109 0.0946198 42.0677 0 42.1434 0C42.2191 0 42.2759 0.0567727 42.3516 0.208164L46.5148 8.68605L50.5267 0.227086C50.5267 0.113543 50.5835 0.018925 50.6781 0.018925ZM65.0791 0.018925C65.117 0.018925 65.1359 0.0756948 65.1359 0.132466C65.1359 0.227086 65.0602 0.397402 65.0224 0.775879C65.0034 0.908346 64.9845 1.51391 64.9467 1.6653C64.9277 1.74099 64.9088 1.81669 64.852 1.81669C64.7763 1.81669 64.7385 1.74099 64.7385 1.64637C64.7385 1.55176 64.7196 1.32467 64.6628 1.15436C64.5682 0.946194 64.4357 0.775877 63.6788 0.700182C63.4327 0.681258 61.9188 0.662335 61.7674 0.662335C61.7107 0.662335 61.6918 0.700182 61.6918 0.794801V4.5228C61.6918 4.61742 61.7107 4.65527 61.7674 4.65527H62.127C62.6947 4.65527 63.7355 4.65527 63.9815 4.63634C64.3222 4.61742 64.5114 4.57957 64.6439 4.4471C64.7385 4.33356 64.7953 4.27679 64.852 4.27679C64.8899 4.27679 64.9277 4.29571 64.9277 4.39033C64.9277 4.46603 64.852 4.69311 64.8142 5.14729C64.7763 5.41222 64.7574 5.92317 64.7574 6.01779C64.7574 6.13133 64.7574 6.28272 64.6628 6.28272C64.5871 6.28272 64.5682 6.22595 64.5682 6.16918C64.5682 6.03671 64.5682 5.90424 64.5114 5.715C64.4546 5.52576 64.3222 5.29868 63.7923 5.24191C63.4138 5.20406 62.0324 5.16621 61.8053 5.16621C61.7296 5.16621 61.7107 5.20406 61.7107 5.26083V6.60442C61.7107 7.19106 61.6918 8.51573 61.7107 8.78067C61.7485 9.68901 61.9567 9.87825 63.2057 9.89717H63.3192C63.6788 9.89717 64.2843 9.89717 64.6628 9.74578C65.0224 9.59439 65.1927 9.32946 65.2873 8.78067C65.3062 8.62927 65.3441 8.5725 65.4198 8.5725C65.4954 8.5725 65.4954 8.68605 65.4954 8.78067C65.4954 8.89421 65.3819 9.80256 65.3062 10.0864C65.2116 10.446 65.098 10.446 64.5493 10.446C62.5055 10.446 61.5782 10.3703 61.1619 10.3703H61.124C61.1051 10.3703 60.8591 10.3892 60.5752 10.3892C60.2914 10.4081 59.9697 10.4081 59.7615 10.4081C59.6101 10.4081 59.5344 10.3892 59.5344 10.2946C59.5344 10.2567 59.5534 10.2189 59.648 10.2189C59.7804 10.2189 59.9318 10.2 60.0643 10.1621C60.3482 10.1053 60.4049 9.80256 60.4617 9.42408C60.5185 8.89421 60.5374 7.89125 60.5374 6.68012V3.63338C60.5374 1.93023 60.5374 1.57068 60.5185 1.17328C60.4995 0.719106 60.386 0.492021 59.9129 0.397402C59.7994 0.378478 59.5723 0.359552 59.4398 0.359552C59.383 0.359552 59.3263 0.340629 59.3263 0.283858C59.3263 0.208162 59.402 0.170313 59.5534 0.170313C60.1589 0.170313 60.9726 0.208164 61.1051 0.208164H61.5971C62.4298 0.208164 64.0762 0.208162 64.3032 0.189239C64.5682 0.170315 64.7953 0.151392 64.9088 0.113544C64.9656 0.0756966 65.0223 0.018925 65.0791 0.018925ZM27.4396 0.378477C27.5342 0.378477 28.0451 0.34063 28.575 0.34063C28.7264 0.34063 28.7453 0.378478 28.7453 0.435249C28.7453 0.492021 28.6696 0.492019 28.5372 0.548791C28.4236 0.605562 28.3668 0.681258 28.3668 0.794801C28.3668 0.946192 28.4236 1.11651 28.5372 1.30574C28.7453 1.68422 30.7702 5.12836 31.0162 5.50684C31.2622 4.93913 32.9843 2.04377 33.2492 1.5896C33.4195 1.30574 33.4763 1.07866 33.4763 0.908345C33.4763 0.719107 33.4195 0.567716 33.2681 0.529868C33.1546 0.492021 33.06 0.473097 33.06 0.397402C33.06 0.34063 33.1357 0.321705 33.2681 0.321705C33.6088 0.321705 34.044 0.359552 34.1576 0.359552C34.2332 0.359552 35.1984 0.321705 35.4633 0.321705C35.5579 0.321705 35.6336 0.34063 35.6336 0.397402C35.6336 0.473097 35.5768 0.510943 35.4633 0.510943C35.3119 0.510943 35.0659 0.567715 34.8388 0.700182C34.5739 0.851573 34.4225 1.02189 34.1197 1.38144C33.6655 1.91131 31.7921 5.03375 31.5461 5.60146C31.3379 6.07456 31.3379 6.49088 31.3379 6.92613V8.06156C31.3379 8.26972 31.3379 8.83744 31.3757 9.38623C31.3947 9.76471 31.5271 10.0675 31.9245 10.1243C32.1138 10.1432 32.4166 10.181 32.5301 10.181C32.6058 10.181 32.6436 10.2189 32.6436 10.2567C32.6436 10.3324 32.5679 10.3703 32.4355 10.3703C31.7353 10.3703 30.9216 10.3324 30.7891 10.3324H30.7702C30.6945 10.3324 29.8618 10.3703 29.4455 10.3703C29.2941 10.3703 29.2373 10.3513 29.2373 10.2567C29.2373 10.2189 29.2563 10.181 29.3509 10.181C29.4644 10.181 29.6347 10.1621 29.7483 10.1243C30.0132 10.0675 30.1457 9.78363 30.1646 9.38623C30.2025 8.95098 30.2025 8.49681 30.2025 8.23187V6.92613C30.2025 6.20702 30.07 5.92316 29.8997 5.52576C29.8051 5.3176 28.0073 2.38441 27.5342 1.70315C27.1936 1.21113 26.8529 0.870498 26.6259 0.719107C26.4177 0.58664 26.1717 0.510943 26.0392 0.510943C25.9635 0.510943 25.9067 0.49202 25.9067 0.416324C25.9067 0.359553 25.9635 0.321705 26.0771 0.321705C26.3609 0.340629 27.3639 0.378477 27.4396 0.378477ZM2.40333 4.88235H2.34656C2.28979 4.88235 2.27086 4.90128 2.27086 4.97697V6.52873C2.27086 7.41815 2.27086 8.38327 2.28979 8.53466C2.32763 9.17807 2.32763 9.34838 2.74396 9.55654C3.10351 9.72686 3.69015 9.74578 3.93616 9.74578C4.67419 9.74578 5.84747 9.36731 5.84747 7.89124C5.84747 7.11537 5.58254 5.97994 4.54172 5.27975C4.08755 4.97697 3.74692 4.93912 3.42522 4.90128C3.2549 4.88235 2.57364 4.88235 2.36548 4.88235H2.40333ZM3.06566 0.662335C2.91427 0.662335 2.64934 0.681257 2.42225 0.738029C2.30871 0.756953 2.27086 0.794803 2.27086 0.870498V4.35249C2.27086 4.4471 2.28979 4.46603 2.36548 4.50388C2.44118 4.5228 2.68719 4.56065 3.17921 4.56065C3.91724 4.56065 4.10647 4.54172 4.39033 4.22002C4.67419 3.89831 4.86343 3.44414 4.86343 2.91427C4.86343 1.81669 4.37141 0.662335 3.06566 0.662335Z" fill="#003D7C"/>
</svg>
