<svg width="136" height="17" viewBox="0 0 136 17" fill="none" xmlns="http://www.w3.org/2000/svg">
<path fill-rule="evenodd" clip-rule="evenodd" d="M31.5362 0.030799C31.5978 0.030799 31.6286 0.123187 31.6286 0.215579C31.6286 0.369564 31.5054 0.646741 31.4438 1.26268C31.413 1.47826 31.3822 2.46377 31.3207 2.71015C31.2899 2.83333 31.2591 2.95652 31.1667 2.95652C31.0435 2.95652 30.9819 2.83333 30.9819 2.67935C30.9819 2.52536 30.9511 2.1558 30.8587 1.87863C30.7047 1.53986 30.4583 1.26268 29.2572 1.13949C28.8877 1.10869 26.3931 1.0779 26.1467 1.0779C26.0543 1.0779 26.0236 1.13949 26.0236 1.29348V7.36051C26.0236 7.51449 26.0543 7.57609 26.1467 7.57609H26.7319C27.6558 7.57609 29.3496 7.57609 29.75 7.54529C30.3044 7.51449 30.6123 7.4529 30.7971 7.23732C30.9511 7.05254 31.0435 6.96015 31.1359 6.96015C31.1975 6.96015 31.2591 6.99094 31.2591 7.14493C31.2591 7.26812 31.1359 7.63768 31.0743 8.37681C31.0435 8.80797 30.9819 9.63949 30.9819 9.79348C30.9819 9.97826 30.9819 10.2246 30.8279 10.2246C30.7047 10.2246 30.6739 10.1322 30.6739 10.0399C30.6739 9.82428 30.6739 9.6087 30.5815 9.30072C30.4891 8.99275 30.2736 8.62319 29.4112 8.5308C28.7953 8.4692 26.5471 8.40761 26.1775 8.40761C26.0543 8.40761 26.0236 8.4692 26.0236 8.5616V10.5018C26.0236 11.2409 25.9928 13.7971 26.0236 14.2591C26.0851 15.7373 26.4239 16.0453 28.4565 16.0761H28.6413C29.2264 16.0761 30.212 16.0761 30.8279 15.8297C31.413 15.5833 31.6902 15.1522 31.8442 14.2591C31.875 14.0127 31.9366 13.9203 32.0598 13.9203C32.183 13.9203 32.183 14.1051 32.183 14.2591C32.183 14.4438 31.9982 15.9221 31.875 16.3841C31.721 16.9692 31.5362 16.9692 30.6431 16.9692C27.3478 16.9692 25.808 16.846 25.1304 16.846H25.0688C25.038 16.846 24.6377 16.8768 24.1757 16.8768C23.7446 16.9076 23.3134 16.9076 22.8514 16.9076C22.6051 16.9076 22.4819 16.8768 22.4819 16.7228C22.4819 16.6612 22.5127 16.5996 22.6667 16.5996C22.8822 16.5996 23.1286 16.5688 23.3442 16.5072C23.8062 16.4149 23.8986 15.9221 23.9909 15.3062C24.0833 14.5054 24.1141 13.1504 24.1141 11.4565V4.83514C24.1141 2.95652 24.1141 2.46377 24.0833 1.90942C24.0525 1.17029 23.8678 0.800727 23.0978 0.646741C22.913 0.615944 22.5435 0.585143 22.3279 0.585143C22.2355 0.585143 22.1431 0.554348 22.1431 0.461957C22.1431 0.338768 22.2663 0.277172 22.5127 0.277172C23.4982 0.277172 24.8225 0.33877 25.038 0.33877H25.8388C27.1938 0.33877 29.8732 0.338768 30.2428 0.307971C30.6739 0.277174 31.0435 0.246379 31.2283 0.184785C31.3514 0.12319 31.4438 0.030799 31.5362 0.030799ZM0.369564 0.554349C1.38587 0.554349 2.80254 0.615942 2.89493 0.615942C3.41848 0.615942 4.3116 0.554349 5.3279 0.554349C9.02355 0.554349 9.82428 2.71015 9.82428 3.78804C9.82428 5.54348 8.77717 6.62138 7.69928 7.66848C9.36232 8.16123 11.5797 9.70109 11.5797 12.2264C11.5797 14.5362 9.70109 16.9076 5.85145 16.9076C5.3279 16.9076 3.04891 16.7844 2.86413 16.7844C2.74094 16.7844 1.32427 16.846 0.677535 16.846C0.431159 16.846 0.307971 16.8152 0.307971 16.6612C0.307971 16.5996 0.338768 16.538 0.492753 16.538C0.708333 16.538 0.954711 16.5072 1.17029 16.4457C1.63225 16.3533 1.72464 15.8913 1.81703 15.2446C1.90942 14.4438 1.94022 12.9656 1.94022 11.1793V5.57428C1.94022 3.26449 1.94022 2.74094 1.90942 2.125C1.87862 1.38587 1.69384 1.0471 0.95471 0.893114C0.769927 0.862317 0.400362 0.831521 0.184782 0.831521C0.0923908 0.831521 0 0.800726 0 0.708334C0 0.585146 0.123187 0.554349 0.369564 0.554349ZM119.154 0.030799C119.339 0.030799 119.708 0.523549 119.924 0.739129C120.263 1.10869 123.589 4.61957 127.007 8.19203C129.225 10.5018 131.658 13.1504 132.366 13.8587L132.12 2.83333C132.089 1.41667 131.935 0.95471 131.257 0.769928C130.888 0.708333 130.518 0.677538 130.179 0.646741C130.025 0.646741 129.995 0.585147 129.995 0.492756C129.995 0.369567 130.179 0.33877 130.457 0.33877C131.473 0.33877 132.52 0.400363 132.766 0.400363C133.013 0.400363 133.752 0.33877 134.676 0.33877C134.922 0.33877 135.076 0.369567 135.076 0.492756C135.076 0.585147 134.984 0.646741 134.83 0.646741C134.707 0.646741 134.553 0.64674 134.306 0.708334C133.567 0.86232 133.475 1.32428 133.475 2.64855L133.444 15.3678C133.444 16.8152 133.413 16.9076 133.228 16.9076C133.043 16.9076 132.797 16.6612 131.596 15.5217C131.35 15.3062 128.147 12.1033 125.775 9.63949C123.804 7.57609 121.864 5.51268 119.955 3.41848L120.232 13.8279C120.263 15.6141 120.509 16.1685 121.094 16.3533C121.464 16.4457 121.833 16.4764 122.203 16.4764C122.326 16.4764 122.388 16.5072 122.388 16.5996C122.388 16.7228 122.265 16.7844 121.987 16.7844C120.725 16.7844 119.832 16.7228 119.616 16.7228C119.4 16.7228 118.476 16.7844 117.46 16.7844C117.245 16.7844 117.091 16.7536 117.091 16.5996C117.091 16.5072 117.152 16.4764 117.275 16.4764C117.46 16.4764 117.861 16.4457 118.199 16.3533C118.754 16.1993 118.877 15.5833 118.877 13.5815L118.908 1.13949C118.908 0.246376 118.969 0.030799 119.154 0.030799ZM82.4746 0.030799C82.6286 0.030799 82.6902 0.21558 82.7518 0.615942L84.2301 14.0743C84.3225 14.875 84.4764 16.0761 85.4312 16.3841C86.0779 16.5688 86.663 16.5688 86.8786 16.5688C87.0018 16.5688 87.0634 16.5996 87.0634 16.692C87.0634 16.8152 86.8786 16.8768 86.6015 16.8768C86.1087 16.8768 83.7065 16.8152 82.9058 16.7536C82.3823 16.7228 82.2899 16.6612 82.2899 16.538C82.2899 16.4457 82.3207 16.4149 82.4438 16.3841C82.567 16.3533 82.567 15.9837 82.5362 15.5833L81.4583 4.2808H81.3967L75.9765 15.6757C75.5145 16.6304 75.4529 16.846 75.2373 16.846C75.0833 16.846 74.9602 16.6304 74.5598 15.8297C73.9746 14.7518 72.0652 10.9638 71.9728 10.7482C71.7573 10.3478 69.2935 5.08152 69.0471 4.49638H68.9547L68.0616 14.6594C68.0308 14.9982 68.0308 15.3986 68.0308 15.7681C68.0308 16.1069 68.2772 16.3841 68.6159 16.4457C68.9855 16.538 69.3243 16.5688 69.4475 16.5688C69.5399 16.5688 69.6323 16.5996 69.6323 16.692C69.6323 16.846 69.5091 16.8768 69.2319 16.8768C68.4004 16.8768 67.3533 16.8152 67.1685 16.8152C66.9837 16.8152 65.9058 16.8768 65.3207 16.8768C65.1051 16.8768 64.9511 16.846 64.9511 16.692C64.9511 16.6304 65.0435 16.5688 65.1667 16.5688C65.3515 16.5688 65.5054 16.5688 65.8442 16.5072C66.5833 16.3841 66.6449 15.5217 66.7373 14.6902L68.3388 0.400363C68.3696 0.153986 68.462 0 68.5852 0C68.7083 0 68.8007 0.0923932 68.9239 0.33877L75.6993 14.1359L82.2283 0.369564C82.2283 0.184782 82.3207 0.030799 82.4746 0.030799ZM105.911 0.030799C105.973 0.030799 106.004 0.123187 106.004 0.215579C106.004 0.369564 105.88 0.646741 105.819 1.26268C105.788 1.47826 105.757 2.46377 105.696 2.71015C105.665 2.83333 105.634 2.95652 105.542 2.95652C105.418 2.95652 105.357 2.83333 105.357 2.67935C105.357 2.52536 105.326 2.1558 105.234 1.87863C105.08 1.53986 104.864 1.26268 103.632 1.13949C103.232 1.10869 100.768 1.0779 100.522 1.0779C100.429 1.0779 100.399 1.13949 100.399 1.29348V7.36051C100.399 7.51449 100.429 7.57609 100.522 7.57609H101.107C102.031 7.57609 103.725 7.57609 104.125 7.54529C104.679 7.51449 104.987 7.4529 105.203 7.23732C105.357 7.05254 105.449 6.96015 105.542 6.96015C105.603 6.96015 105.665 6.99094 105.665 7.14493C105.665 7.26812 105.542 7.63768 105.48 8.37681C105.418 8.80797 105.388 9.63949 105.388 9.79348C105.388 9.97826 105.388 10.2246 105.234 10.2246C105.111 10.2246 105.08 10.1322 105.08 10.0399C105.08 9.82428 105.08 9.6087 104.987 9.30072C104.895 8.99275 104.679 8.62319 103.817 8.5308C103.201 8.4692 100.953 8.40761 100.583 8.40761C100.46 8.40761 100.429 8.4692 100.429 8.5616V10.7482C100.429 11.7029 100.399 13.8587 100.429 14.2899C100.491 15.7681 100.83 16.0761 102.862 16.1069H103.047C103.632 16.1069 104.618 16.1069 105.234 15.8605C105.819 15.6141 106.096 15.183 106.25 14.2899C106.281 14.0435 106.342 13.9511 106.466 13.9511C106.589 13.9511 106.589 14.1359 106.589 14.2899C106.589 14.4746 106.404 15.9529 106.281 16.4149C106.127 17 105.942 17 105.049 17C101.723 17 100.214 16.8768 99.5362 16.8768H99.4746C99.4438 16.8768 99.0435 16.9076 98.5815 16.9076C98.1196 16.9384 97.596 16.9384 97.2572 16.9384C97.0109 16.9384 96.8877 16.9076 96.8877 16.7536C96.8877 16.692 96.9185 16.6304 97.0725 16.6304C97.2881 16.6304 97.5344 16.5996 97.75 16.538C98.212 16.4457 98.3044 15.9529 98.3967 15.337C98.4891 14.4746 98.5199 12.8424 98.5199 10.8714V5.91304C98.5199 3.1413 98.5199 2.55616 98.4891 1.90942C98.4583 1.17029 98.2736 0.800727 97.5036 0.646741C97.3188 0.615944 96.9493 0.585143 96.7337 0.585143C96.6413 0.585143 96.5489 0.554348 96.5489 0.461957C96.5489 0.338768 96.6721 0.277172 96.9185 0.277172C97.904 0.277172 99.2283 0.33877 99.4438 0.33877H100.245C101.6 0.33877 104.279 0.338768 104.649 0.307971C105.08 0.277174 105.449 0.246379 105.634 0.184785C105.726 0.12319 105.819 0.030799 105.911 0.030799ZM44.6558 0.615942C44.8098 0.615942 45.6413 0.554349 46.5036 0.554349C46.75 0.554349 46.7808 0.615943 46.7808 0.708334C46.7808 0.800726 46.6576 0.800723 46.442 0.893114C46.2572 0.985505 46.1649 1.10869 46.1649 1.29348C46.1649 1.53985 46.2572 1.81703 46.442 2.125C46.7808 2.74094 50.0761 8.34602 50.4765 8.96196C50.8768 8.03805 53.6794 3.32609 54.1105 2.58695C54.3877 2.125 54.4801 1.75544 54.4801 1.47826C54.4801 1.17029 54.3877 0.923914 54.1413 0.86232C53.9565 0.800726 53.8025 0.769929 53.8025 0.646741C53.8025 0.55435 53.9257 0.52355 54.1413 0.52355C54.6957 0.52355 55.404 0.585143 55.5888 0.585143C55.712 0.585143 57.2826 0.52355 57.7138 0.52355C57.8678 0.52355 57.9909 0.55435 57.9909 0.646741C57.9909 0.769929 57.8986 0.831521 57.7138 0.831521C57.4674 0.831521 57.067 0.923912 56.6975 1.13949C56.2663 1.38587 56.0199 1.66304 55.5272 2.24819C54.788 3.11051 51.7391 8.19203 51.3388 9.11594C51 9.88587 51 10.5634 51 11.2717V13.1196C51 13.4583 51 14.3822 51.0616 15.2754C51.0924 15.8913 51.308 16.3841 51.9547 16.4764C52.2627 16.5072 52.7554 16.5688 52.9402 16.5688C53.0634 16.5688 53.125 16.6304 53.125 16.692C53.125 16.8152 53.0018 16.8768 52.7862 16.8768C51.6467 16.8768 50.3225 16.8152 50.1069 16.8152H50.0761C49.9529 16.8152 48.5978 16.8768 47.9203 16.8768C47.6739 16.8768 47.5815 16.846 47.5815 16.692C47.5815 16.6304 47.6123 16.5688 47.7663 16.5688C47.9511 16.5688 48.2283 16.538 48.413 16.4764C48.8442 16.3841 49.0598 15.9221 49.0906 15.2754C49.1522 14.567 49.1522 13.8279 49.1522 13.3967V11.2717C49.1522 10.1015 48.9366 9.63949 48.6594 8.99275C48.5054 8.65399 45.5797 3.88043 44.8098 2.77174C44.2554 1.97101 43.7011 1.41667 43.3315 1.17029C42.9928 0.954711 42.5924 0.831521 42.3768 0.831521C42.2536 0.831521 42.1612 0.800724 42.1612 0.677535C42.1612 0.585144 42.2536 0.52355 42.4384 0.52355C42.9004 0.554347 44.5326 0.615942 44.6558 0.615942ZM3.91123 7.94565H3.81884C3.72645 7.94565 3.69565 7.97645 3.69565 8.09964V10.625C3.69565 12.0725 3.69565 13.6431 3.72645 13.8895C3.78804 14.9366 3.78804 15.2138 4.46558 15.5525C5.05072 15.8297 6.00544 15.8605 6.4058 15.8605C7.60689 15.8605 9.5163 15.2446 9.5163 12.8424C9.5163 11.5797 9.08514 9.73188 7.3913 8.59239C6.65217 8.09964 6.09783 8.03804 5.57428 7.97645C5.2971 7.94565 4.18841 7.94565 3.84964 7.94565H3.91123ZM4.98913 1.0779C4.74275 1.0779 4.3116 1.10869 3.94203 1.20109C3.75725 1.23188 3.69565 1.29348 3.69565 1.41667V7.08333C3.69565 7.23732 3.72645 7.26812 3.84964 7.32971C3.97283 7.36051 4.37319 7.4221 5.17391 7.4221C6.375 7.4221 6.68297 7.39131 7.14493 6.86775C7.60688 6.3442 7.91485 5.60507 7.91485 4.74275C7.91485 2.95652 7.11413 1.0779 4.98913 1.0779Z" fill="#003D7C"/>
</svg>
