<svg width="16" height="21" viewBox="0 0 16 21" fill="none" xmlns="http://www.w3.org/2000/svg">
<path d="M14.7475 8.74562L14.4127 8.41677L14.7475 8.74562C14.2267 9.2757 13.3736 9.27948 12.8482 8.75402L9.40223 5.3081L9.40223 19.0994C9.40223 19.8385 8.80311 20.4376 8.06406 20.4376C7.325 20.4376 6.72588 19.8385 6.72588 19.0994L6.72588 5.3081L3.27996 8.75402C2.75451 9.27947 1.90143 9.2757 1.38065 8.74562C0.866346 8.22213 0.870065 7.38196 1.38898 6.86305L7.02515 1.22687C7.59892 0.653101 8.52919 0.653103 9.10296 1.22687L14.7391 6.86305C15.258 7.38196 15.2618 8.22213 14.7475 8.74562Z" fill="white" stroke="white" stroke-width="0.938462"/>
</svg>
