<svg width="23" height="16" viewBox="0 0 23 16" fill="none" xmlns="http://www.w3.org/2000/svg">
<path d="M22.4372 4.79128C22.3025 3.49084 22.0127 2.05325 20.9459 1.29777C20.1197 0.711903 19.0337 0.690244 18.0199 0.691447C15.8768 0.691447 13.7324 0.69506 11.5893 0.696263C9.52798 0.698669 7.46664 0.699871 5.4053 0.702277C4.5442 0.702277 3.70716 0.63611 2.90739 1.00904C2.22068 1.32904 1.6831 1.93776 1.35959 2.61505C0.910997 3.55701 0.817195 4.62407 0.763076 5.66587C0.663256 7.563 0.67408 9.46495 0.793142 11.3609C0.880936 12.7443 1.10342 14.2734 2.17258 15.1552C3.12026 15.9359 4.45761 15.9744 5.68671 15.9756C9.58811 15.9792 13.4907 15.9828 17.3933 15.9852C17.8936 15.9864 18.4156 15.9768 18.9255 15.9215C19.9285 15.8132 20.8846 15.5257 21.5292 14.7822C22.1798 14.0328 22.347 12.9897 22.4456 12.0021C22.6862 9.6057 22.6838 7.18646 22.4372 4.79128ZM9.33315 11.6977V4.97895L15.1492 8.33773L9.33315 11.6977Z" fill="#FFC283"/>
</svg>
