<svg width="21" height="20" viewBox="0 0 21 20" fill="none" xmlns="http://www.w3.org/2000/svg">
<path d="M15.2229 0.734375H5.58604C2.9237 0.734375 0.757812 2.9009 0.757812 5.56403V14.3829C0.757812 17.046 2.9237 19.2126 5.58604 19.2126H15.2229C17.8852 19.2126 20.0511 17.046 20.0511 14.3829V5.56403C20.0511 2.9009 17.8852 0.734375 15.2229 0.734375ZM2.46106 5.56403C2.46106 3.84063 3.86316 2.43812 5.58604 2.43812H15.2229C16.9457 2.43812 18.3478 3.84063 18.3478 5.56403V14.3829C18.3478 16.1063 16.9457 17.5088 15.2229 17.5088H5.58604C3.86316 17.5088 2.46106 16.1063 2.46106 14.3829V5.56403Z" fill="#FFC283"/>
<path d="M10.4051 14.4614C12.8809 14.4614 14.8962 12.4465 14.8962 9.96895C14.8962 7.49137 12.882 5.47656 10.4051 5.47656C7.92828 5.47656 5.91406 7.49137 5.91406 9.96895C5.91406 12.4465 7.92828 14.4614 10.4051 14.4614ZM10.4051 7.1814C11.9425 7.1814 13.193 8.4322 13.193 9.97005C13.193 11.5079 11.9425 12.7587 10.4051 12.7587C8.86774 12.7587 7.61731 11.5079 7.61731 9.97005C7.61731 8.4322 8.86774 7.1814 10.4051 7.1814Z" fill="#FFC283"/>
<path d="M15.3116 6.2099C15.9783 6.2099 16.5217 5.66745 16.5217 4.99948C16.5217 4.33151 15.9794 3.78906 15.3116 3.78906C14.6438 3.78906 14.1016 4.33151 14.1016 4.99948C14.1016 5.66745 14.6438 6.2099 15.3116 6.2099Z" fill="#FFC283"/>
</svg>
