<svg width="20" height="20" viewBox="0 0 20 20" fill="none" xmlns="http://www.w3.org/2000/svg">
<path d="M4.64452 19.447H0.656462V6.89635H4.64452V19.447ZM2.65049 5.13692C1.36024 5.13692 0.421875 4.19855 0.421875 2.9083C0.421875 1.61805 1.47754 0.679688 2.65049 0.679688C3.94074 0.679688 4.87911 1.61805 4.87911 2.9083C4.87911 4.19855 3.94074 5.13692 2.65049 5.13692ZM19.1892 19.447H15.2011V12.6438C15.2011 10.6498 14.38 10.0633 13.2071 10.0633C12.0341 10.0633 10.8612 11.0017 10.8612 12.7611V19.447H6.87313V6.89635H10.6266V8.65578C10.9785 7.83471 12.386 6.54446 14.38 6.54446C16.6087 6.54446 18.9546 7.83471 18.9546 11.7055V19.447H19.1892Z" fill="#FFC283"/>
</svg>
