<svg width="574" height="504" viewBox="0 0 574 504" fill="none" xmlns="http://www.w3.org/2000/svg">
<rect width="574" height="504" fill="#F5F8FB"/>
<rect x="0.75" y="0.75" width="572.5" height="502.5" rx="11.25" fill="white" stroke="#C9C9C9" stroke-width="0.5"/>
<path d="M30.1582 212.412C30.1582 213.006 30.2242 213.535 30.3564 214.129C30.4885 214.658 30.6207 215.186 30.7528 215.715C30.8849 216.309 31.017 216.838 31.2151 217.432C31.4134 217.895 31.6115 218.357 31.8097 218.819C32.0739 219.414 32.3382 220.075 32.6685 220.669C32.9327 221.131 33.1969 221.528 33.4611 221.99C33.8575 222.651 34.3199 223.377 34.8484 224.038C35.1787 224.434 35.5089 224.831 35.7732 225.227C36.4998 226.152 37.3586 227.011 38.2173 227.869C38.5476 228.2 38.8119 228.53 39.2082 228.794C39.7367 229.323 40.3972 229.785 40.9917 230.248C41.5202 230.71 42.0486 231.106 42.6432 231.569C43.3037 232.031 44.0304 232.493 44.757 232.956C45.4837 233.418 46.2103 233.947 46.937 234.343L241.279 347.302C243.063 348.293 244.846 349.218 246.762 350.076C247.29 350.341 247.885 350.539 248.413 350.803C249.933 351.464 251.452 351.992 252.971 352.521C253.5 352.719 254.028 352.917 254.623 353.115C255.614 353.445 256.605 353.71 257.661 353.974C258.388 354.172 259.181 354.37 259.908 354.568C260.964 354.833 262.021 355.031 263.078 355.229C263.805 355.361 264.532 355.559 265.324 355.691C267.504 356.088 269.684 356.352 271.93 356.616C272.591 356.616 273.317 356.748 274.044 356.814C275.365 356.946 276.686 357.013 278.007 357.079C278.866 357.079 279.659 357.079 280.452 357.145C281.508 357.145 282.631 357.145 283.688 357.145C284.547 357.145 285.472 357.145 286.331 357.079C287.322 357.079 288.312 357.013 289.303 356.946C290.228 356.946 291.087 356.814 292.012 356.748C292.936 356.682 293.927 356.55 294.918 356.418C295.777 356.286 296.702 356.154 297.56 356.022C298.551 355.89 299.542 355.691 300.599 355.493C301.392 355.295 302.251 355.163 303.043 354.965C304.232 354.7 305.421 354.37 306.61 354.106C307.271 353.908 307.932 353.776 308.658 353.578C310.772 352.983 312.886 352.256 314.868 351.464C315.198 351.332 315.462 351.199 315.726 351.067C318.501 349.944 321.143 348.689 323.587 347.302L525.989 230.446C537.483 223.84 543.23 215.12 543.164 206.401L543.362 277.611C543.362 286.265 537.681 294.984 526.187 301.656L323.785 418.512C321.341 419.9 318.699 421.155 315.925 422.278C315.726 422.344 315.594 422.476 315.396 422.542C315.33 422.542 315.198 422.608 315.066 422.674C313.018 423.467 310.97 424.127 308.856 424.788C308.658 424.788 308.526 424.92 308.328 424.92C307.866 425.052 307.337 425.184 306.809 425.316C305.62 425.647 304.43 425.911 303.241 426.175C302.911 426.241 302.581 426.373 302.251 426.439C301.788 426.505 301.26 426.571 300.797 426.704C299.806 426.902 298.75 427.1 297.693 427.232C297.296 427.298 296.9 427.43 296.504 427.43C296.041 427.43 295.579 427.562 295.182 427.562C294.192 427.694 293.201 427.827 292.21 427.893C291.747 427.893 291.285 428.025 290.823 428.025C290.426 428.025 289.964 428.025 289.501 428.091C288.511 428.157 287.52 428.223 286.529 428.223C286.066 428.223 285.538 428.289 285.076 428.289C284.679 428.289 284.283 428.289 283.887 428.289C282.83 428.289 281.773 428.289 280.65 428.289C280.121 428.289 279.593 428.289 279.064 428.289C278.734 428.289 278.47 428.289 278.139 428.289C276.818 428.289 275.497 428.157 274.242 428.025C273.714 428.025 273.185 427.959 272.657 427.893C272.525 427.893 272.326 427.893 272.128 427.827C269.882 427.628 267.702 427.298 265.522 426.902C265.39 426.902 265.324 426.902 265.192 426.902C264.532 426.77 263.937 426.638 263.276 426.505C262.22 426.307 261.163 426.109 260.106 425.779C259.379 425.581 258.586 425.382 257.86 425.184C256.869 424.92 255.812 424.656 254.821 424.325C254.623 424.325 254.359 424.193 254.16 424.127C253.83 423.995 253.5 423.863 253.104 423.731C251.518 423.203 249.999 422.608 248.546 421.947C248.017 421.749 247.423 421.485 246.894 421.287C244.978 420.428 243.195 419.503 241.411 418.512L47.069 305.619C47.069 305.619 46.6067 305.355 46.3425 305.223C45.814 304.893 45.3515 304.563 44.8231 304.232C44.0964 303.77 43.4359 303.307 42.7753 302.845C42.1808 302.449 41.6523 301.986 41.1238 301.524C40.5293 301.062 39.8687 300.533 39.3403 300.071C39.2082 300.005 39.0761 299.873 39.01 299.806C38.8119 299.608 38.6136 299.344 38.4155 299.212C37.5567 298.353 36.698 297.428 35.9713 296.57C35.8392 296.371 35.575 296.173 35.4429 295.975C35.4429 295.975 35.1787 295.513 34.9805 295.314C34.5181 294.654 34.0556 294.059 33.6593 293.399C33.4611 293.069 33.1969 292.804 33.0648 292.474C32.9987 292.342 32.9327 292.144 32.8666 292.012C32.5363 291.417 32.2721 290.823 32.0739 290.228C31.8758 289.898 31.6776 289.567 31.5455 289.171C31.5455 289.039 31.5454 288.973 31.4133 288.841C31.2151 288.246 31.083 287.652 30.8849 287.057C30.8188 286.661 30.6206 286.265 30.5546 285.868C30.5546 285.802 30.5546 285.67 30.5546 285.538C30.4224 284.877 30.4224 284.283 30.3564 283.622C30.3564 283.226 30.2244 282.896 30.2244 282.499C30.2244 282.367 30.2244 282.169 30.2244 281.971L30.0262 210.76C30.0262 211.355 30.0922 211.949 30.1582 212.544V212.412Z" fill="url(#paint0_linear_0_1)"/>
<path d="M47.9746 232.557L47.9731 232.556C37.0262 226.205 32.0306 218.146 32.0672 210.506C32.1022 203.183 36.7647 195.471 46.876 189.247L46.927 189.298L48.2997 188.506L250.7 71.6497C261.707 65.3006 276.258 62.0671 290.904 62.0671C305.55 62.0671 320.066 65.3008 331.004 71.6471L525.346 184.54L525.347 184.54C536.294 190.892 541.271 198.932 541.22 206.561C541.168 214.197 536.075 222.266 525.02 228.656C525.02 228.656 525.02 228.657 525.019 228.657L322.619 345.513L322.618 345.513C311.578 351.895 297.028 355.128 282.392 355.12C267.756 355.111 253.257 351.862 242.317 345.516L47.9746 232.557ZM47.9746 232.557L242.315 345.515L47.9746 232.557Z" fill="url(#paint1_linear_0_1)" stroke="white" stroke-width="4.1337"/>
<path d="M161.769 180.018L229.725 219.476" stroke="white" stroke-width="1.09606" stroke-linecap="round" stroke-linejoin="round" stroke-dasharray="5.48 5.48"/>
<path d="M263.867 152.069L398.682 233.177" stroke="white" stroke-width="1.09606" stroke-linecap="round" stroke-linejoin="round" stroke-dasharray="5.48 5.48"/>
<path d="M412.931 169.059L473.214 204.681" stroke="white" stroke-width="1.09606" stroke-linecap="round" stroke-linejoin="round" stroke-dasharray="5.48 5.48"/>
<path d="M306.613 99.4592L366.896 135.081" stroke="white" stroke-width="1.09606" stroke-linecap="round" stroke-linejoin="round" stroke-dasharray="5.48 5.48"/>
<path d="M257.291 259.483L313.19 293.461" stroke="white" stroke-width="1.09606" stroke-linecap="round" stroke-linejoin="round" stroke-dasharray="5.48 5.48"/>
<path d="M415.123 241.399L475.406 205.777" stroke="white" stroke-width="1.09606" stroke-linecap="round" stroke-linejoin="round" stroke-dasharray="5.48 5.48"/>
<path d="M252.906 138.367L313.189 102.746" stroke="white" stroke-width="1.09606" stroke-linecap="round" stroke-linejoin="round" stroke-dasharray="5.48 5.48"/>
<path d="M361.416 267.156L271.606 320.248C265.838 323.658 258.653 323.582 252.959 320.051L207.42 291.817" stroke="white" stroke-width="1.09606" stroke-linecap="round" stroke-linejoin="round" stroke-dasharray="5.48 5.48"/>
<path d="M205.776 256.196L340.591 175.087" stroke="white" stroke-width="1.09606" stroke-linecap="round" stroke-linejoin="round" stroke-dasharray="5.48 5.48"/>
<path d="M197.391 265.511L132.425 228.166C120.517 221.321 120.352 204.2 132.125 197.126L241.781 131.244" stroke="white" stroke-width="1.09606" stroke-linecap="round" stroke-linejoin="round" stroke-dasharray="5.48 5.48"/>
<g filter="url(#filter0_d_0_1)">
<path d="M342.056 244.208C337.203 246.956 337.178 251.388 342.006 254.136L383.74 278.45C388.568 281.198 396.416 281.198 401.269 278.45L444.351 254.136C449.204 251.387 449.229 246.955 444.401 244.207L402.667 219.894C397.839 217.145 389.99 217.145 385.138 219.894L342.056 244.208Z" fill="white"/>
<path d="M342.364 253.522L342.358 253.518C340.07 252.216 339.104 250.619 339.112 249.176C339.119 247.73 340.104 246.13 342.405 244.827L342.364 253.522ZM342.364 253.522L384.091 277.832C384.092 277.832 384.093 277.833 384.094 277.833C386.375 279.131 389.414 279.8 392.495 279.8C395.577 279.8 398.625 279.13 400.919 277.831L400.92 277.83L444.001 253.517C444.001 253.517 444.001 253.517 444.001 253.516C446.303 252.213 447.288 250.613 447.295 249.168C447.303 247.724 446.337 246.127 444.049 244.825L444.049 244.825L444.043 244.821L402.316 220.512C402.315 220.511 402.314 220.51 402.313 220.51C400.032 219.212 396.993 218.543 393.912 218.543C390.829 218.543 387.782 219.213 385.488 220.512L385.487 220.513L342.406 244.826L342.364 253.522Z" stroke="#FFC283" stroke-width="1.42216"/>
</g>
<path d="M387.27 235.712L393.249 234.933C393.782 234.863 394.352 234.959 394.744 235.185L409.158 243.506C409.55 243.732 409.715 244.061 409.594 244.369L408.249 247.823C407.554 249.605 403.866 250.512 401.329 249.397C401.147 249.316 400.969 249.227 400.807 249.134C399.753 248.525 399.276 247.718 399.345 246.937C397.992 246.976 396.594 246.701 395.54 246.092C394.485 245.484 394.008 244.677 394.077 243.896C392.724 243.935 391.326 243.66 390.272 243.051C389.213 242.44 388.74 241.636 388.809 240.854C387.452 240.892 386.058 240.619 385.004 240.01C384.838 239.914 384.688 239.814 384.547 239.709C382.604 238.242 384.171 236.111 387.266 235.71L387.27 235.712ZM383.101 240.353C383.101 240.353 383.101 240.353 383.105 240.355C383.291 240.495 383.493 240.63 383.715 240.759C384.216 241.048 384.773 241.281 385.359 241.461L379.974 244.57L392.901 252.033L398.291 248.921C398.602 249.264 399.01 249.588 399.511 249.878C399.733 250.006 399.971 250.125 400.214 250.232L400.218 250.234C400.408 250.316 400.597 250.393 400.795 250.461L395.487 253.525L392.901 255.018C391.475 255.841 389.157 255.841 387.73 255.018L374.803 247.555C373.377 246.731 373.377 245.393 374.803 244.57L377.388 243.077L382.697 240.012C382.818 240.129 382.947 240.241 383.101 240.353Z" fill="#002245"/>
<path opacity="0.4" d="M371.577 247.749L336.778 227L338.902 247.959V247.959C339.068 249.592 339.15 250.409 339.577 251.072C340.004 251.735 340.713 252.149 342.131 252.976L374.358 271.775C382.895 276.755 387.163 279.245 391.862 279.266C396.561 279.287 400.852 276.835 409.433 271.932L442.44 253.07C443.965 252.199 444.727 251.764 445.167 251.049C445.607 250.335 445.653 249.458 445.745 247.705L446.778 228L411.272 248.167C401.529 253.701 396.658 256.468 391.335 256.412C386.012 256.355 381.2 253.486 371.577 247.749Z" fill="#2FA800"/>
<path opacity="0.4" d="M371.706 228.094L339.276 249L336.826 229.808C336.56 227.719 336.426 226.675 336.862 225.788C337.298 224.901 338.206 224.369 340.023 223.303L375.393 202.556C384.164 197.411 388.549 194.839 393.371 194.868C398.192 194.897 402.545 197.523 411.253 202.774L443.766 222.383C445.473 223.413 446.327 223.928 446.754 224.766C447.18 225.605 447.094 226.598 446.921 228.584L445.276 247.5L414.116 227.872C403.78 221.36 398.611 218.105 392.859 218.135C387.107 218.165 381.973 221.475 371.706 228.094Z" fill="#2FA800"/>
<path d="M340.727 229.619L340.717 229.613C338.448 228.329 337.589 226.813 337.596 225.538C337.602 224.26 338.481 222.739 340.764 221.453L340.727 229.619ZM340.727 229.619L383.285 254.273C383.287 254.274 383.288 254.275 383.29 254.276C385.547 255.552 388.58 256.222 391.676 256.222C394.774 256.222 397.816 255.551 400.088 254.272L400.089 254.271L444.031 229.612C444.032 229.611 444.032 229.611 444.032 229.611C446.316 228.325 447.195 226.804 447.201 225.526C447.208 224.251 446.349 222.735 444.08 221.45L444.08 221.45L444.07 221.445L401.512 196.791C401.51 196.79 401.509 196.789 401.507 196.788C399.25 195.512 396.217 194.842 393.121 194.842C390.023 194.842 386.981 195.513 384.709 196.792L384.708 196.793L340.766 221.452L340.727 229.619Z" stroke="#248000" stroke-width="2.19212"/>
<g filter="url(#filter1_d_0_1)">
<path d="M315.748 153.235C310.895 155.983 310.87 160.415 315.698 163.164L357.431 187.477C362.26 190.225 370.108 190.225 374.961 187.477L418.043 163.163C422.896 160.415 422.921 155.983 418.093 153.234L376.359 128.921C371.531 126.173 363.682 126.173 358.829 128.921L315.748 153.235Z" fill="white"/>
<path d="M316.056 162.549L316.05 162.546C313.762 161.243 312.796 159.646 312.804 158.203C312.811 156.758 313.796 155.158 316.097 153.854L316.056 162.549ZM316.056 162.549L357.783 186.859C357.784 186.86 357.785 186.86 357.786 186.861C360.067 188.158 363.106 188.827 366.187 188.827C369.269 188.827 372.317 188.158 374.611 186.858L374.612 186.858L417.693 162.544C417.693 162.544 417.693 162.544 417.693 162.544C419.995 161.24 420.98 159.64 420.987 158.195C420.995 156.752 420.028 155.154 417.741 153.852L417.741 153.852L417.735 153.849L376.008 129.539C376.007 129.538 376.006 129.538 376.005 129.537C373.724 128.24 370.685 127.571 367.604 127.571C364.521 127.571 361.474 128.24 359.18 129.54L359.179 129.54L316.098 153.854L316.056 162.549Z" stroke="#FFC283" stroke-width="1.42216"/>
</g>
<path d="M381.343 153.789C380.676 153.08 381.135 152.187 382.369 151.805C383.603 151.423 385.144 151.685 385.806 152.397C386.653 153.3 387.281 154.252 387.69 155.233C388.335 155.372 388.946 155.595 389.473 155.899C391.452 157.042 391.452 158.9 389.473 160.043C388.946 160.347 388.335 160.57 387.684 160.713C387.281 161.69 386.653 162.642 385.8 163.548C385.133 164.257 383.591 164.526 382.363 164.14C381.135 163.755 380.67 162.865 381.337 162.156C381.915 161.544 382.352 160.897 382.655 160.237C382.532 160.179 382.408 160.114 382.296 160.049C380.317 158.906 380.317 157.048 382.296 155.906C382.414 155.838 382.532 155.776 382.655 155.718C382.352 155.058 381.915 154.41 381.337 153.799L381.343 153.789ZM377.603 147.661C378.831 148.047 379.296 148.937 378.629 149.646C377.962 150.355 376.42 150.623 375.192 150.238C374.132 149.905 373.011 149.652 371.867 149.477C371.766 149.549 371.654 149.62 371.542 149.684C369.563 150.827 366.344 150.827 364.365 149.684C364.247 149.616 364.141 149.549 364.034 149.474C362.89 149.649 361.769 149.901 360.709 150.235C359.481 150.62 357.934 150.355 357.272 149.642C356.611 148.93 357.065 148.04 358.298 147.658C359.863 147.169 361.511 146.807 363.21 146.571C363.457 146.195 363.844 145.842 364.371 145.538C366.35 144.395 369.568 144.395 371.548 145.538C372.075 145.842 372.461 146.195 372.708 146.571C374.401 146.804 376.05 147.166 377.62 147.658L377.603 147.661ZM375.186 165.707C376.414 165.322 377.962 165.587 378.624 166.3C379.285 167.012 378.831 167.902 377.597 168.284C376.033 168.773 374.385 169.135 372.686 169.371C372.445 169.744 372.058 170.096 371.531 170.401C369.551 171.543 366.333 171.543 364.354 170.401C363.827 170.096 363.44 169.744 363.193 169.368C361.5 169.135 359.851 168.773 358.281 168.28C357.054 167.895 356.588 167.005 357.255 166.296C357.923 165.587 359.465 165.319 360.692 165.704C361.752 166.037 362.874 166.29 364.017 166.465C364.118 166.393 364.23 166.322 364.348 166.254C366.327 165.112 369.546 165.112 371.525 166.254C371.643 166.322 371.749 166.39 371.856 166.465C373 166.29 374.121 166.037 375.181 165.704L375.186 165.707ZM350.084 152.4C350.751 151.691 352.293 151.423 353.521 151.808C354.749 152.193 355.214 153.083 354.547 153.792C353.97 154.404 353.532 155.051 353.23 155.712C353.353 155.77 353.476 155.835 353.594 155.903C355.573 157.045 355.573 158.903 353.594 160.046C353.476 160.114 353.359 160.175 353.23 160.237C353.532 160.897 353.97 161.544 354.547 162.156C355.214 162.865 354.755 163.759 353.521 164.14C352.288 164.522 350.746 164.26 350.084 163.548C349.237 162.645 348.609 161.693 348.2 160.713C347.55 160.57 346.939 160.347 346.411 160.043C344.432 158.9 344.432 157.042 346.411 155.899C346.939 155.595 347.55 155.372 348.2 155.229C348.604 154.252 349.232 153.3 350.084 152.394V152.4ZM371.441 160.043C372.316 159.538 372.804 158.893 372.91 158.23H371.194C370.454 158.23 370.09 157.715 370.611 157.414L374.003 155.456C374.323 155.271 374.85 155.271 375.17 155.456L378.562 157.414C379.083 157.715 378.713 158.227 377.979 158.23L376.723 158.23C376.616 159.45 375.753 160.661 374.132 161.596C371.688 163.008 368.178 163.422 365.111 162.849C364.113 162.661 363.558 162.043 363.883 161.467C364.208 160.891 365.279 160.57 366.277 160.758C368.038 161.088 370.039 160.845 371.43 160.043H371.441ZM369.507 155.132C367.746 154.802 365.744 155.045 364.354 155.848C363.479 156.352 362.991 156.997 362.885 157.66H364.6C365.341 157.66 365.705 158.175 365.184 158.476L361.791 160.434C361.472 160.619 360.945 160.619 360.625 160.434L357.233 158.476C356.711 158.175 357.082 157.663 357.816 157.66H359.072C359.179 156.44 360.042 155.229 361.662 154.294C364.107 152.883 367.617 152.468 370.684 153.041C371.682 153.229 372.237 153.847 371.912 154.423C371.587 154.999 370.516 155.32 369.518 155.132H369.507Z" fill="#002245"/>
<path opacity="0.4" d="M346.075 156.749L311.276 136L313.4 156.959V156.959C313.566 158.592 313.648 159.409 314.075 160.072C314.502 160.735 315.211 161.149 316.629 161.976L348.856 180.775C357.393 185.755 361.661 188.245 366.36 188.266C371.06 188.287 375.35 185.835 383.931 180.932L416.939 162.07C418.463 161.199 419.225 160.764 419.665 160.049C420.105 159.335 420.151 158.458 420.243 156.705L421.276 137L385.77 157.167C376.027 162.701 371.156 165.468 365.833 165.412C360.51 165.355 355.698 162.486 346.075 156.749Z" fill="#2FA800"/>
<path opacity="0.4" d="M346.204 137.094L313.775 158L311.324 138.808C311.058 136.719 310.924 135.675 311.36 134.788C311.796 133.901 312.704 133.369 314.521 132.303L349.891 111.556C358.662 106.411 363.047 103.839 367.869 103.868C372.69 103.897 377.043 106.523 385.751 111.774L418.264 131.383C419.971 132.413 420.825 132.928 421.252 133.766C421.678 134.605 421.592 135.598 421.419 137.584L419.775 156.5L388.614 136.872C378.278 130.36 373.109 127.105 367.357 127.135C361.605 127.165 356.471 130.475 346.204 137.094Z" fill="#2FA800"/>
<path d="M315.225 138.619L315.215 138.613C312.946 137.329 312.087 135.813 312.094 134.538C312.1 133.26 312.979 131.739 315.262 130.453L315.225 138.619ZM315.225 138.619L357.783 163.273C357.785 163.274 357.786 163.275 357.788 163.276C360.045 164.552 363.078 165.222 366.174 165.222C369.272 165.222 372.314 164.551 374.586 163.272L374.587 163.271L418.529 138.612C418.53 138.611 418.53 138.611 418.53 138.611C420.814 137.325 421.693 135.804 421.699 134.526C421.706 133.251 420.847 131.735 418.578 130.45L418.578 130.45L418.568 130.445L376.01 105.791C376.008 105.79 376.007 105.789 376.005 105.788C373.748 104.512 370.715 103.842 367.619 103.842C364.521 103.842 361.479 104.513 359.207 105.792L359.206 105.793L315.264 130.452L315.225 138.619Z" stroke="#248000" stroke-width="2.19212"/>
<g filter="url(#filter2_d_0_1)">
<path d="M200.661 228.864C195.808 231.612 195.784 236.044 200.612 238.792L242.345 263.106C247.173 265.854 255.022 265.854 259.875 263.106L302.957 238.792C307.81 236.043 307.834 231.611 303.006 228.863L261.273 204.55C256.445 201.802 248.596 201.802 243.743 204.55L200.661 228.864Z" fill="white"/>
<path d="M200.97 238.178L200.963 238.174C198.676 236.872 197.71 235.275 197.717 233.832C197.725 232.387 198.709 230.787 201.011 229.483L200.97 238.178ZM200.97 238.178L242.697 262.488C242.698 262.489 242.699 262.489 242.7 262.49C244.98 263.787 248.019 264.456 251.101 264.456C254.183 264.456 257.23 263.787 259.524 262.487L259.525 262.487L302.606 238.173C302.606 238.173 302.607 238.173 302.607 238.173C304.908 236.869 305.893 235.269 305.901 233.824C305.908 232.38 304.942 230.783 302.654 229.481L302.654 229.481L302.648 229.478L260.921 205.168C260.92 205.167 260.919 205.167 260.918 205.166C258.637 203.869 255.598 203.2 252.517 203.2C249.435 203.2 246.388 203.869 244.093 205.169L244.093 205.169L201.012 229.483L200.97 238.178Z" stroke="#FFC283" stroke-width="1.42216"/>
</g>
<path d="M269.288 228.551C271.113 229.605 271.113 231.318 269.288 232.371L249.436 243.832C247.611 244.885 244.644 244.885 242.819 243.832L229.584 236.191C227.759 235.138 227.759 233.425 229.584 232.371L249.436 220.911C251.261 219.857 254.228 219.857 256.053 220.911L269.288 228.551ZM264.325 229.506L254.399 223.776C253.484 223.248 252.005 223.248 251.09 223.776L249.436 224.731C248.521 225.259 248.521 226.113 249.436 226.641L259.362 232.371C260.277 232.9 261.756 232.9 262.671 232.371L264.325 231.416C265.24 230.888 265.24 230.034 264.325 229.506ZM254.399 233.326C253.96 233.58 253.714 233.923 253.714 234.281C253.714 234.64 253.96 234.983 254.399 235.236C254.838 235.49 255.433 235.632 256.053 235.632C256.674 235.632 257.269 235.49 257.708 235.236C258.146 234.983 258.393 234.64 258.393 234.281C258.393 233.923 258.146 233.58 257.708 233.326C257.269 233.073 256.674 232.931 256.053 232.931C255.433 232.931 254.838 233.073 254.399 233.326ZM249.436 238.102C249.875 238.355 250.47 238.497 251.09 238.497C251.711 238.497 252.306 238.355 252.745 238.102C253.183 237.848 253.43 237.505 253.43 237.147C253.43 236.788 253.183 236.445 252.745 236.191C252.306 235.938 251.711 235.796 251.09 235.796C250.47 235.796 249.875 235.938 249.436 236.191C248.997 236.445 248.751 236.788 248.751 237.147C248.751 237.505 248.997 237.848 249.436 238.102ZM247.782 240.967C248.697 240.438 248.697 239.585 247.782 239.057L242.819 236.191C241.904 235.663 240.425 235.663 239.51 236.191C238.595 236.72 238.595 237.573 239.51 238.102L244.473 240.967C245.388 241.495 246.867 241.495 247.782 240.967ZM249.436 232.371C249.875 232.625 250.47 232.767 251.09 232.767C251.711 232.767 252.306 232.625 252.745 232.371C253.183 232.118 253.43 231.774 253.43 231.416C253.43 231.058 253.183 230.714 252.745 230.461C252.306 230.208 251.711 230.066 251.09 230.066C250.47 230.066 249.875 230.208 249.436 230.461C248.997 230.714 248.751 231.058 248.751 231.416C248.751 231.774 248.997 232.118 249.436 232.371ZM244.473 233.326C244.034 233.58 243.788 233.923 243.788 234.281C243.788 234.64 244.034 234.983 244.473 235.236C244.912 235.49 245.507 235.632 246.127 235.632C246.748 235.632 247.343 235.49 247.782 235.236C248.22 234.983 248.467 234.64 248.467 234.281C248.467 233.923 248.22 233.58 247.782 233.326C247.343 233.073 246.748 232.931 246.127 232.931C245.507 232.931 244.912 233.073 244.473 233.326ZM244.473 229.506C244.912 229.759 245.507 229.902 246.127 229.902C246.748 229.902 247.343 229.759 247.782 229.506C248.22 229.253 248.467 228.909 248.467 228.551C248.467 228.193 248.22 227.849 247.782 227.596C247.343 227.343 246.748 227.2 246.127 227.2C245.507 227.2 244.912 227.343 244.473 227.596C244.034 227.849 243.788 228.193 243.788 228.551C243.788 228.909 244.034 229.253 244.473 229.506ZM239.51 230.461C239.071 230.714 238.825 231.058 238.825 231.416C238.825 231.774 239.071 232.118 239.51 232.371C239.949 232.625 240.544 232.767 241.164 232.767C241.785 232.767 242.38 232.625 242.819 232.371C243.257 232.118 243.504 231.774 243.504 231.416C243.504 231.058 243.257 230.714 242.819 230.461C242.38 230.208 241.785 230.066 241.164 230.066C240.544 230.066 239.949 230.208 239.51 230.461ZM234.547 235.236C234.986 235.49 235.581 235.632 236.201 235.632C236.822 235.632 237.417 235.49 237.856 235.236C238.294 234.983 238.541 234.64 238.541 234.281C238.541 233.923 238.294 233.58 237.856 233.326C237.417 233.073 236.822 232.931 236.201 232.931C235.581 232.931 234.986 233.073 234.547 233.326C234.108 233.58 233.862 233.923 233.862 234.281C233.862 234.64 234.108 234.983 234.547 235.236Z" fill="#002245"/>
<path opacity="0.4" d="M230.577 232.749L195.778 212L197.902 232.959V232.959C198.068 234.592 198.15 235.409 198.577 236.072C199.004 236.735 199.713 237.149 201.131 237.976L233.358 256.775C241.895 261.755 246.163 264.245 250.862 264.266C255.561 264.287 259.852 261.835 268.433 256.932L301.44 238.07C302.965 237.199 303.727 236.764 304.167 236.049C304.607 235.335 304.653 234.458 304.745 232.705L305.778 213L270.272 233.167C260.529 238.701 255.658 241.468 250.335 241.412C245.012 241.355 240.2 238.486 230.577 232.749Z" fill="#2FA800"/>
<path opacity="0.4" d="M230.706 213.094L198.276 234L195.826 214.808C195.56 212.719 195.426 211.675 195.862 210.788C196.298 209.901 197.206 209.369 199.023 208.303L234.393 187.556C243.164 182.411 247.549 179.839 252.371 179.868C257.192 179.897 261.545 182.523 270.253 187.774L302.766 207.383C304.473 208.413 305.327 208.928 305.754 209.766C306.18 210.605 306.094 211.598 305.921 213.584L304.276 232.5L273.116 212.872C262.78 206.36 257.611 203.105 251.859 203.135C246.107 203.165 240.973 206.475 230.706 213.094Z" fill="#2FA800"/>
<path d="M199.727 214.619L199.717 214.613C197.448 213.329 196.589 211.813 196.596 210.538C196.602 209.26 197.481 207.739 199.764 206.453L199.727 214.619ZM199.727 214.619L242.285 239.273C242.287 239.274 242.288 239.275 242.29 239.276C244.547 240.552 247.58 241.222 250.676 241.222C253.774 241.222 256.816 240.551 259.088 239.272L259.089 239.271L303.031 214.612C303.032 214.611 303.032 214.611 303.032 214.611C305.316 213.325 306.195 211.804 306.201 210.526C306.208 209.251 305.349 207.735 303.08 206.45L303.08 206.45L303.07 206.445L260.512 181.791C260.51 181.79 260.509 181.789 260.507 181.788C258.25 180.512 255.217 179.842 252.121 179.842C249.023 179.842 245.981 180.513 243.709 181.792L243.708 181.793L199.766 206.452L199.727 214.619Z" stroke="#248000" stroke-width="2.19212"/>
<g filter="url(#filter3_d_0_1)">
<path d="M185.319 125.835C180.467 128.583 180.442 133.015 185.27 135.763L227.003 160.077C231.831 162.825 239.68 162.825 244.533 160.077L287.615 135.763C292.468 133.014 292.492 128.582 287.664 125.834L245.931 101.521C241.103 98.7722 233.254 98.7722 228.401 101.521L185.319 125.835Z" fill="white"/>
<path d="M185.628 135.149L185.622 135.145C183.334 133.843 182.368 132.246 182.375 130.803C182.383 129.357 183.368 127.757 185.669 126.454L185.628 135.149ZM185.628 135.149L227.355 159.459C227.356 159.459 227.357 159.46 227.358 159.46C229.639 160.758 232.678 161.427 235.759 161.427C238.841 161.427 241.888 160.757 244.183 159.458L244.184 159.457L287.264 135.144C287.265 135.144 287.265 135.144 287.265 135.143C289.567 133.84 290.551 132.24 290.559 130.795C290.566 129.351 289.6 127.754 287.313 126.452L287.313 126.452L287.306 126.448L245.579 102.139C245.578 102.138 245.577 102.137 245.576 102.137C243.296 100.839 240.257 100.17 237.175 100.17C234.093 100.17 231.046 100.84 228.752 102.139L228.751 102.14L185.67 126.453L185.628 135.149Z" stroke="#FFC283" stroke-width="1.42216"/>
</g>
<path d="M236.125 117.795C236.751 117.434 237.697 117.325 238.522 117.521C239.347 117.717 239.876 118.179 239.881 118.692L239.876 121.138C239.876 123.828 241.725 126.408 245.021 128.311L245.443 128.554L246.996 129.451L251.655 132.141C253.368 133.13 253.368 134.738 251.655 135.727L246.996 138.417C245.283 139.406 242.497 139.406 240.784 138.417L234.572 142.003C233.713 142.499 232.325 142.499 231.465 142.003L228.359 140.21C227.5 139.714 227.5 138.913 228.359 138.417L234.572 134.83L234.149 134.587C230.854 132.684 226.384 131.617 221.725 131.617L217.493 131.617C216.6 131.617 215.804 131.308 215.464 130.832C215.125 130.356 215.309 129.812 215.94 129.448L223.103 125.313C222.628 124.545 223.128 123.505 224.482 122.724C225.836 121.942 227.636 121.654 228.966 121.928L236.125 117.795ZM235.508 121.738L229.136 125.416L222.764 129.095C228.214 129.244 233.383 130.558 237.255 132.793L237.678 133.037L242.337 130.347L241.915 130.104C238.042 127.868 235.765 124.884 235.508 121.738Z" fill="#002245"/>
<path d="M210.843 340.394L170.398 316.993L168.392 318.637L208.837 342.049L210.843 340.394Z" fill="#FFF7F5"/>
<path d="M208.836 342.049L168.391 318.637L173.839 344.844L214.272 368.256L208.836 342.049Z" fill="#D9D4D8"/>
<path d="M210.841 340.393L208.836 342.048L214.272 368.255L216.366 367.049L210.841 340.393Z" fill="#AEA6BA"/>
<path d="M232.053 253.698C238.821 257.617 242.988 264.846 242.988 272.667V391.371C242.988 393.541 241.223 394.286 239.053 393.037L58.6309 288.868C56.4607 287.607 54.696 284.834 54.696 282.664V189.002C54.696 172.114 72.9899 161.569 87.604 170.033L232.053 253.698Z" fill="white"/>
<g filter="url(#filter4_d_0_1)">
<path d="M130.252 308.955C126.927 305.63 123.939 301.513 121.371 296.72C118.892 292.092 116.907 287.03 115.474 281.679C114.04 276.328 113.228 270.952 113.061 265.705C112.888 260.269 113.417 255.21 114.634 250.668C115.85 246.126 117.683 242.37 120.079 239.505C122.393 236.738 125.134 234.915 128.223 234.088C131.312 233.26 134.597 233.468 137.984 234.707C141.493 235.99 144.958 238.326 148.283 241.651C151.607 244.976 154.595 249.093 157.163 253.886C159.642 258.514 161.627 263.576 163.061 268.927C164.494 274.278 165.306 279.653 165.473 284.901C165.647 290.337 165.117 295.395 163.9 299.937C162.683 304.479 160.851 308.234 158.455 311.1C156.141 313.867 153.4 315.689 150.311 316.517C147.222 317.345 143.937 317.137 140.549 315.898C137.041 314.615 133.577 312.278 130.252 308.953L130.252 308.955Z" fill="#44AA55"/>
</g>
<path d="M125.198 266.786C125.737 271.066 126.786 278.015 127.743 282.847C128.194 285.127 129.646 286.748 130.963 286.458C138.539 284.791 146.222 280.813 155.882 274.327C156.442 273.951 156.529 272.764 156.069 271.77C155.717 271.011 155.143 270.59 154.67 270.742C145.051 273.836 140.219 275.047 131.221 275.988C131.221 275.988 129.552 271.926 127.702 266.404C127.305 265.219 126.439 264.53 125.792 264.887C125.322 265.145 125.088 265.899 125.199 266.787L125.198 266.786Z" fill="white"/>
<path d="M54.664 164.125V155.28C54.664 153.11 56.4287 152.364 58.5989 153.614L239.109 257.827C241.279 259.088 243.043 261.861 243.043 264.031V272.887L54.664 164.125Z" fill="#003D7C"/>
<rect x="-0.976903" width="25.4494" height="25.4494" rx="1.95787" transform="matrix(-0.866044 -0.499967 -0.866044 0.499967 183.515 179.414)" fill="#E69139" stroke="#FFC283" stroke-width="1.12801"/>
<rect x="-0.976903" width="16.4337" height="16.4337" rx="1.95787" transform="matrix(-0.866044 -0.499967 -0.866044 0.499967 175.768 179.414)" fill="white" stroke="#FFC283" stroke-width="1.12801"/>
<path opacity="0.8" d="M155.926 178.374L141.146 169.377L141.978 179.37V179.37C142.021 179.887 142.043 180.146 142.175 180.357C142.308 180.568 142.531 180.7 142.978 180.964L156.701 189.073C159.441 190.692 160.811 191.502 162.321 191.502C163.832 191.502 165.202 190.692 167.942 189.073L181.665 180.964C182.112 180.7 182.335 180.568 182.468 180.357C182.6 180.146 182.622 179.887 182.665 179.37L183.497 169.377L168.717 178.374C165.603 180.269 164.046 181.217 162.321 181.217C160.597 181.217 159.04 180.269 155.926 178.374Z" fill="#E69139"/>
<rect x="-0.976903" width="25.4494" height="25.4494" rx="1.95787" transform="matrix(-0.866044 -0.499967 -0.866044 0.499967 183.516 168.365)" fill="#E69139" stroke="#FFC283" stroke-width="1.12801"/>
<rect x="2.65343" width="24.6258" height="24.6258" rx="1.6547" transform="matrix(-0.866044 -0.499967 -0.866044 0.499967 184.955 158.932)" fill="#2FA800" stroke="#248000" stroke-width="3.06385"/>
<path opacity="0.4" d="M155.061 167.254L139.328 157.6L140.162 167.612V167.612C140.205 168.12 140.226 168.374 140.354 168.583C140.483 168.791 140.701 168.925 141.136 169.191L156.09 178.332C158.886 180.041 160.283 180.895 161.833 180.897C163.383 180.9 164.784 180.05 167.585 178.35L181.933 169.642C182.371 169.376 182.59 169.243 182.72 169.034C182.849 168.825 182.87 168.57 182.913 168.059L183.747 158.052L167.682 167.401C164.586 169.203 163.038 170.105 161.34 170.085C159.642 170.065 158.115 169.128 155.061 167.254Z" fill="#2FA800"/>
<path d="M161.655 153.747C162.346 153.348 163.47 153.348 164.162 153.747L167.295 155.556L164.788 157.003C164.442 157.203 164.442 157.526 164.788 157.726L167.295 159.173L161.655 162.429C160.964 162.828 159.84 162.828 159.149 162.429L154.136 159.535C153.444 159.136 153.444 158.487 154.136 158.088L161.655 153.747ZM167.921 158.812L165.415 157.365L167.921 155.918L167.921 158.812Z" fill="white"/>
<rect x="-0.976903" width="25.4494" height="25.4494" rx="1.95787" transform="matrix(-0.866044 -0.499967 -0.866044 0.499967 337.673 102.481)" fill="#E69139" stroke="#FFC283" stroke-width="1.12801"/>
<rect x="-0.976903" width="16.4337" height="16.4337" rx="1.95787" transform="matrix(-0.866044 -0.499967 -0.866044 0.499967 329.926 102.481)" fill="white" stroke="#FFC283" stroke-width="1.12801"/>
<path opacity="0.8" d="M310.083 101.44L295.303 92.4436L296.136 102.436V102.436C296.179 102.954 296.2 103.212 296.333 103.423C296.465 103.635 296.689 103.767 297.136 104.031L310.858 112.14C313.598 113.759 314.969 114.568 316.479 114.568C317.989 114.568 319.359 113.759 322.099 112.14L335.822 104.031C336.269 103.767 336.492 103.635 336.625 103.423C336.757 103.212 336.779 102.954 336.822 102.436L337.655 92.4436L322.875 101.44C319.761 103.336 318.203 104.283 316.479 104.283C314.754 104.283 313.197 103.336 310.083 101.44Z" fill="#E69139"/>
<rect x="-0.976903" width="25.4494" height="25.4494" rx="1.95787" transform="matrix(-0.866044 -0.499967 -0.866044 0.499967 337.673 91.4317)" fill="#E69139" stroke="#FFC283" stroke-width="1.12801"/>
<rect x="2.65343" width="24.6258" height="24.6258" rx="1.6547" transform="matrix(-0.866044 -0.499967 -0.866044 0.499967 339.232 81.9323)" fill="#2FA800" stroke="#248000" stroke-width="3.06385"/>
<path opacity="0.4" d="M309.338 90.2542L293.605 80.5999L294.439 90.6116V90.6116C294.481 91.12 294.503 91.3742 294.631 91.5828C294.76 91.7915 294.978 91.9245 295.413 92.1906L310.367 101.332C313.163 103.041 314.56 103.895 316.11 103.897C317.66 103.9 319.061 103.05 321.861 101.35L336.21 92.6416C336.648 92.3759 336.867 92.2431 336.997 92.0339C337.126 91.8247 337.147 91.5695 337.19 91.0592L338.024 81.0516L321.959 90.4012C318.863 92.2034 317.315 93.1045 315.617 93.0848C313.919 93.065 312.392 92.1281 309.338 90.2542Z" fill="#2FA800"/>
<path d="M315.932 76.7472C316.623 76.3481 317.747 76.3481 318.439 76.7472L321.572 78.5559L319.065 80.0029C318.719 80.203 318.719 80.5263 319.065 80.7264L321.572 82.1734L315.932 85.4292C315.241 85.8283 314.117 85.8283 313.426 85.4292L308.413 82.5352C307.721 82.1361 307.721 81.4872 308.413 81.0882L315.932 76.7472ZM322.198 81.8117L319.692 80.3647L322.198 78.9177L322.198 81.8117Z" fill="white"/>
<rect x="-0.976903" width="25.4494" height="25.4494" rx="1.95787" transform="matrix(-0.866044 -0.499967 -0.866044 0.499967 333.291 294.291)" fill="#E69139" stroke="#FFC283" stroke-width="1.12801"/>
<rect x="-0.976903" width="16.4337" height="16.4337" rx="1.95787" transform="matrix(-0.866044 -0.499967 -0.866044 0.499967 325.543 294.291)" fill="white" stroke="#FFC283" stroke-width="1.12801"/>
<path opacity="0.8" d="M305.7 293.251L290.92 284.254L291.753 294.247V294.247C291.796 294.764 291.818 295.023 291.95 295.234C292.083 295.445 292.306 295.577 292.753 295.841L306.476 303.95C309.216 305.569 310.586 306.379 312.096 306.379C313.606 306.379 314.976 305.569 317.717 303.95L331.439 295.841C331.886 295.577 332.11 295.445 332.242 295.234C332.375 295.023 332.396 294.764 332.439 294.247L333.272 284.254L318.492 293.251C315.378 295.146 313.821 296.094 312.096 296.094C310.371 296.094 308.814 295.146 305.7 293.251Z" fill="#E69139"/>
<rect x="-0.976903" width="25.4494" height="25.4494" rx="1.95787" transform="matrix(-0.866044 -0.499967 -0.866044 0.499967 333.285 283.246)" fill="#E69139" stroke="#FFC283" stroke-width="1.12801"/>
<path d="M325.53 158.257C325.008 158.553 324.372 158.484 323.623 158.052C322.875 157.62 322.239 156.954 321.717 156.055C321.199 155.154 320.941 154.268 320.941 153.397C320.941 152.527 321.199 151.942 321.716 151.644C322.239 151.342 322.874 151.408 323.623 151.84C324.372 152.272 325.007 152.941 325.53 153.845C326.052 154.744 326.313 155.629 326.313 156.499C326.313 157.369 326.052 157.955 325.53 158.257ZM322.434 155.667C322.754 156.216 323.15 156.627 323.623 156.9C324.096 157.173 324.493 157.22 324.813 157.041C325.133 156.856 325.293 156.479 325.293 155.91C325.293 155.341 325.133 154.78 324.813 154.225C324.493 153.67 324.096 153.257 323.623 152.984C323.15 152.71 322.754 152.666 322.433 152.851C322.113 153.036 321.953 153.413 321.953 153.982C321.953 154.551 322.113 155.112 322.434 155.667ZM328.988 156.644C329.486 156.931 329.909 157.395 330.259 158.035C330.614 158.672 330.791 159.306 330.791 159.938C330.791 160.569 330.614 161.002 330.259 161.235C329.91 161.465 329.486 161.437 328.988 161.149C328.471 160.851 328.072 160.413 327.791 159.835L327.791 162.045L326.838 161.495L326.838 155.522L327.791 156.072L327.791 156.576C328.072 156.323 328.471 156.345 328.988 156.644ZM328.079 159.242C328.271 159.575 328.515 159.827 328.811 159.998C329.106 160.168 329.35 160.198 329.542 160.087C329.739 159.973 329.838 159.74 329.838 159.387C329.838 159.035 329.739 158.691 329.542 158.355C329.35 158.016 329.106 157.762 328.811 157.591C328.515 157.421 328.271 157.394 328.079 157.51C327.887 157.621 327.791 157.853 327.791 158.206C327.791 158.558 327.887 158.904 328.079 159.242ZM332.121 161.158C332.249 161.767 332.597 162.234 333.163 162.562C333.528 162.772 333.804 162.789 333.991 162.613L334.759 163.568C334.395 163.967 333.858 163.961 333.149 163.551C332.538 163.199 332.047 162.702 331.678 162.062C331.308 161.422 331.124 160.778 331.124 160.13C331.124 159.487 331.306 159.057 331.67 158.841C332.035 158.619 332.503 158.673 333.074 159.003C333.616 159.316 334.062 159.79 334.412 160.424C334.767 161.061 334.944 161.698 334.944 162.335C334.944 162.478 334.932 162.621 334.907 162.766L332.121 161.158ZM332.106 160.296L333.991 161.384C333.937 161.063 333.823 160.781 333.651 160.539C333.483 160.3 333.291 160.118 333.074 159.993C332.818 159.845 332.606 159.8 332.439 159.857C332.271 159.908 332.161 160.054 332.106 160.296ZM336.415 161.785C336.504 161.563 336.649 161.443 336.851 161.423C337.058 161.406 337.287 161.47 337.538 161.615L337.538 162.843C337.248 162.636 336.986 162.553 336.755 162.596C336.528 162.641 336.415 162.869 336.415 163.279L336.415 165.318L335.462 164.768L335.462 160.501L336.415 161.051L336.415 161.785ZM340.619 163.479L341.572 164.029L341.572 168.295L340.619 167.745L340.619 167.242C340.333 167.492 339.932 167.468 339.415 167.169C338.922 166.885 338.498 166.424 338.144 165.787C337.794 165.147 337.619 164.511 337.619 163.88C337.619 163.248 337.794 162.817 338.143 162.587C338.498 162.354 338.922 162.379 339.414 162.664C339.932 162.962 340.333 163.402 340.619 163.982L340.619 163.479ZM338.86 165.467C339.052 165.8 339.296 166.051 339.592 166.222C339.888 166.393 340.131 166.423 340.324 166.312C340.521 166.198 340.619 165.965 340.619 165.612C340.619 165.259 340.52 164.915 340.323 164.579C340.131 164.241 339.887 163.986 339.592 163.816C339.296 163.645 339.052 163.618 338.86 163.735C338.668 163.846 338.572 164.077 338.572 164.43C338.572 164.783 338.668 165.128 338.86 165.467ZM344.402 166.721L343.567 166.239L343.567 168.014C343.567 168.162 343.599 168.288 343.664 168.394C343.728 168.499 343.821 168.593 343.944 168.675C344.067 168.752 344.22 168.837 344.402 168.931L344.403 169.929C343.747 169.636 343.284 169.298 343.013 168.914C342.747 168.533 342.614 168.049 342.614 167.463L342.614 165.689L341.971 165.317L341.971 164.259L342.614 164.63L342.614 163.769L343.567 163.986L343.567 165.181L344.402 165.663L344.402 166.721ZM345.399 165.727C345.242 165.636 345.104 165.491 344.986 165.292C344.872 165.09 344.816 164.898 344.816 164.716C344.816 164.534 344.872 164.407 344.986 164.336C345.104 164.268 345.242 164.279 345.399 164.37C345.562 164.464 345.7 164.612 345.813 164.814C345.931 165.019 345.991 165.212 345.991 165.394C345.991 165.576 345.932 165.701 345.813 165.769C345.7 165.835 345.562 165.821 345.399 165.727ZM344.927 170.232L344.927 165.966L345.88 166.516L345.88 170.783L344.927 170.232ZM349.753 172.489C349.374 172.703 348.91 172.652 348.364 172.336C347.817 172.02 347.354 171.537 346.974 170.885C346.6 170.231 346.413 169.588 346.413 168.957C346.413 168.325 346.6 167.902 346.974 167.685C347.353 167.466 347.816 167.515 348.363 167.83C348.91 168.146 349.373 168.633 349.753 169.29C350.132 169.941 350.322 170.582 350.322 171.214C350.322 171.845 350.132 172.27 349.753 172.489ZM347.647 170.514C347.839 170.847 348.078 171.096 348.364 171.261C348.649 171.426 348.888 171.453 349.08 171.342C349.272 171.231 349.368 171.005 349.368 170.663C349.368 170.322 349.272 169.985 349.08 169.652C348.888 169.319 348.649 169.071 348.363 168.906C348.078 168.741 347.839 168.714 347.647 168.825C347.459 168.938 347.366 169.166 347.366 169.507C347.366 169.848 347.46 170.184 347.647 170.514ZM352.899 170.449C353.303 170.682 353.635 171.031 353.896 171.494C354.162 171.961 354.296 172.47 354.296 173.022L354.296 175.641L353.342 175.091L353.342 172.608C353.342 172.323 353.276 172.069 353.143 171.844C353.01 171.614 352.832 171.435 352.611 171.307C352.364 171.164 352.167 171.139 352.019 171.23C351.872 171.321 351.798 171.543 351.798 171.895L351.798 174.199L350.845 173.649L350.844 169.382L351.798 169.933L351.798 170.411C352.029 170.146 352.396 170.159 352.899 170.449ZM355.841 173.479C355.841 173.593 355.905 173.723 356.033 173.871C356.166 174.016 356.326 174.171 356.514 174.336C356.701 174.496 356.888 174.672 357.075 174.865C357.262 175.053 357.42 175.281 357.548 175.548C357.681 175.818 357.748 176.098 357.748 176.389C357.748 176.827 357.605 177.083 357.319 177.157C357.038 177.228 356.686 177.141 356.263 176.896C355.504 176.458 354.987 175.821 354.711 174.985L355.538 174.925C355.647 175.357 355.888 175.682 356.262 175.898C356.602 176.094 356.772 176.07 356.772 175.825C356.772 175.712 356.706 175.582 356.573 175.437C356.445 175.289 356.287 175.133 356.1 174.968C355.913 174.803 355.725 174.624 355.538 174.43C355.351 174.237 355.191 174.011 355.058 173.752C354.93 173.49 354.866 173.22 354.866 172.941C354.866 172.52 354.999 172.267 355.265 172.182C355.536 172.094 355.871 172.165 356.27 172.395C356.57 172.569 356.844 172.806 357.09 173.108C357.336 173.403 357.531 173.738 357.674 174.11L356.861 174.153C356.743 173.795 356.546 173.536 356.27 173.376C356.146 173.305 356.043 173.277 355.959 173.291C355.88 173.308 355.841 173.371 355.841 173.479Z" fill="#003D7C"/>
<path opacity="0.4" d="M215.577 129.749L180.778 109L182.902 129.959V129.959C183.068 131.592 183.15 132.409 183.577 133.072C184.004 133.735 184.713 134.149 186.131 134.976L218.358 153.775C226.895 158.755 231.163 161.245 235.862 161.266C240.561 161.287 244.852 158.835 253.433 153.932L286.44 135.07C287.965 134.199 288.727 133.764 289.167 133.049C289.607 132.335 289.653 131.458 289.745 129.705L290.778 110L255.272 130.167C245.529 135.701 240.658 138.468 235.335 138.412C230.012 138.355 225.2 135.486 215.577 129.749Z" fill="#2FA800"/>
<path opacity="0.4" d="M215.706 110.094L183.276 131L180.826 111.808C180.56 109.719 180.426 108.675 180.862 107.788C181.298 106.901 182.206 106.369 184.023 105.303L219.393 84.5556C228.164 79.4109 232.549 76.8385 237.371 76.868C242.192 76.8974 246.545 79.5231 255.253 84.7744L287.766 104.383C289.473 105.413 290.327 105.928 290.754 106.766C291.18 107.605 291.094 108.598 290.921 110.584L289.276 129.5L258.116 109.872C247.78 103.36 242.611 100.105 236.859 100.135C231.107 100.165 225.973 103.475 215.706 110.094Z" fill="#2FA800"/>
<path d="M184.727 111.619L184.717 111.613C182.448 110.329 181.589 108.813 181.596 107.538C181.602 106.26 182.481 104.739 184.764 103.453L184.727 111.619ZM184.727 111.619L227.285 136.273C227.287 136.274 227.288 136.275 227.29 136.276C229.547 137.552 232.58 138.222 235.676 138.222C238.774 138.222 241.816 137.551 244.088 136.272L244.089 136.271L288.031 111.612C288.032 111.611 288.032 111.611 288.032 111.611C290.316 110.325 291.195 108.804 291.201 107.526C291.208 106.251 290.349 104.735 288.08 103.45L288.08 103.45L288.07 103.445L245.512 78.7909C245.51 78.79 245.509 78.7891 245.507 78.7882C243.25 77.5119 240.217 76.8425 237.121 76.8425C234.023 76.8425 230.981 77.5128 228.709 78.792L228.708 78.7928L184.766 103.452L184.727 111.619Z" stroke="#248000" stroke-width="2.19212"/>
<path d="M198.003 128.333L198.003 134.306L196.991 133.722L196.99 129.848L195.535 131.781L195.417 131.712L193.961 128.107L193.961 131.973L192.941 131.384L192.941 125.411L193.99 126.017L195.475 129.699L196.953 127.728L198.003 128.333ZM201.583 132.107L202.536 132.657L202.536 136.924L201.583 136.373L201.583 135.87C201.297 136.12 200.896 136.096 200.378 135.797C199.886 135.513 199.462 135.052 199.107 134.415C198.757 133.775 198.582 133.139 198.582 132.508C198.582 131.876 198.757 131.445 199.107 131.215C199.462 130.982 199.885 131.007 200.378 131.292C200.895 131.591 201.297 132.03 201.583 132.61L201.583 132.107ZM199.824 134.095C200.016 134.428 200.26 134.679 200.556 134.85C200.851 135.021 201.095 135.051 201.287 134.94C201.484 134.826 201.583 134.593 201.583 134.24C201.583 133.887 201.484 133.543 201.287 133.208C201.095 132.869 200.851 132.615 200.555 132.444C200.26 132.273 200.016 132.246 199.824 132.363C199.632 132.474 199.536 132.706 199.536 133.058C199.536 133.411 199.632 133.757 199.824 134.095ZM204.206 134.355C204.294 134.133 204.44 134.012 204.642 133.992C204.849 133.975 205.078 134.039 205.329 134.184L205.329 135.413C205.038 135.206 204.777 135.123 204.546 135.166C204.319 135.211 204.206 135.439 204.206 135.848L204.206 137.888L203.253 137.337L203.252 133.071L204.206 133.621L204.206 134.355ZM209.146 140.74L208.037 140.1L206.692 137.386L206.692 139.323L205.739 138.773L205.739 132.8L206.692 133.35L206.692 136.934L207.963 135.791L209.101 136.448L207.616 137.698L209.146 140.74ZM210.012 139.559C210.14 140.168 210.487 140.636 211.054 140.963C211.419 141.173 211.694 141.19 211.882 141.014L212.65 141.97C212.286 142.368 211.749 142.362 211.039 141.952C210.428 141.6 209.938 141.103 209.569 140.463C209.199 139.823 209.014 139.179 209.014 138.531C209.014 137.888 209.197 137.458 209.561 137.242C209.926 137.02 210.394 137.074 210.965 137.404C211.507 137.717 211.953 138.191 212.303 138.825C212.657 139.462 212.835 140.099 212.835 140.736C212.835 140.879 212.823 141.022 212.798 141.167L210.012 139.559ZM209.997 138.697L211.882 139.785C211.827 139.464 211.714 139.182 211.542 138.94C211.374 138.701 211.182 138.519 210.965 138.394C210.709 138.246 210.497 138.201 210.33 138.258C210.162 138.309 210.051 138.455 209.997 138.697ZM215.358 141.118L214.523 140.636L214.523 142.411C214.523 142.559 214.555 142.685 214.619 142.79C214.683 142.896 214.777 142.99 214.9 143.072C215.023 143.149 215.176 143.234 215.358 143.328L215.358 144.326C214.703 144.033 214.24 143.695 213.969 143.311C213.703 142.93 213.57 142.446 213.57 141.86L213.569 140.085L212.926 139.714L212.926 138.656L213.569 139.027L213.569 138.166L214.522 138.383L214.523 139.578L215.358 140.06L215.358 141.118ZM216.355 140.124C216.197 140.033 216.059 139.888 215.941 139.688C215.828 139.487 215.771 139.295 215.771 139.113C215.771 138.93 215.828 138.804 215.941 138.733C216.059 138.665 216.197 138.676 216.355 138.767C216.517 138.861 216.655 139.009 216.769 139.211C216.887 139.415 216.946 139.609 216.946 139.791C216.946 139.973 216.887 140.098 216.769 140.166C216.655 140.232 216.517 140.218 216.355 140.124ZM215.882 144.629L215.882 140.363L216.835 140.913L216.836 145.179L215.882 144.629ZM219.614 142.398C220.018 142.631 220.351 142.98 220.612 143.443C220.878 143.91 221.011 144.419 221.011 144.971L221.011 147.59L220.058 147.04L220.058 144.557C220.058 144.272 219.991 144.018 219.858 143.793C219.725 143.563 219.548 143.384 219.326 143.256C219.08 143.113 218.883 143.088 218.735 143.179C218.587 143.27 218.513 143.492 218.513 143.844L218.514 146.148L217.56 145.598L217.56 141.331L218.513 141.882L218.513 142.36C218.745 142.095 219.112 142.108 219.614 142.398ZM224.507 145.342L225.438 145.88L225.439 149.942C225.439 150.602 225.249 150.996 224.87 151.124C224.496 151.254 224.042 151.166 223.51 150.859C223.111 150.629 222.759 150.337 222.453 149.984C222.153 149.635 221.921 149.242 221.759 148.807L222.572 148.739C222.759 149.245 223.082 149.63 223.54 149.895C223.84 150.068 224.077 150.114 224.249 150.031C224.422 149.949 224.508 149.74 224.508 149.404L224.508 148.943C224.227 149.214 223.833 149.202 223.325 148.909C222.803 148.608 222.365 148.144 222.01 147.518C221.66 146.89 221.485 146.271 221.485 145.662C221.485 145.059 221.662 144.647 222.017 144.425C222.372 144.203 222.808 144.242 223.325 144.54C223.832 144.833 224.227 145.277 224.507 145.872L224.507 145.342ZM222.727 147.224C222.924 147.554 223.173 147.806 223.473 147.979C223.774 148.153 224.02 148.187 224.212 148.082C224.409 147.973 224.508 147.749 224.508 147.407C224.508 147.072 224.409 146.739 224.212 146.409C224.02 146.076 223.773 145.823 223.473 145.65C223.172 145.476 222.924 145.443 222.727 145.552C222.534 145.657 222.438 145.877 222.438 146.213C222.438 146.554 222.535 146.891 222.727 147.224Z" fill="#003D7C"/>
<path d="M209.297 233.322L208.987 232.067L206.925 230.877L206.615 231.773L205.514 231.137L207.324 226.209L208.587 226.939L210.406 233.962L209.297 233.322ZM207.25 229.964L208.669 230.783L207.959 227.933L207.25 229.964ZM212.373 235.217C211.817 234.896 211.351 234.411 210.977 233.762C210.607 233.117 210.422 232.475 210.422 231.838C210.422 231.201 210.607 230.773 210.977 230.554C211.351 230.338 211.816 230.39 212.373 230.712C212.733 230.919 213.06 231.208 213.356 231.578C213.652 231.948 213.876 232.344 214.029 232.768L213.208 232.849C213.134 232.63 213.021 232.425 212.868 232.235C212.721 232.047 212.553 231.899 212.366 231.791C212.08 231.626 211.844 231.601 211.656 231.714C211.469 231.822 211.376 232.047 211.376 232.388C211.376 232.724 211.469 233.057 211.657 233.387C211.844 233.711 212.08 233.956 212.366 234.121C212.558 234.232 212.728 234.281 212.876 234.27C213.029 234.256 213.142 234.182 213.216 234.048L214.043 235.072C213.881 235.314 213.652 235.452 213.356 235.486C213.061 235.514 212.733 235.425 212.373 235.217ZM216.101 237.369C215.544 237.048 215.079 236.563 214.704 235.914C214.335 235.269 214.15 234.627 214.15 233.99C214.15 233.353 214.335 232.925 214.704 232.706C215.078 232.49 215.544 232.542 216.101 232.864C216.46 233.071 216.788 233.36 217.083 233.73C217.379 234.1 217.603 234.496 217.756 234.92L216.936 235.001C216.862 234.782 216.749 234.578 216.596 234.387C216.448 234.199 216.281 234.051 216.093 233.943C215.808 233.778 215.571 233.753 215.384 233.866C215.197 233.975 215.103 234.199 215.103 234.541C215.103 234.876 215.197 235.209 215.384 235.539C215.571 235.863 215.808 236.108 216.093 236.273C216.286 236.384 216.456 236.433 216.603 236.422C216.756 236.408 216.869 236.334 216.943 236.2L217.771 237.224C217.608 237.466 217.379 237.604 217.084 237.638C216.788 237.666 216.461 237.577 216.101 237.369ZM221.218 239.675C220.838 239.888 220.375 239.837 219.828 239.521C219.282 239.206 218.818 238.722 218.439 238.071C218.065 237.416 217.877 236.774 217.877 236.142C217.877 235.511 218.065 235.087 218.439 234.871C218.818 234.652 219.281 234.7 219.828 235.016C220.375 235.332 220.838 235.818 221.217 236.475C221.597 237.126 221.787 237.768 221.787 238.399C221.787 239.031 221.597 239.456 221.218 239.675ZM219.112 237.699C219.304 238.032 219.543 238.281 219.828 238.446C220.114 238.611 220.353 238.638 220.545 238.527C220.737 238.416 220.833 238.19 220.833 237.849C220.833 237.508 220.737 237.17 220.545 236.838C220.353 236.505 220.114 236.256 219.828 236.091C219.542 235.926 219.304 235.899 219.111 236.01C218.924 236.124 218.831 236.351 218.831 236.693C218.831 237.034 218.924 237.37 219.112 237.699ZM224.748 237.976L225.701 238.526L225.701 242.793L224.748 242.242L224.748 241.764C224.517 242.029 224.15 242.016 223.647 241.726C223.243 241.493 222.908 241.143 222.642 240.676C222.381 240.213 222.25 239.705 222.25 239.153L222.25 236.534L223.203 237.084L223.204 239.567C223.204 239.852 223.27 240.109 223.403 240.339C223.536 240.564 223.714 240.74 223.935 240.868C224.182 241.011 224.379 241.036 224.526 240.945C224.674 240.854 224.748 240.632 224.748 240.28L224.748 237.976ZM228.481 240.011C228.885 240.245 229.217 240.593 229.478 241.057C229.744 241.523 229.877 242.032 229.878 242.584L229.878 245.204L228.924 244.653L228.924 242.17C228.924 241.886 228.858 241.631 228.725 241.407C228.592 241.176 228.414 240.997 228.193 240.869C227.946 240.727 227.749 240.701 227.601 240.792C227.454 240.883 227.38 241.105 227.38 241.458L227.38 243.762L226.427 243.211L226.426 238.945L227.38 239.495L227.38 239.973C227.611 239.709 227.978 239.721 228.481 240.011ZM232.657 243.6L231.822 243.118L231.822 244.893C231.822 245.041 231.854 245.167 231.918 245.273C231.982 245.378 232.076 245.472 232.199 245.554C232.322 245.631 232.475 245.716 232.657 245.81L232.657 246.809C232.002 246.516 231.539 246.177 231.268 245.793C231.002 245.412 230.869 244.929 230.869 244.343L230.869 242.568L230.226 242.197L230.226 241.138L230.869 241.51L230.869 240.648L231.822 240.865L231.822 242.06L232.657 242.542L232.657 243.6ZM233.654 242.606C233.497 242.515 233.359 242.37 233.24 242.171C233.127 241.969 233.07 241.777 233.07 241.595C233.07 241.413 233.127 241.286 233.24 241.215C233.359 241.147 233.497 241.158 233.654 241.249C233.817 241.343 233.955 241.491 234.068 241.693C234.186 241.898 234.245 242.091 234.245 242.273C234.245 242.455 234.186 242.58 234.068 242.649C233.955 242.714 233.817 242.7 233.654 242.606ZM233.182 247.111L233.181 242.845L234.135 243.395L234.135 247.662L233.182 247.111ZM236.914 244.88C237.318 245.113 237.65 245.462 237.911 245.926C238.177 246.392 238.31 246.901 238.31 247.453L238.311 250.073L237.357 249.522L237.357 247.039C237.357 246.755 237.291 246.5 237.158 246.275C237.025 246.045 236.847 245.866 236.626 245.738C236.379 245.596 236.182 245.57 236.034 245.661C235.887 245.752 235.813 245.974 235.813 246.327L235.813 248.63L234.86 248.08L234.859 243.814L235.813 244.364L235.813 244.842C236.044 244.577 236.411 244.59 236.914 244.88ZM241.807 247.825L242.738 248.362L242.738 252.424C242.738 253.084 242.549 253.478 242.169 253.606C241.795 253.737 241.342 253.648 240.81 253.341C240.411 253.111 240.058 252.819 239.753 252.467C239.452 252.117 239.221 251.724 239.058 251.289L239.871 251.221C240.058 251.727 240.381 252.113 240.839 252.377C241.14 252.551 241.376 252.596 241.549 252.514C241.721 252.431 241.807 252.222 241.807 251.886L241.807 251.426C241.526 251.696 241.132 251.684 240.625 251.392C240.103 251.09 239.664 250.626 239.309 250.001C238.96 249.372 238.785 248.753 238.785 248.145C238.785 247.542 238.962 247.129 239.316 246.907C239.671 246.686 240.107 246.724 240.624 247.023C241.132 247.316 241.526 247.759 241.807 248.354L241.807 247.825ZM240.026 249.706C240.223 250.036 240.472 250.288 240.772 250.461C241.073 250.635 241.319 250.669 241.511 250.564C241.708 250.456 241.807 250.231 241.807 249.89C241.807 249.554 241.708 249.221 241.511 248.891C241.319 248.559 241.073 248.305 240.772 248.132C240.472 247.958 240.223 247.926 240.026 248.034C239.834 248.139 239.738 248.359 239.738 248.695C239.738 249.036 239.834 249.373 240.026 249.706Z" fill="#003D7C"/>
<path d="M347.071 245.91L349.251 247.169L349.251 248.295L346.051 246.448L346.051 240.475L349.214 242.301L349.214 243.427L347.071 242.19L347.071 243.461L349.029 244.592L349.029 245.701L347.071 244.57L347.071 245.91ZM349.822 246.577L349.822 245.519L352.593 247.119L352.593 248.177L349.822 246.577ZM355.859 252.229C355.08 251.78 354.437 251.11 353.93 250.22C353.422 249.33 353.169 248.446 353.169 247.57C353.168 246.689 353.422 246.098 353.929 245.8C354.437 245.495 355.08 245.568 355.858 246.017C356.326 246.288 356.757 246.664 357.151 247.148C357.55 247.629 357.861 248.149 358.083 248.709L357.203 248.791C357.075 248.449 356.893 248.136 356.656 247.852C356.42 247.562 356.154 247.331 355.858 247.161C355.356 246.871 354.949 246.818 354.639 247.003C354.334 247.191 354.181 247.575 354.181 248.155C354.181 248.729 354.334 249.287 354.639 249.827C354.95 250.371 355.356 250.787 355.859 251.077C356.154 251.248 356.42 251.328 356.657 251.316C356.898 251.302 357.08 251.2 357.203 251.009L358.083 252.106C357.861 252.41 357.553 252.576 357.159 252.605C356.765 252.628 356.332 252.502 355.859 252.229ZM361.687 254.946C361.308 255.159 360.844 255.108 360.298 254.792C359.751 254.476 359.288 253.993 358.908 253.342C358.534 252.687 358.347 252.045 358.347 251.413C358.347 250.782 358.534 250.358 358.908 250.142C359.287 249.923 359.75 249.971 360.297 250.287C360.844 250.603 361.307 251.089 361.687 251.746C362.066 252.397 362.256 253.039 362.256 253.67C362.256 254.302 362.066 254.727 361.687 254.946ZM359.581 252.97C359.773 253.303 360.012 253.552 360.298 253.717C360.583 253.882 360.822 253.909 361.014 253.798C361.206 253.687 361.303 253.461 361.302 253.12C361.302 252.778 361.206 252.441 361.014 252.109C360.822 251.776 360.583 251.527 360.297 251.362C360.012 251.197 359.773 251.17 359.581 251.281C359.393 251.395 359.3 251.622 359.3 251.964C359.3 252.305 359.394 252.64 359.581 252.97ZM366.865 254.079C367.289 254.323 367.626 254.677 367.877 255.141C368.134 255.607 368.262 256.108 368.262 256.643L368.262 259.271L367.309 258.721L367.308 256.169C367.308 255.913 367.254 255.683 367.146 255.478C367.037 255.273 366.885 255.114 366.688 255C366.471 254.875 366.301 254.859 366.178 254.953C366.06 255.05 366 255.255 366 255.568L366.001 257.965L365.047 257.415L365.047 254.864C365.047 254.608 364.993 254.377 364.885 254.172C364.776 253.968 364.623 253.808 364.426 253.695C364.215 253.572 364.045 253.557 363.917 253.648C363.793 253.742 363.732 253.945 363.732 254.258L363.732 256.656L362.779 256.105L362.778 251.839L363.732 252.389L363.732 252.841C363.953 252.588 364.296 252.595 364.759 252.863C365.212 253.124 365.547 253.523 365.764 254.057C366.01 253.79 366.377 253.797 366.865 254.079ZM373.01 257.626C373.434 257.871 373.771 258.225 374.022 258.689C374.279 259.155 374.407 259.656 374.407 260.191L374.407 262.819L373.454 262.268L373.453 259.717C373.453 259.461 373.399 259.231 373.291 259.026C373.182 258.821 373.03 258.662 372.833 258.548C372.616 258.423 372.446 258.407 372.323 258.501C372.205 258.598 372.146 258.803 372.146 259.115L372.146 261.513L371.192 260.963L371.192 258.411C371.192 258.155 371.138 257.925 371.03 257.72C370.921 257.516 370.768 257.356 370.571 257.242C370.36 257.12 370.19 257.105 370.062 257.196C369.938 257.289 369.877 257.493 369.877 257.806L369.877 260.203L368.924 259.653L368.923 255.387L369.877 255.937L369.877 256.389C370.098 256.136 370.441 256.143 370.904 256.411C371.357 256.672 371.692 257.07 371.909 257.605C372.155 257.338 372.522 257.345 373.01 257.626ZM375.874 261.985C376.002 262.594 376.35 263.061 376.916 263.389C377.281 263.599 377.557 263.616 377.744 263.44L378.512 264.395C378.148 264.794 377.611 264.788 376.901 264.378C376.291 264.026 375.8 263.529 375.431 262.889C375.061 262.249 374.877 261.605 374.877 260.957C374.876 260.314 375.059 259.884 375.423 259.668C375.788 259.446 376.256 259.5 376.827 259.83C377.369 260.143 377.815 260.617 378.165 261.251C378.52 261.888 378.697 262.525 378.697 263.162C378.697 263.305 378.685 263.448 378.66 263.593L375.874 261.985ZM375.859 261.123L377.744 262.211C377.689 261.89 377.576 261.608 377.404 261.366C377.236 261.127 377.044 260.945 376.827 260.82C376.571 260.672 376.359 260.627 376.192 260.684C376.024 260.735 375.913 260.881 375.859 261.123ZM380.168 262.612C380.257 262.39 380.402 262.27 380.604 262.25C380.811 262.233 381.04 262.297 381.291 262.442L381.291 263.67C381 263.463 380.739 263.38 380.508 263.423C380.281 263.468 380.168 263.696 380.168 264.106L380.168 266.145L379.215 265.595L379.215 261.328L380.168 261.878L380.168 262.612ZM383.323 268.086C382.766 267.764 382.3 267.279 381.926 266.631C381.557 265.985 381.372 265.344 381.372 264.707C381.372 264.07 381.556 263.641 381.926 263.422C382.3 263.206 382.766 263.259 383.322 263.58C383.682 263.788 384.01 264.077 384.305 264.446C384.601 264.816 384.825 265.213 384.978 265.637L384.158 265.718C384.084 265.499 383.97 265.294 383.818 265.103C383.67 264.916 383.502 264.768 383.315 264.66C383.029 264.495 382.793 264.469 382.606 264.583C382.419 264.691 382.325 264.916 382.325 265.257C382.325 265.593 382.419 265.925 382.606 266.255C382.793 266.58 383.03 266.824 383.315 266.989C383.507 267.1 383.677 267.15 383.825 267.139C383.978 267.124 384.091 267.05 384.165 266.917L384.993 267.941C384.83 268.182 384.601 268.32 384.306 268.355C384.01 268.383 383.682 268.293 383.323 268.086ZM386.097 267.887C386.225 268.496 386.572 268.964 387.139 269.291C387.503 269.501 387.779 269.518 387.966 269.342L388.735 270.298C388.371 270.696 387.834 270.69 387.124 270.28C386.513 269.928 386.023 269.431 385.654 268.791C385.284 268.151 385.099 267.507 385.099 266.859C385.099 266.216 385.281 265.786 385.646 265.57C386.01 265.348 386.478 265.402 387.05 265.732C387.592 266.045 388.038 266.519 388.387 267.153C388.742 267.79 388.92 268.427 388.92 269.065C388.92 269.207 388.907 269.35 388.883 269.495L386.097 267.887ZM386.082 267.025L387.966 268.113C387.912 267.792 387.799 267.51 387.626 267.268C387.459 267.029 387.267 266.847 387.05 266.722C386.794 266.574 386.582 266.529 386.414 266.586C386.247 266.637 386.136 266.783 386.082 267.025Z" fill="#003D7C"/>
<rect x="2.65343" width="24.6258" height="24.6258" rx="1.6547" transform="matrix(-0.866044 -0.499967 -0.866044 0.499967 335.232 273.932)" fill="#2FA800" stroke="#248000" stroke-width="3.06385"/>
<path opacity="0.4" d="M305.338 282.254L289.605 272.6L290.439 282.612V282.612C290.482 283.12 290.503 283.374 290.632 283.583C290.76 283.791 290.978 283.924 291.413 284.191L306.367 293.332C309.163 295.04 310.56 295.895 312.11 295.897C313.66 295.9 315.061 295.05 317.862 293.35L332.211 284.642C332.648 284.376 332.867 284.243 332.997 284.034C333.126 283.825 333.147 283.57 333.19 283.059L334.024 273.052L317.96 282.401C314.863 284.203 313.315 285.105 311.617 285.085C309.919 285.065 308.392 284.128 305.338 282.254Z" fill="#2FA800"/>
<path d="M311.932 268.747C312.624 268.348 313.748 268.348 314.439 268.747L317.572 270.556L315.065 272.003C314.719 272.203 314.719 272.526 315.065 272.726L317.572 274.173L311.932 277.429C311.241 277.828 310.117 277.828 309.426 277.429L304.413 274.535C303.722 274.136 303.722 273.487 304.413 273.088L311.932 268.747ZM318.199 273.812L315.692 272.365L318.199 270.918L318.199 273.812Z" fill="white"/>
<path d="M337.845 380.863L333.602 365.813L336.742 364L339.642 375.3L342.804 360.5L345.359 359.025L348.54 370.163L351.443 355.513L354.582 353.7L350.337 373.65L346.938 375.613L344.081 365.713L341.244 378.9L337.845 380.863ZM359.745 354.219C359.283 354.486 358.879 354.527 358.533 354.344C358.201 354.136 358.035 353.765 358.035 353.232C358.035 352.698 358.201 352.136 358.533 351.544C358.879 350.944 359.284 350.511 359.745 350.244C360.222 349.969 360.626 349.936 360.958 350.144C361.304 350.344 361.477 350.711 361.477 351.244C361.477 351.777 361.304 352.344 360.958 352.944C360.626 353.519 360.221 353.944 359.745 354.219ZM358.358 369.019L358.359 356.519L361.152 354.907L361.151 367.407L358.358 369.019ZM372.499 351.456L370.052 352.868L370.052 358.068C370.052 358.502 370.145 358.764 370.333 358.856C370.521 358.947 370.795 358.906 371.156 358.731C371.517 358.539 371.964 358.272 372.498 357.931L372.498 360.856C370.578 362.214 369.221 362.789 368.428 362.581C367.648 362.364 367.259 361.397 367.259 359.681L367.259 354.481L365.375 355.568L365.376 352.468L367.259 351.381L367.259 348.856L370.052 346.268L370.052 349.768L372.499 348.356L372.499 351.456ZM383.085 341.894C384.268 341.21 385.243 341.106 386.008 341.581C386.787 342.048 387.177 343.09 387.177 344.706L387.176 352.381L384.383 353.994L384.384 346.719C384.384 345.885 384.189 345.365 383.799 345.156C383.409 344.931 382.89 345.006 382.24 345.381C381.519 345.798 380.941 346.39 380.508 347.156C380.075 347.923 379.859 348.823 379.859 349.856L379.858 356.606L377.065 358.219L377.066 340.719L379.859 339.106L379.859 345.506C380.537 343.948 381.613 342.744 383.085 341.894ZM406.32 323.829C408.398 322.629 410.13 322.471 411.516 323.354C412.916 324.229 413.615 325.9 413.615 328.367C413.615 330.834 412.915 333.313 411.515 335.804C410.129 338.288 408.397 340.129 406.318 341.329L400.299 344.804L400.301 327.304L406.32 323.829ZM406.319 338.029C407.632 337.271 408.7 336.154 409.523 334.679C410.346 333.188 410.757 331.634 410.757 330.017C410.757 328.4 410.346 327.329 409.524 326.804C408.701 326.263 407.633 326.371 406.319 327.129L403.288 328.879L403.287 339.779L406.319 338.029ZM426.43 317.218L429.223 315.606L429.222 328.106L426.429 329.718L426.429 328.243C425.592 329.943 424.416 331.231 422.9 332.106C421.457 332.939 420.216 333.022 419.177 332.356C418.152 331.664 417.64 330.393 417.64 328.543C417.64 326.693 418.152 324.839 419.177 322.981C420.217 321.097 421.458 319.739 422.901 318.906C424.417 318.031 425.593 317.96 426.43 318.693L426.43 317.218ZM421.277 328.993C421.84 329.318 422.554 329.231 423.42 328.731C424.286 328.231 425.001 327.493 425.564 326.518C426.141 325.518 426.43 324.502 426.43 323.468C426.43 322.435 426.141 321.76 425.564 321.443C425.001 321.102 424.287 321.181 423.421 321.681C422.555 322.181 421.84 322.927 421.277 323.918C420.714 324.893 420.433 325.897 420.433 326.931C420.433 327.964 420.714 328.652 421.277 328.993ZM440.546 312.169L438.099 313.581L438.099 318.781C438.099 319.214 438.193 319.477 438.38 319.569C438.568 319.66 438.842 319.619 439.203 319.444C439.564 319.252 440.011 318.985 440.545 318.644L440.545 321.569C438.625 322.927 437.269 323.502 436.475 323.294C435.695 323.077 435.306 322.11 435.306 320.394L435.306 315.194L433.423 316.281L433.423 313.181L435.307 312.094L435.307 309.569L438.1 306.981L438.1 310.481L440.546 309.069L440.546 312.169ZM453.002 301.877L455.795 300.264L455.794 312.764L453.001 314.377L453.001 312.902C452.164 314.602 450.988 315.889 449.472 316.764C448.029 317.598 446.788 317.681 445.748 317.014C444.724 316.323 444.211 315.052 444.212 313.202C444.212 311.352 444.724 309.498 445.749 307.639C446.788 305.756 448.03 304.398 449.473 303.564C450.989 302.689 452.165 302.619 453.002 303.352L453.002 301.877ZM447.849 313.652C448.412 313.977 449.126 313.889 449.992 313.389C450.858 312.889 451.573 312.152 452.136 311.177C452.713 310.177 453.002 309.16 453.002 308.127C453.002 307.094 452.713 306.419 452.136 306.102C451.573 305.76 450.859 305.839 449.993 306.339C449.127 306.839 448.412 307.585 447.849 308.577C447.286 309.552 447.005 310.556 447.005 311.589C447.004 312.623 447.286 313.31 447.849 313.652ZM463.417 299.414C463.417 299.747 463.605 299.914 463.98 299.914C464.37 299.889 464.839 299.801 465.388 299.651C465.936 299.484 466.484 299.368 467.033 299.301C467.581 299.218 468.043 299.351 468.419 299.701C468.808 300.043 469.003 300.639 469.003 301.489C469.003 302.772 468.584 304.005 467.747 305.189C466.924 306.347 465.892 307.284 464.651 308.001C462.428 309.284 460.913 309.168 460.104 307.651L462.529 304.676C462.847 305.576 463.554 305.709 464.651 305.076C465.647 304.501 466.145 303.855 466.145 303.139C466.145 302.805 465.95 302.651 465.561 302.676C465.185 302.676 464.723 302.751 464.175 302.901C463.626 303.051 463.078 303.159 462.53 303.226C461.981 303.293 461.512 303.172 461.122 302.864C460.747 302.53 460.56 301.955 460.56 301.139C460.56 299.905 460.949 298.714 461.729 297.564C462.523 296.389 463.504 295.464 464.673 294.789C465.554 294.28 466.355 294.051 467.077 294.101C467.798 294.134 468.368 294.455 468.787 295.064L466.405 297.939C466.059 297.289 465.482 297.197 464.673 297.664C464.312 297.872 464.009 298.139 463.764 298.464C463.533 298.78 463.417 299.097 463.417 299.414ZM480.012 286.283L483 284.558L479.058 299.333C478.495 301.458 477.745 303.191 476.806 304.533C475.883 305.883 474.728 306.916 473.342 307.633L473.342 304.633C474.093 304.216 474.685 303.691 475.118 303.058C475.565 302.416 475.919 301.595 476.179 300.595L471.741 291.058L474.794 289.295L477.608 296.07L480.012 286.283ZM492.946 278.466C494.129 277.782 495.104 277.678 495.869 278.153C496.648 278.62 497.038 279.661 497.037 281.278L497.037 288.953L494.244 290.566L494.244 283.291C494.245 282.457 494.05 281.936 493.66 281.728C493.27 281.503 492.751 281.578 492.101 281.953C491.38 282.37 490.802 282.961 490.369 283.728C489.936 284.495 489.72 285.395 489.719 286.428L489.719 293.178L486.926 294.791L486.927 282.291L489.72 280.678L489.72 282.078C490.398 280.52 491.474 279.316 492.946 278.466ZM507.173 283.451C505.542 284.393 504.178 284.547 503.081 283.914C501.998 283.272 501.457 282.018 501.457 280.151C501.457 278.285 501.999 276.405 503.081 274.514C504.178 272.614 505.543 271.193 507.174 270.251C508.227 269.643 509.187 269.38 510.053 269.464C510.919 269.547 511.576 269.951 512.023 270.676L509.62 273.689C509.403 273.297 509.071 273.08 508.624 273.039C508.191 272.989 507.7 273.122 507.152 273.439C506.314 273.922 505.622 274.647 505.073 275.614C504.525 276.564 504.25 277.539 504.25 278.539C504.25 279.522 504.524 280.18 505.073 280.514C505.621 280.83 506.314 280.747 507.151 280.264C507.714 279.939 508.212 279.51 508.645 278.976C509.093 278.418 509.425 277.818 509.641 277.176L512.066 277.376C511.589 278.635 510.918 279.814 510.052 280.914C509.186 281.997 508.226 282.843 507.173 283.451Z" fill="white"/>
<path d="M485.53 189.452L465.622 198.711C463.068 199.9 462.875 202.11 465.208 203.46L479.75 211.857C482.086 213.204 485.916 213.096 487.975 211.619L504.015 200.125L485.527 189.452L485.53 189.452Z" fill="#7B7979"/>
<path d="M495.148 159.856L508.09 190.837C509.293 193.717 508.346 197.049 505.807 198.866L487.978 211.619L487.978 211.283L505.028 197.926C506.985 196.393 507.697 193.752 506.779 191.444L494.38 160.301L495.148 159.859L495.148 159.856Z" fill="#7B7979"/>
<path d="M465.622 198.298L485.379 188.13C487.849 186.86 489.132 184.065 488.491 181.364L481.746 153.006L494.38 160.302L506.779 191.445C507.698 193.756 506.985 196.394 505.028 197.926L487.978 211.283L465.622 198.298Z" fill="#4F4C4D"/>
<path d="M488.431 181.126L506.919 191.799L494.38 160.302L481.746 153.006L488.431 181.126Z" fill="#4F4C4D"/>
<path d="M485.53 188.039L465.622 198.299C463.068 199.488 462.875 201.775 465.208 203.125L479.75 211.522C482.086 212.869 485.916 212.76 487.975 211.284L504.015 198.713L485.527 188.039L485.53 188.039Z" fill="#A7A9AC"/>
<path d="M517.799 211.75L517.799 154.491C517.799 153.035 516.915 151.344 515.825 150.717L440.975 107.497C440.512 107.231 440.084 107.199 439.747 107.361C440.186 107.112 441.883 106.137 441.883 106.137C442.231 105.933 442.683 105.951 443.181 106.235L518.027 149.447C519.118 150.078 520.002 151.769 520.002 153.221L520.002 210.48C520.002 211.224 519.77 211.761 519.399 212.024L517.122 213.339C517.536 213.094 517.799 212.536 517.799 211.743L517.799 211.75Z" fill="#A7A9AC"/>
<path d="M440.975 170.029L515.821 213.241C516.912 213.872 517.796 213.202 517.796 211.747L517.796 154.487C517.796 153.032 516.912 151.341 515.821 150.713L440.975 107.498C439.884 106.866 439 107.536 439 108.992L439 166.251C439 167.707 439.884 169.398 440.975 170.025L440.975 170.029Z" fill="#7B7979"/>
<path d="M439 160.183L517.799 205.679L517.799 154.487C517.799 153.032 516.915 151.341 515.824 150.713L440.975 107.498C439.884 106.866 439 107.536 439 108.992L439 160.183Z" fill="#141313"/>
<path d="M515.495 201.702L515.495 153.169L441.305 110.336L441.305 158.869L515.495 201.702Z" fill="#F5F7FA"/>
<g clip-path="url(#clip0_0_1)">
<path d="M491.946 149.936C486.464 147.556 481.102 143.496 476.61 138.322L476.549 138.295C472.054 139.489 466.692 138.799 461.21 136.32L461 136.225L461.295 144.085C462.337 156.271 467.752 161.574 476.47 172.905L476.683 173C485.4 169.395 490.819 168.891 491.857 157.625L492.152 150.026L491.943 149.936H491.946Z" fill="#FF7700"/>
<path d="M493.79 148.711C488.308 146.331 482.946 142.271 478.451 137.097L478.39 137.071C473.898 138.262 468.536 137.572 463.054 135.095L462.844 135L461.06 136.252L461.213 136.32C466.695 138.797 472.057 139.487 476.549 138.296L476.609 138.323C481.101 143.496 486.463 147.556 491.949 149.936L492.159 150.026L491.863 157.626C491.184 164.977 488.641 167.746 484.53 169.783C489.663 167.456 492.943 164.663 493.708 156.398L494.003 148.799L493.794 148.709L493.79 148.711Z" fill="#FE9E4A"/>
<path d="M494 148.801L493.791 148.711C488.308 146.331 482.946 142.271 478.451 137.097L478.391 137.071L476.546 138.296L476.607 138.322C481.099 143.496 486.461 147.556 491.946 149.936L492.156 150.026L494 148.801Z" fill="#FE9E4A"/>
<path d="M492.156 150.029L491.861 157.628C491.181 164.979 488.638 167.749 484.527 169.785C489.661 167.459 492.94 164.665 493.705 156.401L494 148.801L492.156 150.026V150.029Z" fill="#FF5900"/>
<path d="M475.495 167.748C468.727 159.135 465.321 154.802 464.502 145.347L464.315 140.385C468.661 141.893 472.826 142.373 476.578 141.8C480.33 145.697 484.495 148.908 488.841 151.251L488.654 156.047C487.832 164.774 484.429 166.092 477.661 168.71C477.305 168.847 476.946 168.988 476.578 169.129C476.21 168.659 475.848 168.199 475.492 167.748H475.495Z" fill="url(#paint2_linear_0_1)"/>
<path d="M476.578 141.801C480.33 145.698 484.495 148.909 488.841 151.252L488.654 156.048C487.832 164.775 484.428 166.093 477.66 168.711C477.305 168.847 476.946 168.989 476.578 169.13V141.801Z" fill="url(#paint3_linear_0_1)"/>
<path d="M475.495 167.748C468.727 159.135 465.321 154.802 464.502 145.347L464.315 140.385C468.661 141.893 472.826 142.373 476.578 141.8C480.33 145.697 484.495 148.908 488.841 151.251L488.654 156.047C487.832 164.774 484.429 166.092 477.661 168.71C477.305 168.847 476.946 168.988 476.578 169.129C476.21 168.659 475.848 168.199 475.492 167.748H475.495Z" fill="#FE9E4A"/>
<mask id="mask0_0_1" style="mask-type:alpha" maskUnits="userSpaceOnUse" x="464" y="140" width="25" height="30">
<path d="M475.495 167.748C468.727 159.135 465.321 154.802 464.502 145.347L464.315 140.385C468.661 141.893 472.826 142.373 476.578 141.8C480.33 145.697 484.495 148.908 488.841 151.251L488.654 156.047C487.832 164.774 484.429 166.092 477.661 168.71C477.305 168.847 476.946 168.988 476.578 169.129C476.21 168.659 475.848 168.199 475.492 167.748H475.495Z" fill="#FE9E4A"/>
</mask>
<g mask="url(#mask0_0_1)">
<g style="mix-blend-mode:screen">
<path d="M490.955 151.223C490.94 151.457 490.887 152.576 490.676 154.195L468.809 162.897C466.767 159.434 465.195 155.918 464 152.569L475.795 147.881L483.009 145C484.99 147.125 487.326 149.166 489.965 150.686C490.29 150.875 490.623 151.057 490.955 151.231V151.223Z" fill="#705D4C"/>
</g>
</g>
<path d="M481.182 154.638L475.888 151.577V149.142C475.888 148.505 476.334 148.26 476.882 148.572L478.658 149.6C479.205 149.913 479.652 150.695 479.652 151.32V153.85L480.646 154.42V151.477C480.646 150.449 479.92 149.187 479.026 148.673L476.513 147.221C475.62 146.707 474.894 147.12 474.894 148.148V151.007L474.357 150.706C474.156 150.594 474 150.684 474 150.907V158.737C474 158.96 474.156 159.239 474.357 159.362L481.182 163.294C481.383 163.406 481.539 163.316 481.539 163.093V155.263C481.539 155.04 481.383 154.76 481.182 154.638ZM478.189 157.486V159.385C478.189 159.463 478.133 159.485 478.077 159.452L477.485 159.105C477.418 159.072 477.373 158.982 477.373 158.904V157.005C477.094 156.682 476.893 156.235 476.893 155.844C476.893 155.285 477.284 155.062 477.787 155.341C478.278 155.62 478.669 156.302 478.669 156.86C478.669 157.251 478.479 157.475 478.189 157.475V157.486Z" fill="#002245"/>
</g>
<path d="M517.799 211.75L520.002 210.477L520.002 153.217L517.799 154.487L517.799 211.75Z" fill="#A7A9AC"/>
<g clip-path="url(#clip1_0_1)">
<path d="M318.369 204.049L284.005 184.226C283.634 184.014 283.683 183.639 284.111 183.392L290.098 179.933C290.526 179.686 291.174 179.66 291.545 179.871L325.91 199.694C326.28 199.906 326.232 200.281 325.804 200.528L319.817 203.987C319.389 204.234 318.74 204.261 318.369 204.049Z" fill="#011A33"/>
<path d="M323.113 178.079V198.608C323.113 198.969 322.999 199.225 322.818 199.353L318.971 201.586L318.666 197.324L315.604 195.555L291.166 181.449C290.637 181.141 290.205 180.316 290.205 179.61V159.919L288.25 160.885L286.865 160.453L290.558 158.256L306.163 152.626C306.449 152.516 306.864 152.758 307.151 153.2L322.778 176.932C322.981 177.285 323.109 177.699 323.109 178.083L323.113 178.079Z" fill="#519AB0"/>
<path d="M323.114 178.079V180.572L317.97 181.476L298.058 160.515L295.274 158.905L306.154 152.622H306.168C306.454 152.507 306.869 152.75 307.156 153.191L322.783 176.923C322.986 177.276 323.114 177.691 323.114 178.075V178.079Z" fill="#9DCEDD"/>
<path d="M323.112 178.079V198.608C323.112 198.97 322.997 199.225 322.816 199.353L318.969 201.586L318.665 197.324L315.603 195.555L315.387 194.566L316.869 184.935L319.212 179.707L323.024 177.51C323.081 177.699 323.108 177.894 323.108 178.079H323.112Z" fill="#368096"/>
<path d="M286.864 160.453L302.367 154.823C302.654 154.713 303.073 154.956 303.356 155.397L318.846 178.908L286.864 160.453Z" fill="#76B8CC"/>
<path d="M319.313 180.282V200.811C319.313 201.517 318.881 201.848 318.351 201.539L287.375 183.653C286.841 183.344 286.409 182.519 286.409 181.813V161.284C286.409 160.94 286.51 160.684 286.678 160.552C286.828 160.424 287.04 160.402 287.273 160.503C287.304 160.516 287.344 160.53 287.375 160.552L318.351 178.438C318.382 178.46 318.417 178.478 318.448 178.504C318.479 178.526 318.515 178.553 318.545 178.575C318.85 178.835 319.101 179.254 319.225 179.695C319.282 179.889 319.313 180.092 319.313 180.282Z" fill="#76B8CC"/>
<path d="M317.305 200.929L288.61 184.362L302.861 178.564L317.305 200.929Z" fill="#9DCEDD"/>
<path d="M319.225 179.695L303.779 180.053C303.205 180.066 302.522 179.66 301.957 178.976L286.678 160.552C286.828 160.424 287.04 160.402 287.274 160.503C287.305 160.516 287.344 160.53 287.375 160.552L318.352 178.438C318.383 178.46 318.418 178.478 318.449 178.504C318.48 178.526 318.515 178.553 318.546 178.575C318.85 178.835 319.102 179.254 319.225 179.695Z" fill="#519AB0"/>
<path d="M316.427 165.695V179.756L303.778 180.052C303.204 180.061 302.521 179.659 301.956 178.975L290.26 164.87V150.589C290.26 150.112 290.599 149.914 291.019 150.157L315.664 164.385C316.083 164.628 316.423 165.219 316.423 165.695H316.427Z" fill="#F6ECEA"/>
</g>
<rect x="-0.657755" width="17.1352" height="17.1352" rx="1.31824" transform="matrix(-0.866044 -0.499967 -0.866044 0.499967 456.629 205.056)" fill="#93581C" stroke="#FFC283" stroke-width="0.759493"/>
<path d="M448.597 203.41V205.38C448.587 206.246 448.021 207.107 446.884 207.767C444.6 209.096 440.888 209.096 438.59 207.767C437.429 207.098 436.854 206.223 436.858 205.347V203.377C436.858 204.252 437.439 205.127 438.599 205.797C440.893 207.121 444.609 207.121 446.893 205.797C448.026 205.137 448.597 204.276 448.597 203.41Z" fill="#FC9E0F"/>
<path d="M446.87 200.995C444.567 199.666 440.856 199.671 438.572 200.995C436.288 202.324 436.297 204.473 438.6 205.802C440.893 207.126 444.609 207.126 446.893 205.802C449.173 204.477 449.163 202.324 446.87 201V200.995Z" fill="#FFF642"/>
<path d="M446.294 201.327C444.314 200.185 441.117 200.185 439.152 201.327C437.186 202.469 437.191 204.318 439.175 205.465C441.15 206.607 444.347 206.607 446.313 205.465C448.274 204.323 448.269 202.469 446.294 201.332V201.327Z" fill="#FFBD14"/>
<path d="M448.595 200.41V202.38C448.585 203.246 448.019 204.107 446.882 204.767C444.598 206.096 440.886 206.096 438.588 204.767C437.427 204.098 436.852 203.223 436.856 202.347V200.377C436.856 201.252 437.437 202.127 438.597 202.797C440.891 204.121 444.607 204.121 446.891 202.797C448.024 202.137 448.595 201.276 448.595 200.41Z" fill="#FC9E0F"/>
<path d="M446.868 197.995C444.565 196.666 440.854 196.671 438.57 197.995C436.286 199.324 436.295 201.473 438.598 202.802C440.891 204.126 444.607 204.126 446.891 202.802C449.171 201.477 449.161 199.324 446.868 198V197.995Z" fill="#FFF642"/>
<path d="M446.292 198.327C444.312 197.185 441.115 197.185 439.15 198.327C437.184 199.469 437.189 201.318 439.173 202.465C441.148 203.607 444.345 203.607 446.311 202.465C448.272 201.323 448.267 199.469 446.292 198.332V198.327Z" fill="#FFBD14"/>
<path d="M448.596 197.41V199.38C448.586 200.246 448.02 201.107 446.883 201.767C444.599 203.096 440.887 203.096 438.589 201.767C437.428 201.098 436.853 200.223 436.857 199.347V197.377C436.857 198.252 437.438 199.127 438.598 199.797C440.892 201.121 444.608 201.121 446.892 199.797C448.025 199.137 448.596 198.276 448.596 197.41Z" fill="#FC9E0F"/>
<path d="M446.869 194.995C444.566 193.666 440.855 193.671 438.571 194.995C436.287 196.324 436.296 198.473 438.599 199.802C440.892 201.126 444.608 201.126 446.892 199.802C449.172 198.477 449.162 196.324 446.869 195V194.995Z" fill="#FFF642"/>
<path d="M446.293 195.327C444.313 194.185 441.116 194.185 439.151 195.327C437.185 196.469 437.19 198.318 439.174 199.465C441.149 200.607 444.346 200.607 446.312 199.465C448.273 198.323 448.268 196.469 446.293 195.332V195.327Z" fill="#FFBD14"/>
<path opacity="0.8" d="M438.079 194.388L428.101 188.297L428.694 204.981C428.707 205.35 428.714 205.535 428.804 205.686C428.894 205.838 429.053 205.932 429.371 206.12L438.575 211.558C440.42 212.649 441.342 213.194 442.359 213.194C443.376 213.194 444.298 212.649 446.143 211.558L455.357 206.114C455.67 205.929 455.827 205.836 455.917 205.687C456.007 205.538 456.016 205.357 456.033 204.993L456.857 188.297L446.658 194.42C444.564 195.677 443.517 196.305 442.362 196.301C441.206 196.296 440.164 195.66 438.079 194.388Z" fill="#E69139"/>
<rect x="-0.657755" width="17.1352" height="17.1352" rx="1.31824" transform="matrix(-0.866044 -0.499967 -0.866044 0.499967 456.625 187.618)" fill="#E69139" stroke="#FFC283" stroke-width="0.759493"/>
<rect x="-0.657755" width="17.1352" height="17.1352" rx="1.31824" transform="matrix(-0.866044 -0.499967 -0.866044 0.499967 487.629 230.056)" fill="#93581C" stroke="#FFC283" stroke-width="0.759493"/>
<path d="M479.597 228.41V230.38C479.587 231.246 479.021 232.107 477.884 232.767C475.6 234.096 471.888 234.096 469.59 232.767C468.429 232.098 467.854 231.223 467.858 230.347V228.377C467.858 229.252 468.439 230.127 469.599 230.797C471.893 232.121 475.609 232.121 477.893 230.797C479.026 230.137 479.597 229.276 479.597 228.41Z" fill="#FC9E0F"/>
<path d="M477.87 225.995C475.567 224.666 471.856 224.671 469.572 225.995C467.288 227.324 467.297 229.473 469.6 230.802C471.893 232.126 475.609 232.126 477.893 230.802C480.173 229.477 480.163 227.324 477.87 226V225.995Z" fill="#FFF642"/>
<path d="M477.294 226.327C475.314 225.185 472.117 225.185 470.152 226.327C468.186 227.469 468.191 229.318 470.175 230.465C472.15 231.607 475.347 231.607 477.313 230.465C479.274 229.323 479.269 227.469 477.294 226.332V226.327Z" fill="#FFBD14"/>
<path d="M479.595 225.41V227.38C479.585 228.246 479.019 229.107 477.882 229.767C475.598 231.096 471.886 231.096 469.588 229.767C468.427 229.098 467.852 228.223 467.856 227.347V225.377C467.856 226.252 468.437 227.127 469.597 227.797C471.891 229.121 475.607 229.121 477.891 227.797C479.024 227.137 479.595 226.276 479.595 225.41Z" fill="#FC9E0F"/>
<path d="M477.868 222.995C475.565 221.666 471.854 221.671 469.57 222.995C467.286 224.324 467.295 226.473 469.598 227.802C471.891 229.126 475.607 229.126 477.891 227.802C480.171 226.477 480.161 224.324 477.868 223V222.995Z" fill="#FFF642"/>
<path d="M477.292 223.327C475.312 222.185 472.115 222.185 470.15 223.327C468.184 224.469 468.189 226.318 470.173 227.465C472.148 228.607 475.345 228.607 477.311 227.465C479.272 226.323 479.267 224.469 477.292 223.332V223.327Z" fill="#FFBD14"/>
<path d="M479.596 222.41V224.38C479.586 225.246 479.02 226.107 477.883 226.767C475.599 228.096 471.887 228.096 469.589 226.767C468.428 226.098 467.853 225.223 467.857 224.347V222.377C467.857 223.252 468.438 224.127 469.598 224.797C471.892 226.121 475.608 226.121 477.892 224.797C479.025 224.137 479.596 223.276 479.596 222.41Z" fill="#FC9E0F"/>
<path d="M477.869 219.995C475.566 218.666 471.855 218.671 469.571 219.995C467.287 221.324 467.296 223.473 469.599 224.802C471.892 226.126 475.608 226.126 477.892 224.802C480.172 223.477 480.162 221.324 477.869 220V219.995Z" fill="#FFF642"/>
<path d="M477.293 220.327C475.313 219.185 472.116 219.185 470.151 220.327C468.185 221.469 468.19 223.318 470.174 224.465C472.149 225.607 475.346 225.607 477.312 224.465C479.273 223.323 479.268 221.469 477.293 220.332V220.327Z" fill="#FFBD14"/>
<path opacity="0.8" d="M469.079 219.388L459.101 213.297L459.694 229.981C459.707 230.35 459.714 230.535 459.804 230.686C459.894 230.838 460.053 230.932 460.371 231.12L469.575 236.558C471.42 237.649 472.342 238.194 473.359 238.194C474.376 238.194 475.298 237.649 477.143 236.558L486.357 231.114C486.67 230.929 486.827 230.836 486.917 230.687C487.007 230.538 487.016 230.357 487.033 229.993L487.857 213.297L477.658 219.42C475.564 220.677 474.517 221.305 473.362 221.301C472.206 221.296 471.164 220.66 469.079 219.388Z" fill="#E69139"/>
<rect x="-0.657755" width="17.1352" height="17.1352" rx="1.31824" transform="matrix(-0.866044 -0.499967 -0.866044 0.499967 487.625 212.618)" fill="#E69139" stroke="#FFC283" stroke-width="0.759493"/>
<defs>
<filter id="filter0_d_0_1" x="338.401" y="217.832" width="109.606" height="64.6009" filterUnits="userSpaceOnUse" color-interpolation-filters="sRGB">
<feFlood flood-opacity="0" result="BackgroundImageFix"/>
<feColorMatrix in="SourceAlpha" type="matrix" values="0 0 0 0 0 0 0 0 0 0 0 0 0 0 0 0 0 0 127 0" result="hardAlpha"/>
<feMorphology radius="2.20943" operator="erode" in="SourceAlpha" result="effect1_dropShadow_0_1"/>
<feOffset dy="4.13169"/>
<feComposite in2="hardAlpha" operator="out"/>
<feColorMatrix type="matrix" values="0 0 0 0 0.903646 0 0 0 0 0.569499 0 0 0 0 0.224455 0 0 0 1 0"/>
<feBlend mode="normal" in2="BackgroundImageFix" result="effect1_dropShadow_0_1"/>
<feBlend mode="normal" in="SourceGraphic" in2="effect1_dropShadow_0_1" result="shape"/>
</filter>
<filter id="filter1_d_0_1" x="312.092" y="126.86" width="109.606" height="64.6009" filterUnits="userSpaceOnUse" color-interpolation-filters="sRGB">
<feFlood flood-opacity="0" result="BackgroundImageFix"/>
<feColorMatrix in="SourceAlpha" type="matrix" values="0 0 0 0 0 0 0 0 0 0 0 0 0 0 0 0 0 0 127 0" result="hardAlpha"/>
<feMorphology radius="2.20943" operator="erode" in="SourceAlpha" result="effect1_dropShadow_0_1"/>
<feOffset dy="4.13169"/>
<feComposite in2="hardAlpha" operator="out"/>
<feColorMatrix type="matrix" values="0 0 0 0 0.903646 0 0 0 0 0.569499 0 0 0 0 0.224455 0 0 0 1 0"/>
<feBlend mode="normal" in2="BackgroundImageFix" result="effect1_dropShadow_0_1"/>
<feBlend mode="normal" in="SourceGraphic" in2="effect1_dropShadow_0_1" result="shape"/>
</filter>
<filter id="filter2_d_0_1" x="197.006" y="202.489" width="109.606" height="64.6009" filterUnits="userSpaceOnUse" color-interpolation-filters="sRGB">
<feFlood flood-opacity="0" result="BackgroundImageFix"/>
<feColorMatrix in="SourceAlpha" type="matrix" values="0 0 0 0 0 0 0 0 0 0 0 0 0 0 0 0 0 0 127 0" result="hardAlpha"/>
<feMorphology radius="2.20943" operator="erode" in="SourceAlpha" result="effect1_dropShadow_0_1"/>
<feOffset dy="4.13169"/>
<feComposite in2="hardAlpha" operator="out"/>
<feColorMatrix type="matrix" values="0 0 0 0 0.903646 0 0 0 0 0.569499 0 0 0 0 0.224455 0 0 0 1 0"/>
<feBlend mode="normal" in2="BackgroundImageFix" result="effect1_dropShadow_0_1"/>
<feBlend mode="normal" in="SourceGraphic" in2="effect1_dropShadow_0_1" result="shape"/>
</filter>
<filter id="filter3_d_0_1" x="181.664" y="99.4593" width="109.606" height="64.6009" filterUnits="userSpaceOnUse" color-interpolation-filters="sRGB">
<feFlood flood-opacity="0" result="BackgroundImageFix"/>
<feColorMatrix in="SourceAlpha" type="matrix" values="0 0 0 0 0 0 0 0 0 0 0 0 0 0 0 0 0 0 127 0" result="hardAlpha"/>
<feMorphology radius="2.20943" operator="erode" in="SourceAlpha" result="effect1_dropShadow_0_1"/>
<feOffset dy="4.13169"/>
<feComposite in2="hardAlpha" operator="out"/>
<feColorMatrix type="matrix" values="0 0 0 0 0.903646 0 0 0 0 0.569499 0 0 0 0 0.224455 0 0 0 1 0"/>
<feBlend mode="normal" in2="BackgroundImageFix" result="effect1_dropShadow_0_1"/>
<feBlend mode="normal" in="SourceGraphic" in2="effect1_dropShadow_0_1" result="shape"/>
</filter>
<filter id="filter4_d_0_1" x="113.029" y="233.591" width="56.4768" height="83.4222" filterUnits="userSpaceOnUse" color-interpolation-filters="sRGB">
<feFlood flood-opacity="0" result="BackgroundImageFix"/>
<feColorMatrix in="SourceAlpha" type="matrix" values="0 0 0 0 0 0 0 0 0 0 0 0 0 0 0 0 0 0 127 0" result="hardAlpha"/>
<feOffset dx="4"/>
<feComposite in2="hardAlpha" operator="out"/>
<feColorMatrix type="matrix" values="0 0 0 0 0.22243 0 0 0 0 0.544531 0 0 0 0 0.276114 0 0 0 1 0"/>
<feBlend mode="normal" in2="BackgroundImageFix" result="effect1_dropShadow_0_1"/>
<feBlend mode="normal" in="SourceGraphic" in2="effect1_dropShadow_0_1" result="shape"/>
</filter>
<linearGradient id="paint0_linear_0_1" x1="393.432" y1="265.059" x2="343.132" y2="419.266" gradientUnits="userSpaceOnUse">
<stop stop-color="#003367"/>
<stop offset="1" stop-color="#001D3B"/>
</linearGradient>
<linearGradient id="paint1_linear_0_1" x1="393.371" y1="138.564" x2="309.534" y2="330.447" gradientUnits="userSpaceOnUse">
<stop stop-color="#003367"/>
<stop offset="1" stop-color="#001D3B"/>
</linearGradient>
<linearGradient id="paint2_linear_0_1" x1="462.81" y1="162.09" x2="479.933" y2="139.064" gradientUnits="userSpaceOnUse">
<stop offset="0.03" stop-color="#7C1DC9"/>
<stop offset="0.21" stop-color="#6E41D1"/>
<stop offset="0.62" stop-color="#4C9BE8"/>
<stop offset="1" stop-color="#2AF6FF"/>
</linearGradient>
<linearGradient id="paint3_linear_0_1" x1="497.521" y1="155.405" x2="471.854" y2="155.533" gradientUnits="userSpaceOnUse">
<stop offset="0.03" stop-color="#7C1DC9"/>
<stop offset="0.21" stop-color="#6E41D1"/>
<stop offset="0.62" stop-color="#4C9BE8"/>
<stop offset="1" stop-color="#2AF6FF"/>
</linearGradient>
<clipPath id="clip0_0_1">
<rect width="33" height="38" fill="white" transform="translate(461 135)"/>
</clipPath>
<clipPath id="clip1_0_1">
<rect width="43.1578" height="58.1938" fill="white" transform="translate(283 146)"/>
</clipPath>
</defs>
</svg>
