<svg width="102" height="102" viewBox="0 0 102 102" fill="none" xmlns="http://www.w3.org/2000/svg">
<rect width="102" height="102" fill="white"/>
<path d="M19.71 101.189C8.82447 101.189 1.15719e-06 92.365 2.58465e-06 81.4794L1.06847e-05 19.7105C1.21121e-05 8.82495 8.82448 0.000489438 19.71 0.000490866L81.479 0.000498966C92.3645 0.000500393 101.189 8.82497 101.189 19.7105L101.189 81.4794C101.189 92.365 92.3645 101.189 81.4789 101.189L19.71 101.189Z" fill="url(#paint0_linear_0_1)"/>
<path d="M46.8333 72.0208C47.8646 72.3837 48.9722 71.6293 48.9722 70.5408V34.5043C48.9722 34.1033 48.8194 33.7023 48.4948 33.454C46.6233 31.9644 42.3264 30.0547 36.75 30.0547C31.928 30.0547 27.421 31.3247 24.7283 32.3559C23.6493 32.776 23 33.8455 23 35.0009V70.3594C23 71.4957 24.2222 72.2882 25.3012 71.9349C28.309 70.9323 33.0738 69.7769 36.75 69.7769C39.987 69.7769 44.2934 71.1137 46.8333 72.0208ZM54.1667 72.0208C56.7066 71.1137 61.013 69.7769 64.25 69.7769C67.9262 69.7769 72.691 70.9323 75.6988 71.9349C76.7778 72.2977 78 71.4957 78 70.3594V35.0009C78 33.8455 77.3507 32.776 76.2717 32.3655C73.579 31.3247 69.072 30.0547 64.25 30.0547C58.6736 30.0547 54.3767 31.9644 52.5052 33.454C52.1901 33.7023 52.0278 34.1033 52.0278 34.5043V70.5408C52.0278 71.6293 53.145 72.3837 54.1667 72.0208Z" fill="white"/>
<defs>
<linearGradient id="paint0_linear_0_1" x1="13.7027" y1="80.7906" x2="100.172" y2="47.7704" gradientUnits="userSpaceOnUse">
<stop stop-color="#003367"/>
<stop offset="1" stop-color="#1A48B9"/>
</linearGradient>
</defs>
</svg>
