<svg width="10" height="12" viewBox="0 0 10 12" fill="none" xmlns="http://www.w3.org/2000/svg">
<g clip-path="url(#clip0_709_23279)">
<path d="M4.78404 1.42857V0.928571H4.28404H3.9269C3.80795 0.928571 3.71261 0.833233 3.71261 0.714286C3.71261 0.595339 3.80795 0.5 3.9269 0.5H4.99833H6.06975C6.1887 0.5 6.28404 0.595339 6.28404 0.714286C6.28404 0.833232 6.1887 0.928571 6.06975 0.928571H5.71261H5.21261V1.42857V2.19643V2.62504L5.63619 2.69055C6.38207 2.80592 7.06087 3.12012 7.62136 3.57888L7.97159 3.86554L8.29161 3.54552L8.77375 3.06338C8.85751 2.97962 8.99405 2.97962 9.07781 3.06337C9.16156 3.14713 9.16156 3.28367 9.07781 3.36743L8.53986 3.90538L8.25296 4.19227L8.47464 4.5321C8.89618 5.17834 9.14118 5.9521 9.14118 6.78571C9.14118 9.0743 7.28692 10.9286 4.99833 10.9286C2.70974 10.9286 0.855469 9.0743 0.855469 6.78571C0.855469 4.7146 2.37508 2.99722 4.36037 2.69057L4.78404 2.62513V2.19643V1.42857ZM6.03404 7.14286V4.28571C6.03404 3.7127 5.57134 3.25 4.99833 3.25C4.42531 3.25 3.96261 3.7127 3.96261 4.28571V7.14286C3.96261 7.71588 4.42531 8.17857 4.99833 8.17857C5.57134 8.17857 6.03404 7.71588 6.03404 7.14286Z" fill="#FFC283" stroke="#FFC283"/>
</g>
<defs>
<clipPath id="clip0_709_23279">
<rect width="10" height="11.4286" fill="white"/>
</clipPath>
</defs>
</svg>
