<svg width="57" height="57" viewBox="0 0 57 57" fill="none" xmlns="http://www.w3.org/2000/svg">
<circle cx="28.5" cy="28.5" r="28.5" transform="matrix(-4.37114e-08 1 1 4.37114e-08 0 0)" fill="#FFC283" fill-opacity="0.4"/>
<circle cx="17.7821" cy="17.7821" r="17.7821" transform="matrix(-4.37114e-08 1 1 4.37114e-08 10.7148 10.7188)" fill="#FFC283"/>
<path d="M23.6526 30.1583L26.8726 33.3782C27.3635 33.8692 27.36 34.6664 26.8647 35.153C26.3755 35.6336 25.5905 35.6301 25.1056 35.1452L19.839 29.8786C19.3028 29.3425 19.3028 28.4732 19.839 27.9371L25.1056 22.6705C25.5905 22.1856 26.3755 22.1821 26.8647 22.6627C27.36 23.1493 27.3635 23.9465 26.8725 24.4375L23.6526 27.6574L36.5396 27.6574C37.2302 27.6574 37.79 28.2172 37.79 28.9078C37.79 29.5984 37.2302 30.1583 36.5396 30.1583L23.6526 30.1583Z" fill="white" stroke="white" stroke-width="0.876923"/>
</svg>
