<svg width="41" height="42" viewBox="0 0 41 42" fill="none" xmlns="http://www.w3.org/2000/svg">
<circle cx="20.3167" cy="20.3167" r="20.3167" transform="matrix(-1 -8.74228e-08 -8.74228e-08 1 40.8164 0.962891)" fill="#003D7C"/>
<path d="M20.6455 37.7083C11.7732 37.7083 4.58078 30.5159 4.58078 21.6436C4.58078 12.7712 11.7732 5.57882 20.6455 5.57882C29.5178 5.57883 36.7102 12.7713 36.7102 21.6436C36.7102 30.5159 29.5178 37.7083 20.6455 37.7083Z" fill="#002245" stroke="white" stroke-width="0.842348"/>
<path d="M16.018 19.0142C15.7336 18.7299 15.7336 18.2671 16.018 17.9828C16.3023 17.6984 16.765 17.6984 17.0494 17.9828C17.3337 18.2671 17.3337 18.7299 17.0494 19.0142C16.765 19.2986 16.3023 19.2986 16.018 19.0142Z" fill="white"/>
<path d="M17.3969 26.5474C17.1125 26.2631 17.1125 25.8003 17.3969 25.516C17.6812 25.2316 18.1439 25.2316 18.4283 25.516C18.7126 25.8003 18.7126 26.2631 18.4283 26.5474C18.1439 26.8318 17.6812 26.8318 17.3969 26.5474Z" fill="white"/>
<path d="M27.0389 20.3655C27.0389 20.3655 27.5142 18.7246 27.7256 17.2777C27.8644 16.3238 27.687 15.6346 26.8502 14.9659C26.0134 14.2972 24.3035 14.6418 23.4281 15.137C22.5526 15.6323 16.1836 18.8388 16.1836 18.8388C16.1836 18.8388 21.1451 14.6213 22.9528 13.6102C24.7605 12.5992 26.4887 12.7521 27.762 13.6285C29.0354 14.5071 29.5106 16.2416 29.1127 18.1701C28.7125 20.0962 28.2577 21.7577 28.2577 21.7577L27.0412 20.3655H27.0389Z" fill="white"/>
<path d="M19.5883 15.2531C19.5883 15.2531 17.9534 14.7761 16.5118 14.5638C15.5613 14.4246 14.8746 14.6026 14.2084 15.4425C13.5421 16.2823 13.8855 17.9986 14.3789 18.8772C14.8723 19.7558 18.0671 26.1483 18.0671 26.1483C18.0671 26.1483 13.865 21.1685 12.8577 19.3542C11.8504 17.5421 12.0027 15.8054 12.8759 14.5273C13.7513 13.2493 15.4817 12.7723 17.4008 13.174C19.32 13.5757 20.9754 14.0321 20.9754 14.0321L19.5883 15.2531Z" fill="white"/>
<path d="M14.3708 22.7883C14.3708 22.7883 13.8956 24.4292 13.6841 25.8784C13.5454 26.8323 13.7228 27.5216 14.5596 28.1903C15.3963 28.8589 17.1063 28.5143 17.9817 28.0191C18.8571 27.5239 25.2262 24.3174 25.2262 24.3174C25.2262 24.3174 20.2647 28.5349 18.4569 29.5459C16.6515 30.5569 14.9211 30.404 13.6477 29.5276C12.3744 28.649 11.8991 26.9145 12.2971 24.986C12.6973 23.0599 13.152 21.3984 13.152 21.3984L14.3685 22.7906L14.3708 22.7883Z" fill="white"/>
<path d="M21.8246 27.8991C21.8246 27.8991 23.4595 28.3761 24.9011 28.5883C25.8516 28.7276 26.5383 28.5495 27.2045 27.7097C27.8707 26.8698 27.5274 25.1536 27.034 24.275C26.5405 23.3963 23.3458 17.0039 23.3458 17.0039C23.3458 17.0039 27.5478 21.9837 28.5552 23.798C29.5625 25.6101 29.4101 27.3468 28.537 28.6249C27.6615 29.9029 25.9334 30.3799 24.012 29.9805C22.0929 29.5788 20.4375 29.1224 20.4375 29.1224L21.8246 27.9014V27.8991Z" fill="white"/>
<path d="M22.9047 17.7173C22.6203 17.433 22.6203 16.9703 22.9047 16.6859C23.189 16.4016 23.6517 16.4016 23.9361 16.6859C24.2204 16.9703 24.2204 17.433 23.9361 17.7173C23.6517 18.0017 23.189 18.0017 22.9047 17.7173Z" fill="white"/>
<path d="M24.3617 25.0884C24.0773 24.8041 24.0773 24.3414 24.3617 24.057C24.6461 23.7727 25.1088 23.7727 25.3931 24.057C25.6775 24.3414 25.6775 24.8041 25.3931 25.0884C25.1088 25.3728 24.6461 25.3728 24.3617 25.0884Z" fill="white"/>
<path d="M20.6897 22.7001C21.3209 22.7001 21.8325 22.1884 21.8325 21.5571C21.8325 20.9258 21.3209 20.4141 20.6897 20.4141C20.0585 20.4141 19.5469 20.9258 19.5469 21.5571C19.5469 22.1884 20.0585 22.7001 20.6897 22.7001Z" fill="white"/>
</svg>
