<svg width="50" height="50" viewBox="0 0 50 50" fill="none" xmlns="http://www.w3.org/2000/svg">
<g clip-path="url(#clip0_709_23568)">
<path d="M35.4192 1.88525L30.6927 6.61182L43.388 19.3071L48.1146 14.5806C50.556 12.1392 50.556 8.18408 48.1146 5.74268L44.2669 1.88525C41.8255 -0.556152 37.8704 -0.556152 35.429 1.88525H35.4192ZM28.4857 8.81885L5.72198 31.5923C4.70635 32.6079 3.96417 33.8677 3.55401 35.2446L0.0969794 46.9927C-0.147161 47.8228 0.0774482 48.7114 0.682917 49.3169C1.28839 49.9224 2.17706 50.147 2.99737 49.9126L14.7454 46.4556C16.1224 46.0454 17.3821 45.3032 18.3978 44.2876L41.181 21.5142L28.4857 8.81885Z" fill="white"/>
</g>
<defs>
<clipPath id="clip0_709_23568">
<rect width="50" height="50" fill="white" transform="translate(0 -0.000488281)"/>
</clipPath>
</defs>
</svg>
