<svg width="44" height="44" viewBox="0 0 44 44" fill="none" xmlns="http://www.w3.org/2000/svg">
<path d="M0 21.9995C0 16.1647 2.31785 10.569 6.44365 6.44316C10.5695 2.31736 16.1652 -0.000488281 22 -0.000488281C27.8348 -0.000488281 33.4305 2.31736 37.5564 6.44316C41.6822 10.569 44 16.1647 44 21.9995C44 27.8343 41.6822 33.4301 37.5564 37.5559C33.4305 41.6817 27.8348 43.9995 22 43.9995C16.1652 43.9995 10.5695 41.6817 6.44365 37.5559C2.31785 33.4301 0 27.8343 0 21.9995ZM16.182 12.6409C15.5289 13.0019 15.125 13.6979 15.125 14.437V29.562C15.125 30.3097 15.5289 30.9972 16.182 31.3581C16.8352 31.719 17.6258 31.7104 18.2703 31.3151L30.6453 23.7526C31.2555 23.3745 31.6336 22.7128 31.6336 21.9909C31.6336 21.269 31.2555 20.6073 30.6453 20.2292L18.2703 12.6667C17.6344 12.28 16.8352 12.2628 16.182 12.6237V12.6409Z" fill="#003367"/>
</svg>
