<svg width="57" height="57" viewBox="0 0 57 57" fill="none" xmlns="http://www.w3.org/2000/svg">
<circle cx="28.5" cy="28.5" r="28.5" transform="rotate(90 28.5 28.5)" fill="#FFC283" fill-opacity="0.4"/>
<circle cx="28.5031" cy="28.5008" r="17.7821" transform="rotate(90 28.5031 28.5008)" fill="#FFC283"/>
<path d="M20.4604 27.6574C19.7698 27.6574 19.21 28.2172 19.21 28.9078C19.21 29.5984 19.7698 30.1583 20.4604 30.1583L33.3474 30.1583L30.1274 33.3782C29.6365 33.8692 29.64 34.6664 30.1353 35.153C30.6245 35.6336 31.4095 35.6301 31.8944 35.1452L37.161 29.8786C37.6972 29.3425 37.6972 28.4732 37.161 27.9371L31.8944 22.6705C31.4095 22.1856 30.6245 22.1821 30.1353 22.6627C29.64 23.1493 29.6365 23.9465 30.1275 24.4375L33.3474 27.6574L20.4604 27.6574Z" fill="white" stroke="white" stroke-width="0.876923"/>
</svg>
