<svg width="82" height="82" viewBox="0 0 82 82" fill="none" xmlns="http://www.w3.org/2000/svg">
<path d="M0 41C0 30.1261 4.31963 19.6976 12.0086 12.0086C19.6976 4.31963 30.1261 0 41 0C51.8739 0 62.3024 4.31963 69.9914 12.0086C77.6804 19.6976 82 30.1261 82 41C82 51.8739 77.6804 62.3024 69.9914 69.9914C62.3024 77.6804 51.8739 82 41 82C30.1261 82 19.6976 77.6804 12.0086 69.9914C4.31963 62.3024 0 51.8739 0 41ZM30.1574 23.559C28.9402 24.2316 28.1875 25.5289 28.1875 26.9062V55.0938C28.1875 56.4871 28.9402 57.7684 30.1574 58.441C31.3746 59.1137 32.848 59.0977 34.0492 58.3609L57.1117 44.2672C58.2488 43.5625 58.9535 42.3293 58.9535 40.984C58.9535 39.6387 58.2488 38.4055 57.1117 37.7008L34.0492 23.607C32.8641 22.8863 31.3746 22.8543 30.1574 23.527V23.559Z" fill="white"/>
</svg>
