<svg width="10" height="12" viewBox="0 0 10 12" fill="none" xmlns="http://www.w3.org/2000/svg">
<path d="M4.78795 1.42857V0.928571H4.28795H3.9308C3.81186 0.928571 3.71652 0.833233 3.71652 0.714286C3.71652 0.595339 3.81186 0.5 3.9308 0.5H5.00223H6.07366C6.19261 0.5 6.28795 0.595339 6.28795 0.714286C6.28795 0.833232 6.19261 0.928571 6.07366 0.928571H5.71652H5.21652V1.42857V2.19643V2.62504L5.64009 2.69055C6.38598 2.80592 7.06478 3.12012 7.62527 3.57888L7.97549 3.86554L8.29552 3.54552L8.77766 3.06338C8.86142 2.97962 8.99796 2.97962 9.08171 3.06337C9.16547 3.14713 9.16547 3.28367 9.08171 3.36743L8.54377 3.90538L8.25687 4.19227L8.47854 4.5321C8.90009 5.17834 9.14509 5.9521 9.14509 6.78571C9.14509 9.0743 7.29082 10.9286 5.00223 10.9286C2.71364 10.9286 0.859375 9.0743 0.859375 6.78571C0.859375 4.7146 2.37899 2.99722 4.36427 2.69057L4.78795 2.62513V2.19643V1.42857ZM6.03795 7.14286V4.28571C6.03795 3.7127 5.57525 3.25 5.00223 3.25C4.42921 3.25 3.96652 3.7127 3.96652 4.28571V7.14286C3.96652 7.71588 4.42921 8.17857 5.00223 8.17857C5.57525 8.17857 6.03795 7.71588 6.03795 7.14286Z" fill="#FFC283" stroke="#FFC283"/>
</svg>
