<svg width="52" height="52" viewBox="0 0 52 52" fill="none" xmlns="http://www.w3.org/2000/svg">
<path d="M-1.7522e-05 25.8886C-1.8772e-05 40.1864 11.5907 51.7771 25.8885 51.7771C40.1864 51.7771 51.7771 40.1864 51.7771 25.8886C51.7771 11.5907 40.1864 1.24996e-06 25.8885 0C11.5907 -1.24996e-06 -1.62721e-05 11.5907 -1.7522e-05 25.8886Z" fill="#2674CF" fill-opacity="0.2"/>
<circle cx="25.8686" cy="25.812" r="21.5796" fill="#002245" stroke="white"/>
<path d="M20.5152 23.142C20.1824 22.8093 20.1824 22.2678 20.5152 21.9351C20.8479 21.6024 21.3894 21.6024 21.7221 21.9351C22.0548 22.2678 22.0548 22.8093 21.7221 23.142C21.3894 23.4748 20.8479 23.4748 20.5152 23.142Z" fill="white"/>
<path d="M22.1285 31.9565C21.7957 31.6237 21.7957 31.0823 22.1285 30.7496C22.4612 30.4168 23.0027 30.4168 23.3354 30.7496C23.6681 31.0823 23.6681 31.6237 23.3354 31.9565C23.0027 32.2892 22.4612 32.2892 22.1285 31.9565Z" fill="white"/>
<path d="M33.4097 24.7241C33.4097 24.7241 33.9658 22.8039 34.2132 21.1108C34.3755 19.9945 34.168 19.188 33.1888 18.4055C32.2096 17.6231 30.2087 18.0263 29.1843 18.6058C28.1599 19.1853 20.707 22.9375 20.707 22.9375C20.707 22.9375 26.5129 18.0023 28.6282 16.8192C30.7435 15.6362 32.7657 15.8151 34.2558 16.8406C35.7458 17.8687 36.3019 19.8984 35.8363 22.155C35.368 24.4089 34.8358 26.3531 34.8358 26.3531L33.4123 24.7241H33.4097Z" fill="white"/>
<path d="M24.6922 18.7416C24.6922 18.7416 22.7791 18.1835 21.0921 17.9351C19.9799 17.7722 19.1764 17.9805 18.3967 18.9633C17.6171 19.946 18.0189 21.9543 18.5963 22.9825C19.1737 24.0106 22.9121 31.4908 22.9121 31.4908C22.9121 31.4908 17.995 25.6637 16.8162 23.5406C15.6375 21.4202 15.8158 19.3879 16.8375 17.8924C17.8619 16.3969 19.8868 15.8387 22.1325 16.3087C24.3782 16.7788 26.3153 17.3129 26.3153 17.3129L24.6922 18.7416Z" fill="white"/>
<path d="M18.5869 27.56C18.5869 27.56 18.0307 29.4801 17.7833 31.1759C17.621 32.2922 17.8285 33.0987 18.8077 33.8812C19.7869 34.6636 21.7878 34.2604 22.8122 33.6809C23.8366 33.1014 31.2895 29.3492 31.2895 29.3492C31.2895 29.3492 25.4836 34.2844 23.3683 35.4675C21.2556 36.6505 19.2308 36.4716 17.7407 35.4461C16.2507 34.4179 15.6946 32.3883 16.1602 30.1317C16.6285 27.8778 17.1607 25.9336 17.1607 25.9336L18.5842 27.5626L18.5869 27.56Z" fill="white"/>
<path d="M27.3067 33.5383C27.3067 33.5383 29.2198 34.0964 30.9067 34.3448C32.0189 34.5077 32.8225 34.2994 33.6021 33.3166C34.3817 32.3339 33.9799 30.3256 33.4026 29.2975C32.8252 28.2693 29.0867 20.7891 29.0867 20.7891C29.0867 20.7891 34.0039 26.6162 35.1826 28.7393C36.3614 30.8597 36.1831 32.892 35.1613 34.3875C34.1369 35.883 32.1147 36.4412 29.8664 35.9738C27.6207 35.5038 25.6836 34.9697 25.6836 34.9697L27.3067 33.541V33.5383Z" fill="white"/>
<path d="M28.5738 21.6264C28.241 21.2937 28.241 20.7522 28.5738 20.4195C28.9065 20.0867 29.448 20.0867 29.7807 20.4195C30.1134 20.7522 30.1134 21.2937 29.7807 21.6264C29.448 21.9591 28.9065 21.9591 28.5738 21.6264Z" fill="white"/>
<path d="M30.2769 30.2495C29.9442 29.9167 29.9442 29.3753 30.2769 29.0425C30.6096 28.7098 31.1511 28.7098 31.4838 29.0425C31.8166 29.3753 31.8166 29.9167 31.4838 30.2495C31.1511 30.5822 30.6096 30.5822 30.2769 30.2495Z" fill="white"/>
<path d="M25.9818 27.4563C26.7204 27.4563 27.3191 26.8575 27.3191 26.1188C27.3191 25.3801 26.7204 24.7812 25.9818 24.7812C25.2433 24.7812 24.6445 25.3801 24.6445 26.1188C24.6445 26.8575 25.2433 27.4563 25.9818 27.4563Z" fill="white"/>
</svg>
