<svg width="21" height="21" viewBox="0 0 21 21" fill="none" xmlns="http://www.w3.org/2000/svg">
<path d="M13.368 5.82394C13.368 5.82394 12.7173 4.54877 12.0167 3.5434C11.5544 2.88096 11.0508 2.56155 10.156 2.63286C9.2612 2.70418 8.41402 3.8954 8.16314 4.70006C7.91225 5.50473 5.85954 11.1166 5.85954 11.1166C5.85954 11.1166 6.47241 5.69419 6.99714 4.03971C7.52187 2.38523 8.66549 1.48757 9.94613 1.29277C11.2281 1.09937 12.5132 1.88662 13.376 3.29316C14.2362 4.6996 14.9111 5.97559 14.9111 5.97559L13.3694 5.82264L13.368 5.82394Z" fill="#003D7C"/>
<path d="M5.88338 6.97588C5.88338 6.97588 4.61087 7.62206 3.60829 8.31915C2.94769 8.77918 2.63019 9.28178 2.70476 10.177C2.77933 11.0723 3.97338 11.924 4.77878 12.1779C5.58418 12.4318 11.2023 14.5055 11.2023 14.5055C11.2023 14.5055 5.77886 13.8727 4.12284 13.3418C2.46812 12.8123 1.56517 11.6637 1.36574 10.382C1.16769 9.09907 1.95146 7.81523 3.35444 6.96003C4.75743 6.10483 6.03066 5.43436 6.03066 5.43436L5.88338 6.97588Z" fill="#003D7C"/>
<path d="M7.01748 14.5716C7.01748 14.5716 7.66816 15.8468 8.37007 16.8536C8.83242 17.516 9.33606 17.8354 10.2308 17.7641C11.1256 17.6928 11.9728 16.5016 12.2237 15.6969C12.4746 14.8923 14.5273 9.28034 14.5273 9.28034C14.5273 9.28034 13.9144 14.7028 13.3897 16.3573C12.8663 18.0104 11.7213 18.9094 10.4407 19.1042C9.15873 19.2976 7.87363 18.5104 7.01079 17.1038C6.15065 15.6974 5.47569 14.4214 5.47569 14.4214L7.0174 14.5743L7.01748 14.5716Z" fill="#003D7C"/>
<path d="M14.5007 13.4203C14.5007 13.4203 15.7732 12.7741 16.7758 12.077C17.4364 11.617 17.7539 11.1144 17.6794 10.2192C17.6048 9.3239 16.4107 8.47218 15.6053 8.21829C14.7999 7.9644 9.18179 5.8907 9.18179 5.8907C9.18179 5.8907 14.6053 6.52352 16.2613 7.05443C17.916 7.58393 18.8189 8.7325 19.0184 10.0142C19.2164 11.2971 18.4341 12.5797 17.031 13.4376C15.628 14.2928 14.3548 14.9632 14.3548 14.9632L14.502 13.4217L14.5007 13.4203Z" fill="#003D7C"/>
</svg>
