<svg width="73" height="62" viewBox="0 0 73 62" fill="none" xmlns="http://www.w3.org/2000/svg">
<path d="M37.331 32.0022C35.1441 31.8876 33.0414 32.5967 31.4105 33.9992C29.7795 35.4016 28.8156 37.3292 28.6961 39.427C28.5765 41.5249 29.316 43.5418 30.778 45.1062C32.2399 46.6707 34.2495 47.5954 36.4365 47.7099C36.5896 47.718 36.7419 47.7219 36.8941 47.7219C38.9151 47.7219 40.8402 47.0172 42.357 45.713C43.988 44.3106 44.9519 42.383 45.0714 40.285C45.191 38.1872 44.4515 36.1703 42.9897 34.6059C41.5276 33.0415 39.518 32.1167 37.331 32.0022ZM40.8664 40.0647C40.8083 41.0852 40.3393 42.0228 39.5461 42.7049C38.7527 43.387 37.73 43.7313 36.6661 43.6763C35.6022 43.6205 34.6248 43.1708 33.9137 42.4098C33.2026 41.6487 32.843 40.6677 32.9011 39.6472C32.9592 38.6267 33.428 37.6891 34.2214 37.007C34.9592 36.3725 35.8955 36.0297 36.8788 36.0297C36.9527 36.0297 37.027 36.0317 37.1013 36.0355C38.1651 36.0912 39.1427 36.541 39.8536 37.302C40.5649 38.063 40.9245 39.0442 40.8664 40.0647Z" fill="#FFC283"/>
<path d="M34.7773 2.01973C34.7773 0.904264 35.6816 0 36.7971 0H36.9687C38.0842 0 38.9885 0.904264 38.9885 2.01973C38.9885 3.1352 38.0842 4.03946 36.9687 4.03946H36.7971C35.6816 4.03946 34.7773 3.1352 34.7773 2.01973Z" fill="#FFC283"/>
<path d="M51.3812 12.4826C50.5591 11.694 50.5591 10.4154 51.3812 9.62674L56.5027 4.71402C57.3249 3.92539 58.6578 3.92539 59.48 4.71402C60.3021 5.50266 60.3021 6.78129 59.48 7.56992L54.3585 12.4826C53.5363 13.2713 52.2034 13.2713 51.3812 12.4826Z" fill="#FFC283"/>
<path d="M12.8754 7.56662C12.0532 6.77799 12.0532 5.49936 12.8754 4.71072C13.6975 3.92209 15.0305 3.92209 15.8526 4.71072L20.9741 9.62344C21.7963 10.4121 21.7963 11.6907 20.9741 12.4793C20.152 13.268 18.819 13.268 17.9968 12.4793L12.8754 7.56662Z" fill="#FFC283"/>
<path d="M72.0875 38.7708C71.9454 38.5602 68.5396 33.5541 62.5489 28.5034C59.01 25.5198 55.2952 23.138 51.5078 21.424C46.7138 19.2544 41.7936 18.1543 36.8842 18.1543C31.9747 18.1543 27.0545 19.2544 22.2606 21.424C18.4731 23.138 14.7585 25.5198 11.2196 28.5034C5.2287 33.5541 1.82289 38.5602 1.68097 38.7708C1.23877 39.4264 1.23873 40.285 1.68097 40.9406C1.82303 41.1512 5.2287 46.1573 11.2196 51.208C14.7585 54.1915 18.4731 56.5733 22.2606 58.2874C27.0545 60.457 31.9747 61.5571 36.8842 61.5571C41.7936 61.5571 46.7138 60.457 51.5078 58.2874C55.2952 56.5733 59.01 54.1915 62.5489 51.208C68.5397 46.1573 71.9454 41.1512 72.0875 40.9406C72.5296 40.2849 72.5296 39.4264 72.0875 38.7708ZM14.0527 48.278C11.1347 45.8285 8.85179 43.3561 7.33233 41.5467C6.50897 40.5662 6.50977 39.1466 7.33435 38.1671C7.95302 37.4323 8.69854 36.5876 9.56281 35.6784C11.1639 33.994 14.4268 36.3516 14.2947 38.6718C14.1273 41.6124 14.5817 44.4498 15.5474 47.0667C15.8739 47.9515 14.775 48.8844 14.0527 48.278ZM36.8842 57.5625C26.6894 57.5625 18.4251 49.6349 18.4251 39.8559C18.4251 30.0769 26.6894 22.1492 36.8842 22.1492C47.0789 22.1492 55.3432 30.0768 55.3432 39.8558C55.3432 49.6347 47.0789 57.5625 36.8842 57.5625ZM64.2091 44.0292C62.6084 45.7134 59.3415 43.3593 59.4736 41.0396C59.6388 38.1389 59.2086 35.2944 58.2306 32.635C57.9076 31.7568 58.9989 30.8317 59.7156 31.4333C62.6331 33.8825 64.9158 36.3544 66.4353 38.1638C67.2591 39.1448 67.2582 40.5652 66.4332 41.5451C65.8156 42.2787 65.0715 43.1218 64.2091 44.0292Z" fill="#FFC283"/>
</svg>
