<svg width="559" height="487" viewBox="0 0 559 487" fill="none" xmlns="http://www.w3.org/2000/svg">
<path d="M361.883 310.515C356.078 310.515 350.142 310.383 344.073 310.128C273.634 307.143 200.341 287.55 155.237 270.206C124.94 258.561 95.1607 243.729 82.4797 214.318C73.0743 192.504 73.329 164.279 83.1735 136.871C93.0267 109.463 110.652 87.9476 131.544 77.8397C155.114 66.4321 179.563 71.104 203.204 75.6267C229.303 80.6148 253.954 85.3306 274.671 67.7406C279.325 63.7887 281.907 60.2848 284.893 56.2364C288.695 51.0814 293.42 44.6619 304.274 35.0633C320.889 20.3625 338.075 5.16989 362.665 1.11268C397.3 -4.58675 437.205 12.3359 443.238 35.2741C444.397 39.6738 444.661 45.6279 444.037 51.6171C455.155 58.5021 465.263 68.9086 472.42 79.4292C478.049 87.7017 481.984 96.0181 484.109 103.869C490.239 106.038 495.841 109.015 500.355 112.484C515.645 124.243 525.331 147.067 526.938 175.116C528.536 202.999 521.906 231.022 508.751 251.993C494.752 274.307 472.016 290.483 441.174 300.064C418.789 307.011 392.18 310.515 361.883 310.515ZM164.678 71.5958C153.665 71.5958 142.688 73.4049 131.93 78.6213C111.249 88.6326 93.7819 109.973 84.0077 137.161C74.2335 164.359 73.9701 192.346 83.2876 213.958C95.8369 243.07 125.441 257.797 155.553 269.372C261.858 310.243 451.537 341.532 508.004 251.501C521.063 230.679 527.641 202.849 526.06 175.143C524.47 147.357 514.907 124.761 499.82 113.16C495.508 109.841 490.195 106.995 484.372 104.87C486.787 114.442 486.48 123.259 483.231 130.346C478.559 140.56 467.564 148.463 456.499 149.561C442.72 150.922 424.849 142.219 423.277 129.354C421.872 117.885 433.622 108.515 440.788 104.782C453.32 98.2575 469.426 98.8898 483.099 103.5C480.965 95.9215 477.127 87.8949 471.683 79.9034C464.657 69.5848 454.778 59.3627 443.923 52.5568C443.756 53.9267 443.546 55.2967 443.282 56.6491C441.631 65.2202 439.927 74.0811 432.147 79.6751C422.601 86.5425 405.819 87.4997 397.002 77.8924C391.46 71.8505 389.897 62.5856 393.296 55.85C398.732 45.0746 414.258 43.7046 417.314 43.5466C425.938 43.0899 434.843 46.0758 443.194 51.099C443.756 45.3556 443.484 39.6913 442.378 35.4848C439.55 24.7183 428.801 14.7509 412.906 8.12937C397.116 1.56055 378.85 -0.687605 362.788 1.95573C338.444 5.96904 321.355 21.0826 304.836 35.6956C294.052 45.2327 289.547 51.3449 285.578 56.7369C282.557 60.8293 279.957 64.3683 275.224 68.3904C254.182 86.2527 229.33 81.5017 203.019 76.4697C190.391 74.0635 177.508 71.5958 164.678 71.5958ZM462.181 100.839C454.786 100.839 447.524 102.271 441.201 105.573C432.164 110.28 422.978 119.694 424.155 129.257C425.674 141.649 443.054 150.035 456.42 148.692C467.186 147.62 477.891 139.927 482.44 129.986C485.672 122.935 485.909 114.109 483.389 104.519C476.688 102.201 469.373 100.839 462.181 100.839ZM419.097 44.3896C418.517 44.3896 417.946 44.4072 417.376 44.4336C415.558 44.5302 399.425 45.6981 394.095 56.2539C390.854 62.6734 392.356 71.5256 397.66 77.304C405.924 86.3054 422.416 85.6116 431.646 78.9726C439.137 73.5805 440.814 64.8953 442.43 56.491C442.711 55.0245 442.94 53.5403 443.106 52.0562C435.352 47.3403 427.123 44.3896 419.097 44.3896Z" fill="#86B8F9"/>
<path d="M448.077 354.443H343.941V356.2H448.077V354.443Z" fill="#86B8F9"/>
<path d="M253.111 129.91H148.976V131.667H253.111V129.91Z" fill="#86B8F9"/>
<path d="M139.456 256.498H35.3203V258.254H139.456V256.498Z" fill="#86B8F9"/>
<path d="M559.001 472.588H343.406V475.222H559.001V472.588Z" fill="#003D7C"/>
<path d="M320.783 472.588H0V475.222H320.783V472.588Z" fill="#003D7C"/>
<path d="M259.933 80.4395C259.933 80.4395 278.753 94.4026 286.507 103.457C294.262 112.511 312.431 130.417 312.431 130.417C324.181 135.791 334.14 139.603 341.376 142.176C357.447 147.893 371.129 151.432 371.551 157.913C371.603 158.712 371.384 158.475 370.55 161.935C368.468 170.541 369.54 173.22 367.898 175.977C365.307 180.324 358.475 180.684 355.436 180.886C337.618 182.098 293.919 162.91 289.897 159.151C285.875 155.393 240.877 117.148 241.334 110.069C241.799 102.991 242.87 80.4395 259.933 80.4395Z" fill="#2069BF"/>
<path d="M371.348 167.346C369.863 173.634 366.693 178.271 364.261 177.691C361.828 177.112 361.064 171.553 362.548 165.265C364.032 158.977 367.203 154.34 369.635 154.92C372.068 155.5 372.832 161.059 371.348 167.346Z" fill="#39303F"/>
<path d="M372.245 158.997C398.415 159.858 407.311 160.148 407.311 160.148C407.328 160.148 415.627 161.052 415.934 163.283C416.031 164.02 415.671 164.521 415.671 164.521C415.232 165.118 414.406 165.197 414.038 165.223C412.518 165.346 405.756 164.986 396.579 164.275C401.032 164.837 416.69 166.927 417.058 169.614C417.243 170.94 416.646 171.836 416.646 171.836C416.128 172.609 415.311 172.925 414.889 173.039C414.889 173.039 417.304 176.552 414.064 177.483L397.018 174.313C403.069 175.691 407.442 177.123 408.602 178.001C408.944 178.264 409.761 178.87 409.805 179.757C409.805 179.757 409.822 180.153 409.664 180.495C409.032 181.874 400.812 180.135 395.306 179.362C386.972 178.194 386.041 179.406 379.463 177.948C375.002 176.965 371.525 175.542 369.364 174.541C363.559 170.001 362.62 163.52 365.035 160.701C367.142 158.251 371.604 158.9 372.245 158.997Z" fill="#FDAA95"/>
<path d="M368.582 158.934C373.773 157.011 378.12 155.606 381.36 154.613C389.035 152.277 384.987 153.981 389.246 152.664C391.977 151.821 394.287 150.916 395.429 151.996C395.464 152.032 396.07 152.62 396.026 153.437C395.938 155.105 393.295 155.307 390.019 158.1C388.307 159.558 388.57 159.891 386.945 161.147C384.785 162.798 382.563 163.466 381.624 163.791C375.222 165.942 367.959 163.413 368.582 158.934Z" fill="#FDAA95"/>
<path d="M387.244 161.041C386.348 162.472 385.172 163.719 383.819 164.756C382.476 165.81 380.948 166.626 379.305 167.197C377.672 167.759 375.889 167.97 374.168 167.794C373.738 167.733 373.307 167.689 372.886 167.61L371.648 167.267C371.235 167.153 370.848 166.969 370.471 166.767C370.084 166.582 369.716 166.389 369.355 166.178L369.391 166.099C370.936 166.644 372.534 167.136 374.185 167.109C375.819 167.136 377.479 166.925 379.016 166.363C380.57 165.845 382.045 165.098 383.415 164.185C384.776 163.263 386.05 162.209 387.156 160.988L387.244 161.041Z" fill="#D77259"/>
<path d="M284.101 199.127C292.831 205.723 305.88 215.295 322.302 226.263C342.606 239.831 348.982 242.791 352.459 251.397C356.148 260.539 353.996 269.698 342.404 297.633C336.222 312.527 327.615 332.146 316.269 354.926C307.891 352.248 299.514 349.569 291.136 346.882C298.17 320.413 305.204 293.945 312.247 267.477C302.42 262.954 287.131 256.122 268.022 248.376C240.842 237.372 232.139 235.159 226.809 226.263C224.271 222.03 217.166 207.4 232.842 177.006C249.931 184.383 267.012 191.759 284.101 199.127Z" fill="#C7C7C7"/>
<path d="M196.282 318.164C221.872 308.899 221.275 265.403 221.126 260.476L221.117 260.388C221.117 260.23 221.108 260.151 221.108 260.151L221.082 259.879L220.862 259.721C220.722 259.624 217.42 257.279 210.491 254.838C196.528 249.938 171.947 245.968 134.115 254.855C86.2541 266.114 49.5986 283.397 46.9377 295.955C46.6304 297.412 46.7621 298.774 47.3329 300.038C47.8774 301.25 48.8258 302.365 50.1607 303.375C52.9445 305.492 56.3255 306.185 61.1116 305.632C64.5805 305.246 68.4972 304.253 73.0374 303.103C90.9436 298.572 118 291.73 159.442 312.403C174.134 319.762 186.525 321.694 196.282 318.164Z" fill="#2674CF"/>
<path d="M274.511 378.311C274.511 378.311 274.467 378.259 274.371 378.171L274.283 378.083C270.691 374.711 238.479 345.467 214.593 358.517C205.486 363.496 198.733 374.061 194.508 389.921C182.574 434.673 159.539 450.428 144.294 460.852C140.43 463.495 137.102 465.77 134.511 468.115C130.928 471.338 129.215 474.332 128.952 477.819C128.829 479.496 129.04 480.945 129.584 482.148C130.155 483.413 131.086 484.414 132.386 485.151C143.556 491.474 180.782 475.43 220.898 447.012C252.6 424.539 265.896 403.489 271.464 389.772C274.213 382.966 274.652 378.935 274.669 378.768L274.696 378.496L274.511 378.311Z" fill="#2674CF"/>
<path d="M544.194 195.761C544.194 195.91 544.185 196.068 544.176 196.226C544.15 196.858 544.097 197.499 544.027 198.167C544.009 198.386 543.983 198.623 543.956 198.843C543.772 200.415 543.491 202.057 543.105 203.805C543.052 204.059 542.99 204.305 542.938 204.56C542.911 204.692 542.876 204.832 542.841 204.982C542.745 205.403 542.63 205.833 542.507 206.272C542.446 206.527 542.376 206.773 542.297 207.036C542.165 207.519 542.016 208.011 541.875 208.512C541.866 208.538 541.858 208.573 541.849 208.591C541.691 209.118 541.515 209.645 541.348 210.189C540.637 212.349 539.776 214.65 538.758 217.118C538.503 217.733 538.231 218.356 537.967 218.989C537.563 219.937 537.124 220.912 536.659 221.904C536.509 222.238 536.351 222.572 536.185 222.905C535.877 223.581 535.543 224.266 535.201 224.969C534.727 225.935 534.235 226.919 533.726 227.937C533.093 229.176 532.426 230.44 531.723 231.749C531.363 232.425 530.986 233.119 530.608 233.812C530.388 234.225 530.143 234.647 529.914 235.077C529.264 236.245 528.588 237.43 527.886 238.642C524.092 245.238 519.525 252.597 514.063 260.869C510.7 265.954 506.467 271.021 501.487 276.027C500.038 277.476 498.546 278.933 496.965 280.347C449.393 324.142 346.786 362.791 274.6 379.494C268.531 380.9 262.674 382.147 257.089 383.236C230.91 388.311 210.106 392.465 193.324 394.274C174.978 396.242 161.41 395.451 150.837 390.05C147.895 388.54 145.181 386.696 142.661 384.43C138.885 381.066 135.53 376.79 132.492 371.503L132.36 371.564C132.272 371.336 132.211 371.099 132.123 370.862C132.009 370.642 131.868 370.449 131.754 370.221L131.894 370.159C131.851 370.045 131.815 369.931 131.78 369.808C129.901 364.17 128.953 358.954 128.926 353.983C128.909 350.04 129.462 346.255 130.577 342.54C133.826 331.809 141.836 321.675 154.481 310.039C167.004 298.508 184.085 285.511 205.565 268.984C209.895 265.647 214.514 262.23 219.37 258.762C221.057 257.55 222.778 256.338 224.517 255.126C229.478 251.639 234.677 248.118 240.061 244.588C300.234 205.008 383.898 163.25 441.481 157.27C443.589 157.041 445.67 156.875 447.716 156.743C454.759 156.33 461.354 156.506 467.405 157.358C468.292 157.48 469.17 157.612 470.04 157.726C470.9 157.858 471.761 157.981 472.595 158.095C473.175 158.183 473.763 158.28 474.334 158.367C477.32 158.833 480.183 159.29 482.923 159.764C483.924 159.931 484.898 160.106 485.865 160.291C486.787 160.449 487.7 160.624 488.596 160.791C489.957 161.055 491.265 161.301 492.556 161.564C493.171 161.687 493.777 161.801 494.365 161.933C496.736 162.425 499.002 162.925 501.154 163.435C501.918 163.619 502.673 163.795 503.402 163.979C504.227 164.19 505.027 164.392 505.826 164.603C506.3 164.726 506.774 164.84 507.231 164.971C508.495 165.314 509.725 165.656 510.91 166.008C511.481 166.166 512.034 166.341 512.579 166.508C515.31 167.343 517.804 168.194 520.096 169.081C520.772 169.336 521.431 169.591 522.072 169.854C522.134 169.88 522.195 169.907 522.257 169.933C522.95 170.214 523.626 170.504 524.285 170.794C525.137 171.163 525.954 171.549 526.744 171.935C527.166 172.137 527.578 172.348 527.982 172.559C528.86 172.998 529.695 173.463 530.476 173.929C530.74 174.078 531.003 174.227 531.249 174.394C531.504 174.535 531.741 174.684 531.969 174.833C535.139 176.818 537.616 178.891 539.618 181.069C539.768 181.227 539.908 181.393 540.057 181.56C540.198 181.718 540.338 181.885 540.479 182.052C540.619 182.21 540.76 182.386 540.892 182.544C541.032 182.711 541.164 182.878 541.296 183.044C541.691 183.545 542.06 184.046 542.411 184.564C542.437 184.59 542.464 184.625 542.49 184.66C542.543 184.731 542.578 184.792 542.63 184.862L542.832 184.774C542.903 185.012 542.964 185.249 543.043 185.486C543.175 185.705 543.307 185.907 543.438 186.118L543.236 186.206C543.394 186.829 543.544 187.462 543.667 188.103C543.79 188.718 543.886 189.332 543.965 189.965C544.185 191.791 544.273 193.697 544.194 195.761Z" fill="url(#paint0_linear_709_22266)"/>
<path d="M407.033 294.908C431.597 287.518 445.519 261.613 438.129 237.049C430.739 212.485 404.834 198.562 380.27 205.953C355.705 213.343 341.783 239.247 349.173 263.812C356.564 288.376 382.468 302.299 407.033 294.908Z" fill="#2674CF"/>
<g opacity="0.46">
<path d="M403.946 273.31C391.704 278.834 377.372 273.714 371.321 261.867C371.146 261.507 370.961 261.138 370.794 260.761C369.398 257.652 368.678 254.42 368.573 251.215C368.494 248.457 368.88 245.726 369.679 243.127C370.777 239.491 372.691 236.137 375.317 233.318C377.521 230.964 380.217 229.006 383.335 227.601C394.962 222.358 408.477 226.714 414.967 237.305C415.529 238.2 416.039 239.149 416.486 240.141C417.646 242.705 418.339 245.366 418.585 248.027C418.857 250.785 418.673 253.525 418.032 256.168C417.198 259.76 415.573 263.149 413.246 266.056C410.848 269.095 407.713 271.606 403.946 273.31Z" fill="white"/>
</g>
<path d="M501.47 276.018L447.664 156.743C454.707 156.33 461.311 156.506 467.353 157.358C518.182 164.506 534.885 173.428 542.596 184.889L542.798 184.801C542.877 185.038 542.93 185.275 543.009 185.512C543.14 185.732 543.272 185.925 543.404 186.144L543.202 186.232C546.688 199.589 542.324 218.023 514.037 260.852C510.674 265.945 506.441 271.003 501.47 276.018Z" fill="#FFC283"/>
<path d="M124.919 391.515L110.956 360.55C108.119 354.254 110.921 346.851 117.209 344.014L121.292 342.17C127.589 339.333 134.992 342.135 137.828 348.422L151.792 379.387C154.628 385.684 151.827 393.087 145.539 395.924L141.455 397.768C135.168 400.613 127.764 397.812 124.919 391.515Z" fill="url(#paint1_linear_709_22266)"/>
<path d="M259.679 313.308C255.349 303.71 196.274 323.46 141.659 348.093C110.317 362.232 81.1084 377.565 61.5248 390.149C43.724 401.601 35.6272 409.469 37.4626 413.535C38.7798 416.451 45.0501 416.82 56.0977 414.633L56.1767 414.616C77.982 410.286 116.025 396.551 155.491 378.75C210.096 354.117 263.999 322.907 259.679 313.308Z" fill="#2674CF"/>
<path d="M418.595 248.032L369.688 243.132C370.786 239.496 372.701 236.141 375.326 233.322L414.976 237.309C415.539 238.205 416.048 239.153 416.496 240.146C417.655 242.719 418.349 245.38 418.595 248.032Z" fill="white"/>
<path d="M413.256 266.074L371.323 261.867C371.147 261.507 370.963 261.138 370.796 260.761C369.4 257.652 368.68 254.42 368.574 251.215L418.042 256.177C417.208 259.777 415.583 263.158 413.256 266.074Z" fill="white"/>
<path d="M306.213 269.487L304.202 310.701L275.055 362.97L286.594 298.669C288.087 290.371 283.758 282.116 276.083 278.62L224.472 255.12C229.433 251.634 234.632 248.112 240.016 244.582L306.213 269.487Z" fill="#39303F"/>
<path d="M325.314 315.734C319.132 330.628 310.525 350.238 299.179 373.027C290.81 370.34 282.423 367.67 274.046 364.983C281.08 338.514 288.114 312.037 295.157 285.577C285.33 281.055 270.041 274.222 250.932 266.477C223.752 255.473 215.049 253.26 209.718 244.364C207.628 240.869 202.403 230.243 209.525 209.465C211.009 205.136 213.047 200.358 215.752 195.107C235.52 192.419 255.287 189.75 275.055 187.062C272.816 195.476 270.577 203.88 268.329 212.293C267.889 213.935 267.45 215.577 267.011 217.219C275.74 223.815 288.781 233.387 305.212 244.355C325.516 257.923 331.9 260.883 335.369 269.489C339.058 278.631 336.906 287.799 325.314 315.734Z" fill="#DEDEDE"/>
<path d="M275.056 187.07C271.077 190.355 269.778 195.615 271.692 199.681C273.73 204.019 278.516 205.047 279.078 205.161C274.994 208.445 261.373 218.544 241.465 218.606C225.754 218.659 214.303 212.432 209.525 209.464C211.01 205.135 213.047 200.357 215.752 195.106C235.52 192.427 255.288 189.749 275.056 187.07Z" fill="#012143"/>
<path d="M281.756 60.3756C281.422 61.2889 281.097 62.211 280.764 63.1243C279.402 66.9093 278.024 70.7031 276.663 74.4881C274.66 80.0206 272.658 85.5532 270.664 91.0857C265.009 93.8345 258.546 92.9299 254.655 89.022C250.897 85.2546 251.002 80.1699 251.046 79.1424C255.542 68.7711 260.047 58.4085 264.544 48.0371C270.287 52.147 276.021 56.2657 281.756 60.3756Z" fill="#F4AE96"/>
<path d="M279.912 66.5303C278.551 70.3153 277.172 74.109 275.811 77.894C273.923 76.1289 270.981 72.9059 268.961 68.0496C267.556 64.6773 267.056 61.6212 266.88 59.4258L279.912 66.5303Z" fill="#C4553E"/>
<path d="M257.51 51.0226C260.856 56.2303 264.263 59.8835 266.757 62.2458C270.13 65.4424 272.694 66.8827 274.117 67.5589C274.442 67.7169 274.828 67.8838 274.951 67.9277C277.067 68.8498 279.193 69.7719 281.45 70.088C283.057 70.3164 286.183 70.7555 287.764 68.8849C287.983 68.6303 288.229 68.0067 288.738 66.7597C289.617 64.5994 290.346 62.7376 289.661 61.956C289.292 61.5345 288.624 61.5784 288.633 61.4028C288.642 61.192 289.599 61.3238 290.144 60.9022C291.153 60.1119 290.468 57.609 290.038 55.5453C289.652 53.6748 289.23 51.0578 289.125 47.7558C288.466 42.9258 287.606 38.9125 286.859 35.9266C285.867 31.9397 285.349 29.9111 284.163 27.8386C283.557 26.7759 280.703 22.0074 275.416 19.8119C268.312 16.8612 261.646 20.5057 258.836 21.9723C257.414 22.7187 245.303 29.27 245.892 39.7555C246.173 44.77 249.396 51.2773 253.699 51.9272C255.227 52.1467 256.571 51.5847 257.51 51.0226Z" fill="#F4AE96"/>
<path d="M274.107 38.3751C280.755 42.1161 288.509 39.7187 291.188 34.4759C293.208 30.5241 292.224 25.1672 288.764 21.7949C285.286 18.4139 279.938 17.6324 275.547 19.9069C274.054 18.3788 271.437 16.1921 267.723 15.3227C258.098 13.057 246.646 20.9343 247.068 26.5635C247.147 27.5998 247.647 28.9346 249.377 30.4275C247.331 30.6031 245.259 31.2091 243.959 32.7723C239.998 37.5408 244.758 49.3612 252.337 55.5085C257.316 59.5481 262.814 60.5844 265.826 60.9005C266.001 57.8445 266.186 54.7884 266.361 51.7323C266.897 50.6521 267.442 49.5719 267.977 48.4918C270.032 45.1371 272.07 41.7561 274.107 38.3751Z" fill="#2C363D"/>
<path d="M265.685 63.8706C266.239 64.0902 266.906 64.0551 267.389 63.7126C267.635 63.5545 267.828 63.3174 267.925 63.0364C268.03 62.7641 268.057 62.448 268.004 62.1582L268.065 62.1406C268.338 62.4129 268.469 62.808 268.408 63.2032C268.364 63.616 268.092 64.0024 267.749 64.2483C267.398 64.4766 266.968 64.582 266.59 64.5117C266.204 64.459 265.861 64.2395 265.65 63.9233L265.685 63.8706Z" fill="#D77259"/>
<path d="M263.675 51.751C264.141 52.234 264.747 52.9453 265.291 53.9113C266.169 55.4481 266.424 56.7742 266.644 57.9598C266.995 59.8654 267.346 61.8238 266.371 62.5439C266.099 62.7459 265.783 62.7986 265.563 62.8161C264.817 62.6317 254.621 60.0411 253.427 53.3756C253.357 52.9804 252.821 49.7926 254.507 48.5193C256.272 47.1756 260.066 48.247 263.675 51.751Z" fill="#F4AE96"/>
<path d="M265.563 57.4152C265.598 57.5908 265.633 57.7577 265.659 57.9333C265.852 59.1013 265.87 60.1288 265.826 60.9279C265.264 61.0158 264.298 61.1124 263.13 60.9279C257.966 60.1112 253.575 54.4909 254.647 51.8475C254.849 51.3294 255.244 51.0571 255.525 50.8552C256.271 50.3195 257.185 50.179 258.107 50.2492C258.537 50.2843 258.976 50.3634 259.389 50.4775C260.311 50.7146 261.163 51.1186 261.786 51.4962C262.427 51.8914 263.543 52.6906 264.482 54.1923C264.869 54.9826 265.29 56.0716 265.563 57.4152Z" fill="#D77259"/>
<path d="M265.563 57.4152C265.598 57.5908 265.633 57.7577 265.659 57.9333C260.338 54.5874 259.231 52.0934 259.389 50.4688C260.311 50.7059 261.163 51.1098 261.787 51.4874C262.428 51.8826 263.543 52.6818 264.483 54.1835C264.869 54.9826 265.291 56.0716 265.563 57.4152Z" fill="#C4553E"/>
<path d="M287.413 42.0377C287.413 42.0377 283.47 41.5547 280.343 43.4955C277.208 45.4363 278.06 45.1553 282.583 44.5493C287.105 43.9346 288.493 45.2694 287.413 42.0377Z" fill="#2C363D"/>
<path d="M285.023 48.4048C285.138 49.3444 284.848 50.1436 284.382 50.1963C283.917 50.249 283.443 49.5376 283.329 48.6068C283.214 47.6671 283.504 46.8679 283.97 46.8152C284.435 46.7626 284.909 47.4739 285.023 48.4048Z" fill="#2C363D"/>
<path d="M288.581 46.1387C288.941 49.2562 289.907 51.3024 290.741 52.6109C291.514 53.8228 292.462 54.8503 292.181 55.8953C291.944 56.7735 290.899 57.4936 290.205 57.2916C289.239 57.0106 288.343 54.7273 288.581 46.1387Z" fill="#F4AE96"/>
<path d="M250.432 28.9086C250.432 28.9086 241.387 22.4452 235.696 28.6539C235.696 28.6539 240.096 23.7449 249.141 30.2083C258.187 36.663 250.432 28.9086 250.432 28.9086Z" fill="#2C363D"/>
<path d="M247.077 30.1284C247.077 30.1284 238.726 33.3162 240.359 39.885C240.359 39.885 239.024 34.7564 247.376 31.5686C255.719 28.3808 247.077 30.1284 247.077 30.1284Z" fill="#2C363D"/>
<path d="M284.312 20.5938C285.533 20.7518 286.71 21.1558 287.851 21.6564C288.975 22.2008 290.02 22.9209 290.96 23.7816C291.917 24.6158 292.655 25.7311 293.261 26.8113C293.876 27.909 294.394 29.1297 294.587 30.4645C294.745 31.7994 294.481 33.2308 293.805 34.4164C293.138 35.5932 292.163 36.5592 291.039 37.1915C289.915 37.8325 288.703 38.2541 287.474 38.4824C286.235 38.6668 284.988 38.7195 283.776 38.5175V38.4297C286.183 38.4736 288.633 37.9203 290.661 36.6118C291.654 35.9444 292.541 35.0838 293.103 34.03C293.674 32.9762 293.876 31.7467 293.717 30.5612C293.577 29.3756 293.12 28.234 292.558 27.1801C291.996 26.1175 291.32 25.1076 290.468 24.2558C288.791 22.5258 286.604 21.3226 284.286 20.6816L284.312 20.5938Z" fill="#2C363D"/>
<path d="M290.134 128.769C290.151 130.578 290.116 132.316 290.019 134.011C289.352 145.77 286.147 156.212 284.1 182.039C283.538 189.214 283.249 195.159 283.099 199.129C281.65 200.051 276.662 203.116 269.452 205.952H269.443C257.404 210.694 239.155 214.787 220.783 207.173C211.729 203.414 205.143 197.855 200.682 193.104C208.541 168.006 216.401 142.916 224.252 117.818C224.533 116.922 224.814 116.017 225.095 115.122C229.056 102.476 235.361 90.6993 243.651 80.3806C244.652 79.1248 245.697 77.8866 246.769 76.6747C246.821 76.6132 246.865 76.5605 246.918 76.5078C253.601 78.6594 260.284 80.8197 266.976 82.98C270.673 84.1656 274.388 85.3599 278.085 86.5543L278.296 86.9494C278.454 87.2392 278.603 87.5203 278.761 87.8101C286.542 102.256 289.229 114.56 289.949 124.035C290.046 125.361 290.098 126.635 290.134 127.847C290.134 128.031 290.142 128.207 290.142 128.382C290.134 128.505 290.134 128.637 290.134 128.769Z" fill="#2674CF"/>
<path d="M283.548 368.047L282.731 367.731C283.039 366.923 313.749 286.446 309.701 275.679C307.426 269.62 284.409 256.184 264.105 244.328C247.859 234.844 233.817 226.642 232.438 223.427C229.373 216.279 232.007 211.388 232.122 211.186L232.886 211.616C232.859 211.66 230.356 216.349 233.237 223.085C234.502 226.036 249.088 234.554 264.535 243.573C284.971 255.508 308.129 269.023 310.508 275.372C314.68 286.455 284.822 364.719 283.548 368.047Z" fill="#012143"/>
<path d="M300.698 371.253C300.619 372.061 299.548 372.579 298.828 372.921C295.868 374.335 293.181 373.396 286.48 371.2C277.953 368.416 275.002 367.547 274.449 365.097C274.361 364.719 274.203 364.017 274.563 363.437C275.046 362.673 276.636 361.804 287.157 364.991C294.235 367.134 300.9 369.154 300.698 371.253Z" fill="#39303F"/>
<path d="M285.444 398.907L282.942 399.522L271.279 391.89C273.527 382.95 275.776 374.01 278.024 365.07C280.614 365.167 283.635 365.457 286.955 366.107C290.898 366.888 294.279 367.995 297.019 369.092C293.155 379.033 289.3 388.975 285.444 398.907Z" fill="#FFC283"/>
<path d="M293.024 435.045C280.247 418.754 267.469 402.473 254.691 386.182C261.963 383.671 269.234 381.159 276.506 378.656C276.567 380.298 276.628 381.941 276.69 383.583C275.847 385.787 274.24 390.345 275.092 391.864C275.127 391.926 275.171 391.996 275.171 391.996C275.171 391.996 276.04 393.427 278.051 394.112C281.221 395.193 288.177 390.055 289.213 391.206C289.362 391.364 289.45 391.715 289.064 392.593C287.342 394.718 287.158 396.343 287.228 397.3C287.254 397.722 287.588 399.013 288.273 401.577C288.422 402.139 288.563 402.692 288.721 403.245C289.055 404.466 289.388 405.617 289.705 406.723C289.819 407.057 289.907 407.391 290.003 407.724C290.398 409.041 290.758 410.262 291.092 411.386C291.259 412.01 291.435 412.598 291.584 413.178C291.698 413.59 291.804 413.986 291.9 414.381C292.717 417.665 299.066 430.214 295.738 433.92C295.351 434.316 294.614 434.895 293.024 435.045Z" fill="url(#paint2_linear_709_22266)"/>
<path d="M254.786 385.194C268.065 402.178 281.352 419.171 294.63 436.155C294.63 436.296 294.63 437.543 293.549 438.421C293.444 438.509 292.425 439.308 291.108 439.009C277.531 422.262 263.955 405.515 250.387 388.759C250.422 388.514 250.738 386.775 252.345 385.782C253.39 385.141 254.409 385.168 254.786 385.194Z" fill="url(#paint3_linear_709_22266)"/>
<path d="M288.711 403.234C288.694 403.252 288.676 403.243 288.65 403.252C287.131 403.506 285.638 403.866 284.11 404.016C282.573 404.182 281.027 404.261 279.482 404.261C278.858 404.253 278.349 403.752 278.349 403.12C278.349 402.487 278.858 401.987 279.482 401.978C279.508 401.987 279.525 401.987 279.552 401.978C281.01 402.084 282.467 402.092 283.934 402.022C285.392 401.961 286.806 401.706 288.255 401.557C288.421 402.127 288.562 402.681 288.711 403.234Z" fill="#F7F7F7"/>
<path d="M289.994 407.706C288.992 408.128 287.991 408.558 286.938 408.883C285.48 409.348 283.987 409.761 282.476 410.069C281.862 410.191 281.256 409.805 281.124 409.19C280.992 408.567 281.387 407.97 282.002 407.838C282.064 407.829 282.134 407.82 282.187 407.82C283.653 407.759 285.12 407.601 286.577 407.373C287.631 407.214 288.668 406.96 289.695 406.705C289.8 407.048 289.897 407.381 289.994 407.706Z" fill="#F7F7F7"/>
<path d="M291.574 413.167C291.24 413.282 290.898 413.378 290.555 413.475C289.071 413.888 287.561 414.221 286.041 414.476C285.418 414.573 284.838 414.16 284.733 413.545C284.636 412.922 285.049 412.342 285.672 412.245C285.699 412.237 285.725 412.237 285.751 412.237C287.209 412.105 288.658 411.894 290.09 411.604C290.415 411.543 290.748 411.464 291.082 411.385C291.249 411.999 291.425 412.588 291.574 413.167Z" fill="#F7F7F7"/>
<path d="M290.134 128.767C290.152 130.576 290.117 132.315 290.02 134.01C279.728 133.843 268.268 132.359 268.268 132.359C273.045 131.682 281.941 129.733 290.108 127.836C290.108 128.02 290.117 128.196 290.117 128.372C290.134 128.503 290.134 128.635 290.134 128.767Z" fill="#1959A3"/>
<path d="M376.241 48.8605C376.838 45.2688 377.769 42.52 378.542 40.6407C379.218 38.9897 379.113 39.543 380.483 36.443C382.309 32.298 382.792 30.5592 383.829 30.4977C384.584 30.4538 385.287 31.3232 385.576 31.9028C386.49 33.7382 385.418 37.1368 385.471 37.9096C385.471 37.9447 385.488 38.1291 385.497 38.3926C385.524 38.8668 385.524 38.8317 385.55 39.0864C385.726 40.6671 385.699 47.8418 376.241 48.8605Z" fill="#C88F7D"/>
<path d="M410.647 20.4381C410.831 20.5084 411.349 20.6928 411.516 21.1407C411.999 22.4052 409.241 24.5392 408.003 25.5052C404.42 28.2891 400.047 31.7052 394.822 35.7888C396.762 35.2355 398.747 34.533 400.925 34.1993C402.602 33.9358 403.858 33.927 404.526 34.1641C405.307 34.4452 405.966 34.9809 405.966 34.9809C406.51 35.4199 407.099 35.8942 407.107 36.6055C407.134 37.3783 406.458 37.9228 406.308 38.0457C406.502 38.0194 408.082 37.8613 409.321 39.0732C410.55 40.2763 410.436 41.857 410.418 42.059C410.84 42.2347 411.999 42.8143 412.368 43.9735C412.693 45.001 412.236 45.9406 411.727 46.9505C409.119 52.0001 407.784 54.5293 405.957 54.5468C405.72 54.538 405.061 54.5556 404.543 54.1165C404.016 53.6511 403.814 52.808 403.92 51.6927C404.06 50.1032 404.824 47.978 406.159 45.6069C402.875 50.0154 399.502 53.2734 396.604 55.627C395.375 56.6369 394.225 57.48 393.206 58.1825C388.402 61.5284 382.369 65.5417 378.654 63.7414C375.361 62.1343 374.026 55.987 375.431 49.1284C376.951 47.3369 378.189 45.9143 379.049 44.9219C380.683 43.0426 380.859 42.8494 381.596 41.9712C382.913 40.408 383.317 39.8548 384.687 38.3707C388.253 34.5154 391.739 31.793 398.554 26.5064C401.698 24.0826 407.854 19.4282 410.647 20.4381Z" fill="#FDAA95"/>
<path d="M372.763 84.5444C370.409 86.8892 368.082 89.0759 365.79 91.1045L365.781 91.1133C347.304 107.597 331.383 114.693 331.383 114.693C317.34 120.954 303.369 125.327 290.134 128.375C287.359 129.007 284.628 129.587 281.923 130.105C273.747 131.694 265.931 132.774 258.616 133.521C252.276 134.162 245.962 131.879 241.527 127.207C232.841 118.056 223.506 101.845 249.597 89.5589C259.169 88.6807 268.724 87.8113 278.296 86.9331C290.74 85.8002 303.184 84.6586 315.619 83.5257C327.923 73.6286 338.777 65.9708 347.155 60.4031C363.84 49.3029 369.671 47.1337 374.747 49.3468C380.262 51.7618 383.371 58.6907 383.617 64.4252C383.942 72.3903 378.761 78.5552 372.763 84.5444Z" fill="#2674CF"/>
<mask id="mask0_709_22266" style="mask-type:alpha" maskUnits="userSpaceOnUse" x="271" y="132" width="19" height="31">
<path d="M290 132.5L276.5 132L271.5 146L275 160L286 163L288.5 147L290 132.5Z" fill="#D9D9D9"/>
</mask>
<g mask="url(#mask0_709_22266)">
<path d="M282.192 141.216C281.81 140.834 281.81 140.211 282.192 139.828C282.575 139.446 283.198 139.446 283.58 139.828C283.963 140.211 283.963 140.834 283.58 141.216C283.198 141.599 282.575 141.599 282.192 141.216Z" fill="white"/>
<path d="M284.045 151.349C283.663 150.967 283.663 150.344 284.045 149.961C284.428 149.579 285.051 149.579 285.433 149.961C285.816 150.344 285.816 150.967 285.433 151.349C285.051 151.732 284.428 151.732 284.045 151.349Z" fill="white"/>
<path d="M297.025 143.032C297.025 143.032 297.664 140.824 297.949 138.877C298.135 137.594 297.897 136.666 296.771 135.766C295.645 134.866 293.344 135.33 292.166 135.997C290.988 136.663 282.417 140.978 282.417 140.978C282.417 140.978 289.094 135.303 291.526 133.942C293.959 132.582 296.284 132.787 297.998 133.967C299.711 135.149 300.351 137.483 299.815 140.078C299.277 142.67 298.665 144.906 298.665 144.906L297.028 143.032H297.025Z" fill="white"/>
<path d="M286.998 136.151C286.998 136.151 284.798 135.509 282.858 135.224C281.579 135.037 280.655 135.276 279.759 136.406C278.862 137.536 279.324 139.846 279.988 141.028C280.652 142.211 284.951 150.813 284.951 150.813C284.951 150.813 279.297 144.112 277.941 141.67C276.586 139.232 276.791 136.895 277.966 135.175C279.144 133.455 281.472 132.813 284.055 133.354C286.637 133.894 288.865 134.508 288.865 134.508L286.998 136.151Z" fill="white"/>
<path d="M279.975 146.293C279.975 146.293 279.335 148.501 279.051 150.451C278.864 151.735 279.103 152.663 280.229 153.562C281.355 154.462 283.656 153.998 284.834 153.332C286.012 152.666 294.583 148.351 294.583 148.351C294.583 148.351 287.906 154.026 285.473 155.387C283.044 156.747 280.715 156.541 279.002 155.362C277.288 154.18 276.649 151.846 277.184 149.251C277.723 146.659 278.335 144.423 278.335 144.423L279.972 146.296L279.975 146.293Z" fill="white"/>
<path d="M290.001 153.169C290.001 153.169 292.201 153.811 294.141 154.097C295.42 154.284 296.344 154.044 297.24 152.914C298.137 151.784 297.675 149.475 297.011 148.292C296.347 147.11 292.048 138.508 292.048 138.508C292.048 138.508 297.702 145.209 299.058 147.65C300.413 150.089 300.208 152.426 299.033 154.146C297.855 155.866 295.53 156.507 292.944 155.97C290.362 155.429 288.134 154.815 288.134 154.815L290.001 153.172V153.169Z" fill="white"/>
<path d="M288.473 146.173C289.322 146.173 290.011 145.485 290.011 144.635C290.011 143.786 289.322 143.097 288.473 143.097C287.624 143.097 286.935 143.786 286.935 144.635C286.935 145.485 287.624 146.173 288.473 146.173Z" fill="white"/>
</g>
<path d="M251.328 211.152L250.757 210.485C251.012 210.265 251.459 209.668 252.109 208.061L252.926 208.386C252.338 209.835 251.811 210.731 251.328 211.152ZM254.094 205.022L253.251 204.759C253.567 203.758 253.892 202.625 254.234 201.387L255.077 201.615C254.735 202.871 254.41 204.012 254.094 205.022ZM255.982 198.208L255.13 197.997C255.402 196.908 255.683 195.766 255.964 194.581L256.816 194.783C256.535 195.968 256.254 197.11 255.982 198.208ZM257.615 191.34L256.755 191.147C257.01 190.032 257.264 188.881 257.519 187.713L258.379 187.898C258.116 189.074 257.861 190.216 257.615 191.34ZM259.117 184.455L258.257 184.271C258.494 183.138 258.74 181.988 258.977 180.828L259.837 181.004C259.591 182.163 259.354 183.314 259.117 184.455ZM260.531 177.553L259.67 177.377C259.899 176.235 260.127 175.076 260.355 173.926L261.216 174.093C260.996 175.252 260.768 176.402 260.531 177.553ZM261.892 170.633L261.032 170.466C261.251 169.315 261.471 168.156 261.69 167.014L262.551 167.181C262.34 168.323 262.121 169.473 261.892 170.633ZM263.209 163.712L262.349 163.554C262.568 162.386 262.779 161.236 262.99 160.094L263.851 160.252C263.64 161.385 263.429 162.545 263.209 163.712ZM264.483 156.784L263.622 156.626C263.833 155.449 264.044 154.29 264.246 153.157L265.106 153.315C264.904 154.448 264.694 155.607 264.483 156.784ZM265.721 149.846L264.86 149.697L265.466 146.228L266.336 146.377L265.721 149.846ZM266.942 142.899L266.072 142.75L266.67 139.273L267.539 139.422L266.942 142.899ZM268.119 135.935L267.249 135.786C267.618 133.564 267.829 132.291 267.829 132.291L268.698 132.432C268.707 132.44 268.496 133.714 268.119 135.935Z" fill="#728131"/>
<path d="M251.328 211.152L250.757 210.485C251.012 210.265 251.459 209.668 252.109 208.061L252.926 208.386C252.338 209.835 251.811 210.731 251.328 211.152ZM254.094 205.022L253.251 204.759C253.567 203.758 253.892 202.625 254.234 201.387L255.077 201.615C254.735 202.871 254.41 204.012 254.094 205.022ZM255.982 198.208L255.13 197.997C255.402 196.908 255.683 195.766 255.964 194.581L256.816 194.783C256.535 195.968 256.254 197.11 255.982 198.208ZM257.615 191.34L256.755 191.147C257.01 190.032 257.264 188.881 257.519 187.713L258.379 187.898C258.116 189.074 257.861 190.216 257.615 191.34ZM259.117 184.455L258.257 184.271C258.494 183.138 258.74 181.988 258.977 180.828L259.837 181.004C259.591 182.163 259.354 183.314 259.117 184.455ZM260.531 177.553L259.67 177.377C259.899 176.235 260.127 175.076 260.355 173.926L261.216 174.093C260.996 175.252 260.768 176.402 260.531 177.553ZM261.892 170.633L261.032 170.466C261.251 169.315 261.471 168.156 261.69 167.014L262.551 167.181C262.34 168.323 262.121 169.473 261.892 170.633ZM263.209 163.712L262.349 163.554C262.568 162.386 262.779 161.236 262.99 160.094L263.851 160.252C263.64 161.385 263.429 162.545 263.209 163.712ZM264.483 156.784L263.622 156.626C263.833 155.449 264.044 154.29 264.246 153.157L265.106 153.315C264.904 154.448 264.694 155.607 264.483 156.784ZM265.721 149.846L264.86 149.697L265.466 146.228L266.336 146.377L265.721 149.846ZM266.942 142.899L266.072 142.75L266.67 139.273L267.539 139.422L266.942 142.899ZM268.119 135.935L267.249 135.786C267.618 133.564 267.829 132.291 267.829 132.291L268.698 132.432C268.707 132.44 268.496 133.714 268.119 135.935Z" fill="#1959A3"/>
<path d="M278.744 87.8074C272.922 91.7943 262.814 98.5388 257.966 100.62C250.932 103.632 234.844 116.7 226.808 117.71C226.001 117.806 225.14 117.841 224.244 117.806C224.525 116.91 224.806 116.006 225.087 115.11C229.048 102.464 235.353 90.6878 243.643 80.3691L266.968 82.9598C270.665 84.1453 274.38 85.3397 278.077 86.534L278.288 86.9292C278.446 87.2278 278.595 87.5088 278.744 87.8074Z" fill="#1959A3"/>
<path d="M281.09 86.5458C277.603 88.3724 272.8 90.8314 267.021 93.5801C242.002 105.497 229.356 111.355 222.892 106.604C217.772 102.836 217.772 94.3704 217.772 89.558C217.772 85.896 217.772 76.4818 223.806 71.4674C226.554 69.1753 229.285 68.8592 247.929 70.4663C247.929 70.4663 275.504 72.8374 283.109 80.5215C283.338 80.7498 283.961 81.3821 284.058 82.2954C284.26 84.2362 281.994 85.9311 281.09 86.5458Z" fill="#2674CF"/>
<defs>
<linearGradient id="paint0_linear_709_22266" x1="250.222" y1="219.639" x2="317.237" y2="374.13" gradientUnits="userSpaceOnUse">
<stop stop-color="#003367"/>
<stop offset="1" stop-color="#001D3B"/>
</linearGradient>
<linearGradient id="paint1_linear_709_22266" x1="122.422" y1="356.347" x2="144.649" y2="378.278" gradientUnits="userSpaceOnUse">
<stop stop-color="#003367"/>
<stop offset="1" stop-color="#001D3B"/>
</linearGradient>
<linearGradient id="paint2_linear_709_22266" x1="266.96" y1="393.563" x2="288.637" y2="414.961" gradientUnits="userSpaceOnUse">
<stop stop-color="#003367"/>
<stop offset="1" stop-color="#001D3B"/>
</linearGradient>
<linearGradient id="paint3_linear_709_22266" x1="263.309" y1="399.43" x2="283.955" y2="421.891" gradientUnits="userSpaceOnUse">
<stop stop-color="#003367"/>
<stop offset="1" stop-color="#001D3B"/>
</linearGradient>
</defs>
</svg>
