<svg width="64" height="63" viewBox="0 0 64 63" fill="none" xmlns="http://www.w3.org/2000/svg">
<path d="M55.451 16.2136C57.0421 16.2136 58.5681 15.5816 59.6933 14.4565L62.7525 11.3978C63.9 10.2505 63.9 8.39009 62.7525 7.24274C62.289 6.77929 61.6838 6.48416 61.0332 6.40428L60.7257 6.36653C59.0597 6.16199 57.7517 4.84106 57.5635 3.17311L57.5409 2.97297C57.4634 2.28615 57.155 1.64598 56.6663 1.15727C55.4746 -0.0342052 53.5428 -0.0342151 52.3511 1.15725L49.372 4.13591C48.2466 5.26115 47.6144 6.78741 47.6144 8.37886V12.385C47.6144 12.9577 47.3869 13.5069 46.9819 13.9118C46.1821 14.7115 44.9059 14.7503 43.9976 14.0764C39.3792 10.6497 33.8073 8.79783 27.9507 8.79783C20.7389 8.79783 13.9587 11.6059 8.85908 16.7049C3.75961 21.8038 0.951172 28.5832 0.951172 35.7942V57.1484C0.951172 60.3089 3.51325 62.871 6.67372 62.871H7.65051C8.88751 62.871 10.0482 62.273 10.7663 61.2658C11.9694 59.5783 14.2877 59.184 16.1512 60.0908C19.7816 61.8574 23.7945 62.7905 27.9508 62.7905C32.1134 62.7905 36.1318 61.8545 39.7664 60.0827C41.6378 59.1705 43.9673 59.565 45.1758 61.2601C45.8965 62.2709 47.0613 62.871 48.3027 62.871H49.2725C52.433 62.871 54.9952 60.3088 54.9952 57.1483V35.8164C54.9952 35.8041 54.9852 35.7942 54.9729 35.7942C54.9606 35.7942 54.9506 35.7842 54.9506 35.7719C54.9458 29.727 52.9659 23.9873 49.3182 19.2872C48.7261 18.5243 48.7547 17.432 49.4375 16.7492C49.7805 16.4063 50.2456 16.2136 50.7306 16.2136H55.451ZM51.3574 7.44357C51.3574 7.44357 51.3574 7.44356 51.3574 7.44354L51.7941 7.00698C52.6772 6.12398 54.1896 6.6531 54.3296 7.89406L54.3569 8.13593C54.4387 8.86081 55.0071 9.43488 55.7312 9.52378L55.9574 9.55156C57.1691 9.70033 57.6781 11.1788 56.8148 12.042C56.54 12.3167 56.1674 12.471 55.7788 12.471H53.871C52.4827 12.471 51.3573 11.3456 51.3573 9.9573V7.44366C51.3573 7.44361 51.3573 7.44357 51.3574 7.44357ZM8.28543 58.2982C7.91395 58.8192 7.31352 59.1285 6.67362 59.1285C5.58036 59.1285 4.69409 58.2423 4.69409 57.149V56.3299C4.69409 54.4329 7.51772 53.5421 8.85921 54.8834C9.47503 55.4991 9.58894 56.4699 9.08339 57.179L8.28543 58.2982ZM51.2522 57.1489C51.2522 58.2422 50.3659 59.1285 49.2726 59.1285C48.6327 59.1285 48.0322 58.8192 47.6607 58.2982L46.8245 57.1253C46.3308 56.4328 46.4411 55.4846 47.0426 54.8834C48.395 53.5312 51.2522 54.4295 51.2522 56.3419V57.1489ZM51.2076 35.7942C51.2076 48.6164 40.7747 59.0481 27.9508 59.0481C15.127 59.0481 4.69409 48.6164 4.69409 35.7942C4.69409 22.9719 15.127 12.5403 27.9508 12.5403C32.4599 12.5403 36.6727 13.8307 40.2407 16.0608C41.7409 16.9985 41.8234 19.0698 40.5723 20.3207C39.4894 21.4034 37.7791 21.476 36.4463 20.7219C33.9353 19.3012 31.0362 18.4895 27.9508 18.4895C18.4079 18.4895 10.644 26.2523 10.644 35.7942C10.644 45.336 18.4079 53.0988 27.9508 53.0988C37.4938 53.0988 45.2577 45.336 45.2577 35.7942C45.2577 32.6189 44.3976 29.6409 42.8986 27.0803C42.1164 25.7443 42.1758 24.0101 43.2706 22.9155C44.5083 21.6779 46.5543 21.7459 47.5037 23.2162C49.8465 26.8445 51.2076 31.1633 51.2076 35.7942ZM31.4908 35.9875C31.4391 36.933 31.0223 37.8016 30.3172 38.4336C29.6121 39.0657 28.7003 39.3849 27.7575 39.3335C26.8119 39.2819 25.943 38.8652 25.3111 38.1601C24.679 37.4552 24.3593 36.5462 24.4109 35.6007C24.4626 34.6552 24.8794 33.7866 25.5844 33.1546C26.2403 32.5668 27.0725 32.2492 27.9463 32.2492C28.0121 32.2492 28.0782 32.2511 28.1442 32.2546C29.0898 32.3062 29.9587 32.7229 30.5906 33.428C31.2228 34.133 31.5424 35.0421 31.4908 35.9875ZM33.2594 27.6328C32.2045 28.6875 30.5807 28.8331 29.1075 28.5986C28.8577 28.5589 28.6045 28.5318 28.3485 28.5179C26.4046 28.4121 24.5358 29.0688 23.0862 30.368C21.6365 31.6673 20.7798 33.4531 20.6736 35.3968C20.5673 37.3404 21.2246 39.209 22.5239 40.6583C23.8233 42.1078 25.6094 42.9644 27.5533 43.0706C27.6895 43.0781 27.8248 43.0817 27.9601 43.0817C29.7564 43.0817 31.4674 42.4288 32.8156 41.2205C34.2653 39.9212 35.122 38.1353 35.2282 36.1916C35.2609 35.5925 35.2209 35.0008 35.1118 34.4262C34.8266 32.9234 34.9401 31.2449 36.0217 30.1634C37.4321 28.7532 39.8004 28.905 40.5439 30.7555C41.1701 32.3139 41.5149 34.0144 41.5149 35.794C41.5149 43.2723 35.4301 49.3563 27.951 49.3563C20.4719 49.3563 14.387 43.2723 14.387 35.794C14.387 28.3158 20.4719 22.2318 27.951 22.2318C29.583 22.2318 31.1486 22.5217 32.599 23.0525C34.5187 23.7551 34.7049 26.1874 33.2594 27.6328Z" fill="#FFC283"/>
</svg>
