<svg width="28" height="39" viewBox="0 0 28 39" fill="none" xmlns="http://www.w3.org/2000/svg">
<path d="M0.642614 26.6912C0.642614 24.1641 0.790028 21.637 1.08486 19.1099C1.37968 16.5407 1.67451 14.0347 1.96934 11.5918C1.96934 11.2549 2.05358 11.0022 2.22205 10.8337C2.39052 10.6652 2.559 10.4757 2.72747 10.2651C2.72747 10.223 2.76959 10.1387 2.85383 10.0124C2.93806 9.88602 2.98018 9.80179 2.98018 9.75967C3.61196 8.24341 4.64385 6.97986 6.07588 5.96902C7.5079 4.91606 9.04522 4.38958 10.6878 4.38958C11.6144 4.38958 12.3936 4.51594 13.0254 4.76865C13.6572 4.97924 14.2047 5.31619 14.668 5.77949C15.1313 6.20067 15.5525 6.72715 15.9316 7.35893C16.3106 7.94858 16.7318 8.62247 17.1951 9.3806C17.5321 10.1387 17.8058 11.0022 18.0164 11.9709C18.227 12.9396 18.3744 13.9294 18.4587 14.9402C18.585 15.9511 18.6693 16.9619 18.7114 17.9727C18.7535 18.9415 18.7745 19.847 18.7745 20.6894C18.6903 22.0793 18.5218 23.5534 18.2691 25.1118C18.0585 26.6281 17.7005 28.1233 17.1951 29.5974C16.6897 31.0294 15.9947 32.3561 15.1103 33.5776C14.2679 34.799 13.1728 35.8098 11.825 36.6101C11.2775 36.947 10.6668 37.2629 9.99288 37.5578C9.36111 37.8526 8.72933 38 8.09756 38C6.62342 38 5.40198 37.642 4.43326 36.926C3.50666 36.1679 2.74853 35.2202 2.15887 34.083C1.61134 32.9458 1.21121 31.7244 0.958502 30.4187C0.74791 29.0709 0.642614 27.8284 0.642614 26.6912ZM5.38092 29.2183C5.42304 29.5132 5.48622 29.8922 5.57046 30.3555C5.69681 30.8188 5.84423 31.2821 6.0127 31.7454C6.22329 32.2087 6.476 32.6089 6.77083 32.9458C7.06566 33.2827 7.44472 33.4512 7.90802 33.4512C8.24497 33.4512 8.56086 33.367 8.85569 33.1985C9.19263 33.03 9.4664 32.8616 9.67699 32.6931C10.7721 31.8507 11.6355 30.8399 12.2673 29.6606C12.9412 28.4813 13.4466 27.2388 13.7835 25.9331C14.1205 24.5853 14.3311 23.2375 14.4153 21.8897C14.4995 20.4998 14.5417 19.1731 14.5417 17.9096C14.5417 17.7411 14.5417 17.4673 14.5417 17.0883C14.5417 16.7092 14.5206 16.3301 14.4785 15.9511C14.4785 15.5299 14.4785 15.1298 14.4785 14.7507C14.4785 14.3716 14.4785 14.1189 14.4785 13.9926C14.4364 13.5293 14.3311 12.9185 14.1626 12.1604C13.9941 11.3602 13.7625 10.602 13.4676 9.88602C13.1728 9.12789 12.7727 8.47506 12.2673 7.92752C11.804 7.37998 11.2354 7.10622 10.5615 7.10622C10.1824 7.10622 9.74017 7.23257 9.23475 7.48528C8.72933 7.69587 8.24497 7.96964 7.78167 8.30659C7.36049 8.64353 6.98142 9.04366 6.64447 9.50696C6.34965 9.92814 6.20223 10.3493 6.20223 10.7705C6.20223 11.1075 6.28647 11.3812 6.45494 11.5918C6.66553 11.8024 6.77083 12.1183 6.77083 12.5395V13.2344C6.72871 13.3608 6.64447 13.7399 6.51812 14.3716C6.43388 14.9613 6.32859 15.5931 6.20223 16.2669C6.07588 16.9408 5.94952 17.5937 5.82317 18.2255C5.73893 18.8151 5.67575 19.1731 5.63363 19.2995C5.46516 20.3524 5.35987 21.4264 5.31775 22.5215C5.31775 23.6166 5.31775 24.6696 5.31775 25.6804C5.31775 25.8067 5.31775 26.0384 5.31775 26.3753C5.31775 26.7123 5.31775 27.0703 5.31775 27.4494C5.35987 27.8284 5.38092 28.1864 5.38092 28.5234C5.38092 28.8603 5.38092 29.092 5.38092 29.2183ZM21.9334 35.5993C21.8492 34.6305 21.786 33.725 21.7439 32.8826C21.7439 32.0403 21.7228 31.219 21.6807 30.4187C21.6807 29.5763 21.6807 28.755 21.6807 27.9548C21.6807 27.1124 21.6807 26.2069 21.6807 25.2382C21.6807 21.9529 21.8492 18.7098 22.1861 15.5088C22.5652 12.2657 22.839 9.00154 23.0074 5.71631C23.0074 5.33725 22.9864 4.85289 22.9443 4.26323C22.9443 3.63145 23.0074 3.0418 23.1338 2.49426C23.2601 1.9046 23.4918 1.4413 23.8287 1.10436C24.1657 0.72529 24.6922 0.556817 25.4082 0.598935C26.0821 0.683172 26.6086 0.956941 26.9876 1.42024C27.3667 1.88354 27.6615 2.43108 27.8721 3.06286C27.4509 7.31681 27.0508 11.5708 26.6717 15.8247C26.3348 20.0365 26.1663 24.3115 26.1663 28.6497C26.1663 29.6606 26.2084 30.6714 26.2927 31.6823C26.419 32.6931 26.4822 33.7039 26.4822 34.7148C26.4822 35.0517 26.4611 35.4097 26.419 35.7888C26.3769 36.1679 26.2927 36.5259 26.1663 36.8628C26.04 37.1998 25.8294 37.4946 25.5345 37.7473C25.2818 37.9579 24.9449 38.0632 24.5237 38.0632C23.7656 38.0632 23.197 37.8105 22.8179 37.305C22.4388 36.7996 22.144 36.231 21.9334 35.5993Z" fill="#FFC283"/>
</svg>
