<svg width="50" height="34" viewBox="0 0 50 34" fill="none" xmlns="http://www.w3.org/2000/svg">
<path d="M0.642614 22.6912C0.642614 20.1641 0.790028 17.637 1.08486 15.1099C1.37968 12.5407 1.67451 10.0347 1.96934 7.59182C1.96934 7.25487 2.05358 7.00216 2.22205 6.83369C2.39052 6.66521 2.559 6.47568 2.72747 6.26509C2.72747 6.22297 2.76959 6.13873 2.85383 6.01238C2.93806 5.88602 2.98018 5.80179 2.98018 5.75967C3.61196 4.24341 4.64385 2.97986 6.07588 1.96902C7.5079 0.916063 9.04522 0.389584 10.6878 0.389584C11.6144 0.389584 12.3936 0.515939 13.0254 0.768649C13.6572 0.97924 14.2047 1.31619 14.668 1.77949C15.1313 2.20067 15.5525 2.72715 15.9316 3.35893C16.3106 3.94858 16.7318 4.62247 17.1951 5.3806C17.5321 6.13873 17.8058 7.00216 18.0164 7.97088C18.227 8.9396 18.3744 9.92938 18.4587 10.9402C18.585 11.9511 18.6693 12.9619 18.7114 13.9727C18.7535 14.9415 18.7745 15.847 18.7745 16.6894C18.6903 18.0793 18.5218 19.5534 18.2691 21.1118C18.0585 22.6281 17.7005 24.1233 17.1951 25.5974C16.6897 27.0294 15.9947 28.3561 15.1103 29.5776C14.2679 30.799 13.1728 31.8098 11.825 32.6101C11.2775 32.947 10.6668 33.2629 9.99288 33.5578C9.36111 33.8526 8.72933 34 8.09756 34C6.62342 34 5.40198 33.642 4.43326 32.926C3.50666 32.1679 2.74853 31.2202 2.15887 30.083C1.61134 28.9458 1.21121 27.7244 0.958502 26.4187C0.74791 25.0709 0.642614 23.8284 0.642614 22.6912ZM5.38092 25.2183C5.42304 25.5132 5.48622 25.8922 5.57046 26.3555C5.69681 26.8188 5.84423 27.2821 6.0127 27.7454C6.22329 28.2087 6.476 28.6089 6.77083 28.9458C7.06566 29.2827 7.44472 29.4512 7.90802 29.4512C8.24497 29.4512 8.56086 29.367 8.85569 29.1985C9.19263 29.03 9.4664 28.8616 9.67699 28.6931C10.7721 27.8507 11.6355 26.8399 12.2673 25.6606C12.9412 24.4813 13.4466 23.2388 13.7835 21.9331C14.1205 20.5853 14.3311 19.2375 14.4153 17.8897C14.4995 16.4998 14.5417 15.1731 14.5417 13.9096C14.5417 13.7411 14.5417 13.4673 14.5417 13.0883C14.5417 12.7092 14.5206 12.3301 14.4785 11.9511C14.4785 11.5299 14.4785 11.1298 14.4785 10.7507C14.4785 10.3716 14.4785 10.1189 14.4785 9.99256C14.4364 9.52926 14.3311 8.91854 14.1626 8.16041C13.9941 7.36017 13.7625 6.60204 13.4676 5.88602C13.1728 5.12789 12.7727 4.47506 12.2673 3.92752C11.804 3.37998 11.2354 3.10622 10.5615 3.10622C10.1824 3.10622 9.74017 3.23257 9.23475 3.48528C8.72933 3.69587 8.24497 3.96964 7.78167 4.30659C7.36049 4.64353 6.98142 5.04366 6.64447 5.50696C6.34965 5.92814 6.20223 6.34933 6.20223 6.77051C6.20223 7.10746 6.28647 7.38122 6.45494 7.59182C6.66553 7.80241 6.77083 8.11829 6.77083 8.53948V9.23443C6.72871 9.36079 6.64447 9.73985 6.51812 10.3716C6.43388 10.9613 6.32859 11.5931 6.20223 12.2669C6.07588 12.9408 5.94952 13.5937 5.82317 14.2255C5.73893 14.8151 5.67575 15.1731 5.63363 15.2995C5.46516 16.3524 5.35987 17.4264 5.31775 18.5215C5.31775 19.6166 5.31775 20.6696 5.31775 21.6804C5.31775 21.8067 5.31775 22.0384 5.31775 22.3753C5.31775 22.7123 5.31775 23.0703 5.31775 23.4494C5.35987 23.8284 5.38092 24.1864 5.38092 24.5234C5.38092 24.8603 5.38092 25.092 5.38092 25.2183ZM25.4082 31.5993C25.4082 31.2623 25.4292 31.0096 25.4714 30.8411C25.5556 30.6727 25.7241 30.3989 25.9768 30.0198C27.114 28.2508 28.2512 26.4819 29.3884 24.7129C30.5677 22.9018 31.6206 21.0697 32.5472 19.2165C33.516 17.3211 34.2951 15.3837 34.8848 13.4041C35.4745 11.4246 35.7693 9.36079 35.7693 7.21275C34.5057 7.21275 33.3896 7.59182 32.4209 8.34995C31.4522 9.10808 30.5256 9.95044 29.6411 10.877C28.7566 11.8036 27.8932 12.646 27.0508 13.4041C26.2084 14.1623 25.3029 14.5413 24.3342 14.5413C24.0393 14.5413 23.7235 14.5203 23.3865 14.4782C23.0496 14.3939 22.7337 14.2886 22.4388 14.1623C22.144 13.9938 21.8913 13.7832 21.6807 13.5305C21.4701 13.2357 21.3648 12.8987 21.3648 12.5197V12.3933C21.6175 11.8458 21.9755 11.3193 22.4388 10.8139C22.9021 10.2663 23.4076 9.76091 23.9551 9.29761C24.5026 8.79219 25.0502 8.32889 25.5977 7.9077C26.1453 7.48652 26.6296 7.10746 27.0508 6.77051C27.6405 6.26509 28.3143 5.73861 29.0725 5.19107C29.8306 4.64353 30.6098 4.13811 31.41 3.67481C32.2524 3.16939 33.1158 2.76927 34.0003 2.47444C34.8848 2.13749 35.7693 1.96902 36.6538 1.96902C38.17 1.96902 39.223 2.45338 39.8126 3.4221C40.4023 4.34871 40.6971 5.54908 40.6971 7.02322C40.6971 9.80303 40.2128 12.5407 39.2441 15.2363C38.3174 17.8897 37.1803 20.4168 35.8325 22.8176V23.0703L34.1899 25.9765H34.7584C36.5274 24.9656 38.4227 24.1233 40.4444 23.4494C42.5082 22.7334 44.5299 22.1437 46.5095 21.6804H46.7622C47.5203 21.6804 48.1521 21.8067 48.6575 22.0595C49.1629 22.3122 49.4156 22.9018 49.4156 23.8284C49.4156 24.4602 49.2472 25.0077 48.9102 25.471C48.5733 25.5553 48.131 25.6816 47.5835 25.8501C47.0781 26.0186 46.6358 26.0607 46.2567 25.9765L40.0654 28.1877L29.957 33.4946C29.2831 33.8315 28.6092 34 27.9353 34C27.3456 34 26.777 33.7683 26.2295 33.305C25.682 32.7996 25.4082 32.231 25.4082 31.5993Z" fill="#FFC283"/>
</svg>
