<svg width="44" height="35" viewBox="0 0 44 35" fill="none" xmlns="http://www.w3.org/2000/svg">
<path d="M0.642614 23.6912C0.642614 21.1641 0.790028 18.637 1.08486 16.1099C1.37968 13.5407 1.67451 11.0347 1.96934 8.59182C1.96934 8.25487 2.05358 8.00216 2.22205 7.83369C2.39052 7.66521 2.559 7.47568 2.72747 7.26509C2.72747 7.22297 2.76959 7.13873 2.85383 7.01238C2.93806 6.88602 2.98018 6.80179 2.98018 6.75967C3.61196 5.24341 4.64385 3.97986 6.07588 2.96902C7.5079 1.91606 9.04522 1.38958 10.6878 1.38958C11.6144 1.38958 12.3936 1.51594 13.0254 1.76865C13.6572 1.97924 14.2047 2.31619 14.668 2.77949C15.1313 3.20067 15.5525 3.72715 15.9316 4.35893C16.3106 4.94858 16.7318 5.62247 17.1951 6.3806C17.5321 7.13873 17.8058 8.00216 18.0164 8.97088C18.227 9.9396 18.3744 10.9294 18.4587 11.9402C18.585 12.9511 18.6693 13.9619 18.7114 14.9727C18.7535 15.9415 18.7745 16.847 18.7745 17.6894C18.6903 19.0793 18.5218 20.5534 18.2691 22.1118C18.0585 23.6281 17.7005 25.1233 17.1951 26.5974C16.6897 28.0294 15.9947 29.3561 15.1103 30.5776C14.2679 31.799 13.1728 32.8098 11.825 33.6101C11.2775 33.947 10.6668 34.2629 9.99288 34.5578C9.36111 34.8526 8.72933 35 8.09756 35C6.62342 35 5.40198 34.642 4.43326 33.926C3.50666 33.1679 2.74853 32.2202 2.15887 31.083C1.61134 29.9458 1.21121 28.7244 0.958502 27.4187C0.74791 26.0709 0.642614 24.8284 0.642614 23.6912ZM5.38092 26.2183C5.42304 26.5132 5.48622 26.8922 5.57046 27.3555C5.69681 27.8188 5.84423 28.2821 6.0127 28.7454C6.22329 29.2087 6.476 29.6089 6.77083 29.9458C7.06566 30.2827 7.44472 30.4512 7.90802 30.4512C8.24497 30.4512 8.56086 30.367 8.85569 30.1985C9.19263 30.03 9.4664 29.8616 9.67699 29.6931C10.7721 28.8507 11.6355 27.8399 12.2673 26.6606C12.9412 25.4813 13.4466 24.2388 13.7835 22.9331C14.1205 21.5853 14.3311 20.2375 14.4153 18.8897C14.4995 17.4998 14.5417 16.1731 14.5417 14.9096C14.5417 14.7411 14.5417 14.4673 14.5417 14.0883C14.5417 13.7092 14.5206 13.3301 14.4785 12.9511C14.4785 12.5299 14.4785 12.1298 14.4785 11.7507C14.4785 11.3716 14.4785 11.1189 14.4785 10.9926C14.4364 10.5293 14.3311 9.91854 14.1626 9.16041C13.9941 8.36017 13.7625 7.60204 13.4676 6.88602C13.1728 6.12789 12.7727 5.47506 12.2673 4.92752C11.804 4.37998 11.2354 4.10622 10.5615 4.10622C10.1824 4.10622 9.74017 4.23257 9.23475 4.48528C8.72933 4.69587 8.24497 4.96964 7.78167 5.30659C7.36049 5.64353 6.98142 6.04366 6.64447 6.50696C6.34965 6.92814 6.20223 7.34933 6.20223 7.77051C6.20223 8.10746 6.28647 8.38122 6.45494 8.59182C6.66553 8.80241 6.77083 9.11829 6.77083 9.53948V10.2344C6.72871 10.3608 6.64447 10.7399 6.51812 11.3716C6.43388 11.9613 6.32859 12.5931 6.20223 13.2669C6.07588 13.9408 5.94952 14.5937 5.82317 15.2255C5.73893 15.8151 5.67575 16.1731 5.63363 16.2995C5.46516 17.3524 5.35987 18.4264 5.31775 19.5215C5.31775 20.6166 5.31775 21.6696 5.31775 22.6804C5.31775 22.8067 5.31775 23.0384 5.31775 23.3753C5.31775 23.7123 5.31775 24.0703 5.31775 24.4494C5.35987 24.8284 5.38092 25.1864 5.38092 25.5234C5.38092 25.8603 5.38092 26.092 5.38092 26.2183ZM30.4624 32.5993C30.4624 32.2202 30.4834 31.9254 30.5256 31.7148C30.6098 31.4621 30.8625 31.2304 31.2837 31.0198C31.3258 30.9777 31.4311 30.9566 31.5996 30.9566C31.768 30.9145 31.9365 30.8724 32.105 30.8303C32.3156 30.7882 32.4841 30.7671 32.6104 30.7671C32.7789 30.725 32.8842 30.7039 32.9263 30.7039C33.179 30.6618 33.4528 30.5565 33.7476 30.388C34.0846 30.1775 34.4004 29.9669 34.6953 29.7563C35.0322 29.5036 35.327 29.2719 35.5798 29.0613C35.8325 28.8507 36.022 28.7033 36.1484 28.6191C37.3698 27.5661 38.1911 26.4079 38.6123 25.1443C39.0756 23.8808 39.3072 22.4698 39.3072 20.9114C39.3072 20.7008 39.3072 20.406 39.3072 20.0269C39.3072 19.6479 39.2862 19.2688 39.2441 18.8897C39.2441 18.4686 39.1809 18.1106 39.0545 17.8157C38.9282 17.4788 38.7386 17.2471 38.4859 17.1208C38.4017 17.0787 38.1911 17.0576 37.8541 17.0576C37.5593 17.0576 37.3698 17.0576 37.2855 17.0576C36.3168 17.0576 35.3902 17.2682 34.5057 17.6894C33.6634 18.0684 32.821 18.5107 31.9786 19.0161C31.1784 19.4794 30.336 19.9216 29.4515 20.3428C28.6092 20.7219 27.6826 20.9114 26.6717 20.9114C25.9978 20.9114 25.4714 20.7008 25.0923 20.2796C24.7132 19.8163 24.5237 19.2688 24.5237 18.637C24.5237 17.9631 24.9238 17.0576 25.7241 15.9204C26.5243 14.7832 27.4299 13.5828 28.4407 12.3193C29.4515 11.0557 30.4413 9.81325 31.41 8.59182C32.3788 7.32827 33.0527 6.25425 33.4317 5.36976H32.9263C31.9576 5.36976 31.0731 5.58036 30.2728 6.00154C29.4726 6.3806 28.7145 6.80179 27.9985 7.26509C27.2824 7.72839 26.5664 8.17063 25.8504 8.59182C25.1765 8.97088 24.4605 9.16041 23.7024 9.16041C23.1549 9.16041 22.5863 9.03406 21.9966 8.78135C21.4069 8.48652 21.1121 7.9811 21.1121 7.26509C21.1121 6.67543 21.428 6.08578 22.0598 5.49612C22.6916 4.86434 23.5129 4.29575 24.5237 3.79033C25.5345 3.24279 26.6507 2.73737 27.8721 2.27407C29.1357 1.81077 30.3571 1.41064 31.5364 1.0737C32.7578 0.73675 33.874 0.48404 34.8848 0.315567C35.8956 0.104975 36.6748 -0.000320509 37.2224 -0.000320509C38.7807 -0.000320509 39.5599 0.820987 39.5599 2.4636V3.28491C38.8439 5.18023 37.9805 6.88602 36.9697 8.40228C35.9588 9.87642 34.948 11.4559 33.9371 13.1406H34.5689C35.1586 13.1406 35.6851 13.0985 36.1484 13.0142C36.6538 12.93 37.2013 12.8879 37.791 12.8879C39.4757 12.8879 40.8024 13.4354 41.7711 14.5305C42.7399 15.5835 43.4348 16.8891 43.856 18.4475C43.856 18.6581 43.856 19.1003 43.856 19.7742C43.8981 20.406 43.9192 20.8061 43.9192 20.9746C43.9192 23.7965 43.3295 26.2183 42.1502 28.24C40.9709 30.2196 39.223 32.0096 36.9065 33.6101C35.7272 34.5367 34.4426 35 33.0527 35C32.3788 35 31.768 34.7683 31.2205 34.305C30.7151 33.7996 30.4624 33.231 30.4624 32.5993Z" fill="#FFC283"/>
</svg>
