<svg width="45" height="38" viewBox="0 0 45 38" fill="none" xmlns="http://www.w3.org/2000/svg">
<path d="M0.642614 26.6912C0.642614 24.1641 0.790028 21.637 1.08486 19.1099C1.37968 16.5407 1.67451 14.0347 1.96934 11.5918C1.96934 11.2549 2.05358 11.0022 2.22205 10.8337C2.39052 10.6652 2.559 10.4757 2.72747 10.2651C2.72747 10.223 2.76959 10.1387 2.85383 10.0124C2.93806 9.88602 2.98018 9.80179 2.98018 9.75967C3.61196 8.24341 4.64385 6.97986 6.07588 5.96902C7.5079 4.91606 9.04522 4.38958 10.6878 4.38958C11.6144 4.38958 12.3936 4.51594 13.0254 4.76865C13.6572 4.97924 14.2047 5.31619 14.668 5.77949C15.1313 6.20067 15.5525 6.72715 15.9316 7.35893C16.3106 7.94858 16.7318 8.62247 17.1951 9.3806C17.5321 10.1387 17.8058 11.0022 18.0164 11.9709C18.227 12.9396 18.3744 13.9294 18.4587 14.9402C18.585 15.9511 18.6693 16.9619 18.7114 17.9727C18.7535 18.9415 18.7745 19.847 18.7745 20.6894C18.6903 22.0793 18.5218 23.5534 18.2691 25.1118C18.0585 26.6281 17.7005 28.1233 17.1951 29.5974C16.6897 31.0294 15.9947 32.3561 15.1103 33.5776C14.2679 34.799 13.1728 35.8098 11.825 36.6101C11.2775 36.947 10.6668 37.2629 9.99288 37.5578C9.36111 37.8526 8.72933 38 8.09756 38C6.62342 38 5.40198 37.642 4.43326 36.926C3.50666 36.1679 2.74853 35.2202 2.15887 34.083C1.61134 32.9458 1.21121 31.7244 0.958502 30.4187C0.74791 29.0709 0.642614 27.8284 0.642614 26.6912ZM5.38092 29.2183C5.42304 29.5132 5.48622 29.8922 5.57046 30.3555C5.69681 30.8188 5.84423 31.2821 6.0127 31.7454C6.22329 32.2087 6.476 32.6089 6.77083 32.9458C7.06566 33.2827 7.44472 33.4512 7.90802 33.4512C8.24497 33.4512 8.56086 33.367 8.85569 33.1985C9.19263 33.03 9.4664 32.8616 9.67699 32.6931C10.7721 31.8507 11.6355 30.8399 12.2673 29.6606C12.9412 28.4813 13.4466 27.2388 13.7835 25.9331C14.1205 24.5853 14.3311 23.2375 14.4153 21.8897C14.4995 20.4998 14.5417 19.1731 14.5417 17.9096C14.5417 17.7411 14.5417 17.4673 14.5417 17.0883C14.5417 16.7092 14.5206 16.3301 14.4785 15.9511C14.4785 15.5299 14.4785 15.1298 14.4785 14.7507C14.4785 14.3716 14.4785 14.1189 14.4785 13.9926C14.4364 13.5293 14.3311 12.9185 14.1626 12.1604C13.9941 11.3602 13.7625 10.602 13.4676 9.88602C13.1728 9.12789 12.7727 8.47506 12.2673 7.92752C11.804 7.37998 11.2354 7.10622 10.5615 7.10622C10.1824 7.10622 9.74017 7.23257 9.23475 7.48528C8.72933 7.69587 8.24497 7.96964 7.78167 8.30659C7.36049 8.64353 6.98142 9.04366 6.64447 9.50696C6.34965 9.92814 6.20223 10.3493 6.20223 10.7705C6.20223 11.1075 6.28647 11.3812 6.45494 11.5918C6.66553 11.8024 6.77083 12.1183 6.77083 12.5395V13.2344C6.72871 13.3608 6.64447 13.7399 6.51812 14.3716C6.43388 14.9613 6.32859 15.5931 6.20223 16.2669C6.07588 16.9408 5.94952 17.5937 5.82317 18.2255C5.73893 18.8151 5.67575 19.1731 5.63363 19.2995C5.46516 20.3524 5.35987 21.4264 5.31775 22.5215C5.31775 23.6166 5.31775 24.6696 5.31775 25.6804C5.31775 25.8067 5.31775 26.0384 5.31775 26.3753C5.31775 26.7123 5.31775 27.0703 5.31775 27.4494C5.35987 27.8284 5.38092 28.1864 5.38092 28.5234C5.38092 28.8603 5.38092 29.092 5.38092 29.2183ZM33.8108 22.5215H33.5581C32.6736 22.5215 31.7891 22.6058 30.9046 22.7742C30.0623 22.9427 29.1988 23.1322 28.3143 23.3428C27.472 23.5534 26.6086 23.743 25.7241 23.9114C24.8817 24.0799 24.0183 24.1641 23.1338 24.1641H22.8811C22.4178 23.8272 21.9545 23.406 21.4912 22.9006C21.07 22.3952 20.9015 21.8266 20.9858 21.1948C21.0279 20.9421 21.2385 20.6683 21.6175 20.3735C21.9966 20.0365 22.2493 19.7628 22.3757 19.5522C22.4178 19.4679 22.5441 19.2573 22.7547 18.9204C22.9653 18.5413 23.1759 18.1412 23.3865 17.72C23.6392 17.2988 23.8709 16.9198 24.0815 16.5828C24.292 16.2038 24.4395 15.9721 24.5237 15.8879C24.5237 15.7194 24.6079 15.6352 24.7764 15.6352L30.6519 5.4636C30.6519 5.42148 30.673 5.37936 30.7151 5.33725C30.7993 5.29513 30.8625 5.25301 30.9046 5.21089C31.031 5.04242 31.2416 4.76865 31.5364 4.38958C31.8312 4.01052 32.1471 3.6104 32.4841 3.18921C32.821 2.76803 33.1369 2.3679 33.4317 1.98884C33.7266 1.60978 33.9371 1.33601 34.0635 1.16753C34.2741 0.872705 34.5057 0.704231 34.7584 0.662113C35.0112 0.619995 35.306 0.598935 35.6429 0.598935C35.9378 0.598935 36.2536 0.641054 36.5906 0.72529C36.9275 0.809527 37.2434 0.935882 37.5383 1.10436C37.8331 1.27283 38.0858 1.50448 38.2964 1.79931C38.507 2.09414 38.6123 2.43108 38.6123 2.81015V16.2038C39.3704 16.2038 40.0443 16.0142 40.634 15.6352C41.2657 15.214 41.9817 15.0034 42.782 15.0034C44.2561 15.0034 44.9932 15.7826 44.9932 17.341C44.9932 17.6779 44.93 18.0149 44.8037 18.3518C44.7194 18.6888 44.5088 18.9204 44.1719 19.0468L38.6123 21.1948V21.3843C38.6123 23.743 38.8229 26.0805 39.2441 28.397C39.7074 30.7135 39.939 33.009 39.939 35.2834C39.939 35.9573 39.7705 36.589 39.4336 37.1787C39.0966 37.7262 38.5702 38 37.8541 38C37.6014 38 37.3487 38 37.096 38C36.8854 37.9579 36.6748 37.8736 36.4642 37.7473C36.2536 37.5788 35.9799 37.3261 35.6429 36.9892C35.306 36.6522 35.1375 36.4416 35.1375 36.3574V35.852L33.8108 22.5215ZM28.4407 19.0468C28.6092 19.0468 28.8829 19.0046 29.262 18.9204C29.6832 18.8362 30.1254 18.7519 30.5887 18.6677C31.052 18.5835 31.4732 18.5203 31.8523 18.4782C32.2735 18.3939 32.5894 18.3307 32.7999 18.2886C32.8421 18.2465 32.9474 18.2044 33.1158 18.1623C33.3264 18.078 33.4738 18.0149 33.5581 17.9727C33.6002 17.9727 33.6423 17.9306 33.6844 17.8464C33.7687 17.7621 33.8108 17.699 33.8108 17.6569V9.75967L33.5581 9.3806L28.4407 18.5413V19.0468Z" fill="#FFC283"/>
</svg>
