<svg width="46" height="34" viewBox="0 0 46 34" fill="none" xmlns="http://www.w3.org/2000/svg">
<path d="M0.642614 22.6912C0.642614 20.1641 0.790028 17.637 1.08486 15.1099C1.37968 12.5407 1.67451 10.0347 1.96934 7.59182C1.96934 7.25487 2.05358 7.00216 2.22205 6.83369C2.39052 6.66521 2.559 6.47568 2.72747 6.26509C2.72747 6.22297 2.76959 6.13873 2.85383 6.01238C2.93806 5.88602 2.98018 5.80179 2.98018 5.75967C3.61196 4.24341 4.64385 2.97986 6.07588 1.96902C7.5079 0.916063 9.04522 0.389584 10.6878 0.389584C11.6144 0.389584 12.3936 0.515939 13.0254 0.768649C13.6572 0.97924 14.2047 1.31619 14.668 1.77949C15.1313 2.20067 15.5525 2.72715 15.9316 3.35893C16.3106 3.94858 16.7318 4.62247 17.1951 5.3806C17.5321 6.13873 17.8058 7.00216 18.0164 7.97088C18.227 8.9396 18.3744 9.92938 18.4587 10.9402C18.585 11.9511 18.6693 12.9619 18.7114 13.9727C18.7535 14.9415 18.7745 15.847 18.7745 16.6894C18.6903 18.0793 18.5218 19.5534 18.2691 21.1118C18.0585 22.6281 17.7005 24.1233 17.1951 25.5974C16.6897 27.0294 15.9947 28.3561 15.1103 29.5776C14.2679 30.799 13.1728 31.8098 11.825 32.6101C11.2775 32.947 10.6668 33.2629 9.99288 33.5578C9.36111 33.8526 8.72933 34 8.09756 34C6.62342 34 5.40198 33.642 4.43326 32.926C3.50666 32.1679 2.74853 31.2202 2.15887 30.083C1.61134 28.9458 1.21121 27.7244 0.958502 26.4187C0.74791 25.0709 0.642614 23.8284 0.642614 22.6912ZM5.38092 25.2183C5.42304 25.5132 5.48622 25.8922 5.57046 26.3555C5.69681 26.8188 5.84423 27.2821 6.0127 27.7454C6.22329 28.2087 6.476 28.6089 6.77083 28.9458C7.06566 29.2827 7.44472 29.4512 7.90802 29.4512C8.24497 29.4512 8.56086 29.367 8.85569 29.1985C9.19263 29.03 9.4664 28.8616 9.67699 28.6931C10.7721 27.8507 11.6355 26.8399 12.2673 25.6606C12.9412 24.4813 13.4466 23.2388 13.7835 21.9331C14.1205 20.5853 14.3311 19.2375 14.4153 17.8897C14.4995 16.4998 14.5417 15.1731 14.5417 13.9096C14.5417 13.7411 14.5417 13.4673 14.5417 13.0883C14.5417 12.7092 14.5206 12.3301 14.4785 11.9511C14.4785 11.5299 14.4785 11.1298 14.4785 10.7507C14.4785 10.3716 14.4785 10.1189 14.4785 9.99256C14.4364 9.52926 14.3311 8.91854 14.1626 8.16041C13.9941 7.36017 13.7625 6.60204 13.4676 5.88602C13.1728 5.12789 12.7727 4.47506 12.2673 3.92752C11.804 3.37998 11.2354 3.10622 10.5615 3.10622C10.1824 3.10622 9.74017 3.23257 9.23475 3.48528C8.72933 3.69587 8.24497 3.96964 7.78167 4.30659C7.36049 4.64353 6.98142 5.04366 6.64447 5.50696C6.34965 5.92814 6.20223 6.34933 6.20223 6.77051C6.20223 7.10746 6.28647 7.38122 6.45494 7.59182C6.66553 7.80241 6.77083 8.11829 6.77083 8.53948V9.23443C6.72871 9.36079 6.64447 9.73985 6.51812 10.3716C6.43388 10.9613 6.32859 11.5931 6.20223 12.2669C6.07588 12.9408 5.94952 13.5937 5.82317 14.2255C5.73893 14.8151 5.67575 15.1731 5.63363 15.2995C5.46516 16.3524 5.35987 17.4264 5.31775 18.5215C5.31775 19.6166 5.31775 20.6696 5.31775 21.6804C5.31775 21.8067 5.31775 22.0384 5.31775 22.3753C5.31775 22.7123 5.31775 23.0703 5.31775 23.4494C5.35987 23.8284 5.38092 24.1864 5.38092 24.5234C5.38092 24.8603 5.38092 25.092 5.38092 25.2183ZM27.493 31.7888C27.493 31.3676 27.5773 30.9885 27.7458 30.6516C27.9563 30.3146 28.188 30.0198 28.4407 29.7671C28.7355 29.4723 29.0304 29.1985 29.3252 28.9458C29.6621 28.6931 29.957 28.4404 30.2097 28.1877C30.3781 27.9771 30.6519 27.6401 31.031 27.1768C31.41 26.7135 31.7891 26.2502 32.1682 25.7869C32.5894 25.2815 32.9684 24.8182 33.3054 24.397C33.6423 23.9758 33.8529 23.7021 33.9371 23.5757C34.2741 23.1124 34.6742 22.5438 35.1375 21.8699C35.6008 21.196 35.9167 20.5432 36.0852 19.9114C36.0431 19.9114 35.9588 19.9114 35.8325 19.9114C35.7061 19.8693 35.6219 19.8482 35.5798 19.8482C34.8216 19.8482 34.0003 20.101 33.1158 20.6064C32.2735 21.1118 31.5575 21.5751 30.9678 21.9963H30.7151C30.1676 22.3753 29.6621 22.7544 29.1988 23.1335C28.7776 23.4704 28.3354 23.8074 27.8721 24.1443C27.4088 24.4813 27.0297 24.755 26.7349 24.9656C26.2716 25.3026 25.8925 25.5132 25.5977 25.5974C25.3029 25.6816 24.7764 25.7238 24.0183 25.7238C23.5129 25.7238 23.1127 25.5974 22.8179 25.3447C22.5231 25.092 22.2914 24.7761 22.123 24.397C21.9545 24.018 21.8281 23.6178 21.7439 23.1967C21.7018 22.7334 21.6807 22.3122 21.6807 21.9331C21.6807 21.1329 21.7439 20.3326 21.8702 19.5324C21.9966 18.7321 22.0177 17.9529 21.9334 17.1948L23.5129 7.33911C23.8077 6.79157 23.9762 6.26509 24.0183 5.75967C24.1025 5.25425 24.1868 4.81201 24.271 4.43294C24.3973 4.01176 24.6079 3.69587 24.9028 3.48528C25.2397 3.23257 25.8083 3.10622 26.6086 3.10622C27.2403 3.10622 27.7036 3.23257 27.9985 3.48528C28.3354 3.73799 28.7145 4.11705 29.1357 4.62247H29.5147C30.315 4.62247 31.0942 4.51718 31.8523 4.30659C32.6525 4.096 33.4317 4.03282 34.1899 4.11705L42.7188 2.53762C42.7609 2.4955 42.8873 2.47444 43.0979 2.47444C43.3506 2.47444 43.5191 2.47444 43.6033 2.47444C44.3193 2.47444 44.8879 2.66397 45.3091 3.04304C45.7724 3.4221 46.004 4.01176 46.004 4.81201C46.004 5.90708 45.4565 6.55992 44.3614 6.77051L36.6538 8.34995H36.0852C34.7374 8.56054 33.4528 8.75007 32.2314 8.91854C31.052 9.08702 29.8517 9.36079 28.6302 9.73985C28.546 9.78197 28.4407 9.82409 28.3143 9.8662C28.188 9.90832 28.1248 9.95044 28.1248 9.99256L26.7349 18.0161V19.0269C28.2512 18.0582 29.7885 17.258 31.3469 16.6262C32.9052 15.9523 34.611 15.5101 36.4642 15.2995C36.9697 15.2995 37.4961 15.3626 38.0437 15.489C38.6333 15.5732 39.1809 15.7417 39.6863 15.9944C40.1917 16.2471 40.6129 16.5841 40.9498 17.0053C41.2868 17.3843 41.4553 17.8897 41.4553 18.5215C41.4553 19.3639 41.3078 20.1852 41.013 20.9854C40.7603 21.7857 40.4023 22.5859 39.939 23.3862C39.5178 24.1443 39.0335 24.8814 38.4859 25.5974C37.9384 26.3134 37.4119 26.9873 36.9065 27.6191C36.6959 27.8297 36.3589 28.2087 35.8956 28.7563C35.4323 29.2617 34.9269 29.8092 34.3794 30.3989C33.8318 30.9885 33.3054 31.5571 32.7999 32.1047C32.3366 32.6522 31.9997 33.0313 31.7891 33.2419C31.5785 33.3682 31.2416 33.5367 30.7783 33.7473C30.3571 33.9158 29.9991 34 29.7043 34C29.1146 34 28.5881 33.7683 28.1248 33.305C27.7036 32.8417 27.493 32.3363 27.493 31.7888Z" fill="#FFC283"/>
</svg>
