<svg width="1223" height="251" viewBox="0 0 1223 251" fill="none" xmlns="http://www.w3.org/2000/svg">
<mask id="mask0_3_164" style="mask-type:alpha" maskUnits="userSpaceOnUse" x="0" y="0" width="1223" height="251">
<rect y="0.787109" width="1223" height="250" rx="15" fill="#FFE7CD"/>
</mask>
<g mask="url(#mask0_3_164)">
<g opacity="0.1">
<path d="M95.6313 -20.2129C96.0865 -18.4084 96.6332 -16.6068 97.2692 -14.8116C104.689 6.13268 124.342 26.3513 153.376 40.1308C211.376 67.6572 306.549 69.3044 414.104 -0.45462C424.359 -7.10544 434.653 -13.7025 444.956 -20.2129H450.653C439.041 -12.9022 427.43 -5.47297 415.864 2.0285C307.565 72.2695 211.187 70.9167 151.983 42.8183C122.415 28.7853 102.052 8.03522 94.2992 -13.8486C93.5503 -15.9626 92.9197 -18.0857 92.4101 -20.2129H95.6313Z" fill="#4DA6FF"/>
<path d="M116.55 337.787C113.53 322.256 108.178 306.035 100.673 289.381C80.8513 245.394 46.0838 198.54 0 153.639V149.367C47.4132 195.137 83.229 243.093 103.553 288.193C111.216 305.2 116.687 321.823 119.739 337.787H116.55Z" fill="#4DA6FF"/>
<path d="M525.958 337.787C515.699 260.759 473.926 201.641 416.441 163.457C349.917 119.268 262.294 103.084 178.018 119.756C156.92 123.93 143.164 129.337 135.281 135.789C131.366 138.993 128.933 142.429 127.732 146.081C126.531 149.735 126.527 153.718 127.66 158.073C129.942 166.848 136.79 176.954 147.293 188.392C157.766 199.797 171.727 212.376 188.014 226.099C200.866 236.928 215.157 248.46 230.29 260.671C259.152 283.961 291.077 309.723 321.916 337.787H317.362C287.422 310.709 256.526 285.775 228.436 263.105C213.253 250.852 198.89 239.26 185.942 228.35C169.628 214.605 155.546 201.925 144.937 190.372C134.359 178.851 127.087 168.297 124.617 158.798C123.373 154.016 123.334 149.459 124.741 145.181C126.148 140.901 128.964 137.012 133.242 133.51C141.745 126.55 156.147 121.019 177.383 116.818C262.447 99.9901 350.956 116.306 418.23 160.992C476.526 199.715 518.833 259.718 529.119 337.787H525.958Z" fill="#4DA6FF"/>
<path d="M1016.51 337.787C1020.53 335.203 1024.77 332.504 1029.22 329.675C1033.42 327.003 1037.8 324.216 1042.35 321.299C1065 306.771 1091.89 288.957 1121.14 266.125C1150.26 243.394 1164.13 221.096 1167.59 201.359C1171.04 181.66 1164.16 164.293 1151.29 151.254C1125.46 125.086 1075.59 116.459 1037.31 142.017C997.92 168.32 932.607 175.768 882.466 149.793C880.484 148.767 878.527 147.688 876.596 146.557C849.827 221.759 803.59 287.905 753.51 337.787H749.151C799.963 287.746 846.949 220.939 873.867 144.912C852.519 131.67 834.637 111.727 823.786 83.8651C813.281 56.8921 809.389 22.5621 815.234 -20.2129H818.397C812.525 22.3737 816.405 56.3213 826.725 82.8177C837.22 109.765 854.399 129.072 874.897 141.972C892.468 91.2099 901.056 36.4065 895.871 -20.2129H899.022C904.226 37.0332 895.461 92.4031 877.623 143.638C879.704 144.874 881.817 146.046 883.959 147.155C932.991 172.555 997.034 165.253 1035.52 139.557C1075.12 113.115 1126.71 121.988 1153.57 149.195C1167.04 162.843 1174.31 181.133 1170.68 201.855C1167.06 222.54 1152.61 245.43 1123.12 268.449C1093.76 291.367 1066.78 309.241 1044.1 323.791C1039.5 326.736 1035.09 329.543 1030.88 332.225C1027.87 334.14 1024.95 335.993 1022.15 337.787H1016.51Z" fill="#4DA6FF"/>
<path d="M1030.05 -20.2129C1045.16 -12.7663 1058.04 -8.32847 1069.24 -5.61249C1083.99 -2.03307 1095.77 -1.43541 1106.08 -0.912811L1106.08 -0.912754C1109.68 -0.730373 1113.09 -0.557131 1116.39 -0.269455C1122.74 0.283981 1128.63 1.26904 1134.37 3.63071C1140.12 5.99814 1145.63 9.7137 1151.28 15.6264C1162.52 27.3934 1174.4 47.9567 1189.96 84.2175C1200.83 109.558 1212.11 130.448 1223 148.16V154.017C1211.21 135.274 1198.87 112.9 1187.05 85.3564C1171.51 49.1171 1159.8 28.993 1148.97 17.6505C1143.57 12.0085 1138.42 8.56393 1133.13 6.38641C1127.83 4.20314 1122.3 3.25848 1116.11 2.71815C1112.97 2.44478 1109.66 2.27696 1106.13 2.09816C1095.77 1.5735 1083.54 0.954224 1068.47 -2.70457C1055.73 -5.79488 1040.94 -11.0473 1023.35 -20.2129H1030.05Z" fill="#4DA6FF"/>
</g>
</g>
</svg>
