<svg width="26" height="26" viewBox="0 0 26 26" fill="none" xmlns="http://www.w3.org/2000/svg">
<path d="M1.32092 24.6942L2.72617 19.5696L2.82879 19.1953L2.63462 18.8594C1.58734 17.0472 1.0361 14.9913 1.03687 12.8833M1.32092 24.6942L13.0125 0.928571C6.41122 0.928783 1.03956 6.29357 1.03687 12.8833M1.32092 24.6942L6.60565 23.3102L6.96177 23.217L7.28505 23.393C9.03318 24.3452 11.0024 24.8475 13.0073 24.8483C13.0074 24.8483 13.0076 24.8483 13.0077 24.8483L1.32092 24.6942ZM1.03687 12.8833L0.108296 12.8829L1.03687 12.8833ZM13.0088 24.5296H13.0083C10.9182 24.5285 8.86719 23.9683 7.07681 22.9073L13.0088 24.5296ZM13.0088 24.5296H13.0129C19.4361 24.5296 24.6642 19.311 24.6669 12.8929V12.8928C24.6681 9.78485 23.4556 6.85782 21.2563 4.6597L21.2563 4.65967C19.0569 2.4617 16.1282 1.2488 13.0173 1.24745H13.0169C6.58929 1.24745 1.36099 6.4651 1.3585 12.8834M13.0088 24.5296L7.01823 22.8726M7.01823 22.8726L7.07614 22.9069L7.01823 22.8726ZM7.01823 22.8726L3.33345 23.8374L1.77725 24.2448L2.20276 22.6935L3.17838 19.1365L3.14113 19.0773C3.14112 19.0773 3.14111 19.0773 3.1411 19.0773C1.97346 17.2232 1.3576 15.0811 1.3585 12.8834M1.3585 12.8834L2.28708 12.8838L1.3585 12.8834ZM21.4846 4.4351C19.2226 2.17422 16.2189 0.930019 13.0129 0.928571L21.4846 4.4351ZM21.4846 4.4351C23.7467 6.69621 24.9899 9.69685 24.9888 12.8929L21.4846 4.4351ZM24.9888 12.893C24.9859 19.4826 19.6131 24.8483 13.0129 24.8483L24.9888 12.893Z" fill="#FFC283" stroke="#FFC283" stroke-width="1.85714"/>
<path d="M15.6528 16.5711C15.7956 16.4082 16.247 15.8814 16.5526 15.4815C16.6053 15.5052 16.6659 15.5331 16.7333 15.5643C16.9226 15.6522 17.154 15.7625 17.389 15.8759C17.8591 16.1025 18.3321 16.3357 18.4891 16.4141C18.5374 16.4382 18.5843 16.461 18.6269 16.4817C18.605 16.6684 18.5546 16.9115 18.4595 17.1774L18.4594 17.1776C18.4533 17.1947 18.4166 17.2699 18.2991 17.3902C18.1878 17.5043 18.0371 17.6247 17.8628 17.7373C17.6897 17.8492 17.5109 17.9419 17.3539 18.0069C17.276 18.0392 17.2092 18.0623 17.1562 18.0773C17.13 18.0847 17.1094 18.0896 17.0943 18.0926C17.0788 18.0957 17.0722 18.0963 17.0736 18.0961C16.9909 18.1036 16.9196 18.1119 16.8539 18.1194C16.6296 18.1453 16.4709 18.1636 16.1459 18.1201C15.7004 18.0604 14.9607 17.8758 13.6287 17.3512L13.6287 17.3512C10.9159 16.2828 9.09821 13.6327 8.62284 12.9397C8.57734 12.8733 8.54414 12.8249 8.52363 12.7975C8.52354 12.7974 8.52346 12.7973 8.52337 12.7972L8.5207 12.7936C8.44474 12.6923 8.15805 12.31 7.88948 11.7819C7.61063 11.2336 7.39244 10.607 7.39244 10.024C7.39244 8.91044 7.90621 8.36224 8.21224 8.03571C8.23502 8.01141 8.25665 7.98833 8.27683 7.96633L8.27705 7.9661C8.32488 7.91394 8.36767 7.89034 8.39764 7.87834C8.4274 7.86644 8.44875 7.86449 8.45217 7.86418C8.45274 7.86413 8.45281 7.86412 8.45237 7.86412L8.47219 7.86412C8.64791 7.86412 8.80483 7.86411 8.94331 7.86791L15.6528 16.5711ZM15.6528 16.5711C15.47 16.78 15.1839 17.0118 14.7677 17.0624C14.3889 17.1085 14.063 16.9817 13.8406 16.8705L13.8402 16.8703C13.8076 16.854 13.7557 16.8318 13.6865 16.8022C13.2651 16.622 12.2069 16.1695 11.0455 15.1352C9.97692 14.1838 9.27089 13.029 9.06719 12.68L15.6528 16.5711ZM9.26588 10.9979C9.27804 10.9837 9.2855 10.9749 9.2939 10.9647L9.26588 10.9979ZM9.26588 10.9979C9.26085 11.0038 9.25502 11.0107 9.24798 11.0189M9.26588 10.9979L9.24798 11.0189M9.24798 11.0189C9.22781 11.0427 9.19858 11.0773 9.16819 11.1164M9.24798 11.0189L9.16819 11.1164M9.16819 11.1164C9.10894 11.1925 9.01952 11.3175 8.95305 11.4836M9.16819 11.1164L8.95305 11.4836M8.95305 11.4836C8.78892 11.8938 8.85354 12.314 9.06715 12.68L8.95305 11.4836ZM18.904 15.5833C18.5816 15.4224 16.9964 14.6431 16.7007 14.5358C16.4051 14.4283 16.1902 14.3748 15.9753 14.6972C15.7601 15.0192 15.1427 15.7443 14.9546 15.959C14.7664 16.1742 14.5782 16.2012 14.2558 16.04L18.904 15.5833ZM8.94921 7.88081C9.08403 8.18056 9.30517 8.7199 9.50993 9.22309C9.53838 9.293 9.56715 9.36385 9.59572 9.43419C9.71289 9.72272 9.8265 10.0025 9.8992 10.1716C9.85133 10.2412 9.79226 10.323 9.72628 10.4117C9.58016 10.608 9.41495 10.8177 9.29391 10.9647L8.94921 7.88081ZM9.96523 10.3179C9.96521 10.3179 9.96497 10.3174 9.96454 10.3162L9.96523 10.3179Z" fill="#FFC283" stroke="#FFC283" stroke-width="1.85714"/>
</svg>
