<svg width="25" height="25" viewBox="0 0 25 25" fill="none" xmlns="http://www.w3.org/2000/svg">
<path d="M23.1116 19.5099C23.1116 19.9016 23.0246 20.3042 22.8396 20.6958C22.6547 21.0875 22.4153 21.4574 22.0998 21.8056C21.5667 22.3931 20.9791 22.8174 20.3155 23.0894C19.6627 23.3614 18.9555 23.5029 18.1939 23.5029C17.0841 23.5029 15.8982 23.2418 14.647 22.7086C13.3958 22.1755 12.1446 21.4574 10.9043 20.5544C9.65309 19.6405 8.46717 18.6286 7.33566 17.508C6.21502 16.3765 5.20318 15.1906 4.30014 13.9503C3.40798 12.7099 2.68991 11.4696 2.16767 10.2402C1.64543 8.99987 1.38431 7.81395 1.38431 6.68243C1.38431 5.94259 1.51487 5.23539 1.77599 4.58259C2.03711 3.91892 2.45055 3.30964 3.02718 2.76564C3.7235 2.0802 4.4851 1.74292 5.29022 1.74292C5.59486 1.74292 5.8995 1.8082 6.1715 1.93876C6.45438 2.06932 6.70462 2.26516 6.90046 2.54804L9.42461 6.10579C9.62045 6.37779 9.76189 6.62803 9.85981 6.86739C9.95773 7.09587 10.0121 7.32435 10.0121 7.53107C10.0121 7.79219 9.93597 8.05331 9.78365 8.30355C9.64221 8.55379 9.43549 8.81491 9.17437 9.07602L8.34749 9.93554C8.22781 10.0552 8.17341 10.1967 8.17341 10.3707C8.17341 10.4578 8.18429 10.5339 8.20605 10.621C8.23869 10.708 8.27133 10.7733 8.29309 10.8386C8.48893 11.1976 8.82621 11.6655 9.30493 12.2312C9.79453 12.797 10.3168 13.3736 10.8825 13.9503C11.47 14.5269 12.0358 15.06 12.6124 15.5496C13.1782 16.0283 13.646 16.3547 14.016 16.5506C14.0704 16.5723 14.1356 16.605 14.2118 16.6376C14.2988 16.6702 14.3859 16.6811 14.4838 16.6811C14.6688 16.6811 14.8102 16.6159 14.9299 16.4962L15.7568 15.6802C16.0288 15.4082 16.2899 15.2015 16.5401 15.0709C16.7904 14.9186 17.0406 14.8424 17.3126 14.8424C17.5193 14.8424 17.7369 14.8859 17.9763 14.9839C18.2156 15.0818 18.4659 15.2232 18.7379 15.4082L22.3391 17.965C22.622 18.1608 22.8179 18.3893 22.9375 18.6613C23.0463 18.9333 23.1116 19.2053 23.1116 19.5099Z" stroke="#FFC283" stroke-width="1.79169" stroke-miterlimit="10"/>
<path d="M19.3357 9.35938C19.3357 8.70659 18.8243 7.70563 18.0627 6.88963C17.3664 6.13891 16.4416 5.55139 15.5277 5.55139" stroke="#FFC283" stroke-width="1.79169" stroke-linecap="round" stroke-linejoin="round"/>
<path d="M23.1436 9.35891C23.1436 5.14835 19.7382 1.74292 15.5277 1.74292" stroke="#FFC283" stroke-width="1.79169" stroke-linecap="round" stroke-linejoin="round"/>
</svg>
