<svg width="117" height="93" viewBox="0 0 117 93" fill="none" xmlns="http://www.w3.org/2000/svg">
<path d="M16.0247 56.1451C17.8048 52.8211 17.2599 48.7342 14.6624 46.0096C10.7934 41.9408 8.72274 37.0547 8.72274 31.9688C8.72274 20.4346 20.3114 8.71875 37.7852 8.71875C55.2591 8.71875 66.8477 20.4346 66.8477 31.9688C66.8477 43.5029 55.2591 55.2188 37.7852 55.2188C35.4058 55.2188 33.0989 54.9826 30.9192 54.5648C29.0302 54.2016 27.0684 54.4559 25.3429 55.3277C24.5981 55.7092 23.8352 56.0725 23.0542 56.4176C20.1479 57.7254 17.0782 58.8697 13.9903 59.6871C14.4989 58.8516 14.9712 58.0342 15.4253 57.2168C15.6251 56.8717 15.8249 56.5084 16.0065 56.1451H16.0247ZM37.7852 63.9375C58.6558 63.9375 75.5665 49.6242 75.5665 31.9688C75.5665 14.3133 58.6558 0 37.7852 0C16.9147 0 0.00399391 14.3133 0.00399391 31.9688C0.00399391 39.5613 3.12821 46.5182 8.3413 52.0037C8.17782 52.3125 7.99618 52.6395 7.8327 52.9301C5.96181 56.2723 3.78212 59.56 1.18466 62.3936C-0.0141701 63.665 -0.322959 65.5178 0.349111 67.098C1.05751 68.7146 2.61962 69.75 4.36337 69.75C12.1739 69.75 20.0753 67.3342 26.6507 64.3553C27.5225 63.9557 28.3944 63.5379 29.23 63.1201C31.9727 63.665 34.8427 63.9375 37.7852 63.9375ZM78.4727 87.1875C81.4153 87.1875 84.2671 86.8969 87.028 86.3701C87.8636 86.7879 88.7354 87.2057 89.6073 87.6053C96.1827 90.5842 104.084 93 111.895 93C113.638 93 115.2 91.9646 115.891 90.3662C116.581 88.7678 116.254 86.915 115.055 85.6617C112.476 82.8281 110.296 79.5404 108.407 76.1982C108.244 75.8895 108.062 75.5807 107.899 75.2719C113.13 69.7682 116.254 62.8113 116.254 55.2188C116.254 38.0719 100.288 24.0674 80.2528 23.2863C80.9975 26.0473 81.379 28.9535 81.379 31.9688V32.0777C97.2181 33.2947 107.535 44.3385 107.535 55.2188C107.535 60.3047 105.465 65.1908 101.596 69.2414C98.9981 71.966 98.4532 76.0711 100.233 79.377C100.433 79.7402 100.633 80.1035 100.815 80.4486C101.269 81.266 101.759 82.0834 102.25 82.9189C99.1616 82.1016 96.0919 80.9754 93.1856 79.6494C92.4046 79.3043 91.6417 78.941 90.897 78.5596C89.1714 77.6877 87.2097 77.4334 85.3206 77.7967C83.1227 78.2326 80.8159 78.4506 78.4546 78.4506C67.2474 78.4506 58.4741 73.6371 53.6061 67.1344C50.6999 68.1152 47.6483 68.8418 44.5241 69.2777C50.6817 79.8855 63.5782 87.1875 78.4727 87.1875Z" fill="#FFC283"/>
<path d="M78.4682 87.1902C81.4107 87.1902 84.2625 86.8996 87.0234 86.3728C87.859 86.7906 88.7309 87.2084 89.6027 87.608C96.1781 90.5869 104.079 93.0027 111.89 93.0027C113.634 93.0027 115.196 91.9674 115.886 90.3689C116.576 88.7705 116.249 86.9178 115.051 85.6645C112.471 82.8309 110.292 79.5432 108.403 76.201C108.239 75.8922 108.057 75.5834 107.894 75.2746C113.125 69.7709 116.249 62.8141 116.249 55.2215C116.249 38.0746 100.283 24.0701 80.2482 23.2891C80.993 26.05 81.3744 28.9562 81.3744 31.9715V32.0805C97.2135 33.2975 107.531 44.3412 107.531 55.2215C107.531 60.3074 105.46 65.1936 101.591 69.2441C98.9936 71.9688 98.4486 76.0738 100.229 79.3797C100.429 79.743 100.628 80.1062 100.81 80.4514C101.264 81.2687 101.755 82.0861 102.245 82.9217C99.157 82.1043 96.0873 80.9781 93.1811 79.6521C92.4 79.307 91.6371 78.9438 90.8924 78.5623C89.1668 77.6904 87.2051 77.4361 85.316 77.7994C83.1182 78.2354 80.8113 78.4533 78.45 78.4533C67.2428 78.4533 58.4695 73.6398 53.6016 67.1371C50.6953 68.118 47.6437 68.8445 44.5195 69.2805C50.6771 79.8883 63.5736 87.1902 78.4682 87.1902Z" fill="#FFA344"/>
</svg>
