<svg width="91" height="91" viewBox="0 0 91 91" fill="none" xmlns="http://www.w3.org/2000/svg">
<path d="M76.7615 8.52906H36.9593C33.8142 8.52906 31.2732 11.07 31.2732 14.2151V17.0581H22.7442V14.2151C22.7442 6.36126 29.1054 0 36.9593 0H76.7615C84.6154 0 90.9766 6.36126 90.9766 14.2151V54.0174C90.9766 61.8712 84.6154 68.2325 76.7615 68.2325H73.9185V59.7034H76.7615C79.9066 59.7034 82.4476 57.1625 82.4476 54.0174V14.2151C82.4476 11.07 79.9066 8.52906 76.7615 8.52906ZM8.52906 79.6046C8.52906 81.1682 9.80842 82.4476 11.3721 82.4476H56.8604C58.4241 82.4476 59.7034 81.1682 59.7034 79.6046V45.4883H8.52906V79.6046ZM11.3721 22.7442H56.8604C63.1328 22.7442 68.2325 27.8438 68.2325 34.1162V79.6046C68.2325 85.877 63.1328 90.9766 56.8604 90.9766H11.3721C5.09967 90.9766 0 85.877 0 79.6046V34.1162C0 27.8438 5.09967 22.7442 11.3721 22.7442Z" fill="#FFC283"/>
<path d="M8.52906 79.6026C8.52906 81.1663 9.80842 82.4456 11.3721 82.4456H56.8604C58.4241 82.4456 59.7034 81.1663 59.7034 79.6026V45.4863H8.52906V79.6026ZM11.3721 22.7422H56.8604C63.1328 22.7422 68.2325 27.8419 68.2325 34.1143V79.6026C68.2325 85.875 63.1328 90.9747 56.8604 90.9747H11.3721C5.09967 90.9747 0 85.875 0 79.6026V34.1143C0 27.8419 5.09967 22.7422 11.3721 22.7422Z" fill="#FFA344"/>
<path d="M37.7052 49.5734C36.7102 49.2866 35.6741 49.8661 35.3873 50.8611L27.8951 77.084C27.6083 78.0791 28.1877 79.1151 29.1828 79.402C30.1779 79.6888 31.2139 79.1093 31.5007 78.1142L38.993 51.8913C39.2798 50.8963 38.7003 49.8602 37.7052 49.5734ZM42.423 56.6033C41.6914 57.3349 41.6914 58.5231 42.423 59.2548L47.65 64.4877L42.4172 69.7206C41.6855 70.4522 41.6855 71.6405 42.4172 72.3721C43.1488 73.1038 44.3371 73.1038 45.0687 72.3721L51.6245 65.8164C52.3561 65.0847 52.3561 63.8965 51.6245 63.1648L45.0687 56.6091C44.3371 55.8774 43.1488 55.8774 42.4172 56.6091L42.423 56.6033ZM24.4709 56.6033C23.7392 55.8716 22.551 55.8716 21.8193 56.6033L15.2636 63.159C14.5319 63.8906 14.5319 65.0789 15.2636 65.8105L21.8193 72.3663C22.551 73.0979 23.7392 73.0979 24.4709 72.3663C25.2025 71.6346 25.2025 70.4464 24.4709 69.7147L19.238 64.4877L24.4709 59.2548C25.2025 58.5231 25.2025 57.3349 24.4709 56.6033Z" fill="#FFC283"/>
</svg>
