<svg width="79" height="79" viewBox="0 0 79 79" fill="none" xmlns="http://www.w3.org/2000/svg">
<path d="M11.3638 0C5.12777 0 0 5.15846 0 11.3946V67.3604C0 73.5965 5.12777 78.7551 11.3638 78.7551H67.3604C73.5965 78.7551 78.7243 73.5965 78.7243 67.3604V11.3946C78.7243 5.15846 73.5965 0 67.3604 0H11.3638Z" fill="#FFC283"/>
<path d="M31.5028 2.85993e-05C30.9832 -0.00195204 30.4685 0.0989622 29.9881 0.296867C29.5077 0.494772 29.0713 0.785787 28.7039 1.15316C28.3365 1.52053 28.0455 1.95697 27.8476 2.43734C27.6497 2.91771 27.5488 3.43253 27.5508 3.95207V35.4525C27.5571 36.2274 27.792 36.9831 28.226 37.6251C28.6599 38.2671 29.2737 38.7668 29.9903 39.0615C30.707 39.3562 31.4947 39.4328 32.2548 39.2819C33.0148 39.1309 33.7134 38.759 34.263 38.2127L39.3837 33.1305L44.4659 38.2127C45.0155 38.759 45.7141 39.1309 46.4741 39.2819C47.2342 39.4328 48.0219 39.3562 48.7385 39.0615C49.4552 38.7668 50.069 38.2671 50.5029 37.6251C50.9369 36.9831 51.1718 36.2274 51.1781 35.4525V3.95207C51.1821 2.90804 50.7712 1.90518 50.0359 1.16406C49.3005 0.422934 48.3009 0.00420351 47.2569 2.85993e-05H31.5028Z" fill="#FFC283"/>
<path d="M31.5028 2.85993e-05C30.9832 -0.00195204 30.4685 0.0989622 29.9881 0.296867C29.5077 0.494772 29.0713 0.785787 28.7039 1.15316C28.3365 1.52053 28.0455 1.95697 27.8476 2.43734C27.6497 2.91771 27.5488 3.43253 27.5508 3.95207V35.4525C27.5571 36.2274 27.792 36.9831 28.226 37.6251C28.6599 38.2671 29.2737 38.7668 29.9903 39.0615C30.707 39.3562 31.4947 39.4328 32.2548 39.2819C33.0148 39.1309 33.7134 38.759 34.263 38.2127L39.3837 33.1305L44.4659 38.2127C45.0155 38.759 45.7141 39.1309 46.4741 39.2819C47.2342 39.4328 48.0219 39.3562 48.7385 39.0615C49.4552 38.7668 50.069 38.2671 50.5029 37.6251C50.9369 36.9831 51.1718 36.2274 51.1781 35.4525V3.95207C51.1821 2.90804 50.7712 1.90518 50.0359 1.16406C49.3005 0.422934 48.3009 0.00420351 47.2569 2.85993e-05H31.5028Z" fill="#FFA344"/>
</svg>
