<svg width="119" height="95" viewBox="0 0 119 95" fill="none" xmlns="http://www.w3.org/2000/svg">
<g clip-path="url(#clip0_709_31842)">
<path d="M60.0059 15.8086L42.0449 30.3555C39.0576 32.7676 38.4824 37.1094 40.7461 40.208C43.1397 43.5107 47.7969 44.1602 51.0068 41.6553L69.4316 27.3311C70.7305 26.3291 72.5859 26.5518 73.6065 27.8506C74.627 29.1494 74.3857 31.0049 73.0869 32.0254L69.209 35.0313L95 58.7812V23.75H94.8701L94.1465 23.2861L80.6758 14.6582C77.8369 12.8398 74.5156 11.875 71.1387 11.875C67.0938 11.875 63.1602 13.2666 60.0059 15.8086ZM64.2363 38.8906L54.6436 46.3496C48.7988 50.9141 40.3193 49.7266 35.9404 43.7148C31.8213 38.0557 32.8604 30.1514 38.2969 25.7539L53.7344 13.2666C51.582 12.3574 49.2627 11.8936 46.9063 11.8936C43.418 11.875 40.0225 12.9141 37.1094 14.8438L23.75 23.75V65.3125H28.9824L45.9414 80.7871C49.5781 84.1084 55.2002 83.8486 58.5215 80.2119C59.542 79.0801 60.2285 77.7627 60.5811 76.3897L63.7354 79.2842C67.3535 82.6055 72.9941 82.3643 76.3154 78.7461C77.1504 77.8369 77.7627 76.7793 78.1524 75.6846C81.752 78.0967 86.6504 77.5957 89.6748 74.293C92.9961 70.6748 92.7549 65.0342 89.1367 61.7129L64.2363 38.8906ZM2.96875 23.75C1.33594 23.75 0 25.0859 0 26.7188V65.3125C0 68.5967 2.65332 71.25 5.9375 71.25H11.875C15.1592 71.25 17.8125 68.5967 17.8125 65.3125V23.75H2.96875ZM8.90625 59.375C9.69361 59.375 10.4487 59.6878 11.0055 60.2445C11.5622 60.8013 11.875 61.5564 11.875 62.3438C11.875 63.1311 11.5622 63.8862 11.0055 64.443C10.4487 64.9997 9.69361 65.3125 8.90625 65.3125C8.11889 65.3125 7.36378 64.9997 6.80703 64.443C6.25028 63.8862 5.9375 63.1311 5.9375 62.3438C5.9375 61.5564 6.25028 60.8013 6.80703 60.2445C7.36378 59.6878 8.11889 59.375 8.90625 59.375ZM100.938 23.75V65.3125C100.938 68.5967 103.591 71.25 106.875 71.25H112.813C116.097 71.25 118.75 68.5967 118.75 65.3125V26.7188C118.75 25.0859 117.414 23.75 115.781 23.75H100.938ZM106.875 62.3438C106.875 61.5564 107.188 60.8013 107.745 60.2445C108.301 59.6878 109.056 59.375 109.844 59.375C110.631 59.375 111.386 59.6878 111.943 60.2445C112.5 60.8013 112.813 61.5564 112.813 62.3438C112.813 63.1311 112.5 63.8862 111.943 64.443C111.386 64.9997 110.631 65.3125 109.844 65.3125C109.056 65.3125 108.301 64.9997 107.745 64.443C107.188 63.8862 106.875 63.1311 106.875 62.3438Z" fill="#FFC283"/>
<path d="M60.0091 15.8086L42.0481 30.3555C39.0608 32.7676 38.4856 37.1094 40.7493 40.208C43.1428 43.5107 47.8001 44.1602 51.01 41.6553L69.4348 27.3311C70.7337 26.3291 72.5891 26.5518 73.6096 27.8506C74.6302 29.1494 74.3889 31.0049 73.0901 32.0254L69.2122 35.0313L95.0032 58.7813V23.75H94.8733L94.1497 23.2861L80.679 14.6582C77.8401 12.8398 74.5188 11.875 71.1419 11.875C67.0969 11.875 63.1634 13.2666 60.0091 15.8086ZM100.941 23.75V65.3125C100.941 68.5967 103.594 71.25 106.878 71.25H112.816C116.1 71.25 118.753 68.5967 118.753 65.3125V26.7188C118.753 25.0859 117.417 23.75 115.784 23.75H100.941ZM106.878 62.3438C106.878 61.5564 107.191 60.8013 107.748 60.2445C108.304 59.6878 109.06 59.375 109.847 59.375C110.634 59.375 111.389 59.6878 111.946 60.2445C112.503 60.8013 112.816 61.5564 112.816 62.3438C112.816 63.1311 112.503 63.8862 111.946 64.443C111.389 64.9997 110.634 65.3125 109.847 65.3125C109.06 65.3125 108.304 64.9997 107.748 64.443C107.191 63.8862 106.878 63.1311 106.878 62.3438Z" fill="#FFA344"/>
</g>
<defs>
<clipPath id="clip0_709_31842">
<rect width="118.75" height="95" fill="white"/>
</clipPath>
</defs>
</svg>
